<svg width="10" height="10" viewBox="0 0 10 10" fill="none" xmlns="http://www.w3.org/2000/svg">
<path d="M0.937502 5C0.937502 3.92256 1.36551 2.88925 2.12738 2.12738C2.88925 1.36551 3.92256 0.937502 5 0.937502C6.07744 0.937502 7.11076 1.36551 7.87262 2.12738C8.63449 2.88925 9.0625 3.92256 9.0625 5C9.0625 5.12432 9.11189 5.24355 9.1998 5.33146C9.2877 5.41937 9.40693 5.46875 9.53125 5.46875C9.65557 5.46875 9.7748 5.41937 9.86271 5.33146C9.95062 5.24355 10 5.12432 10 5C10 4.0111 9.70676 3.0444 9.15735 2.22215C8.60794 1.39991 7.82705 0.759043 6.91342 0.380605C5.99979 0.00216641 4.99446 -0.0968503 4.02455 0.0960758C3.05465 0.289002 2.16373 0.765206 1.46447 1.46447C0.765206 2.16373 0.289002 3.05465 0.0960758 4.02455C-0.0968503 4.99446 0.00216641 5.99979 0.380605 6.91342C0.759043 7.82705 1.39991 8.60794 2.22215 9.15735C3.0444 9.70676 4.0111 10 5 10C5.12432 10 5.24355 9.95062 5.33146 9.86271C5.41937 9.7748 5.46875 9.65557 5.46875 9.53125C5.46875 9.40693 5.41937 9.2877 5.33146 9.1998C5.24355 9.11189 5.12432 9.0625 5 9.0625C3.92256 9.0625 2.88925 8.63449 2.12738 7.87262C1.36551 7.11076 0.937502 6.07744 0.937502 5Z" fill="#0DFF67"/>
<path d="M5.42308 7.76683L7.23308 9.57683C7.25493 9.59874 7.2828 9.61366 7.31314 9.61971C7.34349 9.62577 7.37495 9.62267 7.40353 9.61082C7.43212 9.59897 7.45654 9.5789 7.47371 9.55316C7.49087 9.52741 7.50001 9.49715 7.49995 9.4662V8.12495H9.5312C9.65552 8.12495 9.77475 8.07557 9.86266 7.98766C9.95057 7.89975 9.99995 7.78052 9.99995 7.6562C9.99995 7.53188 9.95057 7.41265 9.86266 7.32475C9.77475 7.23684 9.65552 7.18745 9.5312 7.18745H7.49995V5.8462C7.50001 5.81526 7.49087 5.78499 7.47371 5.75925C7.45654 5.7335 7.43212 5.71343 7.40353 5.70158C7.37495 5.68973 7.34349 5.68664 7.31314 5.69269C7.2828 5.69874 7.25493 5.71367 7.23308 5.73558L5.42308 7.54558C5.40853 7.56009 5.39698 7.57733 5.3891 7.59632C5.38123 7.6153 5.37717 7.63565 5.37717 7.6562C5.37717 7.67675 5.38123 7.6971 5.3891 7.71609C5.39698 7.73507 5.40853 7.75231 5.42308 7.76683ZM7.04995 4.23745C7.09345 4.19395 7.12796 4.14231 7.1515 4.08547C7.17504 4.02864 7.18716 3.96772 7.18716 3.9062C7.18716 3.84468 7.17504 3.78377 7.1515 3.72693C7.12796 3.6701 7.09345 3.61845 7.04995 3.57495C7.00645 3.53145 6.95481 3.49695 6.89797 3.4734C6.84114 3.44986 6.78022 3.43774 6.7187 3.43774C6.65718 3.43774 6.59627 3.44986 6.53943 3.4734C6.4826 3.49695 6.43095 3.53145 6.38745 3.57495L4.5312 5.43058L3.61245 4.51245C3.56895 4.46895 3.51731 4.43445 3.46047 4.4109C3.40364 4.38736 3.34272 4.37524 3.2812 4.37524C3.21968 4.37524 3.15877 4.38736 3.10193 4.4109C3.0451 4.43445 2.99345 4.46895 2.94995 4.51245C2.90645 4.55595 2.87195 4.6076 2.8484 4.66443C2.82486 4.72127 2.81274 4.78218 2.81274 4.8437C2.81274 4.90522 2.82486 4.96614 2.8484 5.02297C2.87195 5.07981 2.90645 5.13145 2.94995 5.17495L4.19995 6.42495C4.28784 6.51273 4.40698 6.56204 4.5312 6.56204C4.65542 6.56204 4.77456 6.51273 4.86245 6.42495L7.04995 4.23745Z" fill="#0DFF67"/>
</svg>
