<svg width="20" height="20" viewBox="0 0 20 20" fill="none" xmlns="http://www.w3.org/2000/svg">
<path d="M6.79163 18.1251L5.58329 16.0834L3.29163 15.5834C3.08329 15.5418 2.91663 15.4343 2.79163 15.2609C2.66663 15.0876 2.61801 14.8965 2.64579 14.6876L2.87496 12.3334L1.31246 10.5418C1.17357 10.389 1.10413 10.2084 1.10413 10.0001C1.10413 9.79178 1.17357 9.61123 1.31246 9.45845L2.87496 7.66678L2.62496 4.95845L1.74996 4.08345C1.59718 3.93067 1.52079 3.73622 1.52079 3.50011C1.52079 3.264 1.59718 3.06956 1.74996 2.91678C1.90274 2.764 2.09718 2.68761 2.33329 2.68761C2.5694 2.68761 2.76385 2.764 2.91663 2.91678L17.0833 17.0834C17.2361 17.2362 17.3125 17.4307 17.3125 17.6668C17.3125 17.9029 17.2361 18.0973 17.0833 18.2501C16.9305 18.4029 16.7361 18.4793 16.5 18.4793C16.2638 18.4793 16.0694 18.4029 15.9166 18.2501L14.1666 16.5001L13.2083 18.1251C13.0972 18.3057 12.9444 18.4271 12.75 18.4893C12.5555 18.5515 12.3611 18.5412 12.1666 18.4584L9.99996 17.5418L7.83329 18.4584C7.63885 18.5418 7.4444 18.5521 7.24996 18.4893C7.05551 18.4265 6.90274 18.3051 6.79163 18.1251ZM17.125 12.3334L17.2708 13.8959C17.2986 14.0904 17.2222 14.2293 17.0416 14.3126C16.8611 14.3959 16.7013 14.3682 16.5625 14.2293L12.2083 9.87511L13.25 8.83345C13.4166 8.66678 13.4966 8.47234 13.49 8.25011C13.4833 8.02789 13.4033 7.83345 13.25 7.66678C13.0833 7.50011 12.8855 7.41345 12.6566 7.40678C12.4277 7.40011 12.2297 7.47984 12.0625 7.64595L11.0208 8.68761L6.29163 3.93761C6.15274 3.79872 6.07301 3.639 6.05246 3.45845C6.0319 3.27789 6.06996 3.10428 6.16663 2.93761L6.79163 1.87511C6.90274 1.69456 7.05551 1.57317 7.24996 1.51095C7.4444 1.44872 7.63885 1.459 7.83329 1.54178L9.99996 2.45845L12.1666 1.54178C12.3611 1.45845 12.5555 1.44789 12.75 1.51011C12.9444 1.57234 13.0972 1.694 13.2083 1.87511L14.4166 3.91678L16.7083 4.41678C16.9166 4.45845 17.0833 4.56622 17.2083 4.74011C17.3333 4.914 17.3819 5.10484 17.3541 5.31261L17.125 7.66678L18.6875 9.45845C18.8263 9.61123 18.8958 9.79178 18.8958 10.0001C18.8958 10.2084 18.8263 10.389 18.6875 10.5418L17.125 12.3334ZM6.74996 10.5834L8.54163 12.3751C8.70829 12.5418 8.90274 12.6251 9.12496 12.6251C9.34718 12.6251 9.54163 12.5418 9.70829 12.3751L9.87496 12.2084L8.81246 11.1459L6.91663 9.25011L6.83329 9.33345L6.74996 9.41678C6.58329 9.58345 6.49996 9.77789 6.49996 10.0001C6.49996 10.2223 6.58329 10.4168 6.74996 10.5834Z" fill="#E6E6E6"/>
</svg>
