<svg width="21" height="21" viewBox="0 0 21 21" fill="none" xmlns="http://www.w3.org/2000/svg">
<path d="M9.5813 11.1125L8.31255 9.86566C8.15213 9.70524 7.95176 9.62503 7.71142 9.62503C7.47109 9.62503 7.26313 9.71253 7.08755 9.88753C6.92713 10.048 6.84692 10.2521 6.84692 10.5C6.84692 10.748 6.92713 10.9521 7.08755 11.1125L8.9688 12.9938C9.1438 13.1688 9.34797 13.2563 9.5813 13.2563C9.81463 13.2563 10.0188 13.1688 10.1938 12.9938L13.9125 9.27503C14.0875 9.10003 14.1713 8.89587 14.1637 8.66253C14.1561 8.4292 14.0724 8.22503 13.9125 8.05003C13.7375 7.87503 13.5299 7.78403 13.2895 7.77703C13.0492 7.77003 12.8413 7.85374 12.6657 8.02816L9.5813 11.1125ZM7.1313 19.0313L5.86255 16.8875L3.4563 16.3625C3.23755 16.3188 3.06255 16.2059 2.9313 16.0239C2.80005 15.8419 2.74901 15.6412 2.77817 15.4219L3.0188 12.95L1.37817 11.0688C1.23234 10.9084 1.15942 10.7188 1.15942 10.5C1.15942 10.2813 1.23234 10.0917 1.37817 9.93128L3.0188 8.05003L2.77817 5.57816C2.74901 5.35941 2.80005 5.15874 2.9313 4.97616C3.06255 4.79358 3.23755 4.6807 3.4563 4.63753L5.86255 4.11253L7.1313 1.96878C7.24797 1.7792 7.40838 1.65145 7.61255 1.58553C7.81672 1.51962 8.02088 1.5307 8.22505 1.61878L10.5 2.58128L12.7751 1.61878C12.9792 1.53128 13.1834 1.5202 13.3876 1.58553C13.5917 1.65087 13.7521 1.77862 13.8688 1.96878L15.1375 4.11253L17.5438 4.63753C17.7625 4.68128 17.9375 4.79445 18.0688 4.97703C18.2 5.15962 18.2511 5.35999 18.2219 5.57816L17.9813 8.05003L19.6219 9.93128C19.7678 10.0917 19.8407 10.2813 19.8407 10.5C19.8407 10.7188 19.7678 10.9084 19.6219 11.0688L17.9813 12.95L18.2219 15.4219C18.2511 15.6407 18.2 15.8413 18.0688 16.0239C17.9375 16.2065 17.7625 16.3194 17.5438 16.3625L15.1375 16.8875L13.8688 19.0313C13.7521 19.2209 13.5917 19.3486 13.3876 19.4145C13.1834 19.4805 12.9792 19.4694 12.7751 19.3813L10.5 18.4188L8.22505 19.3813C8.02088 19.4688 7.81672 19.4799 7.61255 19.4145C7.40838 19.3492 7.24797 19.2215 7.1313 19.0313Z" fill="#0B6667"/>
</svg>
