<svg width="151" height="40" viewBox="0 0 151 40" fill="none" xmlns="http://www.w3.org/2000/svg">
<path d="M1.38432e-05 30.5455V1.57356e-05H6.45811V12.603H19.5682V1.57356e-05H26.0114V30.5455H19.5682V17.9276H6.45811V30.5455H1.38432e-05ZM35.1392 39.1364C34.3338 39.1364 33.5781 39.0718 32.8722 38.9425C32.1762 38.8232 31.5994 38.6691 31.1421 38.4801L32.5739 33.7372C33.3196 33.9659 33.9908 34.0902 34.5874 34.1101C35.1939 34.13 35.7159 33.9908 36.1534 33.6925C36.6009 33.3942 36.9638 32.8871 37.2422 32.1712L37.6151 31.2017L29.397 7.63638H36.0788L40.8217 24.4602H41.0604L45.848 7.63638H52.5746L43.6705 33.0213C43.2429 34.2543 42.6612 35.3281 41.9254 36.2429C41.1996 37.1676 40.2798 37.8786 39.1662 38.3757C38.0526 38.8828 36.7102 39.1364 35.1392 39.1364ZM55.826 39.1364V7.63638H62.0902V11.4844H62.3736C62.652 10.8679 63.0547 10.2415 63.5817 9.60513C64.1186 8.95882 64.8146 8.42189 65.6698 7.99434C66.5348 7.55684 67.6087 7.33809 68.8913 7.33809C70.5618 7.33809 72.103 7.77559 73.5149 8.65059C74.9269 9.51564 76.0554 10.8232 76.9006 12.5732C77.7458 14.3132 78.1683 16.4958 78.1683 19.1208C78.1683 21.6762 77.7557 23.8338 76.9304 25.5938C76.1151 27.3438 75.0014 28.6712 73.5895 29.576C72.1875 30.4709 70.6165 30.9183 68.8764 30.9183C67.6435 30.9183 66.5945 30.7145 65.7294 30.3068C64.8743 29.8992 64.1733 29.3871 63.6264 28.7706C63.0796 28.1442 62.6619 27.5128 62.3736 26.8764H62.1797V39.1364H55.826ZM62.0455 19.0909C62.0455 20.4531 62.2344 21.6414 62.6122 22.6556C62.9901 23.6698 63.5369 24.4602 64.2529 25.027C64.9688 25.5838 65.8388 25.8622 66.8629 25.8622C67.897 25.8622 68.772 25.5789 69.4879 25.0121C70.2038 24.4354 70.7458 23.6399 71.1137 22.6257C71.4915 21.6016 71.6804 20.4233 71.6804 19.0909C71.6804 17.7685 71.4965 16.6051 71.1286 15.6009C70.7607 14.5966 70.2188 13.8111 69.5029 13.2443C68.7869 12.6776 67.907 12.3942 66.8629 12.3942C65.8288 12.3942 64.9538 12.6676 64.2379 13.2145C63.532 13.7614 62.9901 14.5369 62.6122 15.5412C62.2344 16.5455 62.0455 17.7287 62.0455 19.0909ZM92.8445 30.9929C90.4879 30.9929 88.4595 30.5156 86.7592 29.5611C85.0689 28.5966 83.7663 27.2344 82.8516 25.4744C81.9368 23.7046 81.4794 21.6115 81.4794 19.1953C81.4794 16.8388 81.9368 14.7706 82.8516 12.9908C83.7663 11.211 85.054 9.82388 86.7145 8.82956C88.385 7.83524 90.3438 7.33809 92.5909 7.33809C94.1023 7.33809 95.5092 7.58169 96.8118 8.06891C98.1243 8.54618 99.2678 9.26706 100.242 10.2316C101.227 11.196 101.992 12.4091 102.539 13.8708C103.086 15.3225 103.359 17.0227 103.359 18.9716V20.7166H84.0149V16.7791H97.3786C97.3786 15.8644 97.1797 15.054 96.782 14.348C96.3842 13.6421 95.8324 13.0902 95.1264 12.6925C94.4304 12.2848 93.62 12.081 92.6953 12.081C91.7308 12.081 90.8757 12.3047 90.13 12.7521C89.3942 13.1896 88.8175 13.7813 88.3999 14.527C87.9823 15.2628 87.7685 16.0831 87.7585 16.9879V20.7316C87.7585 21.8651 87.9673 22.8445 88.385 23.6698C88.8125 24.495 89.4141 25.1314 90.1896 25.5789C90.9652 26.0263 91.885 26.25 92.9489 26.25C93.6548 26.25 94.3012 26.1506 94.8878 25.9517C95.4744 25.7529 95.9766 25.4546 96.3942 25.0568C96.8118 24.6591 97.13 24.1719 97.3487 23.5952L103.225 23.983C102.927 25.3949 102.315 26.6279 101.391 27.6818C100.476 28.7259 99.2926 29.5412 97.8409 30.1279C96.3992 30.7046 94.7337 30.9929 92.8445 30.9929ZM107.506 30.5455V7.63638H113.665V11.6335H113.904C114.322 10.2117 115.023 9.1378 116.007 8.41195C116.991 7.67615 118.125 7.30825 119.408 7.30825C119.726 7.30825 120.069 7.32814 120.437 7.36791C120.805 7.40769 121.128 7.46237 121.406 7.53198V13.1698C121.108 13.0803 120.695 13.0007 120.168 12.9311C119.641 12.8615 119.159 12.8267 118.722 12.8267C117.787 12.8267 116.952 13.0306 116.216 13.4382C115.49 13.836 114.913 14.3928 114.486 15.1087C114.068 15.8246 113.859 16.6499 113.859 17.5845V30.5455H107.506Z" fill="white"/>
<path d="M130.866 1.57356e-05L137.026 10.4105H137.264L143.454 1.57356e-05H150.747L141.426 15.2727L150.956 30.5455H143.529L137.264 20.12H137.026L130.762 30.5455H123.364L132.924 15.2727L123.543 1.57356e-05H130.866Z" fill="#0D8A8F"/>
</svg>
