<svg width="14" height="13" viewBox="0 0 14 13" fill="none" xmlns="http://www.w3.org/2000/svg">
<path d="M0.636364 0.917222L1.45091 0L12.0909 12.0756L11.2827 13L9.32273 10.7756C8.59091 11.05 7.81455 11.1944 7 11.1944C3.81818 11.1944 1.10091 8.94833 0 5.77778C0.439091 4.50667 1.13909 3.38722 2.03 2.49889L0.636364 0.917222ZM7 3.61111C7.50632 3.61111 7.99191 3.83938 8.34993 4.24571C8.70796 4.65204 8.90909 5.20314 8.90909 5.77778C8.90941 6.02374 8.87283 6.26797 8.80091 6.5L6.36364 3.73389C6.56808 3.65227 6.78328 3.61075 7 3.61111ZM7 0.361111C10.1818 0.361111 12.8991 2.60722 14 5.77778C13.4803 7.2749 12.5978 8.57445 11.4545 9.52611L10.5509 8.49333C11.431 7.80249 12.1407 6.86769 12.6127 5.77778C12.0983 4.58601 11.2996 3.58196 10.3074 2.87976C9.31521 2.17755 8.16931 1.80538 7 1.80556C6.30636 1.80556 5.62545 1.93556 4.98909 2.16667L4.00909 1.06167C4.92545 0.613889 5.93727 0.361111 7 0.361111ZM1.38727 5.77778C1.90167 6.96954 2.70038 7.9736 3.69259 8.6758C4.68479 9.378 5.83069 9.75017 7 9.75C7.43909 9.75 7.87182 9.69944 8.27273 9.59833L6.82182 7.94444C6.37901 7.89058 5.9658 7.6663 5.65089 7.30891C5.33599 6.95152 5.13837 6.48255 5.09091 5.98L2.92727 3.51722C2.29727 4.13111 1.76909 4.89667 1.38727 5.77778Z" fill="white"/>
</svg>
