<svg width="11" height="13" viewBox="0 0 11 13" fill="none" xmlns="http://www.w3.org/2000/svg">
<path d="M9.77778 5.2H10.3889C10.551 5.2 10.7064 5.26848 10.821 5.39038C10.9356 5.51228 11 5.67761 11 5.85V12.35C11 12.5224 10.9356 12.6877 10.821 12.8096C10.7064 12.9315 10.551 13 10.3889 13H0.611111C0.449034 13 0.293596 12.9315 0.17899 12.8096C0.0643847 12.6877 0 12.5224 0 12.35V5.85C0 5.67761 0.0643847 5.51228 0.17899 5.39038C0.293596 5.26848 0.449034 5.2 0.611111 5.2H1.22222V4.55C1.22222 3.34326 1.67292 2.18595 2.47515 1.33266C3.27739 0.479374 4.36546 0 5.5 0C6.63454 0 7.72261 0.479374 8.52485 1.33266C9.32708 2.18595 9.77778 3.34326 9.77778 4.55V5.2ZM1.22222 6.5V11.7H9.77778V6.5H1.22222ZM4.88889 7.8H6.11111V10.4H4.88889V7.8ZM8.55556 5.2V4.55C8.55556 3.68805 8.23363 2.8614 7.6606 2.2519C7.08758 1.64241 6.31038 1.3 5.5 1.3C4.68962 1.3 3.91242 1.64241 3.3394 2.2519C2.76637 2.8614 2.44444 3.68805 2.44444 4.55V5.2H8.55556Z" fill="#FFF6F6"/>
</svg>
