<svg width="24" height="24" viewBox="0 0 24 24" fill="none" xmlns="http://www.w3.org/2000/svg">
<path fill-rule="evenodd" clip-rule="evenodd" d="M11 7C11 5.93913 11.4214 4.92172 12.1716 4.17157C12.9217 3.42143 13.9391 3 15 3C16.0609 3 17.0783 3.42143 17.8284 4.17157C18.5786 4.92172 19 5.93913 19 7C19 8.06087 18.5786 9.07828 17.8284 9.82843C17.0783 10.5786 16.0609 11 15 11C13.9391 11 12.9217 10.5786 12.1716 9.82843C11.4214 9.07828 11 8.06087 11 7ZM11 13C9.67392 13 8.40215 13.5268 7.46447 14.4645C6.52678 15.4021 6 16.6739 6 18C6 18.7956 6.31607 19.5587 6.87868 20.1213C7.44129 20.6839 8.20435 21 9 21H21C21.7956 21 22.5587 20.6839 23.1213 20.1213C23.6839 19.5587 24 18.7956 24 18C24 16.6739 23.4732 15.4021 22.5355 14.4645C21.5979 13.5268 20.3261 13 19 13H11Z" fill="#E6E6E6"/>
</svg>
