<svg width="23" height="23" viewBox="0 0 23 23" fill="none" xmlns="http://www.w3.org/2000/svg">
<path fill-rule="evenodd" clip-rule="evenodd" d="M10.0626 1.91663C8.76369 1.91674 7.48362 2.22748 6.3292 2.82292C5.17478 3.41836 4.1795 4.28123 3.42639 5.33956C2.67328 6.39788 2.18417 7.62096 1.99988 8.90675C1.81559 10.1925 1.94146 11.5038 2.36699 12.731C2.79252 13.9583 3.50537 15.066 4.44606 15.9617C5.38675 16.8574 6.528 17.5152 7.77461 17.8802C9.02122 18.2451 10.337 18.3067 11.6123 18.0597C12.8875 17.8127 14.0852 17.2643 15.1054 16.4603L18.6052 19.9601C18.7859 20.1347 19.028 20.2313 19.2793 20.2291C19.5306 20.2269 19.7709 20.1261 19.9486 19.9485C20.1263 19.7708 20.2271 19.5304 20.2293 19.2791C20.2315 19.0279 20.1349 18.7858 19.9603 18.605L16.4605 15.1052C17.4073 13.9041 17.9968 12.4606 18.1616 10.94C18.3264 9.41947 18.0597 7.88323 17.3922 6.50713C16.7246 5.13104 15.6831 3.97068 14.3869 3.15885C13.0907 2.34702 11.5921 1.91652 10.0626 1.91663ZM3.83345 10.0625C3.83345 8.41038 4.48974 6.82597 5.65794 5.65777C6.82613 4.48958 8.41054 3.83329 10.0626 3.83329C11.7147 3.83329 13.2991 4.48958 14.4673 5.65777C15.6355 6.82597 16.2918 8.41038 16.2918 10.0625C16.2918 11.7145 15.6355 13.299 14.4673 14.4671C13.2991 15.6353 11.7147 16.2916 10.0626 16.2916C8.41054 16.2916 6.82613 15.6353 5.65794 14.4671C4.48974 13.299 3.83345 11.7145 3.83345 10.0625Z" fill="#868484"/>
</svg>
