<svg width="367" height="228" viewBox="0 0 367 228" fill="none" xmlns="http://www.w3.org/2000/svg">
<path d="M246.59 145.96H150.464C145.534 145.96 141.538 150.539 141.538 156.188C141.538 161.837 145.534 166.417 150.464 166.417H246.59C251.52 166.417 255.516 161.837 255.516 156.188C255.516 150.539 251.52 145.96 246.59 145.96Z" fill="#6C63FF"/>
<path d="M60.6531 44.1246C61.6743 37.5751 64.2596 31.4781 68.1219 26.5105C71.9842 21.5429 76.9725 17.8991 82.5327 15.9837C88.093 14.0682 94.0077 13.956 99.6203 15.6596C105.233 17.3633 110.323 20.8159 114.327 25.6344C118.331 30.4528 121.091 36.4485 122.3 42.9556C123.51 49.4628 123.122 56.2268 121.18 62.4967C119.238 68.7666 115.817 74.2971 111.298 78.474C106.779 82.6509 101.338 85.3109 95.5791 86.1586L82.5507 130.209L56.6062 94.8757C56.6062 94.8757 64.6863 86.6123 69.9046 76.4989C66.1475 72.3993 63.3361 67.2963 61.722 61.6465C60.1079 55.9967 59.7414 49.9764 60.6554 44.1246H60.6531Z" fill="#ED9DA0"/>
<path d="M63.1868 84.649C63.1868 84.649 21.6872 92.6675 16.2116 102.288C10.7361 111.909 4.89569 125.713 4.89569 125.713C4.89569 125.713 -10.8022 215.226 14.0213 227.775L114.291 211.391L101.994 169.214L114.406 211.461L143.438 206.136C143.438 206.136 126.087 107.726 116.231 101.034C106.375 94.3412 94.0544 96.1393 94.0544 96.1393C94.0544 96.1393 74.4345 118.477 63.3923 84.6579L63.1868 84.649Z" fill="#E6E6E6"/>
<path d="M85.5467 29.7604C85.5467 29.7604 94.3285 32.8525 97.979 27.8328C97.979 27.8328 106.74 28.2524 108.565 33.6886C110.39 39.1248 121.341 41.6378 124.99 37.0351C128.638 32.4323 134.117 24.0661 127.182 16.5392C127.182 16.5392 126.087 8.59152 120.246 6.91828L116.961 10.2648C116.961 10.2648 73.5666 -13.1202 68.4339 10.7027C68.4339 10.7027 60.5757 9.00537 64.3109 14.4452C64.3109 14.4452 60.102 20.0372 57.4324 30.6421C55.4011 38.7997 55.4847 47.4583 57.6731 55.5624C59.8615 63.6665 64.0601 70.866 69.7572 76.2833C69.7572 76.2833 60.4256 48.2148 68.4339 56.4294C76.4421 64.6441 76.0782 45.8198 76.0782 45.8198C76.0782 45.8198 88.0821 37.5444 85.548 29.7609L85.5467 29.7604Z" fill="#090814"/>
<path d="M125.143 177.281L64.0643 214.575L52.3208 194.733L116.152 158.046C117.483 152.706 120.989 147.652 126.111 144.509C135.072 139.008 145.558 141.44 149.53 149.939C153.502 158.437 149.457 169.785 140.495 175.285C135.374 178.429 129.759 178.971 125.142 177.282L125.143 177.281Z" fill="#ED9DA0"/>
<path d="M39.5735 160.849L36.6531 170.89C36.6531 170.89 43.5888 179.375 36.6531 184.126L61.1104 180.511C61.1104 180.511 71.0114 172.142 71.7191 179.046C71.7191 179.046 84.1075 169.635 86.6627 175.491C86.6627 175.491 79.3355 193.647 90.8474 202.977L75.5294 210.869L64.6186 219.331L14.0212 227.776" fill="#E6E6E6"/>
<path d="M280.463 72.0011H200.358C195.428 72.0011 191.432 76.5805 191.432 82.2294C191.432 87.8783 195.428 92.4577 200.358 92.4577H280.463C285.393 92.4577 289.389 87.8783 289.389 82.2294C289.389 76.5805 285.393 72.0011 280.463 72.0011Z" fill="#E6E6E6"/>
<path d="M176.784 102.424H152.066C147.263 102.424 143.369 106.886 143.369 112.39C143.369 117.894 147.263 122.356 152.066 122.356H176.784C181.587 122.356 185.481 117.894 185.481 112.39C185.481 106.886 181.587 102.424 176.784 102.424Z" fill="#E6E6E6"/>
<path d="M305.868 123.142H191.432V121.569H305.868V123.142Z" fill="#6C63FF"/>
<path d="M357.593 102.424H320.516C315.713 102.424 311.819 106.886 311.819 112.39C311.819 117.894 315.713 122.356 320.516 122.356H357.593C362.397 122.356 366.291 117.894 366.291 112.39C366.291 106.886 362.397 102.424 357.593 102.424Z" fill="#E6E6E6"/>
<path d="M357.365 72.0011H304.266C299.336 72.0011 295.34 76.5805 295.34 82.2294C295.34 87.8783 299.336 92.4577 304.266 92.4577H357.365C362.294 92.4577 366.291 87.8783 366.291 82.2294C366.291 76.5805 362.294 72.0011 357.365 72.0011Z" fill="#E6E6E6"/>
<path d="M176.555 72.0011H152.295C147.365 72.0011 143.369 76.5805 143.369 82.2294C143.369 87.8783 147.365 92.4577 152.295 92.4577H176.555C181.485 92.4577 185.481 87.8783 185.481 82.2294C185.481 76.5805 181.485 72.0011 176.555 72.0011Z" fill="#E6E6E6"/>
<path d="M248.03 112.036H247.763C247.525 112.035 247.296 111.927 247.127 111.733C246.959 111.54 246.864 111.278 246.863 111.004V110.746C246.846 110.198 246.953 109.653 247.175 109.167C247.426 108.686 247.719 108.235 248.049 107.822C248.268 107.57 248.467 107.295 248.644 107.002C248.77 106.774 248.835 106.509 248.831 106.239C248.831 105.602 248.469 105.294 247.725 105.294C247.312 105.3 246.902 105.37 246.505 105.504C246.353 105.554 246.192 105.563 246.036 105.53C245.879 105.496 245.732 105.422 245.605 105.312C245.478 105.202 245.375 105.061 245.305 104.898C245.234 104.735 245.197 104.555 245.197 104.373V103.854C245.196 103.631 245.252 103.412 245.357 103.224C245.463 103.036 245.614 102.887 245.792 102.796C247.185 102.146 248.742 102.13 250.145 102.753C250.724 103.017 251.231 103.456 251.61 104.023C251.956 104.559 252.141 105.21 252.134 105.878C252.149 106.543 251.97 107.195 251.627 107.732C251.209 108.342 250.733 108.898 250.208 109.389C249.888 109.694 249.584 110.022 249.299 110.371C249.114 110.598 248.984 110.876 248.921 111.177C248.885 111.418 248.776 111.637 248.613 111.794C248.45 111.952 248.243 112.037 248.03 112.036Z" fill="#6C63FF"/>
<path d="M247.882 116.887H247.847C247.625 116.891 247.406 116.845 247.2 116.751C246.994 116.657 246.807 116.516 246.649 116.339C246.492 116.161 246.366 115.949 246.281 115.715C246.195 115.481 246.151 115.23 246.151 114.976C246.151 114.722 246.195 114.471 246.281 114.237C246.366 114.003 246.492 113.791 246.649 113.613C246.807 113.435 246.994 113.295 247.2 113.201C247.406 113.107 247.625 113.061 247.847 113.065H247.882C248.103 113.061 248.323 113.107 248.529 113.201C248.734 113.295 248.921 113.435 249.079 113.613C249.237 113.791 249.362 114.003 249.448 114.237C249.534 114.471 249.578 114.722 249.578 114.976C249.578 115.23 249.534 115.481 249.448 115.715C249.362 115.949 249.237 116.161 249.079 116.339C248.921 116.516 248.734 116.657 248.529 116.751C248.323 116.845 248.103 116.891 247.882 116.887Z" fill="#6C63FF"/>
</svg>
