<svg width="324" height="254" viewBox="0 0 324 254" fill="none" xmlns="http://www.w3.org/2000/svg">
<g clip-path="url(#clip0_110_528)">
<path d="M91.2639 119.513L111.19 102.669C111.871 102.092 112.296 101.268 112.371 100.378C112.446 99.488 112.165 98.6045 111.59 97.9215L107.924 93.5744C107.348 92.8926 106.525 92.4676 105.635 92.3926C104.746 92.3176 103.863 92.5987 103.181 93.1743L83.2551 110.018C82.5739 110.595 82.1492 111.419 82.0743 112.309C81.9993 113.199 82.2802 114.083 82.8553 114.766L86.523 119.113C87.0995 119.794 87.9222 120.218 88.8108 120.293C89.6995 120.368 90.5816 120.088 91.2639 119.513Z" fill="#3F3D56"/>
<path d="M110.145 98.2721C110.455 98.6402 110.607 99.1163 110.566 99.5959C110.526 100.075 110.297 100.519 109.93 100.83L90.004 117.674C89.6363 117.984 89.1606 118.136 88.6815 118.095C88.2023 118.055 87.7588 117.826 87.4481 117.458L83.7804 113.111C83.4706 112.743 83.3193 112.267 83.3597 111.788C83.4001 111.308 83.6289 110.864 83.9958 110.553L103.922 93.7094C104.29 93.3993 104.765 93.2479 105.244 93.2883C105.724 93.3287 106.167 93.5577 106.478 93.925L110.145 98.2721Z" fill="#6C63FF"/>
<path d="M89.3742 111.8C89.2822 111.724 89.2093 111.627 89.1612 111.518C89.1131 111.409 89.0911 111.29 89.097 111.171L89.2457 108.04C89.2482 107.938 89.271 107.837 89.3129 107.744C89.3548 107.651 89.4149 107.567 89.4896 107.497C89.5644 107.428 89.6523 107.373 89.7482 107.338C89.8441 107.303 89.9461 107.287 90.0481 107.292C90.1502 107.297 90.2502 107.322 90.3424 107.366C90.4346 107.41 90.5171 107.472 90.5849 107.549C90.6528 107.625 90.7048 107.714 90.7377 107.811C90.7707 107.908 90.784 108.01 90.7768 108.112L90.6811 110.162L96.1322 108.52C96.3259 108.464 96.5335 108.488 96.7102 108.584C96.887 108.681 97.0186 108.843 97.0766 109.036C97.1347 109.229 97.1145 109.438 97.0204 109.616C96.9263 109.794 96.7659 109.928 96.5739 109.989L90.0835 111.943C89.9661 111.979 89.842 111.985 89.7215 111.963C89.6011 111.94 89.4878 111.889 89.3911 111.813L89.3742 111.8Z" fill="white"/>
<path d="M101.146 97.4174C101.106 97.3864 101.074 97.3452 101.055 97.2981C101.035 97.251 101.029 97.1997 101.036 97.1492C101.042 97.0987 101.062 97.0509 101.093 97.0106C101.124 96.9703 101.166 96.9389 101.213 96.9195C101.944 96.6453 102.735 96.5724 103.504 96.7085C104.272 96.8446 104.99 97.1847 105.583 97.6933C106.374 98.2791 106.957 99.1027 107.248 100.044C107.405 100.587 107.462 101.153 107.417 101.717C107.415 101.754 107.406 101.792 107.389 101.826C107.373 101.86 107.35 101.89 107.321 101.916C107.293 101.941 107.26 101.96 107.224 101.973C107.188 101.985 107.15 101.99 107.112 101.988L107.111 101.989C107.033 101.984 106.961 101.948 106.91 101.89C106.859 101.831 106.833 101.755 106.838 101.678C106.9 101 106.785 100.318 106.503 99.6984C106.221 99.0793 105.782 98.5445 105.23 98.1471C103.541 96.8344 102.011 97.2285 101.434 97.4576C101.387 97.4775 101.335 97.4843 101.284 97.4772C101.234 97.4702 101.186 97.4495 101.146 97.4174Z" fill="white"/>
<path d="M101.545 104.908C101.525 104.893 101.508 104.876 101.493 104.857C100.367 103.419 100.943 101.598 100.966 101.525L100.972 101.509C100.992 101.459 101.465 100.272 102.336 100.037C102.545 99.9871 102.764 99.9885 102.972 100.041C103.181 100.094 103.374 100.196 103.534 100.339C103.698 100.448 103.834 100.595 103.928 100.767C104.022 100.94 104.073 101.133 104.076 101.33C104.053 101.638 103.967 101.937 103.825 102.211C103.571 102.791 103.461 103.114 103.95 103.536C104.037 103.608 104.141 103.656 104.252 103.677C104.363 103.698 104.478 103.69 104.585 103.654C104.843 103.557 105.074 103.4 105.259 103.195C105.445 102.991 105.578 102.745 105.649 102.478C105.829 101.856 105.823 101.195 105.631 100.577C105.439 99.9583 105.07 99.4101 104.57 99C104.011 98.5558 103.313 98.3235 102.6 98.3441C102.008 98.3661 101.434 98.553 100.943 98.8839C100.073 99.486 99.4313 100.995 99.4273 101.008C99.4127 101.042 99.3913 101.074 99.3645 101.1C99.3377 101.127 99.3059 101.148 99.271 101.162C99.2361 101.176 99.1987 101.183 99.1611 101.183C99.1235 101.182 99.0862 101.175 99.0516 101.16L99.05 101.158C98.9791 101.127 98.9228 101.071 98.8935 100.999C98.8641 100.928 98.864 100.848 98.8931 100.777C98.9215 100.709 99.6037 99.1005 100.608 98.4046C101.105 98.067 101.677 97.8564 102.273 97.7912C102.87 97.7261 103.474 97.8083 104.031 98.0308C104.589 98.2532 105.083 98.6091 105.471 99.0673C105.859 99.5254 106.129 100.072 106.257 100.659C106.406 101.315 106.388 101.998 106.205 102.646C106.108 103.005 105.924 103.334 105.671 103.606C105.417 103.878 105.101 104.084 104.75 104.206C104.55 104.269 104.337 104.281 104.132 104.239C103.926 104.198 103.734 104.105 103.575 103.969C102.737 103.248 103.058 102.51 103.292 101.972C103.532 101.42 103.63 101.141 103.18 100.791C103.09 100.705 102.98 100.642 102.859 100.608C102.739 100.573 102.612 100.568 102.49 100.593C102.194 100.711 101.948 100.926 101.79 101.203L101.785 101.21C101.589 101.507 101.463 101.845 101.416 102.198C101.348 102.599 101.36 103.009 101.451 103.405C101.543 103.801 101.712 104.175 101.948 104.505C101.972 104.534 101.989 104.568 102 104.605C102.01 104.641 102.013 104.679 102.009 104.716C102.005 104.754 101.993 104.79 101.975 104.823C101.957 104.856 101.932 104.885 101.903 104.909L101.901 104.91C101.849 104.949 101.787 104.97 101.722 104.969C101.658 104.969 101.596 104.947 101.545 104.908Z" fill="white"/>
<path d="M99.8309 103.409C99.7995 103.385 99.7733 103.355 99.754 103.32C99.7347 103.285 99.7226 103.247 99.7185 103.207C99.6129 102.21 99.8325 101.205 100.345 100.343L100.35 100.34C100.558 99.9744 100.839 99.6554 101.176 99.4025C101.512 99.1496 101.896 98.9682 102.305 98.8695C102.649 98.8149 103 98.8359 103.335 98.9311C103.67 99.0262 103.979 99.1932 104.243 99.4204C104.596 99.6806 104.869 100.036 105.029 100.445C105.189 100.854 105.23 101.3 105.146 101.731C105.076 102.161 104.928 102.573 104.709 102.949C104.668 103.015 104.603 103.062 104.528 103.079C104.452 103.097 104.373 103.084 104.307 103.043C104.242 103.002 104.195 102.936 104.177 102.861C104.16 102.785 104.173 102.706 104.214 102.64C104.396 102.325 104.518 101.979 104.576 101.619C104.64 101.293 104.609 100.955 104.487 100.646C104.365 100.337 104.158 100.069 103.889 99.8736C103.689 99.6983 103.454 99.5685 103.199 99.4933C102.945 99.418 102.677 99.3991 102.414 99.4378C102.086 99.5224 101.779 99.6718 101.51 99.8772C101.24 100.083 101.015 100.34 100.846 100.633C100.394 101.392 100.2 102.278 100.294 103.156C100.298 103.194 100.294 103.232 100.283 103.268C100.272 103.303 100.254 103.337 100.23 103.366C100.207 103.395 100.177 103.419 100.144 103.437C100.111 103.454 100.075 103.465 100.037 103.469L100.033 103.47C99.9605 103.475 99.8885 103.454 99.8309 103.409Z" fill="white"/>
<path d="M102.236 101.838C102.354 102.006 102.586 102.047 102.754 101.929C102.922 101.811 102.963 101.579 102.845 101.411C102.727 101.243 102.495 101.202 102.327 101.32C102.159 101.438 102.118 101.67 102.236 101.838Z" fill="white"/>
<path d="M88.2115 235.82H80.3391V246.205H88.2115V235.82Z" fill="#ED9DA0"/>
<path d="M81.6829 253.373H98.4167C99.8555 253.371 101.276 253.047 102.573 252.425L105.658 250.941C105.997 250.777 106.279 250.514 106.465 250.186C106.651 249.858 106.733 249.481 106.699 249.105C106.666 248.729 106.519 248.373 106.277 248.083C106.036 247.793 105.712 247.583 105.349 247.483L98.9837 245.72L88.0969 239.993L88.0887 240.034C87.8862 241.066 87.57 242.625 87.5295 242.72C86.4129 244.001 85.2659 244.59 84.1202 244.474C82.1219 244.271 80.7935 241.961 80.7805 241.938L80.7704 241.921L80.7501 241.923C80.5471 241.931 80.3487 241.986 80.1704 242.083C79.992 242.181 79.8384 242.318 79.7215 242.484C79.2654 243.174 79.5437 244.232 79.5894 244.392C79.0435 244.926 78.7985 247.912 78.7794 248.153C77.9901 248.991 77.6151 249.796 77.6645 250.545C77.7068 250.906 77.8249 251.254 78.0112 251.566C78.1974 251.878 78.4475 252.147 78.745 252.356C79.5795 253.021 80.6162 253.38 81.6829 253.374V253.373Z" fill="#090814"/>
<path d="M25.5182 241.056L33.0773 243.257L35.9756 233.285L28.4165 231.084L25.5182 241.056Z" fill="#ED9DA0"/>
<path d="M24.81 248.313L40.8779 252.991C42.26 253.392 43.7141 253.478 45.1337 253.244L48.5102 252.681C48.8813 252.618 49.2246 252.444 49.4943 252.181C49.7639 251.918 49.9471 251.579 50.0196 251.209C50.092 250.839 50.0502 250.456 49.8997 250.111C49.7492 249.766 49.4972 249.474 49.1772 249.276L43.5586 245.804L34.7017 237.261L34.6826 237.297C34.2007 238.229 33.4596 239.64 33.396 239.72C31.9667 240.637 30.7007 240.883 29.6331 240.45C27.7701 239.696 27.1403 237.107 27.1338 237.081L27.129 237.062L27.1092 237.058C26.9119 237.009 26.7061 237.006 26.5076 237.05C26.3092 237.094 26.1234 237.182 25.9646 237.309C25.3344 237.843 25.3065 238.938 25.3057 239.104C24.6322 239.464 23.5642 242.263 23.4783 242.489C22.4865 243.072 21.9021 243.74 21.7405 244.475C21.6806 244.833 21.6971 245.2 21.7891 245.552C21.881 245.904 22.0462 246.232 22.2738 246.515C22.8895 247.387 23.7846 248.021 24.8104 248.314L24.81 248.313Z" fill="#090814"/>
<path d="M50.8361 49.1823C50.8366 46.8147 51.4927 44.4936 52.7316 42.4767C53.9704 40.4598 55.7434 38.826 57.8539 37.7567C59.9643 36.6874 62.3295 36.2244 64.6869 36.4192C67.0443 36.614 69.3017 37.4589 71.2084 38.8601C73.115 40.2613 74.5964 42.164 75.4881 44.3569C76.3797 46.5498 76.6467 48.9472 76.2593 51.2828C75.872 53.6184 74.8455 55.8008 73.2939 57.5878C71.7422 59.3748 69.7261 60.6965 67.4694 61.406L64.9953 77.7717L52.3828 67.2534C54.1026 64.9884 55.5111 62.5027 56.5705 59.8628C54.8077 58.6957 53.3616 57.1095 52.3614 55.2461C51.3611 53.3826 50.838 51.3001 50.8389 49.1847L50.8361 49.1823Z" fill="#ED9DA0"/>
<path d="M45.7853 112.407L43.9378 86.519C43.7774 84.274 44.0609 82.0193 44.7721 79.8841L50.2485 63.4454L66.3747 68.6296L73.1787 84.2105L76.8845 91.0109C77.7058 92.5182 78.0175 94.2511 77.7731 95.9504C77.5286 97.6498 76.741 99.2243 75.5282 100.438L73.1792 102.789L76.454 114.812L76.1093 114.8L76.5714 114.86C76.5714 114.86 98.4665 180.787 97.6808 236.855H69.5775L67.9093 171.771L63.0278 239.382L25.9946 237.248L45.7841 112.407H45.7853Z" fill="#E6E6E6"/>
<path d="M46.727 66.0142C46.727 66.0142 47.3247 70.5542 52.8619 70.701L64.0938 71.0018C64.0938 71.0018 54.5989 47.8742 58.5048 50.4794C62.4106 53.0847 72.8199 42.1618 72.8199 42.1618L75.8918 47.9281C75.8918 47.9281 83.2292 45.2681 75.0972 38.7547C75.0972 38.7547 65.3926 31.2446 55.0902 35.755C44.7878 40.2655 46.727 66.0142 46.727 66.0142Z" fill="#090814"/>
<path d="M92.1481 117.51C92.2963 114.62 89.5913 112.132 86.1026 111.951C85.1933 111.887 84.2804 112.005 83.417 112.298C82.5537 112.591 81.7573 113.053 81.0742 113.657L80.9932 113.653L60.3127 111.509L61.8638 90.9659C62.4377 86.9933 61.3231 82.9871 57.4133 82.0884C56.2804 81.8275 55.1033 81.8263 53.97 82.085C52.8366 82.3437 51.7764 82.8556 50.8686 83.5823C49.9608 84.309 49.2289 85.2317 48.7277 86.2815C48.2265 87.3313 47.969 88.4809 47.9743 89.6444L48.0926 115.521C48.0962 116.395 48.2721 117.26 48.6103 118.066C48.9484 118.873 49.4421 119.604 50.0632 120.219C50.6842 120.834 51.4204 121.321 52.2295 121.65C53.0386 121.98 53.9047 122.147 54.7783 122.141L80.7324 120.2C81.3495 120.871 82.0941 121.413 82.9227 121.794C83.7512 122.175 84.6472 122.386 85.5583 122.417C89.0474 122.598 91.9978 120.4 92.1457 117.512L92.1481 117.51Z" fill="#ED9DA0"/>
<path d="M63.8548 81.8955L62.6091 105.334L45.3002 104.158L48.3612 79.7823" fill="#E6E6E6"/>
<path d="M127.854 253.857L0.557691 254C0.409783 254 0.267931 253.941 0.163345 253.836C0.0587585 253.731 0 253.589 0 253.441C0 253.293 0.0587585 253.151 0.163345 253.047C0.267931 252.942 0.409783 252.883 0.557691 252.883L127.854 252.741C128.002 252.741 128.144 252.8 128.249 252.905C128.354 253.009 128.412 253.151 128.412 253.299C128.412 253.447 128.354 253.589 128.249 253.694C128.144 253.799 128.002 253.858 127.854 253.858V253.857Z" fill="#E6E6E6"/>
<path d="M297.812 84.5457H115.625C113.993 84.536 112.432 83.8789 111.285 82.7187C110.137 81.5585 109.495 79.9899 109.502 78.3571V6.18787C109.496 4.55525 110.137 2.98696 111.285 1.82701C112.433 0.667067 113.994 0.0101695 115.625 0.000411987H297.812C299.443 0.0102765 301.004 0.667276 302.152 1.8273C303.3 2.98732 303.941 4.55565 303.935 6.18828V78.3571C303.941 79.9897 303.3 81.558 302.152 82.718C301.004 83.8781 299.443 84.5351 297.812 84.5449V84.5457Z" fill="#090814"/>
<path d="M297.147 83.8331H116.292C114.68 83.8313 113.135 83.1897 111.996 82.0492C110.856 80.9087 110.215 79.3624 110.214 77.7494V6.79552C110.215 5.18265 110.856 3.63641 111.996 2.49598C113.135 1.35555 114.68 0.714058 116.292 0.712234H297.147C298.759 0.714058 300.304 1.3556 301.443 2.49612C302.583 3.63664 303.224 5.18298 303.226 6.79592V77.7494C303.224 79.3624 302.583 80.9087 301.443 82.0492C300.304 83.1897 298.759 83.8313 297.147 83.8331Z" fill="#F2F2F2"/>
<path d="M254.967 79.9534H144.999C136.804 79.9446 128.948 76.6824 123.153 70.8826C117.358 65.0828 114.099 57.2191 114.09 49.0169V35.5321C114.099 27.3299 117.358 19.4661 123.153 13.6662C128.947 7.86626 136.804 4.604 144.999 4.5952H268.438C276.633 4.604 284.49 7.86626 290.284 13.6662C296.079 19.4661 299.338 27.3299 299.347 35.5321C299.334 47.3089 294.654 58.5996 286.334 66.9273C278.014 75.2549 266.734 79.9395 254.967 79.9534Z" fill="white"/>
<path d="M226.6 24.9067H153.91C153.702 24.9101 153.495 24.872 153.302 24.7946C153.109 24.7173 152.933 24.6022 152.785 24.4562C152.637 24.3102 152.519 24.1361 152.439 23.9441C152.358 23.7521 152.317 23.546 152.317 23.3378C152.317 23.1296 152.358 22.9235 152.439 22.7315C152.519 22.5394 152.637 22.3653 152.785 22.2193C152.933 22.0733 153.109 21.9583 153.302 21.8809C153.495 21.8036 153.702 21.7655 153.91 21.7688H226.6C226.808 21.7655 227.015 21.8036 227.208 21.8809C227.401 21.9583 227.577 22.0733 227.725 22.2193C227.873 22.3653 227.991 22.5394 228.072 22.7315C228.152 22.9235 228.193 23.1296 228.193 23.3378C228.193 23.546 228.152 23.7521 228.072 23.9441C227.991 24.1361 227.873 24.3102 227.725 24.4562C227.577 24.6022 227.401 24.7173 227.208 24.7946C227.015 24.872 226.808 24.9101 226.6 24.9067Z" fill="#E6E6E6"/>
<path d="M263.397 41.647H153.91C153.702 41.6503 153.495 41.6122 153.302 41.5349C153.109 41.4575 152.933 41.3425 152.785 41.1965C152.637 41.0505 152.519 40.8764 152.439 40.6844C152.358 40.4923 152.317 40.2862 152.317 40.078C152.317 39.8699 152.358 39.6637 152.439 39.4717C152.519 39.2797 152.637 39.1056 152.785 38.9596C152.933 38.8136 153.109 38.6985 153.302 38.6212C153.495 38.5438 153.702 38.5057 153.91 38.5091H263.397C263.605 38.5057 263.812 38.5438 264.005 38.6212C264.198 38.6985 264.374 38.8136 264.522 38.9596C264.67 39.1056 264.788 39.2797 264.869 39.4717C264.949 39.6637 264.99 39.8699 264.99 40.078C264.99 40.2862 264.949 40.4923 264.869 40.6844C264.788 40.8764 264.67 41.0505 264.522 41.1965C264.374 41.3425 264.198 41.4575 264.005 41.5349C263.812 41.6122 263.605 41.6503 263.397 41.647Z" fill="#E6E6E6"/>
<path d="M263.397 58.3868H153.91C153.498 58.3802 153.106 58.212 152.817 57.9185C152.529 57.625 152.367 57.2297 152.367 56.8179C152.367 56.4061 152.529 56.0108 152.817 55.7173C153.106 55.4238 153.498 55.2556 153.91 55.2489H263.397C263.809 55.2556 264.201 55.4238 264.49 55.7173C264.778 56.0108 264.94 56.4061 264.94 56.8179C264.94 57.2297 264.778 57.625 264.49 57.9185C264.201 58.212 263.809 58.3802 263.397 58.3868Z" fill="#E6E6E6"/>
<path d="M263.397 58.3868H153.91C153.498 58.3802 153.106 58.212 152.817 57.9185C152.529 57.625 152.367 57.2297 152.367 56.8179C152.367 56.4061 152.529 56.0108 152.817 55.7173C153.106 55.4238 153.498 55.2556 153.91 55.2489H263.397C263.809 55.2556 264.201 55.4238 264.49 55.7173C264.778 56.0108 264.94 56.4061 264.94 56.8179C264.94 57.2297 264.778 57.625 264.49 57.9185C264.201 58.212 263.809 58.3802 263.397 58.3868Z" fill="#E6E6E6"/>
<path d="M208.654 67.2201C222.419 67.2201 233.577 56.0514 233.577 42.2741C233.577 28.4968 222.419 17.3281 208.654 17.3281C194.889 17.3281 183.73 28.4968 183.73 42.2741C183.73 56.0514 194.889 67.2201 208.654 67.2201Z" fill="#6C63FF"/>
<mask id="mask0_110_528" style="mask-type:luminance" maskUnits="userSpaceOnUse" x="183" y="17" width="51" height="51">
<path d="M208.654 67.2201C222.419 67.2201 233.577 56.0514 233.577 42.2741C233.577 28.4968 222.419 17.3281 208.654 17.3281C194.889 17.3281 183.73 28.4968 183.73 42.2741C183.73 56.0514 194.889 67.2201 208.654 67.2201Z" fill="white"/>
</mask>
<g mask="url(#mask0_110_528)">
<path d="M223.365 47.4956L201.07 47.7745C200.651 47.7745 200.25 47.6079 199.953 47.3114C199.657 47.0149 199.491 46.6128 199.491 46.1936V38.8216C199.482 37.2713 199.779 35.7344 200.365 34.2995C200.952 32.8645 201.816 31.5598 202.908 30.4603C204 29.3608 205.299 28.4883 206.729 27.8929C208.159 27.2975 209.693 26.991 211.242 26.991C212.791 26.991 214.324 27.2975 215.755 27.8929C217.185 28.4883 218.483 29.3608 219.575 30.4603C220.667 31.5598 221.531 32.8645 222.118 34.2995C222.704 35.7344 223.002 37.2713 222.993 38.8216L224.943 45.9155C224.943 46.3348 224.776 46.7369 224.48 47.0333C224.184 47.3298 223.782 47.4964 223.363 47.4964L223.365 47.4956Z" fill="#090814"/>
<path d="M211.145 47.6974C215.64 47.6974 219.283 44.0508 219.283 39.5525C219.283 35.0542 215.64 31.4075 211.145 31.4075C206.651 31.4075 203.008 35.0542 203.008 39.5525C203.008 44.0508 206.651 47.6974 211.145 47.6974Z" fill="#FFB9B9"/>
<path d="M215.225 45.8457C215.225 45.8457 215.082 51.7304 215.655 51.8739C216.229 52.0174 207.768 54.3138 207.768 54.3138L206.908 46.2762L215.225 45.8457Z" fill="#FFB9B9"/>
<path d="M198.347 82.6864C199.813 83.0783 214.304 89.0554 221.181 82.9993L226.577 56.3361L220.113 54.2955L217.857 51.55C217.613 51.2523 217.304 51.0134 216.955 50.8513C216.606 50.6891 216.225 50.6077 215.84 50.6132L207.821 50.7206C207.467 50.7258 207.117 50.8043 206.794 50.9512C206.471 51.0981 206.182 51.3103 205.945 51.5743L203.376 54.4415L197.574 55.793L198.347 82.6864Z" fill="#F2F2F2"/>
<path d="M224.118 58.416L225.874 56.0739C225.874 56.0739 229.092 56.9203 230.728 61.5369C232.363 66.1536 239.063 103.036 239.063 103.036L231.847 106.39L222.076 73.7931L224.118 58.416Z" fill="#F2F2F2"/>
<path d="M200.152 57.8988L197.722 55.7613C197.722 55.7613 195.177 56.4042 193.541 61.0205C191.906 65.6368 171.033 96.5862 171.033 96.5862L178.249 99.9394L202.193 73.275L200.152 57.8988Z" fill="#F2F2F2"/>
<path d="M219.625 39.0154H208.251C208.037 39.0151 207.831 38.9368 207.67 38.795C207.51 38.6531 207.407 38.4576 207.381 38.2452L207.233 37.066C207.219 36.9529 207.168 36.8476 207.088 36.7659C207.009 36.6842 206.905 36.6305 206.792 36.6129C206.68 36.5953 206.565 36.6146 206.464 36.6681C206.363 36.7216 206.283 36.8063 206.234 36.9095L205.488 38.5075C205.418 38.6585 205.305 38.7863 205.165 38.876C205.024 38.9656 204.861 39.0134 204.694 39.0138H202.966C202.734 39.0141 202.511 38.9221 202.346 38.758C202.182 38.5938 202.089 38.3711 202.089 38.1386C202.089 38.1098 202.09 38.0809 202.093 38.0522L202.774 30.93C202.789 30.7777 202.842 30.6318 202.93 30.5066C203.018 30.3813 203.137 30.281 203.275 30.2154C205.718 29.0144 208.404 28.3907 211.126 28.3923C213.848 28.3939 216.533 29.0208 218.975 30.2247C219.107 30.2869 219.222 30.381 219.309 30.4987C219.395 30.6163 219.451 30.7537 219.471 30.8984L220.492 38.0113C220.51 38.1358 220.501 38.2627 220.466 38.3834C220.43 38.5041 220.369 38.6157 220.287 38.7108C220.205 38.8058 220.103 38.882 219.988 38.9341C219.874 38.9862 219.75 39.0131 219.624 39.013L219.625 39.0154Z" fill="#090814"/>
</g>
<path d="M303.877 104.706C314.99 104.706 324 95.6887 324 84.5652C324 73.4417 314.99 64.4243 303.877 64.4243C292.763 64.4243 283.754 73.4417 283.754 84.5652C283.754 95.6887 292.763 104.706 303.877 104.706Z" fill="#6C63FF"/>
<path d="M301.853 92.8208C301.583 92.8208 301.317 92.7578 301.075 92.6369C300.833 92.5159 300.623 92.3403 300.461 92.124L296.193 86.4303C295.941 86.0595 295.842 85.6059 295.915 85.1637C295.989 84.7214 296.23 84.3246 296.588 84.0556C296.947 83.7866 297.395 83.6662 297.84 83.7194C298.284 83.7725 298.692 83.9952 298.977 84.341L301.768 88.0659L308.936 77.3023C309.202 76.9407 309.596 76.6953 310.038 76.6174C310.479 76.5394 310.933 76.6348 311.306 76.8836C311.679 77.1325 311.942 77.5157 312.04 77.9536C312.138 78.3914 312.063 78.8501 311.831 79.2343L303.298 92.0437C303.144 92.2754 302.936 92.4667 302.693 92.6015C302.449 92.7364 302.177 92.8109 301.899 92.8188L301.853 92.8208Z" fill="white"/>
<path d="M129.002 116.623L128.738 117.494C131.571 118.788 134.454 120.041 137.306 121.224L137.473 120.31C134.653 119.141 131.802 117.902 129.002 116.623ZM146.009 123.659L145.938 124.61C148.81 125.679 151.722 126.696 154.595 127.642L154.568 126.656C151.726 125.721 148.845 124.714 146.007 123.658L146.009 123.659ZM163.132 129.291L163.255 130.307C166.121 131.128 169.018 131.896 171.865 132.591L171.646 131.55C168.83 130.864 165.964 130.106 163.131 129.292L163.132 129.291ZM180.078 133.421L180.392 134.483C183.202 135.045 186.031 135.548 188.8 135.978L188.393 134.899C185.655 134.474 182.858 133.975 180.078 133.42L180.078 133.421ZM196.557 135.983L197.055 137.074C199.766 137.368 202.481 137.602 205.124 137.763L204.535 136.665C201.921 136.505 199.236 136.273 196.556 135.982L196.557 135.983ZM212.299 136.944L212.975 138.043C215.538 138.069 218.095 138.027 220.574 137.918L219.819 136.82C217.362 136.927 214.834 136.968 212.298 136.943L212.299 136.944ZM227.049 136.294L227.89 137.388C230.269 137.145 232.626 136.829 234.895 136.452L233.978 135.368C231.734 135.741 229.401 136.054 227.05 136.293L227.049 136.294ZM240.568 134.044L241.559 135.113C243.711 134.602 245.83 134.019 247.854 133.378L246.792 132.328C244.791 132.962 242.695 133.539 240.568 134.044ZM252.623 130.226L253.751 131.251C255.639 130.482 257.482 129.637 259.228 128.741L258.04 127.742C256.314 128.628 254.493 129.463 252.625 130.223L252.623 130.226ZM263.012 124.897L264.257 125.863C265.834 124.858 267.359 123.775 268.827 122.617L267.536 121.69C266.112 122.811 264.59 123.89 263.013 124.896L263.012 124.897ZM271.57 118.134L272.911 119.023C274.177 117.782 275.374 116.471 276.494 115.097L275.113 114.252C274.005 115.61 272.822 116.906 271.57 118.134L271.57 118.134Z" fill="#090814"/>
<path d="M125.991 111.812L126.246 112.674L121.998 113.924L123.553 118.074L122.709 118.388L120.813 113.332L125.991 111.812Z" fill="#090814"/>
<path d="M275.564 108.862L275.836 109.719L280.055 108.375L281.09 112.684L281.965 112.471L280.705 107.221L275.564 108.862Z" fill="#090814"/>
</g>
<defs>
<clipPath id="clip0_110_528">
<rect width="324" height="254" fill="white"/>
</clipPath>
</defs>
</svg>
