<svg width="37" height="37" viewBox="0 0 37 37" fill="none" xmlns="http://www.w3.org/2000/svg">
<path d="M18.5 37C28.7173 37 37 28.7173 37 18.5C37 8.28273 28.7173 0 18.5 0C8.28273 0 0 8.28273 0 18.5C0 28.7173 8.28273 37 18.5 37Z" fill="#F3BA2F"/>
<path d="M14.0091 16.6546L18.5 12.1638L22.9932 16.6569L25.6063 14.0438L18.5 6.9375L11.396 14.0415L14.0091 16.6546ZM6.9375 18.5L9.55063 15.8869L12.1638 18.5L9.55063 21.1131L6.9375 18.5ZM14.0091 20.3454L18.5 24.8363L22.9932 20.3431L25.6063 22.955L18.5 30.0625L11.396 22.9585L11.3925 22.955L14.0091 20.3454ZM24.8363 18.5L27.4494 15.8869L30.0625 18.5L27.4494 21.1131L24.8363 18.5ZM21.1501 18.4977H21.1524V18.5L18.5 21.1524L15.851 18.5046L15.8464 18.5L15.851 18.4965L16.3147 18.0317L16.5402 17.8062L18.5 15.8476L21.1501 18.4977Z" fill="white"/>
</svg>
