<svg width="35" height="35" viewBox="0 0 35 35" fill="none" xmlns="http://www.w3.org/2000/svg">
<path d="M18.7497 5.92085L27.3043 12.9456C27.7856 13.3394 28.0728 13.9461 28.0728 14.5936V27.4313C28.0728 28.6184 27.1424 29.5313 26.056 29.5313H22.2395V22.6042C22.2395 21.5406 21.817 20.5205 21.0649 19.7684C20.3128 19.0163 19.2927 18.5938 18.2291 18.5938H16.7708C15.7071 18.5938 14.6871 19.0163 13.935 19.7684C13.1829 20.5205 12.7604 21.5406 12.7604 22.6042V29.5313H8.94389C7.85743 29.5313 6.92702 28.6184 6.92702 27.4313V14.595C6.92702 13.9461 7.21431 13.3409 7.69556 12.9471L16.2501 5.91939C16.6012 5.62737 17.0433 5.46749 17.4999 5.46749C17.9565 5.46749 18.3987 5.62883 18.7497 5.92085ZM26.056 31.7173C28.4039 31.7173 30.2603 29.7704 30.2603 27.4298V14.5936C30.262 13.9557 30.1223 13.3253 29.8512 12.7479C29.5802 12.1704 29.1845 11.6602 28.6926 11.254L20.1395 4.22918C19.3972 3.61581 18.4643 3.28027 17.5014 3.28027C16.5384 3.28027 15.6056 3.61581 14.8633 4.22918L6.30722 11.2554C5.81539 11.6617 5.4197 12.1719 5.14863 12.7493C4.87756 13.3268 4.73783 13.9571 4.73952 14.595V27.4313C4.73952 29.7719 6.59598 31.7188 8.94389 31.7188L26.056 31.7173Z" fill="white"/>
</svg>
