<svg width="17" height="17" viewBox="0 0 17 17" fill="none" xmlns="http://www.w3.org/2000/svg">
<path d="M4.67505 8.07285C4.67505 6.14194 4.67505 5.17648 5.27217 4.57652C5.87001 3.97656 6.83122 3.97656 8.75505 3.97656H10.795C12.7182 3.97656 13.6801 3.97656 14.2772 4.57652C14.875 5.17648 14.875 6.14194 14.875 8.07285V11.487C14.875 13.4179 14.875 14.3834 14.2772 14.9834C13.6801 15.5833 12.7182 15.5833 10.795 15.5833H8.75505C6.83122 15.5833 5.87001 15.5833 5.27217 14.9834C4.67434 14.3834 4.67505 13.4179 4.67505 11.487V8.07285Z" fill="#9F9D9D"/>
<path opacity="0.5" d="M2.95517 2.24679C2.125 3.07625 2.125 4.41217 2.125 7.08329V8.49996C2.125 11.1711 2.125 12.507 2.95517 13.3365C3.39221 13.7742 3.97021 13.981 4.811 14.0788C4.675 13.4838 4.675 12.665 4.675 11.4863V8.07284C4.675 6.14192 4.675 5.17646 5.27213 4.5765C5.86996 3.97654 6.83117 3.97654 8.755 3.97654H10.795C11.9652 3.97654 12.7783 3.97654 13.3719 4.11113C13.2742 3.26608 13.0673 2.68596 12.6282 2.24679C11.7987 1.41663 10.4628 1.41663 7.79167 1.41663C5.12054 1.41663 3.78463 1.41663 2.95517 2.24679Z" fill="#9F9D9D"/>
</svg>
