<svg width="29" height="29" viewBox="0 0 29 29" fill="none" xmlns="http://www.w3.org/2000/svg">
<path fill-rule="evenodd" clip-rule="evenodd" d="M8.6648 16.3687L14.9521 8.33797C15.4732 7.67238 16.2373 7.24106 17.0765 7.13889C17.9156 7.03671 18.7609 7.27206 19.4265 7.79315C20.0921 8.31424 20.5234 9.0784 20.6256 9.91751C20.7277 10.7566 20.4924 11.602 19.9713 12.2675L13.684 20.2983C13.1629 20.9639 12.3988 21.3952 11.5596 21.4974C10.7205 21.5995 9.8752 21.3642 9.20962 20.8431C8.54403 20.322 8.1127 19.5578 8.01053 18.7187C7.90836 17.8796 8.1437 17.0343 8.6648 16.3687ZM8.03075 22.3489C6.96581 21.5151 6.27569 20.2925 6.11221 18.9499C5.94873 17.6073 6.32528 16.2548 7.15903 15.1898L13.4463 7.1591C14.2801 6.09416 15.5027 5.40404 16.8453 5.24056C18.1879 5.07709 19.5404 5.45364 20.6054 6.28739C21.6703 7.12114 22.3604 8.34378 22.5239 9.68636C22.6874 11.0289 22.3108 12.3815 21.4771 13.4464L15.1898 21.4771C14.356 22.5421 13.1334 23.2322 11.7908 23.3957C10.4482 23.5592 9.09569 23.1826 8.03075 22.3489ZM10.1706 17.5476C9.96212 17.8138 9.86798 18.1519 9.90885 18.4876C9.94972 18.8232 10.1223 19.1289 10.3885 19.3373C10.6547 19.5458 10.9929 19.6399 11.3285 19.599C11.6641 19.5582 11.9698 19.3856 12.1782 19.1194L16.1078 14.1002C16.3162 13.834 16.4104 13.4958 16.3695 13.1602C16.3286 12.8245 16.1561 12.5189 15.8899 12.3104C15.6236 12.102 15.2855 12.0079 14.9499 12.0487C14.6142 12.0896 14.3086 12.2621 14.1001 12.5284L10.1706 17.5476Z" fill="#E6E6E6"/>
</svg>
