<svg width="20" height="20" viewBox="0 0 20 20" fill="none" xmlns="http://www.w3.org/2000/svg">
<path d="M14.1667 18.3333C13.4723 18.3333 12.882 18.0902 12.3959 17.6041C11.9098 17.118 11.6667 16.5277 11.6667 15.8333C11.6667 15.75 11.6876 15.5555 11.7292 15.25L5.87508 11.8333C5.65286 12.0416 5.39591 12.205 5.10425 12.3233C4.81258 12.4416 4.50008 12.5005 4.16675 12.5C3.4723 12.5 2.88203 12.2569 2.39591 11.7708C1.9098 11.2847 1.66675 10.6944 1.66675 9.99996C1.66675 9.30551 1.9098 8.71524 2.39591 8.22913C2.88203 7.74301 3.4723 7.49996 4.16675 7.49996C4.50008 7.49996 4.81258 7.55913 5.10425 7.67746C5.39591 7.79579 5.65286 7.95885 5.87508 8.16663L11.7292 4.74996C11.7015 4.65274 11.6842 4.55913 11.6776 4.46913C11.6709 4.37913 11.6673 4.27829 11.6667 4.16663C11.6667 3.47218 11.9098 2.8819 12.3959 2.39579C12.882 1.90968 13.4723 1.66663 14.1667 1.66663C14.8612 1.66663 15.4515 1.90968 15.9376 2.39579C16.4237 2.8819 16.6667 3.47218 16.6667 4.16663C16.6667 4.86107 16.4237 5.45135 15.9376 5.93746C15.4515 6.42357 14.8612 6.66663 14.1667 6.66663C13.8334 6.66663 13.5209 6.60746 13.2292 6.48913C12.9376 6.37079 12.6806 6.20774 12.4584 5.99996L6.60425 9.41663C6.63203 9.51385 6.64953 9.60774 6.65675 9.69829C6.66397 9.78885 6.6673 9.8894 6.66675 9.99996C6.66619 10.1105 6.66286 10.2113 6.65675 10.3025C6.65064 10.3936 6.63314 10.4872 6.60425 10.5833L12.4584 14C12.6806 13.7916 12.9376 13.6286 13.2292 13.5108C13.5209 13.393 13.8334 13.3338 14.1667 13.3333C14.8612 13.3333 15.4515 13.5763 15.9376 14.0625C16.4237 14.5486 16.6667 15.1388 16.6667 15.8333C16.6667 16.5277 16.4237 17.118 15.9376 17.6041C15.4515 18.0902 14.8612 18.3333 14.1667 18.3333Z" fill="#E6E6E6"/>
</svg>
