<svg width="383" height="232" viewBox="0 0 383 232" fill="none" xmlns="http://www.w3.org/2000/svg">
<g clip-path="url(#clip0_145_1215)">
<path d="M383 140V143V140Z" fill="#EC0000"/>
<path d="M383 140V143" stroke="#EC0000"/>
<path d="M381 140V143V140Z" fill="#00DA3C"/>
<path d="M381 140V143" stroke="#00DA3C"/>
<path d="M380 139V145V139Z" fill="#EC0000"/>
<path d="M380 139V145" stroke="#EC0000"/>
<path d="M380 145V148V145Z" fill="#00DA3C"/>
<path d="M380 145V148" stroke="#00DA3C"/>
<path d="M378 145V146V145Z" fill="#EC0000"/>
<path d="M378 145V146" stroke="#EC0000"/>
<path d="M376 145V148V145Z" fill="#00DA3C"/>
<path d="M376 145V148" stroke="#00DA3C"/>
<path d="M375 142V146V142Z" fill="#EC0000"/>
<path d="M375 142V146" stroke="#EC0000"/>
<path d="M374 139V142V139Z" fill="#EC0000"/>
<path d="M374 139V142" stroke="#EC0000"/>
<path d="M372 145V151V145Z" fill="#00DA3C"/>
<path d="M372 145V151" stroke="#00DA3C"/>
<path d="M372 148V151V148Z" fill="#EC0000"/>
<path d="M372 148V151" stroke="#EC0000"/>
<path d="M371 142V148V142Z" fill="#EC0000"/>
<path d="M371 142V148" stroke="#EC0000"/>
<path d="M370 142V143V142Z" fill="#EC0000"/>
<path d="M370 142V143" stroke="#EC0000"/>
<path d="M368 139V142V139Z" fill="#00DA3C"/>
<path d="M368 139V142" stroke="#00DA3C"/>
<path d="M367 140V142V140Z" fill="#EC0000"/>
<path d="M367 140V142" stroke="#EC0000"/>
<path d="M367 140V143V140Z" fill="#00DA3C"/>
<path d="M367 140V143" stroke="#00DA3C"/>
<path d="M366 140V143V140Z" fill="#00DA3C"/>
<path d="M366 140V143" stroke="#00DA3C"/>
<path d="M364 143V146V143Z" fill="#EC0000"/>
<path d="M364 143V146" stroke="#EC0000"/>
<path d="M363 143V146V143Z" fill="#00DA3C"/>
<path d="M363 143V146" stroke="#00DA3C"/>
<path d="M363 148V150V148Z" fill="#00DA3C"/>
<path d="M363 148V150" stroke="#00DA3C"/>
<path d="M359 146V150V146Z" fill="#EC0000"/>
<path d="M359 146V150" stroke="#EC0000"/>
<path d="M359 145V148V145Z" fill="#00DA3C"/>
<path d="M359 145V148" stroke="#00DA3C"/>
<path d="M358 145V150V145Z" fill="#00DA3C"/>
<path d="M358 145V150" stroke="#00DA3C"/>
<path d="M357 150V153V150Z" fill="#00DA3C"/>
<path d="M357 150V153" stroke="#00DA3C"/>
<path d="M355 151V153V151Z" fill="#EC0000"/>
<path d="M355 151V153" stroke="#EC0000"/>
<path d="M354 150V151V150Z" fill="#EC0000"/>
<path d="M354 150V151" stroke="#EC0000"/>
<path d="M354 148V150V148Z" fill="#EC0000"/>
<path d="M354 148V150" stroke="#EC0000"/>
<path d="M353 148V150V148Z" fill="#EC0000"/>
<path d="M353 148V150" stroke="#EC0000"/>
<path d="M351 145V148V145Z" fill="#EC0000"/>
<path d="M351 145V148" stroke="#EC0000"/>
<path d="M350 146V148V146Z" fill="#EC0000"/>
<path d="M350 146V148" stroke="#EC0000"/>
<path d="M350 145V146V145Z" fill="#EC0000"/>
<path d="M350 145V146" stroke="#EC0000"/>
<path d="M349 145V146V145Z" fill="#00DA3C"/>
<path d="M349 145V146" stroke="#00DA3C"/>
<path d="M347 143V146V143Z" fill="#EC0000"/>
<path d="M347 143V146" stroke="#EC0000"/>
<path d="M346 142V143V142Z" fill="#EC0000"/>
<path d="M346 142V143" stroke="#EC0000"/>
<path d="M345 142V143V142Z" fill="#EC0000"/>
<path d="M345 142V143" stroke="#EC0000"/>
<path d="M342 142V145V142Z" fill="#00DA3C"/>
<path d="M342 142V145" stroke="#00DA3C"/>
<path d="M342 143V145V143Z" fill="#EC0000"/>
<path d="M342 143V145" stroke="#EC0000"/>
<path d="M341 145V146V145Z" fill="#00DA3C"/>
<path d="M341 145V146" stroke="#00DA3C"/>
<path d="M340 145V146V145Z" fill="#00DA3C"/>
<path d="M340 145V146" stroke="#00DA3C"/>
<path d="M338 143V146V143Z" fill="#EC0000"/>
<path d="M338 143V146" stroke="#EC0000"/>
<path d="M337 142V143V142Z" fill="#EC0000"/>
<path d="M337 142V143" stroke="#EC0000"/>
<path d="M336 140V143V140Z" fill="#EC0000"/>
<path d="M336 140V143" stroke="#EC0000"/>
<path d="M334 140V142V140Z" fill="#EC0000"/>
<path d="M334 140V142" stroke="#EC0000"/>
<path d="M333 137V140V137Z" fill="#EC0000"/>
<path d="M333 137V140" stroke="#EC0000"/>
<path d="M332 136V137V136Z" fill="#EC0000"/>
<path d="M332 136V137" stroke="#EC0000"/>
<path d="M330 133V136V133Z" fill="#EC0000"/>
<path d="M330 133V136" stroke="#EC0000"/>
<path d="M330 131V134V131Z" fill="#EC0000"/>
<path d="M330 131V134" stroke="#EC0000"/>
<path d="M329 130V133V130Z" fill="#EC0000"/>
<path d="M329 130V133" stroke="#EC0000"/>
<path d="M328 128V130V128Z" fill="#EC0000"/>
<path d="M328 128V130" stroke="#EC0000"/>
<path d="M326 127V131V127Z" fill="#00DA3C"/>
<path d="M326 127V131" stroke="#00DA3C"/>
<path d="M324 128V130V128Z" fill="#00DA3C"/>
<path d="M324 128V130" stroke="#00DA3C"/>
<path d="M324 127V131V127Z" fill="#EC0000"/>
<path d="M324 127V131" stroke="#EC0000"/>
<path d="M323 127V130V127Z" fill="#EC0000"/>
<path d="M323 127V130" stroke="#EC0000"/>
<path d="M322 124V127V124Z" fill="#EC0000"/>
<path d="M322 124V127" stroke="#EC0000"/>
<path d="M320 122V127V122Z" fill="#00DA3C"/>
<path d="M320 122V127" stroke="#00DA3C"/>
<path d="M319 124V125V124Z" fill="#EC0000"/>
<path d="M319 124V125" stroke="#EC0000"/>
<path d="M318 122V125V122Z" fill="#00DA3C"/>
<path d="M318 122V125" stroke="#00DA3C"/>
<path d="M318 121V124V121Z" fill="#EC0000"/>
<path d="M318 121V124" stroke="#EC0000"/>
<path d="M316 118V121V118Z" fill="#EC0000"/>
<path d="M316 118V121" stroke="#EC0000"/>
<path d="M315 116V119V116Z" fill="#EC0000"/>
<path d="M315 116V119" stroke="#EC0000"/>
<path d="M314 115V119V115Z" fill="#00DA3C"/>
<path d="M314 115V119" stroke="#00DA3C"/>
<path d="M314 115V119V115Z" fill="#EC0000"/>
<path d="M314 115V119" stroke="#EC0000"/>
<path d="M312 112V113V112Z" fill="#EC0000"/>
<path d="M312 112V113" stroke="#EC0000"/>
<path d="M311 108V112V108Z" fill="#EC0000"/>
<path d="M311 108V112" stroke="#EC0000"/>
<path d="M310 108V113V108Z" fill="#00DA3C"/>
<path d="M310 108V113" stroke="#00DA3C"/>
<path d="M307 108V115V108Z" fill="#EC0000"/>
<path d="M307 108V115" stroke="#EC0000"/>
<path d="M306 104V107V104Z" fill="#EC0000"/>
<path d="M306 104V107" stroke="#EC0000"/>
<path d="M305 102V108V102Z" fill="#00DA3C"/>
<path d="M305 102V108" stroke="#00DA3C"/>
<path d="M305 104V108V104Z" fill="#EC0000"/>
<path d="M305 104V108" stroke="#EC0000"/>
<path d="M303 101V104V101Z" fill="#EC0000"/>
<path d="M303 101V104" stroke="#EC0000"/>
<path d="M302 98V102V98Z" fill="#EC0000"/>
<path d="M302 98V102" stroke="#EC0000"/>
<path d="M301 99V104V99Z" fill="#EC0000"/>
<path d="M301 99V104" stroke="#EC0000"/>
<path d="M301 95V98V95Z" fill="#EC0000"/>
<path d="M301 95V98" stroke="#EC0000"/>
<path d="M299 93V99V93Z" fill="#00DA3C"/>
<path d="M299 93V99" stroke="#00DA3C"/>
<path d="M298 96V101V96Z" fill="#EC0000"/>
<path d="M298 96V101" stroke="#EC0000"/>
<path d="M297 96V98V96Z" fill="#00DA3C"/>
<path d="M297 96V98" stroke="#00DA3C"/>
<path d="M295 96V101V96Z" fill="#EC0000"/>
<path d="M295 96V101" stroke="#EC0000"/>
<path d="M294 96V105V96Z" fill="#00DA3C"/>
<path d="M294 96V105" stroke="#00DA3C"/>
<path d="M294 101V108V101Z" fill="#00DA3C"/>
<path d="M294 101V108" stroke="#00DA3C"/>
<path d="M293 107V112V107Z" fill="#00DA3C"/>
<path d="M293 107V112" stroke="#00DA3C"/>
<path d="M291 107V112V107Z" fill="#EC0000"/>
<path d="M291 107V112" stroke="#EC0000"/>
<path d="M289 102V108V102Z" fill="#EC0000"/>
<path d="M289 102V108" stroke="#EC0000"/>
<path d="M288 99V104V99Z" fill="#EC0000"/>
<path d="M288 99V104" stroke="#EC0000"/>
<path d="M288 99V102V99Z" fill="#00DA3C"/>
<path d="M288 99V102" stroke="#00DA3C"/>
<path d="M286 101V102V101Z" fill="#EC0000"/>
<path d="M286 101V102" stroke="#EC0000"/>
<path d="M285 101V105V101Z" fill="#00DA3C"/>
<path d="M285 101V105" stroke="#00DA3C"/>
<path d="M284 102V105V102Z" fill="#EC0000"/>
<path d="M284 102V105" stroke="#EC0000"/>
<path d="M284 99V104V99Z" fill="#EC0000"/>
<path d="M284 99V104" stroke="#EC0000"/>
<path d="M281 95V99V95Z" fill="#EC0000"/>
<path d="M281 95V99" stroke="#EC0000"/>
<path d="M281 95V99V95Z" fill="#EC0000"/>
<path d="M281 95V99" stroke="#EC0000"/>
<path d="M280 90V93V90Z" fill="#EC0000"/>
<path d="M280 90V93" stroke="#EC0000"/>
<path d="M278 84V90V84Z" fill="#EC0000"/>
<path d="M278 84V90" stroke="#EC0000"/>
<path d="M277 80V86V80Z" fill="#EC0000"/>
<path d="M277 80V86" stroke="#EC0000"/>
<path d="M276 78V83V78Z" fill="#EC0000"/>
<path d="M276 78V83" stroke="#EC0000"/>
<path d="M276 77V92V77Z" fill="#00DA3C"/>
<path d="M276 77V92" stroke="#00DA3C"/>
<path d="M274 89V99V89Z" fill="#EC0000"/>
<path d="M274 89V99" stroke="#EC0000"/>
<path d="M273 83V92V83Z" fill="#EC0000"/>
<path d="M273 83V92" stroke="#EC0000"/>
<path d="M271 80V84V80Z" fill="#EC0000"/>
<path d="M271 80V84" stroke="#EC0000"/>
<path d="M271 80V84V80Z" fill="#00DA3C"/>
<path d="M271 80V84" stroke="#00DA3C"/>
<path d="M268 78V90V78Z" fill="#EC0000"/>
<path d="M268 78V90" stroke="#EC0000"/>
<path d="M268 75V81V75Z" fill="#EC0000"/>
<path d="M268 75V81" stroke="#EC0000"/>
<path d="M267 70V77V70Z" fill="#EC0000"/>
<path d="M267 70V77" stroke="#EC0000"/>
<path d="M265 70V75V70Z" fill="#00DA3C"/>
<path d="M265 70V75" stroke="#00DA3C"/>
<path d="M264 70V77V70Z" fill="#EC0000"/>
<path d="M264 70V77" stroke="#EC0000"/>
<path d="M264 72V75V72Z" fill="#EC0000"/>
<path d="M264 72V75" stroke="#EC0000"/>
<path d="M263 69V72V69Z" fill="#EC0000"/>
<path d="M263 69V72" stroke="#EC0000"/>
<path d="M261 69V75V69Z" fill="#00DA3C"/>
<path d="M261 69V75" stroke="#00DA3C"/>
<path d="M260 75V83V75Z" fill="#00DA3C"/>
<path d="M260 75V83" stroke="#00DA3C"/>
<path d="M259 77V86V77Z" fill="#EC0000"/>
<path d="M259 77V86" stroke="#EC0000"/>
<path d="M259 78V86V78Z" fill="#00DA3C"/>
<path d="M259 78V86" stroke="#00DA3C"/>
<path d="M256 87V98V87Z" fill="#00DA3C"/>
<path d="M256 87V98" stroke="#00DA3C"/>
<path d="M256 93V105V93Z" fill="#EC0000"/>
<path d="M256 93V105" stroke="#EC0000"/>
<path d="M255 89V95V89Z" fill="#EC0000"/>
<path d="M255 89V95" stroke="#EC0000"/>
<path d="M252 87V96V87Z" fill="#00DA3C"/>
<path d="M252 87V96" stroke="#00DA3C"/>
<path d="M251 98V110V98Z" fill="#00DA3C"/>
<path d="M251 98V110" stroke="#00DA3C"/>
<path d="M251 104V121V104Z" fill="#00DA3C"/>
<path d="M251 104V121" stroke="#00DA3C"/>
<path d="M250 105V122V105Z" fill="#EC0000"/>
<path d="M250 105V122" stroke="#EC0000"/>
<path d="M248 104V115V104Z" fill="#00DA3C"/>
<path d="M248 104V115" stroke="#00DA3C"/>
<path d="M247 113V124V113Z" fill="#00DA3C"/>
<path d="M247 113V124" stroke="#00DA3C"/>
<path d="M246 119V130V119Z" fill="#00DA3C"/>
<path d="M246 119V130" stroke="#00DA3C"/>
<path d="M246 116V130V116Z" fill="#00DA3C"/>
<path d="M246 116V130" stroke="#00DA3C"/>
<path d="M244 125V133V125Z" fill="#EC0000"/>
<path d="M244 125V133" stroke="#EC0000"/>
<path d="M243 131V139V131Z" fill="#EC0000"/>
<path d="M243 131V139" stroke="#EC0000"/>
<path d="M242 125V140V125Z" fill="#EC0000"/>
<path d="M242 125V140" stroke="#EC0000"/>
<path d="M240 118V128V118Z" fill="#EC0000"/>
<path d="M240 118V128" stroke="#EC0000"/>
<path d="M239 115V121V115Z" fill="#EC0000"/>
<path d="M239 115V121" stroke="#EC0000"/>
<path d="M239 115V122V115Z" fill="#00DA3C"/>
<path d="M239 115V122" stroke="#00DA3C"/>
<path d="M238 119V127V119Z" fill="#00DA3C"/>
<path d="M238 119V127" stroke="#00DA3C"/>
<path d="M235 121V128V121Z" fill="#EC0000"/>
<path d="M235 121V128" stroke="#EC0000"/>
<path d="M234 116V124V116Z" fill="#EC0000"/>
<path d="M234 116V124" stroke="#EC0000"/>
<path d="M234 115V119V115Z" fill="#EC0000"/>
<path d="M234 115V119" stroke="#EC0000"/>
<path d="M233 115V119V115Z" fill="#EC0000"/>
<path d="M233 115V119" stroke="#EC0000"/>
<path d="M231 115V118V115Z" fill="#EC0000"/>
<path d="M231 115V118" stroke="#EC0000"/>
<path d="M230 110V115V110Z" fill="#EC0000"/>
<path d="M230 110V115" stroke="#EC0000"/>
<path d="M229 108V115V108Z" fill="#00DA3C"/>
<path d="M229 108V115" stroke="#00DA3C"/>
<path d="M227 115V127V115Z" fill="#00DA3C"/>
<path d="M227 115V127" stroke="#00DA3C"/>
<path d="M226 125V134V125Z" fill="#EC0000"/>
<path d="M226 125V134" stroke="#EC0000"/>
<path d="M226 124V131V124Z" fill="#EC0000"/>
<path d="M226 124V131" stroke="#EC0000"/>
<path d="M225 122V128V122Z" fill="#00DA3C"/>
<path d="M225 122V128" stroke="#00DA3C"/>
<path d="M223 127V131V127Z" fill="#EC0000"/>
<path d="M223 127V131" stroke="#EC0000"/>
<path d="M222 130V133V130Z" fill="#EC0000"/>
<path d="M222 130V133" stroke="#EC0000"/>
<path d="M222 125V131V125Z" fill="#EC0000"/>
<path d="M222 125V131" stroke="#EC0000"/>
<path d="M221 124V128V124Z" fill="#00DA3C"/>
<path d="M221 124V128" stroke="#00DA3C"/>
<path d="M219 127V131V127Z" fill="#EC0000"/>
<path d="M219 127V131" stroke="#EC0000"/>
<path d="M217 125V128V125Z" fill="#EC0000"/>
<path d="M217 125V128" stroke="#EC0000"/>
<path d="M216 118V125V118Z" fill="#EC0000"/>
<path d="M216 118V125" stroke="#EC0000"/>
<path d="M214 118V121V118Z" fill="#00DA3C"/>
<path d="M214 118V121" stroke="#00DA3C"/>
<path d="M214 118V121V118Z" fill="#EC0000"/>
<path d="M214 118V121" stroke="#EC0000"/>
<path d="M213 118V122V118Z" fill="#EC0000"/>
<path d="M213 118V122" stroke="#EC0000"/>
<path d="M212 116V118V116Z" fill="#00DA3C"/>
<path d="M212 116V118" stroke="#00DA3C"/>
<path d="M210 116V119V116Z" fill="#EC0000"/>
<path d="M210 116V119" stroke="#EC0000"/>
<path d="M209 116V125V116Z" fill="#00DA3C"/>
<path d="M209 116V125" stroke="#00DA3C"/>
<path d="M209 124V133V124Z" fill="#EC0000"/>
<path d="M209 124V133" stroke="#EC0000"/>
<path d="M208 124V130V124Z" fill="#00DA3C"/>
<path d="M208 124V130" stroke="#00DA3C"/>
<path d="M206 130V136V130Z" fill="#00DA3C"/>
<path d="M206 130V136" stroke="#00DA3C"/>
<path d="M205 140V148V140Z" fill="#00DA3C"/>
<path d="M205 140V148" stroke="#00DA3C"/>
<path d="M204 150V157V150Z" fill="#00DA3C"/>
<path d="M204 150V157" stroke="#00DA3C"/>
<path d="M202 151V160V151Z" fill="#00DA3C"/>
<path d="M202 151V160" stroke="#00DA3C"/>
<path d="M202 151V159V151Z" fill="#EC0000"/>
<path d="M202 151V159" stroke="#EC0000"/>
<path d="M201 146V151V146Z" fill="#EC0000"/>
<path d="M201 146V151" stroke="#EC0000"/>
<path d="M199 146V151V146Z" fill="#EC0000"/>
<path d="M199 146V151" stroke="#EC0000"/>
<path d="M198 148V153V148Z" fill="#EC0000"/>
<path d="M198 148V153" stroke="#EC0000"/>
<path d="M198 148V154V148Z" fill="#EC0000"/>
<path d="M198 148V154" stroke="#EC0000"/>
<path d="M196 146V153V146Z" fill="#00DA3C"/>
<path d="M196 146V153" stroke="#00DA3C"/>
<path d="M195 148V154V148Z" fill="#EC0000"/>
<path d="M195 148V154" stroke="#EC0000"/>
<path d="M194 145V148V145Z" fill="#EC0000"/>
<path d="M194 145V148" stroke="#EC0000"/>
<path d="M192 145V148V145Z" fill="#EC0000"/>
<path d="M192 145V148" stroke="#EC0000"/>
<path d="M191 146V148V146Z" fill="#EC0000"/>
<path d="M191 146V148" stroke="#EC0000"/>
<path d="M190 146V153V146Z" fill="#00DA3C"/>
<path d="M190 146V153" stroke="#00DA3C"/>
<path d="M190 153V156V153Z" fill="#00DA3C"/>
<path d="M190 153V156" stroke="#00DA3C"/>
<path d="M188 148V156V148Z" fill="#EC0000"/>
<path d="M188 148V156" stroke="#EC0000"/>
<path d="M187 146V151V146Z" fill="#00DA3C"/>
<path d="M187 146V151" stroke="#00DA3C"/>
<path d="M186 150V153V150Z" fill="#00DA3C"/>
<path d="M186 150V153" stroke="#00DA3C"/>
<path d="M186 148V153V148Z" fill="#EC0000"/>
<path d="M186 148V153" stroke="#EC0000"/>
<path d="M184 146V150V146Z" fill="#EC0000"/>
<path d="M184 146V150" stroke="#EC0000"/>
<path d="M183 148V151V148Z" fill="#00DA3C"/>
<path d="M183 148V151" stroke="#00DA3C"/>
<path d="M181 150V151V150Z" fill="#EC0000"/>
<path d="M181 150V151" stroke="#EC0000"/>
<path d="M179 150V153V150Z" fill="#00DA3C"/>
<path d="M179 150V153" stroke="#00DA3C"/>
<path d="M179 151V154V151Z" fill="#EC0000"/>
<path d="M179 151V154" stroke="#EC0000"/>
<path d="M178 153V154V153Z" fill="#00DA3C"/>
<path d="M178 153V154" stroke="#00DA3C"/>
<path d="M177 153V154V153Z" fill="#00DA3C"/>
<path d="M177 153V154" stroke="#00DA3C"/>
<path d="M175 148V150V148Z" fill="#00DA3C"/>
<path d="M175 148V150" stroke="#00DA3C"/>
<path d="M174 148V150V148Z" fill="#EC0000"/>
<path d="M174 148V150" stroke="#EC0000"/>
<path d="M173 142V148V142Z" fill="#EC0000"/>
<path d="M173 142V148" stroke="#EC0000"/>
<path d="M173 143V145V143Z" fill="#EC0000"/>
<path d="M173 143V145" stroke="#EC0000"/>
<path d="M171 143V145V143Z" fill="#00DA3C"/>
<path d="M171 143V145" stroke="#00DA3C"/>
<path d="M170 142V145V142Z" fill="#EC0000"/>
<path d="M170 142V145" stroke="#EC0000"/>
<path d="M169 139V142V139Z" fill="#EC0000"/>
<path d="M169 139V142" stroke="#EC0000"/>
<path d="M169 139V140V139Z" fill="#00DA3C"/>
<path d="M169 139V140" stroke="#00DA3C"/>
<path d="M167 139V140V139Z" fill="#EC0000"/>
<path d="M167 139V140" stroke="#EC0000"/>
<path d="M166 137V145V137Z" fill="#00DA3C"/>
<path d="M166 137V145" stroke="#00DA3C"/>
<path d="M165 140V143V140Z" fill="#EC0000"/>
<path d="M165 140V143" stroke="#EC0000"/>
<path d="M162 139V140V139Z" fill="#EC0000"/>
<path d="M162 139V140" stroke="#EC0000"/>
<path d="M161 137V139V137Z" fill="#00DA3C"/>
<path d="M161 137V139" stroke="#00DA3C"/>
<path d="M160 137V142V137Z" fill="#EC0000"/>
<path d="M160 137V142" stroke="#EC0000"/>
<path d="M160 137V140V137Z" fill="#00DA3C"/>
<path d="M160 137V140" stroke="#00DA3C"/>
<path d="M158 139V140V139Z" fill="#00DA3C"/>
<path d="M158 139V140" stroke="#00DA3C"/>
<path d="M157 139V142V139Z" fill="#EC0000"/>
<path d="M157 139V142" stroke="#EC0000"/>
<path d="M156 140V142V140Z" fill="#00DA3C"/>
<path d="M156 140V142" stroke="#00DA3C"/>
<path d="M156 142V143V142Z" fill="#00DA3C"/>
<path d="M156 142V143" stroke="#00DA3C"/>
<path d="M154 137V142V137Z" fill="#EC0000"/>
<path d="M154 137V142" stroke="#EC0000"/>
<path d="M153 133V137V133Z" fill="#EC0000"/>
<path d="M153 133V137" stroke="#EC0000"/>
<path d="M152 131V134V131Z" fill="#EC0000"/>
<path d="M152 131V134" stroke="#EC0000"/>
<path d="M150 128V131V128Z" fill="#EC0000"/>
<path d="M150 128V131" stroke="#EC0000"/>
<path d="M149 128V131V128Z" fill="#EC0000"/>
<path d="M149 128V131" stroke="#EC0000"/>
<path d="M149 130V131V130Z" fill="#EC0000"/>
<path d="M149 130V131" stroke="#EC0000"/>
<path d="M148 130V131V130Z" fill="#00DA3C"/>
<path d="M148 130V131" stroke="#00DA3C"/>
<path d="M145 130V133V130Z" fill="#00DA3C"/>
<path d="M145 130V133" stroke="#00DA3C"/>
<path d="M144 131V134V131Z" fill="#EC0000"/>
<path d="M144 131V134" stroke="#EC0000"/>
<path d="M143 128V131V128Z" fill="#00DA3C"/>
<path d="M143 128V131" stroke="#00DA3C"/>
<path d="M143 131V133V131Z" fill="#00DA3C"/>
<path d="M143 131V133" stroke="#00DA3C"/>
<path d="M141 131V133V131Z" fill="#EC0000"/>
<path d="M141 131V133" stroke="#EC0000"/>
<path d="M140 130V131V130Z" fill="#EC0000"/>
<path d="M140 130V131" stroke="#EC0000"/>
<path d="M139 130V131V130Z" fill="#00DA3C"/>
<path d="M139 130V131" stroke="#00DA3C"/>
<path d="M137 131V133V131Z" fill="#EC0000"/>
<path d="M137 131V133" stroke="#EC0000"/>
<path d="M136 130V131V130Z" fill="#EC0000"/>
<path d="M136 130V131" stroke="#EC0000"/>
<path d="M136 128V130V128Z" fill="#00DA3C"/>
<path d="M136 128V130" stroke="#00DA3C"/>
<path d="M135 131V139V131Z" fill="#00DA3C"/>
<path d="M135 131V139" stroke="#00DA3C"/>
<path d="M133 136V142V136Z" fill="#EC0000"/>
<path d="M133 136V142" stroke="#EC0000"/>
<path d="M132 136V139V136Z" fill="#EC0000"/>
<path d="M132 136V139" stroke="#EC0000"/>
<path d="M131 134V139V134Z" fill="#EC0000"/>
<path d="M131 134V139" stroke="#EC0000"/>
<path d="M131 131V134V131Z" fill="#EC0000"/>
<path d="M131 131V134" stroke="#EC0000"/>
<path d="M128 133V134V133Z" fill="#00DA3C"/>
<path d="M128 133V134" stroke="#00DA3C"/>
<path d="M127 134V136V134Z" fill="#EC0000"/>
<path d="M127 134V136" stroke="#EC0000"/>
<path d="M126 134V137V134Z" fill="#00DA3C"/>
<path d="M126 134V137" stroke="#00DA3C"/>
<path d="M124 136V137V136Z" fill="#EC0000"/>
<path d="M124 136V137" stroke="#EC0000"/>
<path d="M123 136V137V136Z" fill="#00DA3C"/>
<path d="M123 136V137" stroke="#00DA3C"/>
<path d="M123 137V139V137Z" fill="#00DA3C"/>
<path d="M123 137V139" stroke="#00DA3C"/>
<path d="M122 134V139V134Z" fill="#EC0000"/>
<path d="M122 134V139" stroke="#EC0000"/>
<path d="M120 134V136V134Z" fill="#00DA3C"/>
<path d="M120 134V136" stroke="#00DA3C"/>
<path d="M119 134V136V134Z" fill="#00DA3C"/>
<path d="M119 134V136" stroke="#00DA3C"/>
<path d="M119 133V134V133Z" fill="#EC0000"/>
<path d="M119 133V134" stroke="#EC0000"/>
<path d="M118 131V133V131Z" fill="#EC0000"/>
<path d="M118 131V133" stroke="#EC0000"/>
<path d="M116 130V133V130Z" fill="#EC0000"/>
<path d="M116 130V133" stroke="#EC0000"/>
<path d="M115 130V131V130Z" fill="#EC0000"/>
<path d="M115 130V131" stroke="#EC0000"/>
<path d="M114 128V130V128Z" fill="#00DA3C"/>
<path d="M114 128V130" stroke="#00DA3C"/>
<path d="M112 130V133V130Z" fill="#00DA3C"/>
<path d="M112 130V133" stroke="#00DA3C"/>
<path d="M110 130V131V130Z" fill="#EC0000"/>
<path d="M110 130V131" stroke="#EC0000"/>
<path d="M110 130V134V130Z" fill="#00DA3C"/>
<path d="M110 130V134" stroke="#00DA3C"/>
<path d="M109 133V134V133Z" fill="#EC0000"/>
<path d="M109 133V134" stroke="#EC0000"/>
<path d="M107 133V134V133Z" fill="#EC0000"/>
<path d="M107 133V134" stroke="#EC0000"/>
<path d="M106 133V134V133Z" fill="#00DA3C"/>
<path d="M106 133V134" stroke="#00DA3C"/>
<mask id="mask0_145_1215" style="mask-type:luminance" maskUnits="userSpaceOnUse" x="106" y="37" width="282" height="236">
<path d="M388 37H106V273H388V37Z" fill="white"/>
</mask>
<g mask="url(#mask0_145_1215)">
<path d="M381.055 167.782C381.055 167.782 380.973 142.029 379.912 142.029C379.83 142.029 379.343 142.511 378.769 142.979C378.2 143.442 378.177 143.383 377.626 143.889C377.034 144.432 377.103 145.077 376.482 145.077C375.959 145.077 375.894 144.995 375.339 144.74C374.751 144.469 374.757 144.026 374.196 144.026C373.614 144.026 373.646 144.555 373.053 144.911C372.503 145.242 372.465 145.399 371.909 145.399C371.322 145.399 371.364 144.665 370.766 144.606C370.221 144.552 370.193 144.552 369.623 144.552C369.05 144.552 368.929 144.746 368.48 144.746C367.785 144.746 367.963 143.614 367.336 142.655C366.82 141.863 366.835 141.244 366.193 141.244C365.692 141.244 365.605 141.244 365.05 141.384C364.462 141.533 364.448 141.607 363.907 142.02C363.305 142.479 363.265 142.447 362.764 143.128C362.121 144 362.259 144.244 361.62 145.126C361.115 145.823 361.058 145.729 360.477 146.286C359.915 146.825 359.909 146.811 359.334 147.318C358.766 147.82 358.757 147.798 358.191 148.304C357.614 148.818 357.66 149.058 357.047 149.358C356.517 149.618 356.468 149.432 355.904 149.618C355.325 149.81 355.343 149.981 354.761 150.114C354.2 150.243 354.186 150.243 353.618 150.243C353.043 150.243 353.01 150.243 352.475 149.954C351.866 149.625 351.903 149.452 351.331 148.951C350.76 148.451 350.771 148.419 350.188 147.954C349.628 147.507 349.631 147.483 349.045 147.128C348.488 146.791 348.448 146.938 347.902 146.571C347.305 146.17 347.34 146.052 346.758 145.591C346.196 145.145 346.183 145.186 345.615 144.757C345.04 144.322 345.076 144.005 344.472 143.864C343.933 143.737 343.894 143.864 343.329 143.737C342.751 143.608 342.757 143.34 342.186 143.34C341.614 143.34 341.608 143.5 341.042 143.731C340.465 143.966 340.48 144.067 339.899 144.273C339.337 144.471 339.329 144.538 338.756 144.538C338.186 144.538 338.185 144.425 337.613 144.358C337.042 144.29 337.015 144.358 336.469 144.268C335.872 144.171 335.882 143.921 335.326 143.478C334.738 143.009 334.746 142.983 334.183 142.445C333.603 141.891 333.568 141.953 333.04 141.294C332.425 140.527 332.424 140.505 331.897 139.595C331.281 138.533 331.359 138.428 330.753 137.35C330.215 136.392 330.174 136.447 329.61 135.524C329.031 134.576 329.042 134.56 328.467 133.608C327.899 132.668 327.927 132.622 327.324 131.739C326.784 130.949 326.81 130.848 326.18 130.261C325.667 129.782 325.601 129.961 325.037 129.607C324.458 129.243 324.477 129.171 323.894 128.825C323.334 128.491 323.312 128.578 322.751 128.246C322.168 127.902 322.196 127.785 321.607 127.471C321.053 127.176 320.992 127.401 320.464 127.029C319.849 126.594 319.896 126.434 319.321 125.856C318.753 125.285 318.732 125.331 318.178 124.73C317.589 124.091 317.605 124.055 317.035 123.375C316.462 122.692 316.417 122.765 315.891 122.005C315.274 121.112 315.382 120.926 314.748 120.069C314.239 119.381 314.139 119.566 313.605 118.915C312.995 118.172 313.002 118.144 312.462 117.281C311.859 116.317 311.943 116.185 311.318 115.26C310.8 114.492 310.793 114.453 310.175 113.895C309.65 113.42 309.518 113.738 309.032 113.194C308.374 112.458 308.45 112.278 307.889 111.334C307.307 110.357 307.41 110.145 306.746 109.351C306.267 108.78 306.14 109.071 305.602 108.604C304.997 108.077 304.934 108.133 304.459 107.365C303.791 106.282 303.947 106.055 303.316 104.901C302.803 103.962 302.811 103.893 302.173 103.179C301.668 102.614 301.479 102.987 301.029 102.345C300.336 101.353 300.538 101.013 299.886 99.9121C299.394 99.0811 299.371 99.0422 298.743 98.4809C298.228 98.0203 298.186 98.0799 297.6 97.8685C297.042 97.6673 297.01 97.8685 296.457 97.6556C295.867 97.4291 295.803 96.9755 295.313 96.9755C294.66 96.9755 294.73 97.855 294.17 98.7681C293.587 99.7192 293.528 99.6544 293.027 100.704C292.384 102.051 292.533 102.224 291.884 103.56C291.39 104.576 291.367 104.586 290.74 105.408C290.224 106.085 290.193 106.559 289.597 106.559C289.05 106.559 289.002 106.224 288.454 105.756C287.859 105.248 287.808 105.311 287.311 104.608C286.665 103.694 286.837 103.368 286.168 102.522C285.694 101.922 285.616 101.716 285.024 101.716C284.473 101.716 284.459 102.109 283.881 102.109C283.316 102.109 283.297 102.109 282.738 101.981C282.153 101.847 282.126 101.832 281.595 101.428C280.983 100.963 280.902 101.016 280.451 100.243C279.759 99.0567 279.787 98.9511 279.308 97.5085C278.644 95.5051 278.754 95.4183 278.165 93.3515C277.611 91.4063 277.592 91.4186 277.022 89.4843C276.449 87.5433 276.67 87.192 275.878 85.6009C275.527 84.8942 275.323 84.8888 274.735 84.8888C274.18 84.8888 274.169 85.2482 273.592 85.2482C273.026 85.2482 273.021 85.1311 272.449 85.1311C271.878 85.1311 271.874 85.1311 271.306 85.134C270.731 85.137 270.578 85.3827 270.162 85.3827C269.434 85.3827 269.543 84.1466 269.019 82.8208C268.4 81.2534 268.509 81.1481 267.876 79.5963C267.366 78.3477 267.367 78.3211 266.733 77.2201C266.224 76.3374 266.165 76.4169 265.589 75.6289C265.022 74.8528 265.031 74.8354 264.446 74.092C263.888 73.383 263.893 73.3674 263.303 72.7242C262.75 72.122 262.767 71.6013 262.16 71.6013C261.624 71.6013 261.501 71.6512 261.017 72.1414C260.358 72.8074 260.499 73.1321 259.873 73.9137C259.356 74.5597 259.181 74.2634 258.73 74.9965C258.038 76.1226 257.996 76.194 257.587 77.6321C256.853 80.2083 257.101 80.3798 256.444 83.0251C255.957 84.9829 256.035 85.1173 255.3 86.8385C254.891 87.7973 254.588 87.4441 254.157 88.3849C253.445 89.9423 253.515 90.062 253.014 91.8349C252.372 94.1092 252.521 94.2111 251.871 96.4792C251.378 98.2003 251.371 98.2156 250.728 99.8132C250.227 101.055 249.992 100.852 249.584 102.159C248.849 104.519 249.021 104.658 248.441 107.148C247.878 109.563 247.917 109.588 247.298 111.969C246.774 113.981 246.85 114.068 246.155 115.935C245.707 117.137 245.44 116.892 245.011 118.107C244.297 120.134 244.441 120.264 243.868 122.419C243.298 124.562 243.481 124.759 242.725 126.703C242.338 127.699 242.161 128.298 241.582 128.298C241.018 128.298 241.008 127.554 240.439 126.802C239.865 126.043 239.865 126.043 239.295 125.277C238.722 124.507 238.66 124.594 238.152 123.73C237.517 122.65 237.692 122.356 237.009 121.39C236.549 120.74 236.453 120.887 235.866 120.498C235.31 120.129 235.31 120.054 234.722 119.874C234.166 119.704 234.129 119.874 233.579 119.704C232.986 119.52 232.934 119.509 232.436 118.973C231.791 118.28 231.814 118.177 231.293 117.246C230.671 116.135 230.834 115.862 230.149 114.889C229.691 114.238 229.485 113.999 229.006 113.999C228.342 113.999 228.382 114.984 227.863 116.088C227.238 117.419 227.363 117.564 226.72 118.868C226.22 119.882 226.042 119.679 225.577 120.725C224.899 122.247 225.011 122.369 224.433 124.003C223.868 125.603 224.037 125.888 223.29 127.194C222.894 127.886 222.723 127.999 222.147 127.999C221.58 127.999 221.575 127.266 221.004 127.266C220.432 127.266 220.45 127.727 219.86 128.007C219.307 128.271 219.277 128.354 218.717 128.354C218.134 128.354 218.015 128.307 217.574 127.723C216.872 126.794 217.086 126.4 216.431 125.329C215.943 124.531 215.846 124.681 215.288 123.985C214.703 123.258 214.652 123.326 214.144 122.482C213.509 121.426 213.618 121.273 213.001 120.185C212.475 119.258 212.515 119.097 211.858 118.452C211.371 117.974 211.227 117.94 210.715 117.94C210.084 117.94 210.192 118.771 209.571 119.349C209.048 119.837 208.883 119.476 208.428 120.072C207.74 120.975 207.763 121.121 207.285 122.348C206.62 124.052 206.581 124.063 206.142 125.934C205.438 128.929 205.57 129.006 204.999 132.078C204.427 135.148 204.4 135.136 203.855 138.217C203.257 141.603 203.387 141.665 202.712 145.012C202.243 147.338 202.297 147.427 201.569 149.564C201.154 150.782 201.127 151.674 200.426 151.723C199.984 151.753 199.77 151.753 199.282 151.753C198.626 151.753 198.691 150.994 198.139 150.173C197.548 149.291 197.671 148.347 196.996 148.347C196.528 148.347 196.414 148.347 195.853 148.372C195.271 148.398 195.288 148.857 194.71 148.857C194.145 148.857 194.139 148.701 193.566 148.566C192.996 148.433 192.993 148.461 192.423 148.321C191.85 148.181 191.853 148.154 191.28 148.007C190.709 147.862 190.649 147.738 190.137 147.738C189.506 147.738 189.605 148.496 188.993 149.033C188.462 149.5 188.412 149.355 187.85 149.745C187.268 150.149 187.283 150.199 186.707 150.622C186.14 151.038 186.158 151.424 185.564 151.424C185.014 151.424 184.926 151.424 184.42 151.097C183.782 150.683 183.916 149.682 183.277 149.682C182.773 149.682 182.7 149.967 182.134 149.967C181.557 149.967 181.571 149.523 180.991 149.523C180.428 149.523 180.411 149.523 179.848 149.567C179.267 149.612 179.233 149.636 178.704 150.004C178.09 150.433 178.173 150.718 177.561 151.16C177.03 151.544 177 151.655 176.418 151.655C175.857 151.655 175.824 151.655 175.275 151.65C174.681 151.644 174.649 151.431 174.131 150.938C173.506 150.343 173.517 150.274 172.988 149.473C172.373 148.541 172.446 148.43 171.845 147.473C171.302 146.609 171.283 146.636 170.702 145.83C170.14 145.051 170.122 145.081 169.559 144.304C168.978 143.502 169.05 143.341 168.415 142.672C167.907 142.136 167.827 142.335 167.272 141.895C166.683 141.429 166.734 141.255 166.129 140.86C165.591 140.509 165.564 140.58 164.986 140.403C164.421 140.231 164.415 140.265 163.842 140.163C163.272 140.062 163.267 140.122 162.699 139.998C162.124 139.872 162.132 139.734 161.556 139.662C160.989 139.591 160.976 139.662 160.413 139.591C159.833 139.518 159.848 139.309 159.269 139.164C158.705 139.022 158.696 139.018 158.126 139.018C157.553 139.018 157.529 139.018 156.983 139.252C156.386 139.508 156.405 139.641 155.84 140.071C155.262 140.512 155.284 140.993 154.697 140.993C154.141 140.993 154.099 140.743 153.553 140.331C152.956 139.881 152.938 139.89 152.41 139.269C151.795 138.546 151.767 138.551 151.267 137.643C150.624 136.477 150.694 136.383 150.124 135.121C149.551 133.853 149.635 133.737 148.98 132.583C148.492 131.721 148.456 131.726 147.837 131.088C147.313 130.547 147.296 130.225 146.694 130.225C146.153 130.225 146.118 130.225 145.551 130.298C144.975 130.371 144.98 130.462 144.408 130.61C143.837 130.758 143.822 130.666 143.264 130.89C142.678 131.126 142.71 131.399 142.121 131.531C141.567 131.655 141.543 131.655 140.978 131.655C140.4 131.655 140.413 131.293 139.835 131.266C139.27 131.24 139.263 131.266 138.691 131.24C138.12 131.214 138.103 131.24 137.548 131.151C136.96 131.057 136.993 130.682 136.405 130.528C135.849 130.383 135.755 130.383 135.262 130.383C134.611 130.383 134.708 131.18 134.119 131.906C133.565 132.587 133.55 132.559 132.975 133.198C132.407 133.831 132.431 133.895 131.832 134.451C131.288 134.956 131.285 134.991 130.689 135.321C130.142 135.625 130.104 135.719 129.546 135.719C128.96 135.719 128.973 135.376 128.402 135.024C127.83 134.67 127.852 134.423 127.259 134.306C126.709 134.198 126.677 134.198 126.116 134.198C125.534 134.198 125.515 134.344 124.973 134.704C124.371 135.103 124.421 135.272 123.83 135.717C123.277 136.133 123.279 136.289 122.686 136.426C122.136 136.554 122.111 136.554 121.543 136.554C120.968 136.554 120.971 136.402 120.4 136.238C119.827 136.073 119.795 136.206 119.257 135.895C118.652 135.546 118.674 135.436 118.113 134.919C117.531 134.382 117.554 134.32 116.97 133.787C116.411 133.277 116.388 133.338 115.827 132.832C115.244 132.307 115.267 132.247 114.684 131.724C114.124 131.223 114.145 131.07 113.541 130.784C113.002 130.529 112.965 130.688 112.397 130.529C111.822 130.369 111.802 130.146 111.254 130.146C110.659 130.146 110.692 130.606 110.111 130.998C109.549 131.377 109.549 131.386 108.968 131.688C108.406 131.979 108.392 131.917 107.824 132.183C107.249 132.452 106.681 132.758 106.681 132.758" stroke="#4992FF" stroke-linejoin="bevel"/>
</g>
<mask id="mask1_145_1215" style="mask-type:luminance" maskUnits="userSpaceOnUse" x="106" y="37" width="282" height="236">
<path d="M388 37H106V273H388V37Z" fill="white"/>
</mask>
<g mask="url(#mask1_145_1215)">
<path d="M363.907 149.773C363.907 149.773 363.659 143.482 362.764 143.482C362.516 143.482 362.197 143.735 361.62 143.917C361.054 144.097 361.046 144.036 360.477 144.205C359.902 144.375 359.908 144.421 359.334 144.596C358.765 144.77 358.759 144.725 358.191 144.904C357.616 145.084 357.624 145.145 357.047 145.314C356.48 145.481 356.477 145.465 355.904 145.577C355.334 145.689 355.333 145.683 354.761 145.761C354.19 145.838 354.185 145.777 353.618 145.888C353.042 146 353.046 146.043 352.475 146.207C351.902 146.372 351.906 146.546 351.331 146.546C350.763 146.546 350.761 146.426 350.188 146.338C349.618 146.25 349.616 146.193 349.045 146.193C348.473 146.193 348.475 146.31 347.902 146.379C347.331 146.447 347.33 146.425 346.758 146.467C346.187 146.509 346.187 146.505 345.615 146.548C345.044 146.592 345.043 146.573 344.472 146.64C343.899 146.707 343.902 146.765 343.329 146.816C342.758 146.868 342.757 146.848 342.186 146.868C341.614 146.887 341.614 146.895 341.042 146.895C340.471 146.895 340.466 146.895 339.899 146.834C339.322 146.773 339.332 146.619 338.756 146.493C338.188 146.369 338.183 146.431 337.613 146.334C337.04 146.237 337.036 146.265 336.469 146.105C335.892 145.942 335.891 145.935 335.326 145.688C334.748 145.436 334.749 145.422 334.183 145.106C333.605 144.784 333.611 144.762 333.04 144.412C332.467 144.061 332.461 144.082 331.897 143.704C331.318 143.317 331.326 143.289 330.753 142.882C330.183 142.477 330.181 142.483 329.61 142.081C329.038 141.678 329.032 141.696 328.467 141.271C327.889 140.835 327.898 140.806 327.324 140.359C326.755 139.915 326.754 139.918 326.18 139.488C325.61 139.059 325.615 139.045 325.037 138.641C324.471 138.246 324.466 138.264 323.894 137.889C323.323 137.515 323.314 137.544 322.751 137.143C322.171 136.73 322.175 136.715 321.607 136.26C321.031 135.799 321.03 135.802 320.464 135.31C319.886 134.807 319.886 134.807 319.321 134.27C318.743 133.721 318.743 133.72 318.178 133.139C317.599 132.544 317.601 132.541 317.035 131.919C316.457 131.285 316.455 131.288 315.891 130.627C315.312 129.948 315.326 129.92 314.748 129.238C314.183 128.572 314.174 128.591 313.605 127.932C313.03 127.266 313.023 127.28 312.462 126.59C311.88 125.875 311.9 125.837 311.318 125.122C310.757 124.431 310.763 124.415 310.175 123.777C309.619 123.174 309.598 123.22 309.032 122.638C308.455 122.045 308.447 122.061 307.889 121.428C307.304 120.765 307.333 120.704 306.746 120.046C306.19 119.425 306.173 119.461 305.602 118.871C305.03 118.279 305.015 118.31 304.459 117.684C303.872 117.023 303.88 117.005 303.316 116.298C302.737 115.573 302.751 115.547 302.173 114.821C301.608 114.111 301.581 114.159 301.029 113.426C300.438 112.642 300.481 112.565 299.886 111.788C299.338 111.07 299.308 111.124 298.743 110.436C298.165 109.734 298.186 109.692 297.6 109.008C297.043 108.359 297.025 108.397 296.457 107.771C295.881 107.137 295.916 107.051 295.313 106.488C294.773 105.983 294.76 105.991 294.17 105.636C293.616 105.302 293.608 105.303 293.027 105.111C292.465 104.925 292.447 105.057 291.884 104.881C291.304 104.699 291.307 104.66 290.74 104.394C290.164 104.124 290.171 104.092 289.597 103.808C289.027 103.525 289.029 103.516 288.454 103.26C287.886 103.007 287.878 103.049 287.311 102.789C286.734 102.525 286.751 102.417 286.167 102.213C285.608 102.017 285.598 101.99 285.024 101.99C284.455 101.99 284.446 101.997 283.881 101.997C283.302 101.997 283.312 101.778 282.738 101.604C282.169 101.432 282.167 101.444 281.595 101.305C281.024 101.166 281.016 101.229 280.451 101.048C279.873 100.863 279.861 100.887 279.308 100.572C278.718 100.237 278.741 100.145 278.165 99.7487C277.598 99.358 277.583 99.4058 277.022 98.9972C276.44 98.5739 276.481 98.3983 275.878 98.0849C275.337 97.8034 275.305 97.9568 274.735 97.8034C274.162 97.6494 274.149 97.7174 273.592 97.4702C273.005 97.2095 272.986 97.2295 272.449 96.7876C271.843 96.2887 271.867 96.2103 271.306 95.5886C270.723 94.9439 270.71 94.9657 270.162 94.2547C269.566 93.4807 269.594 93.432 269.019 92.6186C268.45 91.8132 268.45 91.8128 267.876 91.0172C267.307 90.2299 267.318 90.2103 266.733 89.4528C266.175 88.7302 266.158 88.7602 265.589 88.0569C265.015 87.3467 265.016 87.3452 264.446 86.6258C263.873 85.9013 263.856 85.9287 263.303 85.1692C262.713 84.36 262.744 84.308 262.16 83.4885C261.601 82.7039 261.634 82.6221 261.017 81.9609C260.491 81.3979 260.438 81.5199 259.873 81.0401C259.295 80.5484 259.332 80.4192 258.73 80.0179C258.189 79.6574 258.164 79.5164 257.587 79.5164C257.021 79.5164 257.011 79.665 256.444 79.8676C255.868 80.0732 255.873 80.1078 255.3 80.3327C254.73 80.5566 254.71 80.4648 254.157 80.7652C253.566 81.0866 253.584 81.1654 253.014 81.5764C252.441 81.9898 252.425 81.9458 251.871 82.414C251.281 82.9121 251.3 82.964 250.727 83.5089C250.157 84.0518 250.109 83.9563 249.584 84.5897C248.966 85.3362 248.99 85.396 248.441 86.2688C247.847 87.2126 247.829 87.1959 247.298 88.223C246.685 89.4078 246.728 89.4599 246.155 90.6925C245.585 91.9167 245.56 91.8903 245.011 93.1366C244.416 94.4888 244.412 94.4872 243.868 95.8895C243.268 97.4376 243.326 97.4904 242.725 99.0373C242.183 100.433 242.176 100.429 241.582 101.774C241.033 103.017 241.017 103.001 240.438 104.212C239.874 105.392 239.876 105.394 239.295 106.555C238.732 107.681 238.732 107.682 238.152 108.787C237.589 109.857 237.571 109.834 237.009 110.906C236.427 112.016 236.487 112.099 235.866 113.15C235.344 114.032 235.345 114.071 234.722 114.772C234.202 115.358 234.141 115.222 233.579 115.725C232.997 116.246 232.992 116.238 232.436 116.82C231.849 117.436 231.9 117.565 231.293 118.122C230.757 118.612 230.745 118.653 230.149 118.913C229.602 119.152 229.562 118.938 229.006 119.152C228.419 119.378 228.397 119.363 227.863 119.794C227.254 120.285 227.335 120.535 226.72 120.998C226.191 121.396 226.153 121.283 225.577 121.516C225.009 121.745 225.012 121.875 224.433 121.922C223.869 121.967 223.858 121.922 223.29 121.967C222.714 122.013 222.722 122.267 222.147 122.267C221.579 122.267 221.569 122.267 221.004 122.209C220.426 122.15 220.438 121.842 219.86 121.842C219.295 121.842 219.286 121.847 218.717 121.936C218.143 122.025 218.148 122.114 217.574 122.198C217.005 122.28 217.003 122.28 216.431 122.28C215.859 122.28 215.858 122.28 215.288 122.273C214.715 122.266 214.714 122.219 214.144 122.115C213.571 122.011 213.576 121.873 213.001 121.858C212.432 121.842 212.429 121.845 211.858 121.842C211.286 121.839 211.274 121.839 210.715 121.839C210.131 121.839 210.146 122.12 209.571 122.367C209.003 122.611 208.976 122.497 208.428 122.822C207.832 123.175 207.842 123.234 207.285 123.722C206.699 124.236 206.72 124.291 206.142 124.826C205.577 125.348 205.543 125.27 204.998 125.836C204.4 126.459 204.401 126.475 203.855 127.204C203.258 128.003 203.321 128.119 202.712 128.893C202.178 129.573 202.167 129.573 201.569 130.113C201.024 130.605 200.999 130.541 200.426 130.958C199.856 131.372 199.83 131.302 199.282 131.775C198.687 132.288 198.719 132.373 198.139 132.931C197.576 133.474 197.561 133.438 196.996 133.978C196.418 134.531 196.425 134.55 195.853 135.117C195.282 135.682 195.264 135.643 194.709 136.241C194.121 136.876 194.131 136.899 193.566 137.584C192.988 138.286 193.001 138.313 192.423 139.015C191.858 139.701 191.827 139.644 191.28 140.36C190.684 141.139 190.689 141.153 190.137 142.005C189.546 142.917 189.584 142.975 188.993 143.887C188.441 144.74 188.45 144.763 187.85 145.536C187.307 146.236 187.273 146.174 186.707 146.833C186.13 147.505 186.163 147.579 185.564 148.197C185.02 148.759 185.015 148.77 184.42 149.193C183.871 149.583 183.865 149.629 183.277 149.824C182.721 150.008 182.702 150.008 182.134 150.008C181.558 150.008 181.563 149.828 180.991 149.66C180.42 149.492 180.424 149.371 179.848 149.336C179.281 149.303 179.269 149.303 178.704 149.303C178.126 149.303 178.135 149.512 177.561 149.683C176.992 149.853 176.994 149.937 176.418 149.983C175.85 150.029 175.846 150.029 175.275 150.029C174.703 150.029 174.696 150.029 174.131 149.984C173.552 149.938 173.565 149.741 172.988 149.578C172.421 149.418 172.419 149.376 171.845 149.337C171.276 149.299 171.27 149.337 170.702 149.299C170.127 149.261 170.127 149.186 169.559 149.025C168.984 148.861 168.981 148.875 168.415 148.65C167.837 148.421 167.828 148.447 167.272 148.117C166.685 147.769 166.724 147.594 166.129 147.294C165.581 147.017 165.549 147.182 164.986 146.964C164.405 146.739 164.411 146.701 163.842 146.41C163.268 146.116 163.275 146.083 162.699 145.794C162.131 145.508 162.13 145.515 161.556 145.258C160.986 145.004 160.983 145.02 160.413 144.771C159.84 144.522 159.842 144.51 159.269 144.263C158.699 144.017 158.694 144.044 158.126 143.784C157.551 143.52 157.56 143.469 156.983 143.215C156.417 142.965 156.407 143.02 155.84 142.775C155.264 142.527 155.255 142.557 154.697 142.229C154.111 141.886 154.128 141.819 153.553 141.432C152.985 141.049 152.979 141.071 152.41 140.688C151.835 140.301 151.844 140.27 151.267 139.891C150.701 139.519 150.697 139.534 150.124 139.187C149.553 138.842 149.548 138.864 148.98 138.507C148.404 138.144 148.419 138.087 147.837 137.747C147.275 137.418 147.274 137.41 146.694 137.169C146.131 136.935 146.12 136.997 145.551 136.798C144.977 136.596 144.982 136.563 144.408 136.366C143.839 136.171 143.831 136.222 143.264 136.014C142.688 135.803 142.693 135.772 142.121 135.529C141.549 135.286 141.552 135.271 140.978 135.042C140.409 134.814 140.409 134.811 139.835 134.615C139.266 134.42 139.263 134.438 138.691 134.26C138.12 134.083 138.113 134.124 137.548 133.904C136.97 133.679 136.979 133.626 136.405 133.37C135.835 133.115 135.843 132.992 135.262 132.883C134.7 132.778 134.688 132.863 134.119 132.778C133.545 132.692 133.546 132.669 132.975 132.542C132.403 132.415 132.406 132.375 131.832 132.269C131.263 132.163 131.261 132.186 130.689 132.117C130.118 132.049 130.117 131.996 129.546 131.996C128.974 131.996 128.973 132.038 128.402 132.123C127.829 132.209 127.828 132.202 127.259 132.339C126.685 132.477 126.687 132.502 126.116 132.673C125.544 132.843 125.544 132.847 124.973 133.021C124.401 133.195 124.403 133.21 123.829 133.369C123.26 133.527 123.26 133.541 122.686 133.655C122.117 133.769 122.114 133.736 121.543 133.824C120.971 133.913 120.973 133.937 120.4 134.01C119.829 134.081 119.828 134.068 119.257 134.112C118.685 134.156 118.685 134.141 118.113 134.185C117.542 134.228 117.542 134.286 116.97 134.286C116.399 134.286 116.399 134.256 115.827 134.223C115.255 134.189 115.256 134.153 114.684 134.153C114.112 134.153 114.112 134.159 113.541 134.176C112.969 134.193 112.963 134.221 112.397 134.221C111.819 134.221 111.831 133.984 111.254 133.846C110.687 133.71 110.682 133.768 110.111 133.672C109.539 133.576 109.541 133.532 108.968 133.462C108.398 133.392 108.396 133.391 107.824 133.391C107.253 133.391 106.681 133.481 106.681 133.481" stroke="#FDDD60" stroke-linejoin="bevel"/>
</g>
<mask id="mask2_145_1215" style="mask-type:luminance" maskUnits="userSpaceOnUse" x="106" y="37" width="282" height="236">
<path d="M388 37H106V273H388V37Z" fill="white"/>
</mask>
<g mask="url(#mask2_145_1215)">
<path d="M352.475 149.559C352.475 149.559 352.155 145.373 351.331 145.373C351.012 145.373 350.76 145.464 350.188 145.54C349.617 145.616 349.616 145.596 349.045 145.677C348.472 145.759 348.475 145.867 347.902 145.867C347.332 145.867 347.33 145.867 346.758 145.86C346.187 145.854 346.186 145.86 345.615 145.828C345.043 145.795 345.044 145.724 344.472 145.688C343.901 145.652 343.9 145.679 343.329 145.652C342.757 145.624 342.757 145.577 342.186 145.577C341.614 145.577 341.613 145.619 341.042 145.692C340.47 145.765 340.469 145.869 339.899 145.869C339.326 145.869 339.329 145.724 338.756 145.626C338.186 145.528 338.185 145.478 337.613 145.478C337.042 145.478 337.041 145.521 336.469 145.521C335.898 145.521 335.898 145.521 335.326 145.513C334.755 145.505 334.754 145.513 334.183 145.485C333.611 145.458 333.61 145.469 333.04 145.399C332.467 145.328 332.464 145.34 331.897 145.203C331.321 145.064 331.323 145.041 330.753 144.848C330.179 144.654 330.177 144.666 329.61 144.43C329.034 144.191 329.028 144.209 328.467 143.899C327.885 143.577 327.9 143.513 327.324 143.168C326.757 142.829 326.752 142.85 326.18 142.532C325.609 142.214 325.605 142.231 325.037 141.896C324.461 141.557 324.46 141.559 323.894 141.184C323.317 140.801 323.316 140.802 322.751 140.38C322.173 139.948 322.186 139.906 321.607 139.477C321.043 139.058 321.032 139.093 320.464 138.685C319.889 138.271 319.893 138.258 319.321 137.832C318.749 137.406 318.749 137.408 318.178 136.98C317.606 136.551 317.599 136.569 317.035 136.117C316.456 135.655 316.462 135.637 315.891 135.152C315.319 134.666 315.321 134.658 314.748 134.175C314.178 133.694 314.176 133.701 313.605 133.223C313.033 132.744 313.026 132.76 312.462 132.261C311.883 131.75 311.891 131.728 311.318 131.201C310.748 130.676 310.745 130.684 310.175 130.157C309.602 129.626 309.594 129.642 309.032 129.084C308.451 128.508 308.448 128.513 307.889 127.888C307.305 127.236 307.324 127.197 306.746 126.531C306.18 125.881 306.172 125.897 305.602 125.256C305.029 124.612 305.018 124.633 304.459 123.961C303.875 123.259 303.886 123.237 303.316 122.508C302.743 121.776 302.752 121.758 302.173 121.04C301.609 120.342 301.59 120.379 301.029 119.676C300.446 118.943 300.471 118.897 299.886 118.167C299.328 117.472 299.32 117.485 298.743 116.826C298.177 116.179 298.182 116.165 297.6 115.554C297.039 114.965 297.025 114.997 296.457 114.424C295.882 113.845 295.905 113.785 295.313 113.251C294.762 112.753 294.753 112.768 294.17 112.361C293.61 111.969 293.607 111.972 293.027 111.653C292.463 111.344 292.447 111.414 291.884 111.104C291.304 110.783 291.304 110.776 290.74 110.391C290.16 109.995 290.164 109.981 289.597 109.54C289.021 109.092 289.036 109.044 288.454 108.612C287.892 108.196 287.879 108.239 287.311 107.843C286.736 107.442 286.749 107.394 286.168 107.019C285.606 106.657 285.599 106.682 285.024 106.368C284.455 106.057 284.446 106.096 283.881 105.77C283.303 105.436 283.314 105.389 282.738 105.047C282.171 104.71 282.163 104.744 281.595 104.413C281.019 104.078 281.01 104.109 280.451 103.715C279.866 103.302 279.873 103.277 279.308 102.8C278.729 102.311 278.736 102.293 278.165 101.782C277.592 101.269 277.592 101.27 277.022 100.751C276.448 100.228 276.473 100.154 275.878 99.6976C275.33 99.2767 275.315 99.3128 274.735 98.9972C274.172 98.6903 274.155 98.7609 273.592 98.4526C273.012 98.1349 273.008 98.1398 272.449 97.7451C271.865 97.3332 271.884 97.2718 271.306 96.8392C270.74 96.4162 270.739 96.418 270.162 96.0339C269.596 95.657 269.586 95.6921 269.019 95.3172C268.443 94.9362 268.436 94.9535 267.876 94.5221C267.293 94.0738 267.317 94 266.733 93.5577C266.174 93.1349 266.158 93.1867 265.589 92.792C265.014 92.3924 265.017 92.3846 264.446 91.9692C263.873 91.5519 263.868 91.5685 263.303 91.1266C262.724 90.6738 262.743 90.6156 262.16 90.1798C261.6 89.7617 261.588 89.8009 261.017 89.4187C260.444 89.0358 260.432 89.0735 259.873 88.6496C259.289 88.2065 259.307 88.1504 258.73 87.6846C258.164 87.2281 258.185 87.1282 257.587 86.8052C257.042 86.5105 257.016 86.6179 256.444 86.4492C255.873 86.2813 255.87 86.305 255.3 86.1319C254.727 85.9577 254.733 85.8996 254.157 85.7544C253.59 85.6115 253.585 85.5558 253.014 85.5558C252.441 85.5558 252.44 85.6546 251.871 85.7981C251.297 85.9428 251.304 86.1238 250.728 86.1321C250.161 86.1402 250.146 86.1321 249.584 86.1402C249.003 86.1488 249.002 86.3281 248.441 86.6156C247.859 86.9143 247.843 86.884 247.298 87.3127C246.7 87.7829 246.722 87.8539 246.155 88.4133C245.579 88.9802 245.562 88.9457 245.011 89.5652C244.419 90.2314 244.406 90.2192 243.868 90.9849C243.263 91.846 243.315 91.9303 242.725 92.8188C242.172 93.6523 242.202 93.7284 241.582 94.4288C241.059 95.0184 241.019 94.9399 240.438 95.3988C239.876 95.8439 239.843 95.7532 239.295 96.2367C238.7 96.7628 238.703 96.7854 238.152 97.418C237.56 98.0977 237.582 98.1432 237.009 98.8614C236.439 99.5749 236.447 99.5912 235.866 100.281C235.304 100.948 235.29 100.919 234.722 101.574C234.146 102.239 234.142 102.231 233.579 102.921C232.999 103.632 233.01 103.654 232.436 104.377C231.867 105.093 231.875 105.109 231.293 105.798C230.732 106.461 230.714 106.425 230.149 107.081C229.571 107.753 229.537 107.698 229.006 108.453C228.393 109.326 228.439 109.401 227.863 110.336C227.296 111.257 227.323 111.303 226.72 112.165C226.18 112.935 226.131 112.852 225.577 113.6C224.988 114.394 225.02 114.45 224.433 115.248C223.877 116.007 223.889 116.038 223.29 116.714C222.745 117.329 222.722 117.281 222.147 117.831C221.579 118.375 221.558 118.328 221.004 118.903C220.415 119.514 220.445 119.582 219.86 120.203C219.302 120.798 219.323 120.88 218.717 121.335C218.18 121.738 218.16 121.75 217.574 121.921C217.016 122.084 216.994 121.931 216.431 122.084C215.851 122.241 215.866 122.369 215.288 122.54C214.723 122.707 214.718 122.759 214.144 122.759C213.575 122.759 213.567 122.759 213.001 122.704C212.424 122.649 212.432 122.503 211.858 122.341C211.289 122.179 211.29 122.084 210.715 122.056C210.147 122.029 210.137 122.056 209.571 122.029C208.993 122.001 209.006 121.654 208.428 121.654C207.863 121.654 207.846 121.654 207.285 121.713C206.703 121.774 206.684 121.846 206.142 122.196C205.541 122.584 205.551 122.647 204.998 123.19C204.408 123.77 204.435 123.834 203.855 124.443C203.292 125.035 203.297 125.05 202.712 125.591C202.153 126.107 202.142 126.078 201.569 126.557C200.999 127.034 200.992 127.015 200.426 127.504C199.848 128.003 199.848 128.002 199.282 128.531C198.705 129.072 198.709 129.084 198.139 129.643C197.566 130.205 197.55 130.17 196.996 130.774C196.406 131.417 196.439 131.487 195.853 132.138C195.296 132.756 195.317 132.834 194.709 133.314C194.174 133.737 194.139 133.634 193.566 133.944C192.996 134.253 192.986 134.213 192.423 134.552C191.842 134.902 191.851 134.936 191.28 135.321C190.708 135.707 190.703 135.689 190.137 136.093C189.559 136.506 189.579 136.576 188.993 136.954C188.436 137.313 188.406 137.206 187.85 137.569C187.263 137.951 187.285 138.026 186.707 138.445C186.141 138.854 186.142 138.86 185.564 139.224C184.999 139.58 184.988 139.539 184.42 139.884C183.845 140.234 183.827 140.183 183.277 140.614C182.684 141.079 182.708 141.151 182.134 141.675C181.565 142.195 181.562 142.186 180.991 142.701C180.418 143.218 180.413 143.205 179.848 143.738C179.27 144.282 179.269 144.279 178.704 144.854C178.126 145.443 178.131 145.456 177.561 146.065C176.988 146.677 177.02 146.762 176.418 147.294C175.877 147.772 175.846 147.688 175.275 148.084C174.703 148.482 174.719 148.551 174.131 148.883C173.576 149.196 173.567 149.179 172.988 149.375C172.424 149.565 172.42 149.655 171.845 149.655C171.277 149.655 171.263 149.655 170.702 149.586C170.12 149.515 170.125 149.37 169.559 149.099C168.981 148.823 168.996 148.747 168.415 148.493C167.853 148.246 167.848 148.26 167.272 148.097C166.705 147.936 166.702 147.945 166.129 147.844C165.559 147.744 165.555 147.798 164.986 147.695C164.412 147.591 164.412 147.579 163.842 147.431C163.269 147.282 163.266 147.296 162.699 147.101C162.123 146.903 162.131 146.846 161.556 146.645C160.988 146.446 160.988 146.43 160.413 146.3C159.845 146.172 159.84 146.232 159.269 146.127C158.696 146.022 158.698 146.001 158.126 145.88C157.555 145.759 157.554 145.77 156.983 145.642C156.411 145.513 156.407 145.536 155.84 145.367C155.264 145.195 155.268 145.162 154.697 144.96C154.125 144.758 154.118 144.799 153.553 144.558C152.975 144.312 152.978 144.289 152.41 143.988C151.835 143.683 151.839 143.666 151.267 143.345C150.695 143.024 150.698 143.014 150.124 142.704C149.554 142.397 149.547 142.43 148.98 142.11C148.403 141.784 148.412 141.748 147.837 141.412C147.269 141.079 147.266 141.091 146.694 140.772C146.123 140.452 146.121 140.458 145.551 140.133C144.978 139.808 144.975 139.82 144.408 139.472C143.831 139.119 143.84 139.088 143.264 138.732C142.696 138.381 142.696 138.383 142.121 138.058C141.552 137.736 141.551 137.741 140.978 137.439C140.408 137.139 140.413 137.109 139.835 136.855C139.27 136.606 139.263 136.644 138.691 136.433C138.12 136.222 138.117 136.241 137.548 136.011C136.973 135.779 136.981 135.733 136.405 135.508C135.838 135.286 135.84 135.179 135.262 135.119C134.697 135.06 134.69 135.094 134.119 135.06C133.547 135.027 133.547 135.013 132.975 134.984C132.404 134.954 132.4 134.984 131.832 134.943C131.257 134.902 131.26 134.802 130.689 134.661C130.117 134.519 130.12 134.486 129.546 134.378C128.977 134.272 128.974 134.303 128.402 134.231C127.831 134.16 127.832 134.138 127.259 134.091C126.688 134.044 126.687 134.088 126.116 134.044C125.544 134.001 125.545 133.971 124.973 133.917C124.402 133.863 124.401 133.868 123.83 133.828C123.258 133.789 123.255 133.828 122.686 133.76C122.112 133.692 122.115 133.632 121.543 133.505C120.972 133.378 120.974 133.326 120.4 133.252C119.831 133.178 119.828 133.215 119.257 133.178C118.685 133.141 118.685 133.103 118.113 133.103C117.542 133.103 117.542 133.113 116.97 133.118C116.399 133.123 116.399 133.123 115.827 133.123C115.255 133.123 115.255 133.109 114.684 133.109C114.112 133.109 114.112 133.116 113.541 133.127C112.969 133.139 112.969 133.154 112.397 133.154C111.825 133.154 111.825 133.092 111.254 133.092C110.682 133.092 110.683 133.151 110.111 133.188C109.539 133.225 109.539 133.242 108.968 133.242C108.396 133.242 108.396 133.236 107.824 133.236C107.252 133.236 106.681 133.338 106.681 133.338" stroke="#FF6E76" stroke-linejoin="bevel"/>
</g>
<path d="M202.609 5.62854H217.523H202.609Z" fill="black"/>
<path d="M202.609 5.62854H217.523" stroke="#4992FF" stroke-width="2" stroke-miterlimit="10"/>
<path d="M213.407 5.62853C213.407 6.44892 213.055 7.23569 212.428 7.81577C211.802 8.39585 210.952 8.72172 210.066 8.7217C209.18 8.72168 208.33 8.39576 207.704 7.81565C207.077 7.23554 206.725 6.44876 206.725 5.62837C206.725 4.80798 207.077 4.02119 207.704 3.44108C208.33 2.86097 209.18 2.53506 210.066 2.53503C210.952 2.53501 211.802 2.86088 212.428 3.44096C213.055 4.02104 213.407 4.80814 213.407 5.62853Z" fill="#4992FF"/>
<path d="M221.563 2.27273H222.824L225.79 9.51705H225.893L228.858 2.27273H230.12V11H229.131V4.36932H229.046L226.319 11H225.364L222.637 4.36932H222.552V11H221.563V2.27273ZM221.921 26H220.813L224.018 17.2727H225.108L228.313 26H227.205L224.597 18.6534H224.529L221.921 26ZM222.33 22.5909H226.796V23.5284H222.33V22.5909ZM232.246 26.1193C231.746 26.1193 231.296 26.0199 230.895 25.821C230.495 25.6222 230.174 25.3494 229.932 25.0028C229.691 24.6562 229.559 24.2614 229.536 23.8182H230.559C230.599 24.2131 230.778 24.5398 231.096 24.7983C231.417 25.054 231.8 25.1818 232.246 25.1818C232.604 25.1818 232.922 25.098 233.201 24.9304C233.482 24.7628 233.702 24.5327 233.861 24.2401C234.023 23.9446 234.104 23.6108 234.104 23.2386C234.104 22.858 234.02 22.5185 233.853 22.2202C233.688 21.919 233.461 21.6818 233.171 21.5085C232.881 21.3352 232.55 21.2472 232.178 21.2443C231.911 21.2415 231.637 21.2827 231.356 21.3679C231.074 21.4503 230.843 21.5568 230.661 21.6875L229.672 21.5682L230.201 17.2727H234.735V18.2102H231.087L230.78 20.7841H230.832C231.01 20.642 231.235 20.5241 231.505 20.4304C231.775 20.3366 232.056 20.2898 232.349 20.2898C232.883 20.2898 233.358 20.4176 233.776 20.6733C234.197 20.9261 234.526 21.2727 234.765 21.7131C235.006 22.1534 235.127 22.6562 235.127 23.2216C235.127 23.7784 235.002 24.2756 234.752 24.7131C234.505 25.1477 234.164 25.4915 233.729 25.7443C233.295 25.9943 232.8 26.1193 232.246 26.1193Z" fill="#B9B8CE"/>
<path d="M243.298 5.62854H258.213H243.298Z" fill="black"/>
<path d="M243.298 5.62854H258.213" stroke="#7CFFB2" stroke-width="2" stroke-miterlimit="10"/>
<path d="M254.096 5.62853C254.096 6.44892 253.744 7.23569 253.118 7.81577C252.491 8.39585 251.641 8.72172 250.755 8.7217C249.869 8.72168 249.02 8.39576 248.393 7.81565C247.767 7.23554 247.415 6.44876 247.415 5.62837C247.415 4.80798 247.767 4.02119 248.393 3.44108C249.02 2.86097 249.869 2.53506 250.755 2.53503C251.641 2.53501 252.491 2.86088 253.118 3.44096C253.744 4.02104 254.096 4.80814 254.096 5.62853Z" fill="#7CFFB2"/>
<path d="M262.252 2.27273H263.514L266.48 9.51705H266.582L269.548 2.27273H270.809V11H269.821V4.36932H269.735L267.008 11H266.054L263.326 4.36932H263.241V11H262.252V2.27273ZM273.286 11H272.178L275.383 2.27273H276.474L279.678 11H278.57L275.962 3.65341H275.894L273.286 11ZM273.695 7.59091H278.161V8.52841H273.695V7.59091ZM265.167 17.2727V26H264.11V18.3807H264.059L261.929 19.7955V18.7216L264.11 17.2727H265.167ZM270.524 26.1193C269.882 26.1193 269.335 25.9446 268.883 25.5952C268.431 25.2429 268.086 24.733 267.848 24.0653C267.609 23.3949 267.49 22.5852 267.49 21.6364C267.49 20.6932 267.609 19.8878 267.848 19.2202C268.089 18.5497 268.436 18.0384 268.887 17.6861C269.342 17.331 269.887 17.1534 270.524 17.1534C271.16 17.1534 271.704 17.331 272.156 17.6861C272.61 18.0384 272.957 18.5497 273.196 19.2202C273.437 19.8878 273.558 20.6932 273.558 21.6364C273.558 22.5852 273.438 23.3949 273.2 24.0653C272.961 24.733 272.616 25.2429 272.164 25.5952C271.713 25.9446 271.166 26.1193 270.524 26.1193ZM270.524 25.1818C271.16 25.1818 271.654 24.875 272.007 24.2614C272.359 23.6477 272.535 22.7727 272.535 21.6364C272.535 20.8807 272.454 20.2372 272.292 19.706C272.133 19.1747 271.903 18.7699 271.602 18.4915C271.304 18.2131 270.944 18.0739 270.524 18.0739C269.893 18.0739 269.4 18.3849 269.045 19.0071C268.69 19.6264 268.512 20.5028 268.512 21.6364C268.512 22.392 268.592 23.0341 268.751 23.5625C268.91 24.0909 269.139 24.4929 269.437 24.7685C269.738 25.044 270.1 25.1818 270.524 25.1818Z" fill="#B9B8CE"/>
<path d="M288.186 5.62854H303.1H288.186Z" fill="black"/>
<path d="M288.186 5.62854H303.1" stroke="#FDDD60" stroke-width="2" stroke-miterlimit="10"/>
<path d="M298.984 5.62853C298.984 6.44892 298.632 7.23569 298.005 7.81577C297.379 8.39585 296.529 8.72172 295.643 8.7217C294.757 8.72168 293.907 8.39576 293.281 7.81565C292.654 7.23554 292.302 6.44876 292.302 5.62837C292.302 4.80798 292.654 4.02119 293.281 3.44108C293.907 2.86097 294.757 2.53506 295.643 2.53503C296.529 2.53501 297.379 2.86088 298.005 3.44096C298.632 4.02104 298.984 4.80814 298.984 5.62853Z" fill="#FDDD60"/>
<path d="M307.14 2.27273H308.401L311.367 9.51705H311.469L314.435 2.27273H315.697V11H314.708V4.36932H314.623L311.896 11H310.941L308.214 4.36932H308.128V11H307.14V2.27273ZM318.174 11H317.066L320.27 2.27273H321.361L324.566 11H323.458L320.85 3.65341H320.782L318.174 11ZM318.583 7.59091H323.049V8.52841H318.583V7.59091ZM306.986 26V25.233L309.867 22.0795C310.205 21.7102 310.484 21.3892 310.702 21.1165C310.921 20.8409 311.083 20.5824 311.188 20.3409C311.296 20.0966 311.35 19.8409 311.35 19.5739C311.35 19.267 311.276 19.0014 311.128 18.777C310.984 18.5526 310.785 18.3793 310.532 18.2571C310.279 18.1349 309.995 18.0739 309.68 18.0739C309.344 18.0739 309.052 18.1435 308.802 18.2827C308.555 18.419 308.363 18.6108 308.226 18.858C308.093 19.1051 308.026 19.3949 308.026 19.7273H307.021C307.021 19.2159 307.138 18.767 307.374 18.3807C307.61 17.9943 307.931 17.6932 308.337 17.4773C308.746 17.2614 309.205 17.1534 309.714 17.1534C310.225 17.1534 310.678 17.2614 311.073 17.4773C311.468 17.6932 311.778 17.9844 312.002 18.3509C312.226 18.7173 312.339 19.125 312.339 19.5739C312.339 19.8949 312.28 20.2088 312.164 20.5156C312.05 20.8196 311.851 21.1591 311.567 21.5341C311.286 21.9062 310.896 22.3608 310.396 22.8977L308.435 24.9943V25.0625H312.492V26H306.986ZM317.099 26.1193C316.457 26.1193 315.91 25.9446 315.458 25.5952C315.006 25.2429 314.661 24.733 314.422 24.0653C314.184 23.3949 314.065 22.5852 314.065 21.6364C314.065 20.6932 314.184 19.8878 314.422 19.2202C314.664 18.5497 315.011 18.0384 315.462 17.6861C315.917 17.331 316.462 17.1534 317.099 17.1534C317.735 17.1534 318.279 17.331 318.731 17.6861C319.185 18.0384 319.532 18.5497 319.771 19.2202C320.012 19.8878 320.133 20.6932 320.133 21.6364C320.133 22.5852 320.013 23.3949 319.775 24.0653C319.536 24.733 319.191 25.2429 318.739 25.5952C318.288 25.9446 317.741 26.1193 317.099 26.1193ZM317.099 25.1818C317.735 25.1818 318.229 24.875 318.582 24.2614C318.934 23.6477 319.11 22.7727 319.11 21.6364C319.11 20.8807 319.029 20.2372 318.867 19.706C318.708 19.1747 318.478 18.7699 318.177 18.4915C317.878 18.2131 317.519 18.0739 317.099 18.0739C316.468 18.0739 315.975 18.3849 315.62 19.0071C315.265 19.6264 315.087 20.5028 315.087 21.6364C315.087 22.392 315.167 23.0341 315.326 23.5625C315.485 24.0909 315.714 24.4929 316.012 24.7685C316.313 25.044 316.675 25.1818 317.099 25.1818Z" fill="#B9B8CE"/>
<path d="M333.073 5.62854H347.988H333.073Z" fill="black"/>
<path d="M333.073 5.62854H347.988" stroke="#FF6E76" stroke-width="2" stroke-miterlimit="10"/>
</g>
<defs>
<clipPath id="clip0_145_1215">
<rect width="383" height="232" fill="white"/>
</clipPath>
</defs>
</svg>
