<svg width="429" height="333" viewBox="0 0 429 333" fill="none" xmlns="http://www.w3.org/2000/svg">
<rect width="429" height="333" fill="white" fill-opacity="0.4"/>
<rect width="429" height="333" fill="black" fill-opacity="0.82"/>
<g filter="url(#filter0_d_417_1851)">
<rect x="147" y="167" width="135" height="46" rx="5" fill="#646464"/>
<path d="M214.738 198.415C218.632 198.415 220.976 194.863 220.976 189.199V189.174C220.976 183.51 218.632 179.97 214.738 179.97C210.844 179.97 208.524 183.51 208.524 189.174V189.199C208.524 194.863 210.844 198.415 214.738 198.415ZM214.738 196.499C212.211 196.499 210.734 193.691 210.734 189.199V189.174C210.734 184.682 212.211 181.899 214.738 181.899C217.265 181.899 218.766 184.682 218.766 189.174V189.199C218.766 193.691 217.265 196.499 214.738 196.499Z" fill="white"/>
</g>
<g filter="url(#filter1_d_417_1851)">
<rect x="6" y="6" width="135" height="46" rx="5" fill="#646464"/>
</g>
<path d="M74.2261 30V14.8267H74.0308L69.5508 18.0737V15.7544L74.2383 12.3853H76.4233V30H74.2261Z" fill="white"/>
<g filter="url(#filter2_d_417_1851)">
<rect x="147" y="6" width="135" height="46" rx="5" fill="#646464"/>
</g>
<path d="M201.467 45L203.913 37.9541H205.646L208.097 45H206.545L206.022 43.291H203.537L203.014 45H201.467ZM204.738 39.3604L203.874 42.1875H205.685L204.826 39.3604H204.738ZM210.994 45V37.9541H214.075C215.442 37.9541 216.257 38.623 216.257 39.707V39.7168C216.257 40.459 215.706 41.1084 214.983 41.2158V41.3037C215.916 41.377 216.594 42.0752 216.594 42.9785V42.9883C216.594 44.2236 215.662 45 214.158 45H210.994ZM213.699 39.0479H212.468V40.8838H213.577C214.373 40.8838 214.807 40.5518 214.807 39.9707V39.9609C214.807 39.3896 214.402 39.0479 213.699 39.0479ZM213.748 41.8555H212.468V43.9014H213.782C214.631 43.9014 215.09 43.54 215.09 42.8711V42.8613C215.09 42.207 214.617 41.8555 213.748 41.8555ZM222.621 45.1807C220.579 45.1807 219.315 43.7646 219.315 41.4795V41.4697C219.315 39.1846 220.575 37.7734 222.621 37.7734C224.29 37.7734 225.54 38.8379 225.677 40.3271V40.3857H224.242V40.3516C224.09 39.5605 223.46 39.0234 222.621 39.0234C221.512 39.0234 220.824 39.9561 220.824 41.4697V41.4795C220.824 42.9932 221.512 43.9307 222.625 43.9307C223.47 43.9307 224.08 43.4375 224.237 42.6855L224.246 42.6465H225.682L225.677 42.7002C225.526 44.1748 224.32 45.1807 222.621 45.1807Z" fill="white"/>
<path d="M209.671 30V28.4863L215.628 22.041C217.875 19.6118 218.534 18.6963 218.534 17.1582V17.1338C218.534 15.2783 217.276 13.8867 215.201 13.8867C213.089 13.8867 211.686 15.2661 211.686 17.3413L211.673 17.3657L209.574 17.3535L209.549 17.3413C209.562 14.2163 211.979 11.9702 215.348 11.9702C218.424 11.9702 220.78 14.0576 220.78 16.9019V16.9263C220.78 18.9404 219.913 20.4053 216.727 23.689L212.723 27.8271V28.0225H221.073V30H209.671Z" fill="white"/>
<g filter="url(#filter3_d_417_1851)">
<rect x="288" y="6" width="135" height="46" rx="5" fill="#646464"/>
</g>
<path d="M343.966 45V37.9541H346.739C348.834 37.9541 350.045 39.2188 350.045 41.4258V41.4355C350.045 43.7109 348.848 45 346.739 45H343.966ZM345.44 43.7842H346.505C347.808 43.7842 348.541 42.9639 348.541 41.46V41.4502C348.541 40 347.784 39.1699 346.505 39.1699H345.44V43.7842ZM353.146 45V37.9541H357.814V39.1699H354.621V40.8691H357.633V42.002H354.621V43.7842H357.814V45H353.146ZM361.067 45V37.9541H365.681V39.1699H362.541V41.0596H365.408V42.2266H362.541V45H361.067Z" fill="white"/>
<path d="M355.872 30.293C352.234 30.293 349.878 28.2666 349.646 25.4834L349.634 25.3369H351.746L351.758 25.459C351.929 27.1924 353.528 28.3887 355.872 28.3887C358.179 28.3887 359.754 27.0947 359.754 25.2271V25.2026C359.754 23.042 358.204 21.8335 355.738 21.8335H353.528V19.978H355.64C357.74 19.978 359.205 18.6841 359.205 16.9263V16.9019C359.205 15.0586 357.996 13.9966 355.848 13.9966C353.772 13.9966 352.295 15.0952 352.112 16.8774L352.1 16.9995H349.988L350 16.8774C350.281 14.0088 352.552 12.0923 355.848 12.0923C359.205 12.0923 361.414 13.96 361.414 16.6333V16.6577C361.414 18.8306 359.876 20.3198 357.679 20.7837V20.8325C360.242 21.0522 361.988 22.6514 361.988 25.1538V25.1782C361.988 28.1201 359.4 30.293 355.872 30.293Z" fill="white"/>
<g filter="url(#filter4_d_417_1851)">
<rect x="6" y="59" width="135" height="47" rx="5" fill="#646464"/>
</g>
<path d="M65.5594 99.1807C63.4646 99.1807 62.1805 97.7695 62.1805 95.4746V95.4648C62.1805 93.2041 63.4744 91.7734 65.5252 91.7734C67.1902 91.7734 68.4061 92.7305 68.616 94.1367L68.6258 94.1855H67.1609L67.1512 94.1367C66.951 93.4385 66.3504 93.0234 65.5252 93.0234C64.3875 93.0234 63.6844 93.9512 63.6844 95.4502V95.46C63.6844 96.9883 64.4217 97.9307 65.5838 97.9307C66.5506 97.9307 67.2146 97.3398 67.2439 96.4512L67.2488 96.3193H65.7254V95.2451H68.6844V96.1387C68.6844 98.0088 67.4832 99.1807 65.5594 99.1807ZM71.8004 99V91.9541H73.275V94.8154H76.4488V91.9541H77.9234V99H76.4488V96.0312H73.275V99H71.8004ZM81.3324 99V91.9541H82.807V99H81.3324Z" fill="white"/>
<path d="M75.7153 84V80.3501H67.1338V78.3481C69.5142 74.3564 72.2119 70.0596 74.6777 66.3853H77.8638V78.3848H80.3662V80.3501H77.8638V84H75.7153ZM69.3799 78.397H75.7275V68.4238H75.5811C73.6035 71.3779 71.2964 75.0156 69.3799 78.2505V78.397Z" fill="white"/>
<g filter="url(#filter5_d_417_1851)">
<rect x="147" y="59" width="135" height="47" rx="5" fill="#646464"/>
</g>
<path d="M205.168 99.1807C203.713 99.1807 202.829 98.3164 202.79 96.9932V96.9541H204.221V96.9834C204.25 97.5254 204.572 97.9062 205.148 97.9062C205.773 97.9062 206.1 97.5303 206.1 96.8223V91.9541H207.575V96.832C207.575 98.3164 206.691 99.1807 205.168 99.1807ZM210.989 99V91.9541H212.463V95.1182H212.551L215.154 91.9541H216.795L214.226 95.04L216.975 99H215.208L213.162 96.0068L212.463 96.8467V99H210.989ZM219.788 99V91.9541H221.263V97.7842H224.398V99H219.788Z" fill="white"/>
<path d="M215.274 84.415C211.991 84.415 209.647 82.3032 209.391 79.4834L209.378 79.3491H211.49L211.502 79.4468C211.71 81.1313 213.236 82.4741 215.299 82.4741C217.643 82.4741 219.254 80.8018 219.254 78.4214V78.397C219.254 76.0532 217.618 74.3809 215.335 74.3809C214.164 74.3809 213.163 74.7349 212.406 75.4551C212.101 75.748 211.82 76.0898 211.6 76.5049H209.696L210.624 66.3853H220.426V68.3506H212.357L211.759 74.3076H211.954C212.735 73.1235 214.115 72.4766 215.714 72.4766C219.022 72.4766 221.402 74.9546 221.402 78.3604V78.3848C221.402 81.937 218.851 84.415 215.274 84.415Z" fill="white"/>
<g filter="url(#filter6_d_417_1851)">
<rect x="288" y="59" width="135" height="47" rx="5" fill="#646464"/>
</g>
<path d="M341.49 99V91.9541H343.179L345.128 97.1104H345.216L347.159 91.9541H348.848V99H347.535V94.2051H347.437L345.631 99H344.708L342.901 94.2051H342.804V99H341.49ZM352.262 99V91.9541H353.493L356.745 96.4414H356.823V91.9541H358.234V99H357.013L353.752 94.4932H353.673V99H352.262ZM364.729 99.1807C362.634 99.1807 361.335 97.7549 361.335 95.4795V95.4697C361.335 93.1895 362.654 91.7734 364.729 91.7734C366.804 91.7734 368.118 93.1943 368.118 95.4697V95.4795C368.118 97.7549 366.809 99.1807 364.729 99.1807ZM364.729 97.9307C365.876 97.9307 366.614 96.9688 366.614 95.4795V95.4697C366.614 93.9756 365.871 93.0234 364.729 93.0234C363.581 93.0234 362.839 93.9756 362.839 95.4697V95.4795C362.839 96.9688 363.567 97.9307 364.729 97.9307Z" fill="white"/>
<path d="M355.982 84.415C352.759 84.415 349.354 82.1445 349.354 75.5161V75.4917C349.354 69.4858 351.856 65.9702 356.128 65.9702C359.083 65.9702 361.28 67.7036 361.878 70.3037L361.915 70.4624H359.705L359.656 70.3281C359.119 68.8511 357.886 67.9355 356.104 67.9355C352.906 67.9355 351.6 71.0605 351.465 74.7349C351.453 74.8691 351.453 75.0156 351.453 75.1499H351.685C352.332 73.7095 353.992 72.4277 356.373 72.4277C359.681 72.4277 362.146 74.9424 362.146 78.3237V78.3481C362.146 81.8638 359.534 84.415 355.982 84.415ZM351.978 78.3237C351.978 80.6431 353.724 82.4741 355.958 82.4741C358.167 82.4741 359.937 80.6797 359.937 78.397V78.3726C359.937 76.0288 358.277 74.3442 355.994 74.3442C353.711 74.3442 351.978 76.0166 351.978 78.3115V78.3237Z" fill="white"/>
<g filter="url(#filter7_d_417_1851)">
<rect x="6" y="113" width="135" height="47" rx="5" fill="#646464"/>
</g>
<path d="M56.7992 153V145.954H59.7045C61.1889 145.954 62.1801 146.911 62.1801 148.361V148.371C62.1801 149.821 61.1889 150.778 59.7045 150.778H58.2738V153H56.7992ZM59.3432 147.121H58.2738V149.626H59.3432C60.1879 149.626 60.6859 149.177 60.6859 148.376V148.366C60.6859 147.565 60.1879 147.121 59.3432 147.121ZM68.3186 153.181C66.2238 153.181 64.925 151.755 64.925 149.479V149.47C64.925 147.189 66.2434 145.773 68.3186 145.773C70.3937 145.773 71.7072 147.194 71.7072 149.47V149.479C71.7072 150.778 71.2824 151.799 70.5305 152.434L71.4777 153.698H70.1057L69.5686 152.98C69.1926 153.112 68.7727 153.181 68.3186 153.181ZM68.3186 151.931C68.465 151.931 68.6066 151.916 68.7434 151.882L67.84 150.681H69.2121L69.6662 151.291C70.008 150.861 70.2033 150.241 70.2033 149.479V149.47C70.2033 147.976 69.4611 147.023 68.3186 147.023C67.1711 147.023 66.4289 147.976 66.4289 149.47V149.479C66.4289 150.969 67.1564 151.931 68.3186 151.931ZM74.8086 153V145.954H77.7432C79.3447 145.954 80.2627 146.809 80.2627 148.195V148.205C80.2627 149.108 79.7939 149.885 78.9883 150.202L80.4727 153H78.8027L77.4893 150.422H76.2832V153H74.8086ZM76.2832 149.348H77.582C78.3193 149.348 78.7539 148.928 78.7539 148.234V148.225C78.7539 147.546 78.2998 147.106 77.5625 147.106H76.2832V149.348ZM85.9715 153.181C84.2869 153.181 83.2225 152.375 83.1395 151.125L83.1346 151.047H84.5555L84.5603 151.096C84.6141 151.623 85.1853 151.979 86.0105 151.979C86.7967 151.979 87.3387 151.604 87.3387 151.062V151.057C87.3387 150.593 86.992 150.334 86.118 150.153L85.3758 150.002C83.9109 149.704 83.2811 149.021 83.2811 147.951V147.946C83.2811 146.638 84.4041 145.773 85.9666 145.773C87.6121 145.773 88.5789 146.643 88.6717 147.819L88.6766 147.883H87.2898L87.2801 147.824C87.1971 147.321 86.7088 146.97 85.9666 146.97C85.2391 146.975 84.7557 147.307 84.7557 147.834V147.839C84.7557 148.298 85.0975 148.571 85.9275 148.742L86.6746 148.894C88.1639 149.201 88.8133 149.797 88.8133 150.896V150.9C88.8133 152.297 87.7293 153.181 85.9715 153.181Z" fill="white"/>
<path d="M69.3311 138L77.2412 122.521V122.351H67.8174V120.385H79.4751V122.424L71.6382 138H69.3311Z" fill="white"/>
<g filter="url(#filter8_d_417_1851)">
<rect x="147" y="113" width="135" height="47" rx="5" fill="#646464"/>
</g>
<path d="M203.801 153V147.17H201.686V145.954H207.389V147.17H205.275V153H203.801ZM213.342 153.181C211.536 153.181 210.388 152.136 210.388 150.568V145.954H211.863V150.437C211.863 151.35 212.395 151.931 213.342 151.931C214.29 151.931 214.817 151.35 214.817 150.437V145.954H216.292V150.568C216.292 152.131 215.159 153.181 213.342 153.181ZM221.546 153L219.198 145.954H220.853L222.411 151.359H222.498L224.051 145.954H225.711L223.363 153H221.546Z" fill="white"/>
<path d="M214.75 138.293C211.015 138.293 208.354 136.193 208.354 133.239V133.215C208.354 131.042 209.879 129.235 212.138 128.71V128.662C210.209 128.063 208.988 126.599 208.988 124.743V124.719C208.988 122.058 211.417 120.092 214.75 120.092C218.083 120.092 220.512 122.058 220.512 124.719V124.743C220.512 126.599 219.291 128.063 217.362 128.662V128.71C219.621 129.235 221.146 131.042 221.146 133.215V133.239C221.146 136.193 218.485 138.293 214.75 138.293ZM214.75 127.844C216.874 127.844 218.327 126.635 218.327 124.926V124.902C218.327 123.193 216.874 121.984 214.75 121.984C212.626 121.984 211.173 123.193 211.173 124.902V124.926C211.173 126.635 212.626 127.844 214.75 127.844ZM214.75 136.376C217.179 136.376 218.913 135.009 218.913 133.105V133.081C218.913 131.152 217.191 129.772 214.75 129.772C212.309 129.772 210.587 131.152 210.587 133.081V133.105C210.587 135.009 212.321 136.376 214.75 136.376Z" fill="white"/>
<g filter="url(#filter9_d_417_1851)">
<rect x="288" y="113" width="135" height="47" rx="5" fill="#646464"/>
</g>
<path d="M338.78 153L336.914 145.954H338.448L339.546 150.988H339.624L340.909 145.954H342.154L343.462 150.988H343.54L344.629 145.954H346.153L344.283 153H342.901L341.568 148.254H341.49L340.171 153H338.78ZM348.712 153L350.948 149.45V149.436L348.722 145.954H350.46L351.954 148.493H352.013L353.497 145.954H355.148L352.838 149.46V149.479L355.113 153H353.434L351.891 150.529H351.842L350.304 153H348.712ZM360.08 153V150.368L357.629 145.954H359.226L360.778 148.918H360.866L362.414 145.954H364.011L361.555 150.368V153H360.08ZM366.717 153V152.038L370.262 147.258V147.17H366.8V145.954H372.058V146.911L368.523 151.696V151.784H372.156V153H366.717Z" fill="white"/>
<path d="M355.518 119.97C358.741 119.97 362.146 122.241 362.146 128.869V128.894C362.146 134.899 359.644 138.415 355.372 138.415C352.417 138.415 350.22 136.682 349.622 134.082L349.585 133.923H351.795L351.844 134.057C352.381 135.534 353.614 136.45 355.396 136.45C358.594 136.45 359.9 133.325 360.035 129.65C360.047 129.516 360.047 129.37 360.047 129.235H359.815C359.168 130.676 357.508 131.958 355.127 131.958C351.819 131.958 349.354 129.443 349.354 126.062V126.037C349.354 122.521 351.966 119.97 355.518 119.97ZM355.506 130.041C357.789 130.041 359.522 128.369 359.522 126.074V126.062C359.522 123.742 357.776 121.911 355.542 121.911C353.333 121.911 351.563 123.706 351.563 125.988V126.013C351.563 128.356 353.223 130.041 355.506 130.041Z" fill="white"/>
<path d="M357.214 186.525C356.922 186.232 356.922 185.757 357.214 185.464C357.507 185.172 357.982 185.172 358.275 185.464L360.75 187.939L363.225 185.464C363.518 185.172 363.993 185.172 364.286 185.464C364.578 185.757 364.578 186.232 364.286 186.525L361.811 189L364.286 191.475C364.578 191.768 364.578 192.243 364.286 192.536C363.993 192.828 363.518 192.828 363.225 192.536L360.75 190.061L358.275 192.536C357.982 192.828 357.507 192.828 357.214 192.536C356.922 192.243 356.922 191.768 357.214 191.475L359.689 189L357.214 186.525Z" fill="white"/>
<path fill-rule="evenodd" clip-rule="evenodd" d="M354.121 181.379L346.5 189L354.121 196.621C354.684 197.184 355.447 197.5 356.243 197.5H366.5C368.157 197.5 369.5 196.157 369.5 194.5V183.5C369.5 181.843 368.157 180.5 366.5 180.5H356.243C355.447 180.5 354.684 180.816 354.121 181.379ZM366.5 196.2H356.243C355.792 196.2 355.359 196.021 355.041 195.702L348.339 189L355.041 182.298C355.359 181.979 355.792 181.8 356.243 181.8H366.5C367.439 181.8 368.2 182.561 368.2 183.5V194.5C368.2 195.439 367.439 196.2 366.5 196.2Z" fill="white"/>
<path d="M86 184H89V181H90V184H94V185H90V188H94V189H90V194H89V189H86V194H85V189H81V188H85V185H81V184H85V181H86V184ZM52 180V186H58V187H52V193H51V187H45V186H51V180H52ZM73.1826 181.12L70.3652 186H76V187H70.3662L73.1826 191.879L72.3174 192.379L69.5 187.5L66.6826 192.379L65.8174 191.879L68.6338 187H63V186H68.6348L65.8174 181.12L66.6826 180.62L69.5 185.5L72.3174 180.62L73.1826 181.12ZM86 188H89V185H86V188Z" fill="white"/>
<rect x="147" y="320" width="135" height="5" rx="2.5" fill="white"/>
<defs>
<filter id="filter0_d_417_1851" x="147" y="167" width="135" height="47" filterUnits="userSpaceOnUse" color-interpolation-filters="sRGB">
<feFlood flood-opacity="0" result="BackgroundImageFix"/>
<feColorMatrix in="SourceAlpha" type="matrix" values="0 0 0 0 0 0 0 0 0 0 0 0 0 0 0 0 0 0 127 0" result="hardAlpha"/>
<feOffset dy="1"/>
<feColorMatrix type="matrix" values="0 0 0 0 0 0 0 0 0 0 0 0 0 0 0 0 0 0 0.35 0"/>
<feBlend mode="normal" in2="BackgroundImageFix" result="effect1_dropShadow_417_1851"/>
<feBlend mode="normal" in="SourceGraphic" in2="effect1_dropShadow_417_1851" result="shape"/>
</filter>
<filter id="filter1_d_417_1851" x="6" y="6" width="135" height="47" filterUnits="userSpaceOnUse" color-interpolation-filters="sRGB">
<feFlood flood-opacity="0" result="BackgroundImageFix"/>
<feColorMatrix in="SourceAlpha" type="matrix" values="0 0 0 0 0 0 0 0 0 0 0 0 0 0 0 0 0 0 127 0" result="hardAlpha"/>
<feOffset dy="1"/>
<feColorMatrix type="matrix" values="0 0 0 0 0 0 0 0 0 0 0 0 0 0 0 0 0 0 0.3 0"/>
<feBlend mode="normal" in2="BackgroundImageFix" result="effect1_dropShadow_417_1851"/>
<feBlend mode="normal" in="SourceGraphic" in2="effect1_dropShadow_417_1851" result="shape"/>
</filter>
<filter id="filter2_d_417_1851" x="147" y="6" width="135" height="47" filterUnits="userSpaceOnUse" color-interpolation-filters="sRGB">
<feFlood flood-opacity="0" result="BackgroundImageFix"/>
<feColorMatrix in="SourceAlpha" type="matrix" values="0 0 0 0 0 0 0 0 0 0 0 0 0 0 0 0 0 0 127 0" result="hardAlpha"/>
<feOffset dy="1"/>
<feColorMatrix type="matrix" values="0 0 0 0 0 0 0 0 0 0 0 0 0 0 0 0 0 0 0.3 0"/>
<feBlend mode="normal" in2="BackgroundImageFix" result="effect1_dropShadow_417_1851"/>
<feBlend mode="normal" in="SourceGraphic" in2="effect1_dropShadow_417_1851" result="shape"/>
</filter>
<filter id="filter3_d_417_1851" x="288" y="6" width="135" height="47" filterUnits="userSpaceOnUse" color-interpolation-filters="sRGB">
<feFlood flood-opacity="0" result="BackgroundImageFix"/>
<feColorMatrix in="SourceAlpha" type="matrix" values="0 0 0 0 0 0 0 0 0 0 0 0 0 0 0 0 0 0 127 0" result="hardAlpha"/>
<feOffset dy="1"/>
<feColorMatrix type="matrix" values="0 0 0 0 0 0 0 0 0 0 0 0 0 0 0 0 0 0 0.3 0"/>
<feBlend mode="normal" in2="BackgroundImageFix" result="effect1_dropShadow_417_1851"/>
<feBlend mode="normal" in="SourceGraphic" in2="effect1_dropShadow_417_1851" result="shape"/>
</filter>
<filter id="filter4_d_417_1851" x="6" y="59" width="135" height="48" filterUnits="userSpaceOnUse" color-interpolation-filters="sRGB">
<feFlood flood-opacity="0" result="BackgroundImageFix"/>
<feColorMatrix in="SourceAlpha" type="matrix" values="0 0 0 0 0 0 0 0 0 0 0 0 0 0 0 0 0 0 127 0" result="hardAlpha"/>
<feOffset dy="1"/>
<feColorMatrix type="matrix" values="0 0 0 0 0 0 0 0 0 0 0 0 0 0 0 0 0 0 0.3 0"/>
<feBlend mode="normal" in2="BackgroundImageFix" result="effect1_dropShadow_417_1851"/>
<feBlend mode="normal" in="SourceGraphic" in2="effect1_dropShadow_417_1851" result="shape"/>
</filter>
<filter id="filter5_d_417_1851" x="147" y="59" width="135" height="48" filterUnits="userSpaceOnUse" color-interpolation-filters="sRGB">
<feFlood flood-opacity="0" result="BackgroundImageFix"/>
<feColorMatrix in="SourceAlpha" type="matrix" values="0 0 0 0 0 0 0 0 0 0 0 0 0 0 0 0 0 0 127 0" result="hardAlpha"/>
<feOffset dy="1"/>
<feColorMatrix type="matrix" values="0 0 0 0 0 0 0 0 0 0 0 0 0 0 0 0 0 0 0.3 0"/>
<feBlend mode="normal" in2="BackgroundImageFix" result="effect1_dropShadow_417_1851"/>
<feBlend mode="normal" in="SourceGraphic" in2="effect1_dropShadow_417_1851" result="shape"/>
</filter>
<filter id="filter6_d_417_1851" x="288" y="59" width="135" height="48" filterUnits="userSpaceOnUse" color-interpolation-filters="sRGB">
<feFlood flood-opacity="0" result="BackgroundImageFix"/>
<feColorMatrix in="SourceAlpha" type="matrix" values="0 0 0 0 0 0 0 0 0 0 0 0 0 0 0 0 0 0 127 0" result="hardAlpha"/>
<feOffset dy="1"/>
<feColorMatrix type="matrix" values="0 0 0 0 0 0 0 0 0 0 0 0 0 0 0 0 0 0 0.3 0"/>
<feBlend mode="normal" in2="BackgroundImageFix" result="effect1_dropShadow_417_1851"/>
<feBlend mode="normal" in="SourceGraphic" in2="effect1_dropShadow_417_1851" result="shape"/>
</filter>
<filter id="filter7_d_417_1851" x="6" y="113" width="135" height="48" filterUnits="userSpaceOnUse" color-interpolation-filters="sRGB">
<feFlood flood-opacity="0" result="BackgroundImageFix"/>
<feColorMatrix in="SourceAlpha" type="matrix" values="0 0 0 0 0 0 0 0 0 0 0 0 0 0 0 0 0 0 127 0" result="hardAlpha"/>
<feOffset dy="1"/>
<feColorMatrix type="matrix" values="0 0 0 0 0 0 0 0 0 0 0 0 0 0 0 0 0 0 0.3 0"/>
<feBlend mode="normal" in2="BackgroundImageFix" result="effect1_dropShadow_417_1851"/>
<feBlend mode="normal" in="SourceGraphic" in2="effect1_dropShadow_417_1851" result="shape"/>
</filter>
<filter id="filter8_d_417_1851" x="147" y="113" width="135" height="48" filterUnits="userSpaceOnUse" color-interpolation-filters="sRGB">
<feFlood flood-opacity="0" result="BackgroundImageFix"/>
<feColorMatrix in="SourceAlpha" type="matrix" values="0 0 0 0 0 0 0 0 0 0 0 0 0 0 0 0 0 0 127 0" result="hardAlpha"/>
<feOffset dy="1"/>
<feColorMatrix type="matrix" values="0 0 0 0 0 0 0 0 0 0 0 0 0 0 0 0 0 0 0.3 0"/>
<feBlend mode="normal" in2="BackgroundImageFix" result="effect1_dropShadow_417_1851"/>
<feBlend mode="normal" in="SourceGraphic" in2="effect1_dropShadow_417_1851" result="shape"/>
</filter>
<filter id="filter9_d_417_1851" x="288" y="113" width="135" height="48" filterUnits="userSpaceOnUse" color-interpolation-filters="sRGB">
<feFlood flood-opacity="0" result="BackgroundImageFix"/>
<feColorMatrix in="SourceAlpha" type="matrix" values="0 0 0 0 0 0 0 0 0 0 0 0 0 0 0 0 0 0 127 0" result="hardAlpha"/>
<feOffset dy="1"/>
<feColorMatrix type="matrix" values="0 0 0 0 0 0 0 0 0 0 0 0 0 0 0 0 0 0 0.3 0"/>
<feBlend mode="normal" in2="BackgroundImageFix" result="effect1_dropShadow_417_1851"/>
<feBlend mode="normal" in="SourceGraphic" in2="effect1_dropShadow_417_1851" result="shape"/>
</filter>
</defs>
</svg>
