<svg width="383" height="232" viewBox="0 0 383 232" fill="none" xmlns="http://www.w3.org/2000/svg">
<g clip-path="url(#clip0_141_554)">
<path d="M85 151V156V151Z" fill="#EC0000"/>
<path d="M85 151V156" stroke="#EC0000"/>
<path d="M85 150V154V150Z" fill="#EC0000"/>
<path d="M85 150V154" stroke="#EC0000"/>
<path d="M86 151V154V151Z" fill="#EC0000"/>
<path d="M86 151V154" stroke="#EC0000"/>
<path d="M88 151V154V151Z" fill="#00DA3C"/>
<path d="M88 151V154" stroke="#00DA3C"/>
<path d="M89 150V156V150Z" fill="#EC0000"/>
<path d="M89 150V156" stroke="#EC0000"/>
<path d="M89 156V159V156Z" fill="#00DA3C"/>
<path d="M89 156V159" stroke="#00DA3C"/>
<path d="M91 156V157V156Z" fill="#EC0000"/>
<path d="M91 156V157" stroke="#EC0000"/>
<path d="M93 156V159V156Z" fill="#00DA3C"/>
<path d="M93 156V159" stroke="#00DA3C"/>
<path d="M94 153V157V153Z" fill="#EC0000"/>
<path d="M94 153V157" stroke="#EC0000"/>
<path d="M95 150V153V150Z" fill="#EC0000"/>
<path d="M95 150V153" stroke="#EC0000"/>
<path d="M97 156V162V156Z" fill="#00DA3C"/>
<path d="M97 156V162" stroke="#00DA3C"/>
<path d="M97 159V162V159Z" fill="#EC0000"/>
<path d="M97 159V162" stroke="#EC0000"/>
<path d="M98 153V159V153Z" fill="#EC0000"/>
<path d="M98 153V159" stroke="#EC0000"/>
<path d="M99 153V154V153Z" fill="#EC0000"/>
<path d="M99 153V154" stroke="#EC0000"/>
<path d="M101 150V153V150Z" fill="#00DA3C"/>
<path d="M101 150V153" stroke="#00DA3C"/>
<path d="M102 151V153V151Z" fill="#EC0000"/>
<path d="M102 151V153" stroke="#EC0000"/>
<path d="M102 151V154V151Z" fill="#00DA3C"/>
<path d="M102 151V154" stroke="#00DA3C"/>
<path d="M103 151V154V151Z" fill="#00DA3C"/>
<path d="M103 151V154" stroke="#00DA3C"/>
<path d="M105 154V157V154Z" fill="#EC0000"/>
<path d="M105 154V157" stroke="#EC0000"/>
<path d="M106 154V157V154Z" fill="#00DA3C"/>
<path d="M106 154V157" stroke="#00DA3C"/>
<path d="M106 159V161V159Z" fill="#00DA3C"/>
<path d="M106 159V161" stroke="#00DA3C"/>
<path d="M110 157V161V157Z" fill="#EC0000"/>
<path d="M110 157V161" stroke="#EC0000"/>
<path d="M110 156V159V156Z" fill="#00DA3C"/>
<path d="M110 156V159" stroke="#00DA3C"/>
<path d="M111 156V161V156Z" fill="#00DA3C"/>
<path d="M111 156V161" stroke="#00DA3C"/>
<path d="M112 161V164V161Z" fill="#00DA3C"/>
<path d="M112 161V164" stroke="#00DA3C"/>
<path d="M114 162V164V162Z" fill="#EC0000"/>
<path d="M114 162V164" stroke="#EC0000"/>
<path d="M115 161V162V161Z" fill="#EC0000"/>
<path d="M115 161V162" stroke="#EC0000"/>
<path d="M115 159V161V159Z" fill="#EC0000"/>
<path d="M115 159V161" stroke="#EC0000"/>
<path d="M116 159V161V159Z" fill="#EC0000"/>
<path d="M116 159V161" stroke="#EC0000"/>
<path d="M118 156V159V156Z" fill="#EC0000"/>
<path d="M118 156V159" stroke="#EC0000"/>
<path d="M119 157V159V157Z" fill="#EC0000"/>
<path d="M119 157V159" stroke="#EC0000"/>
<path d="M119 156V157V156Z" fill="#EC0000"/>
<path d="M119 156V157" stroke="#EC0000"/>
<path d="M120 156V157V156Z" fill="#00DA3C"/>
<path d="M120 156V157" stroke="#00DA3C"/>
<path d="M122 154V157V154Z" fill="#EC0000"/>
<path d="M122 154V157" stroke="#EC0000"/>
<path d="M123 153V154V153Z" fill="#EC0000"/>
<path d="M123 153V154" stroke="#EC0000"/>
<path d="M124 153V154V153Z" fill="#EC0000"/>
<path d="M124 153V154" stroke="#EC0000"/>
<path d="M127 153V156V153Z" fill="#00DA3C"/>
<path d="M127 153V156" stroke="#00DA3C"/>
<path d="M127 154V156V154Z" fill="#EC0000"/>
<path d="M127 154V156" stroke="#EC0000"/>
<path d="M128 156V157V156Z" fill="#00DA3C"/>
<path d="M128 156V157" stroke="#00DA3C"/>
<path d="M129 156V157V156Z" fill="#00DA3C"/>
<path d="M129 156V157" stroke="#00DA3C"/>
<path d="M131 154V157V154Z" fill="#EC0000"/>
<path d="M131 154V157" stroke="#EC0000"/>
<path d="M132 153V154V153Z" fill="#EC0000"/>
<path d="M132 153V154" stroke="#EC0000"/>
<path d="M133 151V154V151Z" fill="#EC0000"/>
<path d="M133 151V154" stroke="#EC0000"/>
<path d="M135 151V153V151Z" fill="#EC0000"/>
<path d="M135 151V153" stroke="#EC0000"/>
<path d="M136 148V151V148Z" fill="#EC0000"/>
<path d="M136 148V151" stroke="#EC0000"/>
<path d="M137 147V148V147Z" fill="#EC0000"/>
<path d="M137 147V148" stroke="#EC0000"/>
<path d="M139 144V147V144Z" fill="#EC0000"/>
<path d="M139 144V147" stroke="#EC0000"/>
<path d="M139 142V145V142Z" fill="#EC0000"/>
<path d="M139 142V145" stroke="#EC0000"/>
<path d="M140 141V144V141Z" fill="#EC0000"/>
<path d="M140 141V144" stroke="#EC0000"/>
<path d="M141 139V141V139Z" fill="#EC0000"/>
<path d="M141 139V141" stroke="#EC0000"/>
<path d="M143 138V142V138Z" fill="#00DA3C"/>
<path d="M143 138V142" stroke="#00DA3C"/>
<path d="M145 139V141V139Z" fill="#00DA3C"/>
<path d="M145 139V141" stroke="#00DA3C"/>
<path d="M145 138V142V138Z" fill="#EC0000"/>
<path d="M145 138V142" stroke="#EC0000"/>
<path d="M146 138V141V138Z" fill="#EC0000"/>
<path d="M146 138V141" stroke="#EC0000"/>
<path d="M147 135V138V135Z" fill="#EC0000"/>
<path d="M147 135V138" stroke="#EC0000"/>
<path d="M149 133V138V133Z" fill="#00DA3C"/>
<path d="M149 133V138" stroke="#00DA3C"/>
<path d="M150 135V136V135Z" fill="#EC0000"/>
<path d="M150 135V136" stroke="#EC0000"/>
<path d="M151 133V136V133Z" fill="#00DA3C"/>
<path d="M151 133V136" stroke="#00DA3C"/>
<path d="M151 132V135V132Z" fill="#EC0000"/>
<path d="M151 132V135" stroke="#EC0000"/>
<path d="M153 129V132V129Z" fill="#EC0000"/>
<path d="M153 129V132" stroke="#EC0000"/>
<path d="M154 127V130V127Z" fill="#EC0000"/>
<path d="M154 127V130" stroke="#EC0000"/>
<path d="M155 126V130V126Z" fill="#00DA3C"/>
<path d="M155 126V130" stroke="#00DA3C"/>
<path d="M155 126V130V126Z" fill="#EC0000"/>
<path d="M155 126V130" stroke="#EC0000"/>
<path d="M157 123V124V123Z" fill="#EC0000"/>
<path d="M157 123V124" stroke="#EC0000"/>
<path d="M158 119V123V119Z" fill="#EC0000"/>
<path d="M158 119V123" stroke="#EC0000"/>
<path d="M159 119V124V119Z" fill="#00DA3C"/>
<path d="M159 119V124" stroke="#00DA3C"/>
<path d="M162 119V126V119Z" fill="#EC0000"/>
<path d="M162 119V126" stroke="#EC0000"/>
<path d="M163 115V118V115Z" fill="#EC0000"/>
<path d="M163 115V118" stroke="#EC0000"/>
<path d="M164 113V119V113Z" fill="#00DA3C"/>
<path d="M164 113V119" stroke="#00DA3C"/>
<path d="M164 115V119V115Z" fill="#EC0000"/>
<path d="M164 115V119" stroke="#EC0000"/>
<path d="M166 112V115V112Z" fill="#EC0000"/>
<path d="M166 112V115" stroke="#EC0000"/>
<path d="M167 109V113V109Z" fill="#EC0000"/>
<path d="M167 109V113" stroke="#EC0000"/>
<path d="M168 110V115V110Z" fill="#EC0000"/>
<path d="M168 110V115" stroke="#EC0000"/>
<path d="M168 106V109V106Z" fill="#EC0000"/>
<path d="M168 106V109" stroke="#EC0000"/>
<path d="M170 104V110V104Z" fill="#00DA3C"/>
<path d="M170 104V110" stroke="#00DA3C"/>
<path d="M171 107V112V107Z" fill="#EC0000"/>
<path d="M171 107V112" stroke="#EC0000"/>
<path d="M172 107V109V107Z" fill="#00DA3C"/>
<path d="M172 107V109" stroke="#00DA3C"/>
<path d="M174 107V112V107Z" fill="#EC0000"/>
<path d="M174 107V112" stroke="#EC0000"/>
<path d="M175 107V116V107Z" fill="#00DA3C"/>
<path d="M175 107V116" stroke="#00DA3C"/>
<path d="M175 112V119V112Z" fill="#00DA3C"/>
<path d="M175 112V119" stroke="#00DA3C"/>
<path d="M176 118V123V118Z" fill="#00DA3C"/>
<path d="M176 118V123" stroke="#00DA3C"/>
<path d="M178 118V123V118Z" fill="#EC0000"/>
<path d="M178 118V123" stroke="#EC0000"/>
<path d="M180 113V119V113Z" fill="#EC0000"/>
<path d="M180 113V119" stroke="#EC0000"/>
<path d="M181 110V115V110Z" fill="#EC0000"/>
<path d="M181 110V115" stroke="#EC0000"/>
<path d="M181 110V113V110Z" fill="#00DA3C"/>
<path d="M181 110V113" stroke="#00DA3C"/>
<path d="M183 112V113V112Z" fill="#EC0000"/>
<path d="M183 112V113" stroke="#EC0000"/>
<path d="M184 112V116V112Z" fill="#00DA3C"/>
<path d="M184 112V116" stroke="#00DA3C"/>
<path d="M185 113V116V113Z" fill="#EC0000"/>
<path d="M185 113V116" stroke="#EC0000"/>
<path d="M185 110V115V110Z" fill="#EC0000"/>
<path d="M185 110V115" stroke="#EC0000"/>
<path d="M188 106V110V106Z" fill="#EC0000"/>
<path d="M188 106V110" stroke="#EC0000"/>
<path d="M188 106V110V106Z" fill="#EC0000"/>
<path d="M188 106V110" stroke="#EC0000"/>
<path d="M189 101V104V101Z" fill="#EC0000"/>
<path d="M189 101V104" stroke="#EC0000"/>
<path d="M191 95V101V95Z" fill="#EC0000"/>
<path d="M191 95V101" stroke="#EC0000"/>
<path d="M192 91V97V91Z" fill="#EC0000"/>
<path d="M192 91V97" stroke="#EC0000"/>
<path d="M193 89V94V89Z" fill="#EC0000"/>
<path d="M193 89V94" stroke="#EC0000"/>
<path d="M193 88V103V88Z" fill="#00DA3C"/>
<path d="M193 88V103" stroke="#00DA3C"/>
<path d="M195 100V110V100Z" fill="#EC0000"/>
<path d="M195 100V110" stroke="#EC0000"/>
<path d="M196 94V103V94Z" fill="#EC0000"/>
<path d="M196 94V103" stroke="#EC0000"/>
<path d="M198 91V95V91Z" fill="#EC0000"/>
<path d="M198 91V95" stroke="#EC0000"/>
<path d="M198 91V95V91Z" fill="#00DA3C"/>
<path d="M198 91V95" stroke="#00DA3C"/>
<path d="M201 89V101V89Z" fill="#EC0000"/>
<path d="M201 89V101" stroke="#EC0000"/>
<path d="M201 86V92V86Z" fill="#EC0000"/>
<path d="M201 86V92" stroke="#EC0000"/>
<path d="M202 81V88V81Z" fill="#EC0000"/>
<path d="M202 81V88" stroke="#EC0000"/>
<path d="M204 81V86V81Z" fill="#00DA3C"/>
<path d="M204 81V86" stroke="#00DA3C"/>
<path d="M205 81V88V81Z" fill="#EC0000"/>
<path d="M205 81V88" stroke="#EC0000"/>
<path d="M205 83V86V83Z" fill="#EC0000"/>
<path d="M205 83V86" stroke="#EC0000"/>
<path d="M206 80V83V80Z" fill="#EC0000"/>
<path d="M206 80V83" stroke="#EC0000"/>
<path d="M208 80V86V80Z" fill="#00DA3C"/>
<path d="M208 80V86" stroke="#00DA3C"/>
<path d="M209 86V94V86Z" fill="#00DA3C"/>
<path d="M209 86V94" stroke="#00DA3C"/>
<path d="M210 88V97V88Z" fill="#EC0000"/>
<path d="M210 88V97" stroke="#EC0000"/>
<path d="M210 89V97V89Z" fill="#00DA3C"/>
<path d="M210 89V97" stroke="#00DA3C"/>
<path d="M213 98V109V98Z" fill="#00DA3C"/>
<path d="M213 98V109" stroke="#00DA3C"/>
<path d="M213 104V116V104Z" fill="#EC0000"/>
<path d="M213 104V116" stroke="#EC0000"/>
<path d="M214 100V106V100Z" fill="#EC0000"/>
<path d="M214 100V106" stroke="#EC0000"/>
<path d="M217 98V107V98Z" fill="#00DA3C"/>
<path d="M217 98V107" stroke="#00DA3C"/>
<path d="M218 109V121V109Z" fill="#00DA3C"/>
<path d="M218 109V121" stroke="#00DA3C"/>
<path d="M218 115V132V115Z" fill="#00DA3C"/>
<path d="M218 115V132" stroke="#00DA3C"/>
<path d="M219 116V133V116Z" fill="#EC0000"/>
<path d="M219 116V133" stroke="#EC0000"/>
<path d="M221 115V126V115Z" fill="#00DA3C"/>
<path d="M221 115V126" stroke="#00DA3C"/>
<path d="M222 124V135V124Z" fill="#00DA3C"/>
<path d="M222 124V135" stroke="#00DA3C"/>
<path d="M223 130V141V130Z" fill="#00DA3C"/>
<path d="M223 130V141" stroke="#00DA3C"/>
<path d="M223 127V141V127Z" fill="#00DA3C"/>
<path d="M223 127V141" stroke="#00DA3C"/>
<path d="M225 136V144V136Z" fill="#EC0000"/>
<path d="M225 136V144" stroke="#EC0000"/>
<path d="M226 142V150V142Z" fill="#EC0000"/>
<path d="M226 142V150" stroke="#EC0000"/>
<path d="M227 136V151V136Z" fill="#EC0000"/>
<path d="M227 136V151" stroke="#EC0000"/>
<path d="M229 129V139V129Z" fill="#EC0000"/>
<path d="M229 129V139" stroke="#EC0000"/>
<path d="M230 126V132V126Z" fill="#EC0000"/>
<path d="M230 126V132" stroke="#EC0000"/>
<path d="M230 126V133V126Z" fill="#00DA3C"/>
<path d="M230 126V133" stroke="#00DA3C"/>
<path d="M231 130V138V130Z" fill="#00DA3C"/>
<path d="M231 130V138" stroke="#00DA3C"/>
<path d="M234 132V139V132Z" fill="#EC0000"/>
<path d="M234 132V139" stroke="#EC0000"/>
<path d="M235 127V135V127Z" fill="#EC0000"/>
<path d="M235 127V135" stroke="#EC0000"/>
<path d="M235 126V130V126Z" fill="#EC0000"/>
<path d="M235 126V130" stroke="#EC0000"/>
<path d="M236 126V130V126Z" fill="#EC0000"/>
<path d="M236 126V130" stroke="#EC0000"/>
<path d="M238 126V129V126Z" fill="#EC0000"/>
<path d="M238 126V129" stroke="#EC0000"/>
<path d="M239 121V126V121Z" fill="#EC0000"/>
<path d="M239 121V126" stroke="#EC0000"/>
<path d="M240 119V126V119Z" fill="#00DA3C"/>
<path d="M240 119V126" stroke="#00DA3C"/>
<path d="M242 126V138V126Z" fill="#00DA3C"/>
<path d="M242 126V138" stroke="#00DA3C"/>
<path d="M243 136V145V136Z" fill="#EC0000"/>
<path d="M243 136V145" stroke="#EC0000"/>
<path d="M243 135V142V135Z" fill="#EC0000"/>
<path d="M243 135V142" stroke="#EC0000"/>
<path d="M244 133V139V133Z" fill="#00DA3C"/>
<path d="M244 133V139" stroke="#00DA3C"/>
<path d="M246 138V142V138Z" fill="#EC0000"/>
<path d="M246 138V142" stroke="#EC0000"/>
<path d="M247 141V144V141Z" fill="#EC0000"/>
<path d="M247 141V144" stroke="#EC0000"/>
<path d="M247 136V142V136Z" fill="#EC0000"/>
<path d="M247 136V142" stroke="#EC0000"/>
<path d="M248 135V139V135Z" fill="#00DA3C"/>
<path d="M248 135V139" stroke="#00DA3C"/>
<path d="M250 138V142V138Z" fill="#EC0000"/>
<path d="M250 138V142" stroke="#EC0000"/>
<path d="M252 136V139V136Z" fill="#EC0000"/>
<path d="M252 136V139" stroke="#EC0000"/>
<path d="M253 129V136V129Z" fill="#EC0000"/>
<path d="M253 129V136" stroke="#EC0000"/>
<path d="M255 129V132V129Z" fill="#00DA3C"/>
<path d="M255 129V132" stroke="#00DA3C"/>
<path d="M255 129V132V129Z" fill="#EC0000"/>
<path d="M255 129V132" stroke="#EC0000"/>
<path d="M256 129V133V129Z" fill="#EC0000"/>
<path d="M256 129V133" stroke="#EC0000"/>
<path d="M257 127V129V127Z" fill="#00DA3C"/>
<path d="M257 127V129" stroke="#00DA3C"/>
<path d="M259 127V130V127Z" fill="#EC0000"/>
<path d="M259 127V130" stroke="#EC0000"/>
<path d="M260 127V136V127Z" fill="#00DA3C"/>
<path d="M260 127V136" stroke="#00DA3C"/>
<path d="M260 135V144V135Z" fill="#EC0000"/>
<path d="M260 135V144" stroke="#EC0000"/>
<path d="M261 135V141V135Z" fill="#00DA3C"/>
<path d="M261 135V141" stroke="#00DA3C"/>
<path d="M263 141V147V141Z" fill="#00DA3C"/>
<path d="M263 141V147" stroke="#00DA3C"/>
<path d="M264 151V159V151Z" fill="#00DA3C"/>
<path d="M264 151V159" stroke="#00DA3C"/>
<path d="M265 161V168V161Z" fill="#00DA3C"/>
<path d="M265 161V168" stroke="#00DA3C"/>
<path d="M267 162V171V162Z" fill="#00DA3C"/>
<path d="M267 162V171" stroke="#00DA3C"/>
<path d="M267 162V170V162Z" fill="#EC0000"/>
<path d="M267 162V170" stroke="#EC0000"/>
<path d="M268 157V162V157Z" fill="#EC0000"/>
<path d="M268 157V162" stroke="#EC0000"/>
<path d="M270 157V162V157Z" fill="#EC0000"/>
<path d="M270 157V162" stroke="#EC0000"/>
<path d="M271 159V164V159Z" fill="#EC0000"/>
<path d="M271 159V164" stroke="#EC0000"/>
<path d="M271 159V165V159Z" fill="#EC0000"/>
<path d="M271 159V165" stroke="#EC0000"/>
<path d="M273 157V164V157Z" fill="#00DA3C"/>
<path d="M273 157V164" stroke="#00DA3C"/>
<path d="M274 159V165V159Z" fill="#EC0000"/>
<path d="M274 159V165" stroke="#EC0000"/>
<path d="M275 156V159V156Z" fill="#EC0000"/>
<path d="M275 156V159" stroke="#EC0000"/>
<path d="M277 156V159V156Z" fill="#EC0000"/>
<path d="M277 156V159" stroke="#EC0000"/>
<path d="M278 157V159V157Z" fill="#EC0000"/>
<path d="M278 157V159" stroke="#EC0000"/>
<path d="M279 157V164V157Z" fill="#00DA3C"/>
<path d="M279 157V164" stroke="#00DA3C"/>
<path d="M279 164V167V164Z" fill="#00DA3C"/>
<path d="M279 164V167" stroke="#00DA3C"/>
<path d="M281 159V167V159Z" fill="#EC0000"/>
<path d="M281 159V167" stroke="#EC0000"/>
<path d="M282 157V162V157Z" fill="#00DA3C"/>
<path d="M282 157V162" stroke="#00DA3C"/>
<path d="M283 161V164V161Z" fill="#00DA3C"/>
<path d="M283 161V164" stroke="#00DA3C"/>
<path d="M283 159V164V159Z" fill="#EC0000"/>
<path d="M283 159V164" stroke="#EC0000"/>
<path d="M285 157V161V157Z" fill="#EC0000"/>
<path d="M285 157V161" stroke="#EC0000"/>
<path d="M286 159V162V159Z" fill="#00DA3C"/>
<path d="M286 159V162" stroke="#00DA3C"/>
<path d="M288 161V162V161Z" fill="#EC0000"/>
<path d="M288 161V162" stroke="#EC0000"/>
<path d="M290 161V164V161Z" fill="#00DA3C"/>
<path d="M290 161V164" stroke="#00DA3C"/>
<path d="M290 162V165V162Z" fill="#EC0000"/>
<path d="M290 162V165" stroke="#EC0000"/>
<path d="M291 164V165V164Z" fill="#00DA3C"/>
<path d="M291 164V165" stroke="#00DA3C"/>
<path d="M292 164V165V164Z" fill="#00DA3C"/>
<path d="M292 164V165" stroke="#00DA3C"/>
<path d="M294 159V161V159Z" fill="#00DA3C"/>
<path d="M294 159V161" stroke="#00DA3C"/>
<path d="M295 159V161V159Z" fill="#EC0000"/>
<path d="M295 159V161" stroke="#EC0000"/>
<path d="M296 153V159V153Z" fill="#EC0000"/>
<path d="M296 153V159" stroke="#EC0000"/>
<path d="M296 154V156V154Z" fill="#EC0000"/>
<path d="M296 154V156" stroke="#EC0000"/>
<path d="M298 154V156V154Z" fill="#00DA3C"/>
<path d="M298 154V156" stroke="#00DA3C"/>
<path d="M299 153V156V153Z" fill="#EC0000"/>
<path d="M299 153V156" stroke="#EC0000"/>
<path d="M300 150V153V150Z" fill="#EC0000"/>
<path d="M300 150V153" stroke="#EC0000"/>
<path d="M300 150V151V150Z" fill="#00DA3C"/>
<path d="M300 150V151" stroke="#00DA3C"/>
<path d="M302 150V151V150Z" fill="#EC0000"/>
<path d="M302 150V151" stroke="#EC0000"/>
<path d="M303 148V156V148Z" fill="#00DA3C"/>
<path d="M303 148V156" stroke="#00DA3C"/>
<path d="M304 151V154V151Z" fill="#EC0000"/>
<path d="M304 151V154" stroke="#EC0000"/>
<path d="M307 150V151V150Z" fill="#EC0000"/>
<path d="M307 150V151" stroke="#EC0000"/>
<path d="M308 148V150V148Z" fill="#00DA3C"/>
<path d="M308 148V150" stroke="#00DA3C"/>
<path d="M309 148V153V148Z" fill="#EC0000"/>
<path d="M309 148V153" stroke="#EC0000"/>
<path d="M309 148V151V148Z" fill="#00DA3C"/>
<path d="M309 148V151" stroke="#00DA3C"/>
<path d="M311 150V151V150Z" fill="#00DA3C"/>
<path d="M311 150V151" stroke="#00DA3C"/>
<path d="M312 150V153V150Z" fill="#EC0000"/>
<path d="M312 150V153" stroke="#EC0000"/>
<path d="M313 151V153V151Z" fill="#00DA3C"/>
<path d="M313 151V153" stroke="#00DA3C"/>
<path d="M313 153V154V153Z" fill="#00DA3C"/>
<path d="M313 153V154" stroke="#00DA3C"/>
<path d="M315 148V153V148Z" fill="#EC0000"/>
<path d="M315 148V153" stroke="#EC0000"/>
<path d="M316 144V148V144Z" fill="#EC0000"/>
<path d="M316 144V148" stroke="#EC0000"/>
<path d="M317 142V145V142Z" fill="#EC0000"/>
<path d="M317 142V145" stroke="#EC0000"/>
<path d="M319 139V142V139Z" fill="#EC0000"/>
<path d="M319 139V142" stroke="#EC0000"/>
<path d="M320 139V142V139Z" fill="#EC0000"/>
<path d="M320 139V142" stroke="#EC0000"/>
<path d="M320 141V142V141Z" fill="#EC0000"/>
<path d="M320 141V142" stroke="#EC0000"/>
<path d="M321 141V142V141Z" fill="#00DA3C"/>
<path d="M321 141V142" stroke="#00DA3C"/>
<path d="M324 141V144V141Z" fill="#00DA3C"/>
<path d="M324 141V144" stroke="#00DA3C"/>
<path d="M325 142V145V142Z" fill="#EC0000"/>
<path d="M325 142V145" stroke="#EC0000"/>
<path d="M326 139V142V139Z" fill="#00DA3C"/>
<path d="M326 139V142" stroke="#00DA3C"/>
<path d="M326 142V144V142Z" fill="#00DA3C"/>
<path d="M326 142V144" stroke="#00DA3C"/>
<path d="M328 142V144V142Z" fill="#EC0000"/>
<path d="M328 142V144" stroke="#EC0000"/>
<path d="M329 141V142V141Z" fill="#EC0000"/>
<path d="M329 141V142" stroke="#EC0000"/>
<path d="M330 141V142V141Z" fill="#00DA3C"/>
<path d="M330 141V142" stroke="#00DA3C"/>
<path d="M332 142V144V142Z" fill="#EC0000"/>
<path d="M332 142V144" stroke="#EC0000"/>
<path d="M333 141V142V141Z" fill="#EC0000"/>
<path d="M333 141V142" stroke="#EC0000"/>
<path d="M333 139V141V139Z" fill="#00DA3C"/>
<path d="M333 139V141" stroke="#00DA3C"/>
<path d="M334 142V150V142Z" fill="#00DA3C"/>
<path d="M334 142V150" stroke="#00DA3C"/>
<path d="M336 147V153V147Z" fill="#EC0000"/>
<path d="M336 147V153" stroke="#EC0000"/>
<path d="M337 147V150V147Z" fill="#EC0000"/>
<path d="M337 147V150" stroke="#EC0000"/>
<path d="M338 145V150V145Z" fill="#EC0000"/>
<path d="M338 145V150" stroke="#EC0000"/>
<path d="M338 142V145V142Z" fill="#EC0000"/>
<path d="M338 142V145" stroke="#EC0000"/>
<path d="M341 144V145V144Z" fill="#00DA3C"/>
<path d="M341 144V145" stroke="#00DA3C"/>
<path d="M342 145V147V145Z" fill="#EC0000"/>
<path d="M342 145V147" stroke="#EC0000"/>
<path d="M343 145V148V145Z" fill="#00DA3C"/>
<path d="M343 145V148" stroke="#00DA3C"/>
<path d="M345 147V148V147Z" fill="#EC0000"/>
<path d="M345 147V148" stroke="#EC0000"/>
<path d="M346 147V148V147Z" fill="#00DA3C"/>
<path d="M346 147V148" stroke="#00DA3C"/>
<path d="M346 148V150V148Z" fill="#00DA3C"/>
<path d="M346 148V150" stroke="#00DA3C"/>
<path d="M347 145V150V145Z" fill="#EC0000"/>
<path d="M347 145V150" stroke="#EC0000"/>
<path d="M349 145V147V145Z" fill="#00DA3C"/>
<path d="M349 145V147" stroke="#00DA3C"/>
<path d="M350 145V147V145Z" fill="#00DA3C"/>
<path d="M350 145V147" stroke="#00DA3C"/>
<path d="M350 144V145V144Z" fill="#EC0000"/>
<path d="M350 144V145" stroke="#EC0000"/>
<path d="M351 142V144V142Z" fill="#EC0000"/>
<path d="M351 142V144" stroke="#EC0000"/>
<path d="M353 141V144V141Z" fill="#EC0000"/>
<path d="M353 141V144" stroke="#EC0000"/>
<path d="M354 141V142V141Z" fill="#EC0000"/>
<path d="M354 141V142" stroke="#EC0000"/>
<path d="M355 139V141V139Z" fill="#00DA3C"/>
<path d="M355 139V141" stroke="#00DA3C"/>
<path d="M357 141V144V141Z" fill="#00DA3C"/>
<path d="M357 141V144" stroke="#00DA3C"/>
<path d="M359 141V142V141Z" fill="#EC0000"/>
<path d="M359 141V142" stroke="#EC0000"/>
<path d="M359 141V145V141Z" fill="#00DA3C"/>
<path d="M359 141V145" stroke="#00DA3C"/>
<path d="M360 144V145V144Z" fill="#EC0000"/>
<path d="M360 144V145" stroke="#EC0000"/>
<path d="M362 144V145V144Z" fill="#EC0000"/>
<path d="M362 144V145" stroke="#EC0000"/>
<path d="M363 144V145V144Z" fill="#00DA3C"/>
<path d="M363 144V145" stroke="#00DA3C"/>
<mask id="mask0_141_554" style="mask-type:luminance" maskUnits="userSpaceOnUse" x="81" y="48" width="282" height="236">
<path d="M81 48H363V284H81V48Z" fill="white"/>
</mask>
<g mask="url(#mask0_141_554)">
<path d="M87.9448 178.782C87.9448 178.782 88.0268 153.029 89.088 153.029C89.17 153.029 89.657 153.511 90.2312 153.979C90.8002 154.442 90.8227 154.383 91.3745 154.889C91.9659 155.432 91.8975 156.077 92.5177 156.077C93.0407 156.077 93.1061 155.995 93.6609 155.74C94.2493 155.469 94.2431 155.026 94.8042 155.026C95.3863 155.026 95.354 155.555 95.9474 155.911C96.4972 156.242 96.535 156.399 97.0906 156.399C97.6782 156.399 97.6358 155.665 98.2338 155.606C98.779 155.552 98.807 155.552 99.3771 155.552C99.9503 155.552 100.071 155.746 100.52 155.746C101.215 155.746 101.037 154.614 101.664 153.655C102.18 152.863 102.165 152.244 102.807 152.244C103.308 152.244 103.395 152.244 103.95 152.384C104.538 152.533 104.552 152.607 105.093 153.02C105.695 153.479 105.735 153.447 106.236 154.128C106.879 155 106.741 155.244 107.38 156.126C107.885 156.823 107.942 156.729 108.523 157.286C109.085 157.825 109.091 157.811 109.666 158.318C110.234 158.82 110.243 158.798 110.809 159.304C111.386 159.818 111.34 160.058 111.953 160.358C112.483 160.618 112.532 160.432 113.096 160.618C113.675 160.81 113.657 160.981 114.239 161.114C114.8 161.243 114.814 161.243 115.382 161.243C115.957 161.243 115.99 161.243 116.525 160.954C117.134 160.625 117.097 160.452 117.669 159.951C118.24 159.451 118.229 159.419 118.812 158.954C119.372 158.507 119.369 158.483 119.955 158.128C120.512 157.791 120.552 157.938 121.098 157.571C121.695 157.17 121.66 157.052 122.242 156.591C122.804 156.145 122.817 156.186 123.385 155.757C123.96 155.322 123.924 155.005 124.528 154.864C125.067 154.737 125.106 154.864 125.671 154.737C126.249 154.608 126.243 154.34 126.814 154.34C127.386 154.34 127.392 154.5 127.958 154.731C128.535 154.966 128.52 155.067 129.101 155.273C129.663 155.471 129.671 155.538 130.244 155.538C130.814 155.538 130.815 155.425 131.387 155.358C131.958 155.29 131.985 155.358 132.531 155.268C133.128 155.171 133.118 154.921 133.674 154.478C134.262 154.009 134.254 153.983 134.817 153.445C135.397 152.891 135.432 152.953 135.96 152.294C136.575 151.527 136.576 151.505 137.103 150.595C137.719 149.533 137.641 149.428 138.247 148.35C138.785 147.392 138.826 147.447 139.39 146.524C139.969 145.576 139.958 145.56 140.533 144.608C141.101 143.668 141.073 143.622 141.676 142.739C142.216 141.949 142.19 141.848 142.82 141.261C143.333 140.782 143.399 140.961 143.963 140.607C144.542 140.243 144.523 140.171 145.106 139.825C145.666 139.491 145.688 139.578 146.249 139.246C146.832 138.902 146.804 138.785 147.393 138.471C147.947 138.176 148.008 138.401 148.536 138.029C149.151 137.594 149.104 137.434 149.679 136.856C150.247 136.285 150.268 136.331 150.822 135.73C151.411 135.091 151.395 135.055 151.965 134.375C152.538 133.692 152.583 133.765 153.109 133.005C153.726 132.112 153.618 131.926 154.252 131.069C154.761 130.381 154.861 130.566 155.395 129.915C156.005 129.172 155.998 129.144 156.538 128.281C157.141 127.317 157.057 127.185 157.682 126.26C158.2 125.492 158.207 125.453 158.825 124.895C159.35 124.42 159.482 124.738 159.968 124.194C160.626 123.458 160.55 123.278 161.111 122.334C161.693 121.357 161.59 121.145 162.254 120.351C162.733 119.78 162.86 120.071 163.398 119.604C164.003 119.077 164.066 119.133 164.541 118.365C165.209 117.282 165.053 117.055 165.684 115.901C166.197 114.962 166.189 114.893 166.827 114.179C167.332 113.614 167.521 113.987 167.971 113.345C168.664 112.353 168.462 112.013 169.114 110.912C169.606 110.081 169.629 110.042 170.257 109.481C170.772 109.02 170.814 109.08 171.4 108.868C171.958 108.667 171.99 108.868 172.543 108.656C173.133 108.429 173.197 107.976 173.687 107.976C174.34 107.976 174.27 108.855 174.83 109.768C175.413 110.719 175.472 110.654 175.973 111.704C176.616 113.051 176.467 113.224 177.116 114.56C177.61 115.576 177.633 115.586 178.26 116.408C178.776 117.085 178.807 117.559 179.403 117.559C179.95 117.559 179.998 117.224 180.546 116.756C181.141 116.248 181.192 116.311 181.689 115.608C182.335 114.694 182.163 114.368 182.832 113.522C183.306 112.922 183.384 112.716 183.976 112.716C184.527 112.716 184.541 113.109 185.119 113.109C185.684 113.109 185.703 113.109 186.262 112.981C186.847 112.847 186.874 112.832 187.405 112.428C188.017 111.963 188.098 112.016 188.549 111.243C189.241 110.057 189.213 109.951 189.692 108.508C190.356 106.505 190.246 106.418 190.835 104.352C191.389 102.406 191.408 102.419 191.978 100.484C192.551 98.5433 192.33 98.192 193.122 96.6009C193.473 95.8942 193.677 95.8888 194.265 95.8888C194.82 95.8888 194.831 96.2482 195.408 96.2482C195.974 96.2482 195.979 96.1311 196.551 96.1311C197.122 96.1311 197.126 96.1311 197.694 96.134C198.269 96.137 198.422 96.3827 198.838 96.3827C199.566 96.3827 199.457 95.1466 199.981 93.8208C200.6 92.2534 200.491 92.1481 201.124 90.5963C201.634 89.3477 201.633 89.3211 202.267 88.2201C202.776 87.3374 202.835 87.4169 203.411 86.6289C203.978 85.8528 203.969 85.8354 204.554 85.092C205.112 84.383 205.107 84.3674 205.697 83.7242C206.25 83.122 206.233 82.6013 206.84 82.6013C207.376 82.6013 207.499 82.6512 207.983 83.1414C208.642 83.8074 208.501 84.1321 209.127 84.9137C209.644 85.5597 209.819 85.2634 210.27 85.9965C210.962 87.1226 211.004 87.194 211.413 88.6321C212.147 91.2083 211.899 91.3798 212.556 94.0251C213.043 95.9829 212.965 96.1173 213.7 97.8385C214.109 98.7973 214.412 98.4441 214.843 99.3849C215.555 100.942 215.485 101.062 215.986 102.835C216.628 105.109 216.479 105.211 217.129 107.479C217.622 109.2 217.629 109.216 218.272 110.813C218.773 112.055 219.008 111.852 219.416 113.159C220.151 115.519 219.979 115.658 220.559 118.148C221.122 120.563 221.083 120.588 221.702 122.969C222.226 124.981 222.15 125.068 222.845 126.935C223.293 128.137 223.56 127.892 223.989 129.107C224.703 131.134 224.559 131.264 225.132 133.419C225.702 135.562 225.519 135.759 226.275 137.703C226.662 138.699 226.839 139.298 227.418 139.298C227.982 139.298 227.992 138.554 228.561 137.802C229.135 137.043 229.135 137.043 229.705 136.277C230.278 135.507 230.34 135.594 230.848 134.73C231.483 133.65 231.308 133.356 231.991 132.39C232.451 131.74 232.547 131.887 233.134 131.498C233.69 131.129 233.69 131.054 234.278 130.874C234.834 130.704 234.871 130.874 235.421 130.704C236.014 130.52 236.066 130.509 236.564 129.973C237.209 129.28 237.186 129.177 237.707 128.246C238.329 127.135 238.166 126.862 238.851 125.889C239.309 125.238 239.515 124.999 239.994 124.999C240.658 124.999 240.618 125.984 241.137 127.088C241.762 128.419 241.637 128.564 242.28 129.868C242.78 130.882 242.958 130.679 243.423 131.725C244.101 133.247 243.989 133.369 244.567 135.003C245.132 136.603 244.963 136.888 245.71 138.194C246.106 138.886 246.277 138.999 246.853 138.999C247.42 138.999 247.425 138.266 247.996 138.266C248.568 138.266 248.55 138.727 249.14 139.007C249.693 139.271 249.723 139.354 250.283 139.354C250.866 139.354 250.985 139.307 251.426 138.723C252.128 137.794 251.914 137.4 252.569 136.329C253.057 135.531 253.154 135.681 253.712 134.985C254.297 134.258 254.348 134.326 254.856 133.482C255.491 132.426 255.382 132.273 255.999 131.185C256.525 130.258 256.485 130.097 257.142 129.452C257.629 128.974 257.773 128.94 258.285 128.94C258.916 128.94 258.808 129.771 259.429 130.349C259.952 130.837 260.117 130.476 260.572 131.072C261.26 131.975 261.237 132.121 261.715 133.348C262.38 135.052 262.419 135.063 262.858 136.934C263.562 139.929 263.43 140.006 264.001 143.078C264.573 146.148 264.6 146.136 265.145 149.217C265.743 152.603 265.613 152.665 266.288 156.012C266.757 158.338 266.703 158.427 267.431 160.564C267.846 161.782 267.873 162.674 268.574 162.723C269.016 162.753 269.23 162.753 269.718 162.753C270.374 162.753 270.309 161.994 270.861 161.173C271.452 160.291 271.329 159.347 272.004 159.347C272.472 159.347 272.586 159.347 273.147 159.372C273.729 159.398 273.712 159.857 274.29 159.857C274.855 159.857 274.861 159.701 275.434 159.566C276.004 159.433 276.007 159.461 276.577 159.321C277.15 159.181 277.147 159.154 277.72 159.007C278.291 158.862 278.351 158.738 278.863 158.738C279.494 158.738 279.395 159.496 280.007 160.033C280.538 160.5 280.588 160.355 281.15 160.745C281.732 161.149 281.717 161.199 282.293 161.622C282.86 162.038 282.842 162.424 283.436 162.424C283.986 162.424 284.074 162.424 284.58 162.097C285.218 161.683 285.084 160.682 285.723 160.682C286.227 160.682 286.3 160.967 286.866 160.967C287.443 160.967 287.429 160.523 288.009 160.523C288.572 160.523 288.589 160.523 289.152 160.567C289.733 160.612 289.767 160.636 290.296 161.004C290.91 161.433 290.827 161.718 291.439 162.16C291.97 162.544 292 162.655 292.582 162.655C293.143 162.655 293.176 162.655 293.725 162.65C294.319 162.644 294.351 162.431 294.869 161.938C295.494 161.343 295.483 161.274 296.012 160.473C296.627 159.541 296.554 159.43 297.155 158.473C297.698 157.609 297.717 157.636 298.298 156.83C298.86 156.051 298.878 156.081 299.441 155.304C300.022 154.502 299.95 154.341 300.585 153.672C301.093 153.136 301.173 153.335 301.728 152.895C302.317 152.429 302.266 152.255 302.871 151.86C303.409 151.509 303.436 151.58 304.014 151.403C304.579 151.231 304.585 151.265 305.158 151.163C305.728 151.062 305.733 151.122 306.301 150.998C306.876 150.872 306.868 150.734 307.444 150.662C308.011 150.591 308.024 150.662 308.587 150.591C309.167 150.518 309.152 150.309 309.731 150.164C310.295 150.022 310.304 150.018 310.874 150.018C311.447 150.018 311.471 150.018 312.017 150.252C312.614 150.508 312.595 150.641 313.16 151.071C313.738 151.512 313.716 151.993 314.303 151.993C314.859 151.993 314.901 151.743 315.447 151.331C316.044 150.881 316.062 150.89 316.59 150.269C317.205 149.546 317.233 149.551 317.733 148.643C318.376 147.477 318.306 147.383 318.876 146.121C319.449 144.853 319.365 144.737 320.02 143.583C320.508 142.721 320.544 142.726 321.163 142.088C321.687 141.547 321.704 141.225 322.306 141.225C322.847 141.225 322.882 141.225 323.449 141.298C324.025 141.371 324.02 141.462 324.592 141.61C325.163 141.758 325.178 141.666 325.736 141.89C326.322 142.126 326.29 142.399 326.879 142.531C327.433 142.655 327.457 142.655 328.022 142.655C328.6 142.655 328.587 142.293 329.165 142.266C329.73 142.24 329.737 142.266 330.309 142.24C330.88 142.214 330.897 142.24 331.452 142.151C332.04 142.057 332.007 141.682 332.595 141.528C333.151 141.383 333.245 141.383 333.738 141.383C334.389 141.383 334.292 142.18 334.881 142.906C335.435 143.587 335.45 143.559 336.025 144.198C336.593 144.831 336.569 144.895 337.168 145.451C337.712 145.956 337.715 145.991 338.311 146.321C338.858 146.625 338.896 146.719 339.454 146.719C340.04 146.719 340.027 146.376 340.598 146.024C341.17 145.67 341.148 145.423 341.741 145.306C342.291 145.198 342.323 145.198 342.884 145.198C343.466 145.198 343.485 145.344 344.027 145.704C344.629 146.103 344.579 146.272 345.17 146.717C345.723 147.133 345.721 147.289 346.314 147.426C346.864 147.554 346.889 147.554 347.457 147.554C348.032 147.554 348.029 147.402 348.6 147.238C349.173 147.073 349.205 147.206 349.743 146.895C350.348 146.546 350.326 146.436 350.887 145.919C351.469 145.382 351.446 145.32 352.03 144.787C352.589 144.277 352.612 144.338 353.173 143.832C353.756 143.307 353.733 143.247 354.316 142.724C354.876 142.223 354.855 142.07 355.459 141.784C355.998 141.529 356.035 141.688 356.603 141.529C357.178 141.369 357.198 141.146 357.746 141.146C358.341 141.146 358.308 141.606 358.889 141.998C359.451 142.377 359.451 142.386 360.032 142.688C360.594 142.979 360.608 142.917 361.176 143.183C361.751 143.452 362.319 143.758 362.319 143.758" stroke="#4992FF" stroke-linejoin="bevel"/>
</g>
<mask id="mask1_141_554" style="mask-type:luminance" maskUnits="userSpaceOnUse" x="81" y="48" width="282" height="236">
<path d="M81 48H363V284H81V48Z" fill="white"/>
</mask>
<g mask="url(#mask1_141_554)">
<path d="M105.093 160.773C105.093 160.773 105.341 154.482 106.236 154.482C106.484 154.482 106.803 154.735 107.38 154.917C107.946 155.097 107.954 155.036 108.523 155.205C109.098 155.375 109.092 155.421 109.666 155.596C110.235 155.77 110.241 155.725 110.809 155.904C111.384 156.084 111.376 156.145 111.953 156.314C112.52 156.481 112.523 156.465 113.096 156.577C113.666 156.689 113.667 156.683 114.239 156.761C114.81 156.838 114.815 156.777 115.382 156.888C115.958 157 115.954 157.043 116.525 157.207C117.098 157.372 117.094 157.546 117.669 157.546C118.237 157.546 118.239 157.426 118.812 157.338C119.382 157.25 119.384 157.193 119.955 157.193C120.527 157.193 120.525 157.31 121.098 157.379C121.669 157.447 121.67 157.425 122.242 157.467C122.813 157.509 122.813 157.505 123.385 157.548C123.956 157.592 123.957 157.573 124.528 157.64C125.101 157.707 125.098 157.765 125.671 157.816C126.242 157.868 126.243 157.848 126.814 157.868C127.386 157.887 127.386 157.895 127.958 157.895C128.529 157.895 128.534 157.895 129.101 157.834C129.678 157.773 129.668 157.619 130.244 157.493C130.812 157.369 130.817 157.431 131.387 157.334C131.96 157.237 131.964 157.265 132.531 157.105C133.108 156.942 133.109 156.935 133.674 156.688C134.252 156.436 134.251 156.422 134.817 156.106C135.395 155.784 135.389 155.762 135.96 155.412C136.533 155.061 136.539 155.082 137.103 154.704C137.682 154.317 137.674 154.289 138.247 153.882C138.817 153.477 138.819 153.483 139.39 153.081C139.962 152.678 139.968 152.696 140.533 152.271C141.111 151.835 141.102 151.806 141.676 151.359C142.245 150.915 142.246 150.918 142.82 150.488C143.39 150.059 143.385 150.045 143.963 149.641C144.529 149.246 144.534 149.264 145.106 148.889C145.677 148.515 145.686 148.544 146.249 148.143C146.829 147.73 146.825 147.715 147.393 147.26C147.969 146.799 147.97 146.802 148.536 146.31C149.114 145.807 149.114 145.807 149.679 145.27C150.257 144.721 150.257 144.72 150.822 144.139C151.401 143.544 151.399 143.541 151.965 142.919C152.543 142.285 152.545 142.288 153.109 141.627C153.688 140.948 153.674 140.92 154.252 140.238C154.817 139.572 154.826 139.591 155.395 138.932C155.97 138.266 155.977 138.28 156.538 137.59C157.12 136.875 157.1 136.837 157.682 136.122C158.243 135.431 158.237 135.415 158.825 134.777C159.381 134.174 159.402 134.22 159.968 133.638C160.545 133.045 160.553 133.061 161.111 132.428C161.696 131.765 161.667 131.704 162.254 131.046C162.81 130.425 162.827 130.461 163.398 129.871C163.97 129.279 163.985 129.31 164.541 128.684C165.128 128.023 165.12 128.005 165.684 127.298C166.263 126.573 166.249 126.547 166.827 125.821C167.392 125.111 167.419 125.159 167.971 124.426C168.562 123.642 168.519 123.565 169.114 122.788C169.662 122.07 169.692 122.124 170.257 121.436C170.835 120.734 170.814 120.692 171.4 120.008C171.957 119.359 171.975 119.397 172.543 118.771C173.119 118.137 173.084 118.051 173.687 117.488C174.227 116.983 174.24 116.991 174.83 116.636C175.384 116.302 175.392 116.303 175.973 116.111C176.535 115.925 176.553 116.057 177.116 115.881C177.696 115.699 177.693 115.66 178.26 115.394C178.836 115.124 178.829 115.092 179.403 114.808C179.973 114.525 179.971 114.516 180.546 114.26C181.114 114.007 181.122 114.049 181.689 113.789C182.266 113.525 182.249 113.417 182.833 113.213C183.392 113.017 183.402 112.99 183.976 112.99C184.545 112.99 184.554 112.997 185.119 112.997C185.698 112.997 185.688 112.778 186.262 112.604C186.831 112.432 186.833 112.444 187.405 112.305C187.976 112.166 187.984 112.229 188.549 112.048C189.127 111.863 189.139 111.887 189.692 111.572C190.282 111.237 190.259 111.145 190.835 110.749C191.402 110.358 191.417 110.406 191.978 109.997C192.56 109.574 192.519 109.398 193.122 109.085C193.663 108.803 193.695 108.957 194.265 108.803C194.838 108.649 194.851 108.717 195.408 108.47C195.995 108.209 196.014 108.23 196.551 107.788C197.157 107.289 197.133 107.21 197.694 106.589C198.277 105.944 198.29 105.966 198.838 105.255C199.434 104.481 199.406 104.432 199.981 103.619C200.55 102.813 200.55 102.813 201.124 102.017C201.693 101.23 201.682 101.21 202.267 100.453C202.825 99.7302 202.842 99.7602 203.411 99.0569C203.985 98.3467 203.984 98.3452 204.554 97.6258C205.127 96.9013 205.144 96.9287 205.697 96.1692C206.287 95.36 206.256 95.308 206.84 94.4885C207.399 93.7039 207.366 93.6221 207.983 92.9609C208.509 92.3979 208.562 92.5199 209.127 92.0401C209.705 91.5484 209.668 91.4192 210.27 91.0179C210.811 90.6574 210.836 90.5164 211.413 90.5164C211.979 90.5164 211.989 90.665 212.556 90.8676C213.132 91.0732 213.127 91.1078 213.7 91.3327C214.27 91.5566 214.29 91.4648 214.843 91.7652C215.434 92.0866 215.416 92.1654 215.986 92.5764C216.559 92.9898 216.575 92.9458 217.129 93.414C217.719 93.9121 217.7 93.964 218.273 94.5089C218.843 95.0518 218.891 94.9563 219.416 95.5897C220.034 96.3362 220.01 96.396 220.559 97.2688C221.153 98.2126 221.171 98.1959 221.702 99.223C222.315 100.408 222.272 100.46 222.845 101.693C223.415 102.917 223.44 102.89 223.989 104.137C224.584 105.489 224.588 105.487 225.132 106.889C225.732 108.438 225.674 108.49 226.275 110.037C226.817 111.433 226.824 111.429 227.418 112.774C227.967 114.017 227.983 114.001 228.562 115.212C229.126 116.392 229.124 116.394 229.705 117.555C230.268 118.681 230.268 118.682 230.848 119.787C231.411 120.857 231.429 120.834 231.991 121.906C232.573 123.016 232.513 123.099 233.134 124.15C233.656 125.032 233.655 125.071 234.278 125.772C234.798 126.358 234.859 126.222 235.421 126.725C236.003 127.246 236.008 127.238 236.564 127.82C237.151 128.436 237.1 128.565 237.707 129.122C238.243 129.612 238.255 129.653 238.851 129.913C239.398 130.152 239.438 129.938 239.994 130.152C240.581 130.378 240.603 130.363 241.137 130.794C241.746 131.285 241.665 131.535 242.28 131.998C242.809 132.396 242.847 132.283 243.423 132.516C243.991 132.745 243.988 132.875 244.567 132.922C245.131 132.967 245.142 132.922 245.71 132.967C246.286 133.013 246.278 133.267 246.853 133.267C247.421 133.267 247.431 133.267 247.996 133.209C248.574 133.15 248.562 132.842 249.14 132.842C249.705 132.842 249.714 132.847 250.283 132.936C250.857 133.025 250.852 133.114 251.426 133.198C251.995 133.28 251.997 133.28 252.569 133.28C253.141 133.28 253.142 133.28 253.712 133.273C254.285 133.266 254.286 133.219 254.856 133.115C255.429 133.011 255.424 132.873 255.999 132.858C256.568 132.842 256.571 132.845 257.142 132.842C257.714 132.839 257.726 132.839 258.285 132.839C258.869 132.839 258.854 133.12 259.429 133.367C259.997 133.611 260.024 133.497 260.572 133.822C261.168 134.175 261.158 134.234 261.715 134.722C262.301 135.236 262.28 135.291 262.858 135.826C263.423 136.348 263.457 136.27 264.002 136.836C264.6 137.459 264.599 137.475 265.145 138.204C265.742 139.003 265.679 139.119 266.288 139.893C266.822 140.573 266.833 140.573 267.431 141.113C267.976 141.605 268.001 141.541 268.574 141.958C269.144 142.372 269.17 142.302 269.718 142.775C270.313 143.288 270.281 143.373 270.861 143.931C271.424 144.474 271.439 144.438 272.004 144.978C272.582 145.531 272.575 145.55 273.147 146.117C273.718 146.682 273.736 146.643 274.291 147.241C274.879 147.876 274.869 147.899 275.434 148.584C276.012 149.286 275.999 149.313 276.577 150.015C277.142 150.701 277.173 150.644 277.72 151.36C278.316 152.139 278.311 152.153 278.863 153.005C279.454 153.917 279.416 153.975 280.007 154.887C280.559 155.74 280.55 155.763 281.15 156.536C281.693 157.236 281.727 157.174 282.293 157.833C282.87 158.505 282.837 158.579 283.436 159.197C283.98 159.759 283.985 159.77 284.58 160.193C285.129 160.583 285.135 160.629 285.723 160.824C286.279 161.008 286.298 161.008 286.866 161.008C287.442 161.008 287.437 160.828 288.009 160.66C288.58 160.492 288.576 160.371 289.152 160.336C289.719 160.303 289.731 160.303 290.296 160.303C290.874 160.303 290.865 160.512 291.439 160.683C292.008 160.853 292.006 160.937 292.582 160.983C293.15 161.029 293.154 161.029 293.725 161.029C294.297 161.029 294.304 161.029 294.869 160.984C295.448 160.938 295.435 160.741 296.012 160.578C296.579 160.418 296.581 160.376 297.155 160.337C297.724 160.299 297.73 160.337 298.298 160.299C298.873 160.261 298.873 160.186 299.441 160.025C300.016 159.861 300.019 159.875 300.585 159.65C301.163 159.421 301.172 159.447 301.728 159.117C302.315 158.769 302.276 158.594 302.871 158.294C303.419 158.017 303.451 158.182 304.014 157.964C304.595 157.739 304.589 157.701 305.158 157.41C305.732 157.116 305.725 157.083 306.301 156.794C306.869 156.508 306.87 156.515 307.444 156.258C308.014 156.004 308.017 156.02 308.587 155.771C309.16 155.522 309.158 155.51 309.731 155.263C310.301 155.017 310.306 155.044 310.874 154.784C311.449 154.52 311.44 154.469 312.017 154.215C312.583 153.965 312.593 154.02 313.16 153.775C313.736 153.527 313.745 153.557 314.303 153.229C314.889 152.886 314.872 152.819 315.447 152.432C316.015 152.049 316.021 152.071 316.59 151.688C317.165 151.301 317.156 151.27 317.733 150.891C318.299 150.519 318.303 150.534 318.876 150.187C319.447 149.842 319.452 149.864 320.02 149.507C320.596 149.144 320.581 149.087 321.163 148.747C321.725 148.418 321.726 148.41 322.306 148.169C322.869 147.935 322.88 147.997 323.449 147.798C324.023 147.596 324.018 147.563 324.592 147.366C325.161 147.171 325.169 147.222 325.736 147.014C326.312 146.803 326.307 146.772 326.879 146.529C327.451 146.286 327.448 146.271 328.022 146.042C328.591 145.814 328.591 145.811 329.165 145.615C329.734 145.42 329.737 145.438 330.309 145.26C330.88 145.083 330.887 145.124 331.452 144.904C332.03 144.679 332.021 144.626 332.595 144.37C333.165 144.115 333.157 143.992 333.738 143.883C334.3 143.778 334.312 143.863 334.881 143.778C335.455 143.692 335.454 143.669 336.025 143.542C336.597 143.415 336.594 143.375 337.168 143.269C337.737 143.163 337.739 143.186 338.311 143.117C338.882 143.049 338.883 142.996 339.454 142.996C340.026 142.996 340.027 143.038 340.598 143.123C341.171 143.209 341.172 143.202 341.741 143.339C342.315 143.477 342.313 143.502 342.884 143.673C343.456 143.843 343.456 143.847 344.027 144.021C344.599 144.195 344.597 144.21 345.171 144.369C345.74 144.527 345.74 144.541 346.314 144.655C346.883 144.769 346.886 144.736 347.457 144.824C348.029 144.913 348.027 144.937 348.6 145.01C349.171 145.081 349.172 145.068 349.743 145.112C350.315 145.156 350.315 145.141 350.887 145.185C351.458 145.228 351.458 145.286 352.03 145.286C352.601 145.286 352.601 145.256 353.173 145.223C353.745 145.189 353.744 145.153 354.316 145.153C354.888 145.153 354.888 145.159 355.459 145.176C356.031 145.193 356.037 145.221 356.603 145.221C357.181 145.221 357.169 144.984 357.746 144.846C358.313 144.71 358.318 144.768 358.889 144.672C359.461 144.576 359.459 144.532 360.032 144.462C360.602 144.392 360.604 144.391 361.176 144.391C361.747 144.391 362.319 144.481 362.319 144.481" stroke="#FDDD60" stroke-linejoin="bevel"/>
</g>
<mask id="mask2_141_554" style="mask-type:luminance" maskUnits="userSpaceOnUse" x="81" y="48" width="282" height="236">
<path d="M81 48H363V284H81V48Z" fill="white"/>
</mask>
<g mask="url(#mask2_141_554)">
<path d="M116.525 160.559C116.525 160.559 116.845 156.373 117.669 156.373C117.988 156.373 118.24 156.464 118.812 156.54C119.383 156.616 119.384 156.596 119.955 156.677C120.528 156.759 120.525 156.867 121.098 156.867C121.668 156.867 121.67 156.867 122.242 156.86C122.813 156.854 122.814 156.86 123.385 156.828C123.957 156.795 123.956 156.724 124.528 156.688C125.099 156.652 125.1 156.679 125.671 156.652C126.243 156.624 126.243 156.577 126.814 156.577C127.386 156.577 127.387 156.619 127.958 156.692C128.53 156.765 128.531 156.869 129.101 156.869C129.674 156.869 129.671 156.724 130.244 156.626C130.814 156.528 130.815 156.478 131.387 156.478C131.958 156.478 131.959 156.521 132.531 156.521C133.102 156.521 133.102 156.521 133.674 156.513C134.245 156.505 134.246 156.513 134.817 156.485C135.389 156.458 135.39 156.469 135.96 156.399C136.533 156.328 136.536 156.34 137.103 156.203C137.679 156.064 137.677 156.041 138.247 155.848C138.821 155.654 138.823 155.666 139.39 155.43C139.966 155.191 139.972 155.209 140.533 154.899C141.115 154.577 141.1 154.513 141.676 154.168C142.243 153.829 142.248 153.85 142.82 153.532C143.391 153.214 143.395 153.231 143.963 152.896C144.539 152.557 144.54 152.559 145.106 152.184C145.683 151.801 145.684 151.802 146.249 151.38C146.827 150.948 146.814 150.906 147.393 150.477C147.957 150.058 147.968 150.093 148.536 149.685C149.111 149.271 149.107 149.258 149.679 148.832C150.251 148.406 150.251 148.408 150.822 147.98C151.394 147.551 151.401 147.569 151.965 147.117C152.544 146.655 152.538 146.637 153.109 146.152C153.681 145.666 153.679 145.658 154.252 145.175C154.822 144.694 154.824 144.701 155.395 144.223C155.967 143.744 155.974 143.76 156.538 143.261C157.117 142.75 157.109 142.728 157.682 142.201C158.252 141.676 158.255 141.684 158.825 141.157C159.398 140.626 159.406 140.642 159.968 140.084C160.549 139.508 160.552 139.513 161.111 138.888C161.695 138.236 161.676 138.197 162.254 137.531C162.82 136.881 162.828 136.897 163.398 136.256C163.971 135.612 163.982 135.633 164.541 134.961C165.125 134.259 165.114 134.237 165.684 133.508C166.257 132.776 166.248 132.758 166.827 132.04C167.391 131.342 167.41 131.379 167.971 130.676C168.554 129.943 168.529 129.897 169.114 129.167C169.672 128.472 169.68 128.485 170.257 127.826C170.823 127.179 170.818 127.165 171.4 126.554C171.961 125.965 171.975 125.997 172.543 125.424C173.118 124.845 173.095 124.785 173.687 124.251C174.238 123.753 174.247 123.768 174.83 123.361C175.39 122.969 175.393 122.972 175.973 122.653C176.537 122.344 176.553 122.414 177.116 122.104C177.696 121.783 177.696 121.776 178.26 121.391C178.84 120.995 178.836 120.981 179.403 120.54C179.979 120.092 179.964 120.044 180.546 119.612C181.108 119.196 181.121 119.239 181.689 118.843C182.264 118.442 182.251 118.394 182.832 118.019C183.394 117.657 183.401 117.682 183.976 117.368C184.545 117.057 184.554 117.096 185.119 116.77C185.697 116.436 185.686 116.389 186.262 116.047C186.829 115.71 186.837 115.744 187.405 115.413C187.981 115.078 187.99 115.109 188.549 114.715C189.134 114.302 189.127 114.277 189.692 113.8C190.271 113.311 190.264 113.293 190.835 112.782C191.408 112.269 191.408 112.27 191.978 111.751C192.552 111.228 192.527 111.154 193.122 110.698C193.67 110.277 193.685 110.313 194.265 109.997C194.828 109.69 194.845 109.761 195.408 109.453C195.988 109.135 195.992 109.14 196.551 108.745C197.135 108.333 197.116 108.272 197.694 107.839C198.26 107.416 198.261 107.418 198.838 107.034C199.404 106.657 199.414 106.692 199.981 106.317C200.557 105.936 200.564 105.954 201.124 105.522C201.707 105.074 201.683 105 202.267 104.558C202.826 104.135 202.842 104.187 203.411 103.792C203.986 103.392 203.983 103.385 204.554 102.969C205.127 102.552 205.132 102.568 205.697 102.127C206.276 101.674 206.257 101.616 206.84 101.18C207.4 100.762 207.412 100.801 207.983 100.419C208.556 100.036 208.568 100.074 209.127 99.6496C209.711 99.2065 209.693 99.1504 210.27 98.6846C210.836 98.2281 210.815 98.1282 211.413 97.8052C211.958 97.5105 211.984 97.6179 212.556 97.4492C213.127 97.2813 213.13 97.305 213.7 97.1319C214.273 96.9577 214.267 96.8996 214.843 96.7544C215.41 96.6115 215.415 96.5558 215.986 96.5558C216.559 96.5558 216.56 96.6546 217.129 96.7981C217.703 96.9428 217.696 97.1238 218.272 97.1321C218.839 97.1402 218.854 97.1321 219.416 97.1402C219.997 97.1488 219.998 97.3281 220.559 97.6156C221.141 97.9143 221.157 97.884 221.702 98.3127C222.3 98.7829 222.278 98.8539 222.845 99.4133C223.421 99.9802 223.438 99.9457 223.989 100.565C224.581 101.231 224.594 101.219 225.132 101.985C225.737 102.846 225.685 102.93 226.275 103.819C226.828 104.652 226.798 104.728 227.418 105.429C227.941 106.018 227.981 105.94 228.562 106.399C229.124 106.844 229.157 106.753 229.705 107.237C230.3 107.763 230.297 107.785 230.848 108.418C231.44 109.098 231.418 109.143 231.991 109.861C232.561 110.575 232.553 110.591 233.134 111.281C233.696 111.948 233.71 111.919 234.278 112.574C234.854 113.239 234.858 113.231 235.421 113.921C236.001 114.632 235.99 114.654 236.564 115.377C237.133 116.093 237.125 116.109 237.707 116.798C238.268 117.461 238.286 117.425 238.851 118.081C239.429 118.753 239.463 118.698 239.994 119.453C240.607 120.326 240.561 120.401 241.137 121.336C241.704 122.257 241.677 122.303 242.28 123.165C242.82 123.935 242.869 123.852 243.423 124.6C244.012 125.394 243.98 125.45 244.567 126.248C245.123 127.007 245.111 127.038 245.71 127.714C246.255 128.329 246.278 128.281 246.853 128.831C247.421 129.375 247.442 129.328 247.996 129.903C248.585 130.514 248.555 130.582 249.14 131.203C249.698 131.798 249.677 131.88 250.283 132.335C250.82 132.738 250.84 132.75 251.426 132.921C251.984 133.084 252.006 132.931 252.569 133.084C253.149 133.241 253.134 133.369 253.712 133.54C254.277 133.707 254.282 133.759 254.856 133.759C255.425 133.759 255.433 133.759 255.999 133.704C256.576 133.649 256.568 133.503 257.142 133.341C257.711 133.179 257.71 133.084 258.285 133.056C258.853 133.029 258.863 133.056 259.429 133.029C260.007 133.001 259.994 132.654 260.572 132.654C261.137 132.654 261.154 132.654 261.715 132.713C262.297 132.774 262.316 132.846 262.858 133.196C263.459 133.584 263.449 133.647 264.002 134.19C264.592 134.77 264.565 134.834 265.145 135.443C265.708 136.035 265.703 136.05 266.288 136.591C266.847 137.107 266.858 137.078 267.431 137.557C268.001 138.034 268.008 138.015 268.574 138.504C269.152 139.003 269.152 139.002 269.718 139.531C270.295 140.072 270.291 140.084 270.861 140.643C271.434 141.205 271.45 141.17 272.004 141.774C272.594 142.417 272.561 142.487 273.147 143.138C273.704 143.756 273.683 143.834 274.291 144.314C274.826 144.737 274.861 144.634 275.434 144.944C276.004 145.253 276.014 145.213 276.577 145.552C277.158 145.902 277.149 145.936 277.72 146.321C278.292 146.707 278.297 146.689 278.863 147.093C279.441 147.506 279.421 147.576 280.007 147.954C280.564 148.313 280.594 148.206 281.15 148.569C281.737 148.951 281.715 149.026 282.293 149.445C282.859 149.854 282.858 149.86 283.436 150.224C284.001 150.58 284.012 150.539 284.58 150.884C285.155 151.234 285.173 151.183 285.723 151.614C286.316 152.079 286.292 152.151 286.866 152.675C287.435 153.195 287.438 153.186 288.009 153.701C288.582 154.218 288.587 154.205 289.152 154.738C289.73 155.282 289.731 155.279 290.296 155.854C290.874 156.443 290.869 156.456 291.439 157.065C292.012 157.677 291.98 157.762 292.582 158.294C293.123 158.772 293.154 158.688 293.725 159.084C294.297 159.482 294.281 159.551 294.869 159.883C295.424 160.196 295.433 160.179 296.012 160.375C296.576 160.565 296.58 160.655 297.155 160.655C297.723 160.655 297.737 160.655 298.298 160.586C298.88 160.515 298.875 160.37 299.441 160.099C300.019 159.823 300.004 159.747 300.585 159.493C301.147 159.246 301.152 159.26 301.728 159.097C302.295 158.936 302.298 158.945 302.871 158.844C303.441 158.744 303.445 158.798 304.014 158.695C304.588 158.591 304.588 158.579 305.158 158.431C305.731 158.282 305.734 158.296 306.301 158.101C306.877 157.903 306.869 157.846 307.444 157.645C308.012 157.446 308.012 157.43 308.587 157.3C309.155 157.172 309.16 157.232 309.731 157.127C310.304 157.022 310.302 157.001 310.874 156.88C311.445 156.759 311.446 156.77 312.017 156.642C312.589 156.513 312.593 156.536 313.16 156.367C313.736 156.195 313.732 156.162 314.303 155.96C314.875 155.758 314.882 155.799 315.447 155.558C316.025 155.312 316.022 155.289 316.59 154.988C317.165 154.683 317.161 154.666 317.733 154.345C318.305 154.024 318.302 154.014 318.876 153.704C319.446 153.397 319.453 153.43 320.02 153.11C320.597 152.784 320.588 152.748 321.163 152.412C321.731 152.079 321.734 152.091 322.306 151.772C322.877 151.452 322.879 151.458 323.449 151.133C324.022 150.808 324.025 150.82 324.592 150.472C325.169 150.119 325.16 150.088 325.736 149.732C326.304 149.381 326.304 149.383 326.879 149.058C327.448 148.736 327.449 148.741 328.022 148.439C328.592 148.139 328.587 148.109 329.165 147.855C329.73 147.606 329.737 147.644 330.309 147.433C330.88 147.222 330.883 147.241 331.452 147.011C332.027 146.779 332.019 146.733 332.595 146.508C333.162 146.286 333.16 146.179 333.738 146.119C334.303 146.06 334.31 146.094 334.881 146.06C335.453 146.027 335.453 146.013 336.025 145.984C336.596 145.954 336.6 145.984 337.168 145.943C337.743 145.902 337.74 145.802 338.311 145.661C338.883 145.519 338.88 145.486 339.454 145.378C340.023 145.272 340.026 145.303 340.598 145.231C341.169 145.16 341.168 145.138 341.741 145.091C342.312 145.044 342.313 145.088 342.884 145.044C343.456 145.001 343.455 144.971 344.027 144.917C344.598 144.863 344.599 144.868 345.17 144.828C345.742 144.789 345.745 144.828 346.314 144.76C346.888 144.692 346.885 144.632 347.457 144.505C348.028 144.378 348.026 144.326 348.6 144.252C349.169 144.178 349.172 144.215 349.743 144.178C350.315 144.141 350.315 144.103 350.887 144.103C351.458 144.103 351.458 144.113 352.03 144.118C352.601 144.123 352.601 144.123 353.173 144.123C353.745 144.123 353.745 144.109 354.316 144.109C354.888 144.109 354.888 144.116 355.459 144.127C356.031 144.139 356.031 144.154 356.603 144.154C357.175 144.154 357.175 144.092 357.746 144.092C358.318 144.092 358.317 144.151 358.889 144.188C359.461 144.225 359.461 144.242 360.032 144.242C360.604 144.242 360.604 144.236 361.176 144.236C361.748 144.236 362.319 144.338 362.319 144.338" stroke="#FF6E76" stroke-linejoin="bevel"/>
</g>
<path d="M202.609 9.62854H217.523H202.609Z" fill="black"/>
<path d="M202.609 9.62854H217.523" stroke="#4992FF" stroke-width="2" stroke-miterlimit="10"/>
<path d="M213.407 9.62853C213.407 10.4489 213.055 11.2357 212.428 11.8158C211.802 12.3959 210.952 12.7217 210.066 12.7217C209.18 12.7217 208.33 12.3958 207.704 11.8157C207.077 11.2355 206.725 10.4488 206.725 9.62837C206.725 8.80798 207.077 8.02119 207.704 7.44108C208.33 6.86097 209.18 6.53506 210.066 6.53503C210.952 6.53501 211.802 6.86088 212.428 7.44096C213.055 8.02104 213.407 8.80814 213.407 9.62853Z" fill="#4992FF"/>
<path d="M221.563 6.27273H222.824L225.79 13.517H225.893L228.859 6.27273H230.12V15H229.131V8.36932H229.046L226.319 15H225.364L222.637 8.36932H222.552V15H221.563V6.27273ZM221.921 30H220.813L224.018 21.2727H225.109L228.313 30H227.205L224.597 22.6534H224.529L221.921 30ZM222.33 26.5909H226.796V27.5284H222.33V26.5909ZM232.246 30.1193C231.746 30.1193 231.296 30.0199 230.895 29.821C230.495 29.6222 230.174 29.3494 229.932 29.0028C229.691 28.6562 229.559 28.2614 229.536 27.8182H230.559C230.599 28.2131 230.778 28.5398 231.096 28.7983C231.417 29.054 231.8 29.1818 232.246 29.1818C232.604 29.1818 232.922 29.098 233.201 28.9304C233.482 28.7628 233.702 28.5327 233.861 28.2401C234.023 27.9446 234.104 27.6108 234.104 27.2386C234.104 26.858 234.02 26.5185 233.853 26.2202C233.688 25.919 233.461 25.6818 233.171 25.5085C232.881 25.3352 232.55 25.2472 232.178 25.2443C231.911 25.2415 231.637 25.2827 231.356 25.3679C231.074 25.4503 230.843 25.5568 230.661 25.6875L229.672 25.5682L230.201 21.2727H234.735V22.2102H231.087L230.78 24.7841H230.832C231.011 24.642 231.235 24.5241 231.505 24.4304C231.775 24.3366 232.056 24.2898 232.349 24.2898C232.883 24.2898 233.359 24.4176 233.776 24.6733C234.197 24.9261 234.526 25.2727 234.765 25.7131C235.006 26.1534 235.127 26.6562 235.127 27.2216C235.127 27.7784 235.002 28.2756 234.752 28.7131C234.505 29.1477 234.164 29.4915 233.729 29.7443C233.295 29.9943 232.8 30.1193 232.246 30.1193Z" fill="#B9B8CE"/>
<path d="M243.298 9.62854H258.213H243.298Z" fill="black"/>
<path d="M243.298 9.62854H258.213" stroke="#7CFFB2" stroke-width="2" stroke-miterlimit="10"/>
<path d="M254.096 9.62853C254.096 10.4489 253.744 11.2357 253.118 11.8158C252.491 12.3959 251.641 12.7217 250.755 12.7217C249.869 12.7217 249.02 12.3958 248.393 11.8157C247.767 11.2355 247.415 10.4488 247.415 9.62837C247.415 8.80798 247.767 8.02119 248.393 7.44108C249.02 6.86097 249.869 6.53506 250.755 6.53503C251.641 6.53501 252.491 6.86088 253.118 7.44096C253.744 8.02104 254.096 8.80814 254.096 9.62853Z" fill="#7CFFB2"/>
<path d="M262.252 6.27273H263.514L266.48 13.517H266.582L269.548 6.27273H270.809V15H269.821V8.36932H269.735L267.008 15H266.054L263.326 8.36932H263.241V15H262.252V6.27273ZM273.286 15H272.178L275.383 6.27273H276.474L279.678 15H278.57L275.962 7.65341H275.894L273.286 15ZM273.695 11.5909H278.161V12.5284H273.695V11.5909ZM265.167 21.2727V30H264.11V22.3807H264.059L261.929 23.7955V22.7216L264.11 21.2727H265.167ZM270.524 30.1193C269.882 30.1193 269.335 29.9446 268.883 29.5952C268.431 29.2429 268.086 28.733 267.848 28.0653C267.609 27.3949 267.49 26.5852 267.49 25.6364C267.49 24.6932 267.609 23.8878 267.848 23.2202C268.089 22.5497 268.436 22.0384 268.887 21.6861C269.342 21.331 269.887 21.1534 270.524 21.1534C271.16 21.1534 271.704 21.331 272.156 21.6861C272.61 22.0384 272.957 22.5497 273.196 23.2202C273.437 23.8878 273.558 24.6932 273.558 25.6364C273.558 26.5852 273.438 27.3949 273.2 28.0653C272.961 28.733 272.616 29.2429 272.164 29.5952C271.713 29.9446 271.166 30.1193 270.524 30.1193ZM270.524 29.1818C271.16 29.1818 271.654 28.875 272.007 28.2614C272.359 27.6477 272.535 26.7727 272.535 25.6364C272.535 24.8807 272.454 24.2372 272.292 23.706C272.133 23.1747 271.903 22.7699 271.602 22.4915C271.304 22.2131 270.944 22.0739 270.524 22.0739C269.893 22.0739 269.4 22.3849 269.045 23.0071C268.69 23.6264 268.512 24.5028 268.512 25.6364C268.512 26.392 268.592 27.0341 268.751 27.5625C268.91 28.0909 269.139 28.4929 269.437 28.7685C269.738 29.044 270.1 29.1818 270.524 29.1818Z" fill="#B9B8CE"/>
<path d="M288.186 9.62854H303.1H288.186Z" fill="black"/>
<path d="M288.186 9.62854H303.1" stroke="#FDDD60" stroke-width="2" stroke-miterlimit="10"/>
<path d="M298.984 9.62853C298.984 10.4489 298.632 11.2357 298.005 11.8158C297.379 12.3959 296.529 12.7217 295.643 12.7217C294.757 12.7217 293.907 12.3958 293.281 11.8157C292.654 11.2355 292.302 10.4488 292.302 9.62837C292.302 8.80798 292.654 8.02119 293.281 7.44108C293.907 6.86097 294.757 6.53506 295.643 6.53503C296.529 6.53501 297.379 6.86088 298.005 7.44096C298.632 8.02104 298.984 8.80814 298.984 9.62853Z" fill="#FDDD60"/>
<path d="M307.14 6.27273H308.401L311.367 13.517H311.469L314.435 6.27273H315.697V15H314.708V8.36932H314.623L311.896 15H310.941L308.214 8.36932H308.128V15H307.14V6.27273ZM318.174 15H317.066L320.27 6.27273H321.361L324.566 15H323.458L320.85 7.65341H320.782L318.174 15ZM318.583 11.5909H323.049V12.5284H318.583V11.5909ZM306.986 30V29.233L309.867 26.0795C310.205 25.7102 310.484 25.3892 310.702 25.1165C310.921 24.8409 311.083 24.5824 311.188 24.3409C311.296 24.0966 311.35 23.8409 311.35 23.5739C311.35 23.267 311.276 23.0014 311.128 22.777C310.984 22.5526 310.785 22.3793 310.532 22.2571C310.279 22.1349 309.995 22.0739 309.68 22.0739C309.344 22.0739 309.052 22.1435 308.802 22.2827C308.555 22.419 308.363 22.6108 308.226 22.858C308.093 23.1051 308.026 23.3949 308.026 23.7273H307.021C307.021 23.2159 307.138 22.767 307.374 22.3807C307.61 21.9943 307.931 21.6932 308.337 21.4773C308.746 21.2614 309.205 21.1534 309.714 21.1534C310.225 21.1534 310.678 21.2614 311.073 21.4773C311.468 21.6932 311.778 21.9844 312.002 22.3509C312.226 22.7173 312.339 23.125 312.339 23.5739C312.339 23.8949 312.28 24.2088 312.164 24.5156C312.05 24.8196 311.851 25.1591 311.567 25.5341C311.286 25.9062 310.896 26.3608 310.396 26.8977L308.435 28.9943V29.0625H312.492V30H306.986ZM317.099 30.1193C316.457 30.1193 315.91 29.9446 315.458 29.5952C315.006 29.2429 314.661 28.733 314.422 28.0653C314.184 27.3949 314.065 26.5852 314.065 25.6364C314.065 24.6932 314.184 23.8878 314.422 23.2202C314.664 22.5497 315.011 22.0384 315.462 21.6861C315.917 21.331 316.462 21.1534 317.099 21.1534C317.735 21.1534 318.279 21.331 318.731 21.6861C319.185 22.0384 319.532 22.5497 319.771 23.2202C320.012 23.8878 320.133 24.6932 320.133 25.6364C320.133 26.5852 320.013 27.3949 319.775 28.0653C319.536 28.733 319.191 29.2429 318.739 29.5952C318.288 29.9446 317.741 30.1193 317.099 30.1193ZM317.099 29.1818C317.735 29.1818 318.229 28.875 318.582 28.2614C318.934 27.6477 319.11 26.7727 319.11 25.6364C319.11 24.8807 319.029 24.2372 318.867 23.706C318.708 23.1747 318.478 22.7699 318.177 22.4915C317.878 22.2131 317.519 22.0739 317.099 22.0739C316.468 22.0739 315.975 22.3849 315.62 23.0071C315.265 23.6264 315.087 24.5028 315.087 25.6364C315.087 26.392 315.167 27.0341 315.326 27.5625C315.485 28.0909 315.714 28.4929 316.012 28.7685C316.313 29.044 316.675 29.1818 317.099 29.1818Z" fill="#B9B8CE"/>
<path d="M333.073 9.62854H347.988H333.073Z" fill="black"/>
<path d="M333.073 9.62854H347.988" stroke="#FF6E76" stroke-width="2" stroke-miterlimit="10"/>
</g>
<defs>
<clipPath id="clip0_141_554">
<rect width="383" height="232" fill="white"/>
</clipPath>
</defs>
</svg>
