<svg width="376" height="44" viewBox="0 0 376 44" fill="none" xmlns="http://www.w3.org/2000/svg">
<path opacity="0.35" fill-rule="evenodd" clip-rule="evenodd" d="M339.752 17.8333C338.744 17.8333 338.345 17.9103 337.934 18.1304C337.586 18.3162 337.316 18.5859 337.131 18.9333C336.91 19.3449 336.833 19.7436 336.833 20.7518V25.2482C336.833 26.2564 336.91 26.6551 337.131 27.0667C337.316 27.4141 337.586 27.6838 337.934 27.8696C338.345 28.0897 338.744 28.1667 339.752 28.1667H354.915C355.923 28.1667 356.322 28.0897 356.733 27.8696C357.081 27.6838 357.351 27.4141 357.536 27.0667C357.757 26.6551 357.833 26.2564 357.833 25.2482V20.7518C357.833 19.7436 357.757 19.3449 357.536 18.9333C357.351 18.5859 357.081 18.3162 356.733 18.1304C356.322 17.9103 355.923 17.8333 354.915 17.8333H339.752Z" stroke="white"/>
<path opacity="0.4" d="M359.333 21V25C360.138 24.6612 360.662 23.8731 360.662 23C360.662 22.1269 360.138 21.3388 359.333 21Z" fill="white"/>
<path d="M340.043 19.3333H354.624C355.219 19.3333 355.434 19.3952 355.651 19.5114C355.869 19.6276 356.039 19.7982 356.155 20.0154C356.272 20.2327 356.333 20.4482 356.333 21.0426V24.9574C356.333 25.5518 356.272 25.7673 356.155 25.9846C356.039 26.2019 355.869 26.3724 355.651 26.4886C355.434 26.6048 355.219 26.6667 354.624 26.6667H340.043C339.448 26.6667 339.233 26.6048 339.016 26.4886C338.798 26.3724 338.628 26.2019 338.512 25.9846C338.395 25.7673 338.333 25.5518 338.333 24.9574V21.0426C338.333 20.4482 338.395 20.2327 338.512 20.0154C338.628 19.7982 338.798 19.6276 339.016 19.5114C339.233 19.3952 339.448 19.3333 340.043 19.3333Z" fill="white"/>
<path d="M323.667 19.6151C325.892 19.6152 328.031 20.4694 329.644 22.0009C329.765 22.1192 329.959 22.1177 330.079 21.9976L331.24 20.8273C331.3 20.7664 331.334 20.6839 331.333 20.598C331.333 20.5122 331.298 20.43 331.237 20.3698C327.005 16.3176 320.329 16.3176 316.097 20.3698C316.035 20.43 316.001 20.5121 316 20.5979C315.999 20.6838 316.033 20.7663 316.094 20.8273L317.255 21.9976C317.374 22.1179 317.568 22.1194 317.69 22.0009C319.302 20.4693 321.442 19.6151 323.667 19.6151ZM323.667 23.4227C324.889 23.4227 326.068 23.8766 326.974 24.6964C327.097 24.8127 327.29 24.8102 327.409 24.6907L328.569 23.5204C328.63 23.459 328.663 23.3757 328.663 23.2892C328.662 23.2026 328.626 23.1201 328.564 23.0599C325.805 20.4955 321.532 20.4955 318.773 23.0599C318.71 23.1201 318.675 23.2027 318.674 23.2892C318.673 23.3758 318.707 23.4591 318.768 23.5204L319.927 24.6907C320.047 24.8102 320.24 24.8127 320.362 24.6964C321.268 23.8772 322.446 23.4232 323.667 23.4227ZM325.895 26.2158C325.957 26.155 325.991 26.0713 325.989 25.9846C325.988 25.8978 325.95 25.8156 325.886 25.7574C324.605 24.6751 322.729 24.6751 321.449 25.7574C321.384 25.8155 321.347 25.8977 321.345 25.9845C321.343 26.0713 321.377 26.155 321.439 26.2158L323.445 28.2378C323.503 28.2972 323.583 28.3307 323.667 28.3307C323.751 28.3307 323.831 28.2972 323.89 28.2378L325.895 26.2158Z" fill="white"/>
<path d="M295 24.3333H296C296.552 24.3333 297 24.7811 297 25.3333V27.3333C297 27.8856 296.552 28.3333 296 28.3333H295C294.448 28.3333 294 27.8856 294 27.3333V25.3333C294 24.7811 294.448 24.3333 295 24.3333ZM299.667 22.3333H300.667C301.219 22.3333 301.667 22.7811 301.667 23.3333V27.3333C301.667 27.8856 301.219 28.3333 300.667 28.3333H299.667C299.114 28.3333 298.667 27.8856 298.667 27.3333V23.3333C298.667 22.7811 299.114 22.3333 299.667 22.3333ZM304.333 20H305.333C305.886 20 306.333 20.4477 306.333 21V27.3333C306.333 27.8856 305.886 28.3333 305.333 28.3333H304.333C303.781 28.3333 303.333 27.8856 303.333 27.3333V21C303.333 20.4477 303.781 20 304.333 20ZM309 17.6667H310C310.552 17.6667 311 18.1144 311 18.6667V27.3333C311 27.8856 310.552 28.3333 310 28.3333H309C308.448 28.3333 308 27.8856 308 27.3333V18.6667C308 18.1144 308.448 17.6667 309 17.6667Z" fill="white"/>
<path d="M37.0891 15.9418C37.5365 15.9453 37.984 16.0305 38.4314 16.1974C38.8789 16.3643 39.2872 16.6413 39.6566 17.0284C40.0259 17.4119 40.3224 17.9357 40.5461 18.5998C40.7698 19.2638 40.8817 20.0966 40.8817 21.098C40.8817 22.0675 40.7894 22.9286 40.6047 23.6815C40.4236 24.4308 40.1608 25.0629 39.8164 25.5778C39.4755 26.0927 39.06 26.4833 38.5699 26.7496C38.0834 27.016 37.533 27.1491 36.9186 27.1491C36.3078 27.1491 35.7627 27.0284 35.2833 26.7869C34.8075 26.5419 34.4169 26.2028 34.1115 25.7695C33.8096 25.3327 33.6161 24.8267 33.5309 24.2514H34.8306C34.9478 24.7521 35.1804 25.1658 35.5284 25.4925C35.8799 25.8157 36.3434 25.9773 36.9186 25.9773C37.7603 25.9773 38.4243 25.6097 38.9108 24.8746C39.4009 24.1396 39.6459 23.1009 39.6459 21.7585H39.5607C39.3618 22.0568 39.1257 22.3143 38.8522 22.5309C38.5788 22.7475 38.2752 22.9144 37.9414 23.0316C37.6076 23.1488 37.2524 23.2074 36.876 23.2074C36.251 23.2074 35.6775 23.0529 35.1555 22.744C34.637 22.4315 34.2215 22.0036 33.909 21.4602C33.6001 20.9134 33.4456 20.2884 33.4456 19.5852C33.4456 18.9176 33.5948 18.3068 33.8931 17.7528C34.1949 17.1953 34.6175 16.7514 35.1608 16.4212C35.7077 16.0909 36.3505 15.9311 37.0891 15.9418ZM37.0891 17.1136C36.6416 17.1136 36.2386 17.2255 35.8799 17.4492C35.5248 17.6694 35.2425 17.9677 35.033 18.3441C34.827 18.717 34.724 19.1307 34.724 19.5852C34.724 20.0398 34.8235 20.4535 35.0223 20.8263C35.2247 21.1957 35.5 21.4904 35.848 21.7106C36.1995 21.9272 36.599 22.0355 37.0465 22.0355C37.3838 22.0355 37.6981 21.9698 37.9893 21.8384C38.2805 21.7035 38.5344 21.5206 38.751 21.2898C38.9712 21.0554 39.1434 20.7908 39.2677 20.4961C39.392 20.1978 39.4541 19.8871 39.4541 19.5639C39.4541 19.1378 39.3512 18.7383 39.1452 18.3654C38.9428 17.9925 38.6622 17.6907 38.3036 17.4599C37.9485 17.229 37.5436 17.1136 37.0891 17.1136ZM43.9139 25.6044C43.6511 25.6044 43.4256 25.5103 43.2374 25.3221C43.0492 25.1339 42.9551 24.9084 42.9551 24.6456C42.9551 24.3828 43.0492 24.1573 43.2374 23.9691C43.4256 23.7809 43.6511 23.6868 43.9139 23.6868C44.1767 23.6868 44.4022 23.7809 44.5904 23.9691C44.7786 24.1573 44.8727 24.3828 44.8727 24.6456C44.8727 24.8196 44.8283 24.9794 44.7396 25.125C44.6543 25.2706 44.5389 25.3878 44.3933 25.4766C44.2513 25.5618 44.0915 25.6044 43.9139 25.6044ZM43.9139 20.0859C43.6511 20.0859 43.4256 19.9918 43.2374 19.8036C43.0492 19.6154 42.9551 19.3899 42.9551 19.1271C42.9551 18.8643 43.0492 18.6388 43.2374 18.4506C43.4256 18.2624 43.6511 18.1683 43.9139 18.1683C44.1767 18.1683 44.4022 18.2624 44.5904 18.4506C44.7786 18.6388 44.8727 18.8643 44.8727 19.1271C44.8727 19.3011 44.8283 19.4609 44.7396 19.6065C44.6543 19.7521 44.5389 19.8693 44.3933 19.9581C44.2513 20.0433 44.0915 20.0859 43.9139 20.0859ZM46.8516 24.7628V23.6761L51.6456 16.0909H52.434V17.7741H51.9013L48.2792 23.5057V23.5909H54.7351V24.7628H46.8516ZM51.9866 27V24.4325V23.9265V16.0909H53.2437V27H51.9866ZM60.4201 16.0909V27H59.099V17.4759H59.0351L56.3718 19.2443V17.902L59.099 16.0909H60.4201Z" fill="white"/>
</svg>
