<svg width="308" height="352" viewBox="0 0 308 352" fill="none" xmlns="http://www.w3.org/2000/svg">
<g clip-path="url(#clip0_119_525)">
<path d="M147.807 330.219L147.414 321.388C147.374 321.366 147.333 321.345 147.292 321.323C143.086 319.115 138.265 323.112 139.609 327.671C140.873 331.96 141.722 336.584 144.036 340.339C145.403 342.519 147.243 344.364 149.419 345.737C151.596 347.109 154.053 347.974 156.609 348.267L161.953 351.541C162.686 347.45 162.524 343.25 161.479 339.228C160.433 335.206 158.529 331.459 155.897 328.245C154.402 326.456 152.689 324.863 150.796 323.503C149.517 326.88 147.807 330.219 147.807 330.219Z" fill="#F2F2F2"/>
<path d="M99.9632 240.597C89.6751 229.981 74.7661 223.892 59.0591 223.892L58.4533 223.894C48.1075 223.898 37.9463 221.152 29.009 215.938L28.079 215.395L28.828 214.623C32.8833 210.425 36.2694 205.628 38.8678 200.401C37.0223 202.122 34.8213 203.417 32.4204 204.193C30.0195 204.969 27.4775 205.207 24.9743 204.891C22.3315 204.576 19.7944 203.666 17.5532 202.23C15.312 200.794 13.4249 198.868 12.0336 196.598C6.54387 187.685 0 175.039 0 165.405C0.00854564 157.262 1.71255 149.21 5.00342 141.763C8.29428 134.315 13.0998 127.635 19.1137 122.149C22.921 118.714 25.962 114.514 28.0386 109.824C30.1151 105.135 31.1806 100.059 31.1654 94.9299L31.1623 94.1999C31.1613 87.4466 31.9861 80.7186 33.6183 74.1657L33.784 73.504L34.4645 73.5278C38.8522 73.6772 43.2423 73.3092 47.5441 72.4314C43.509 71.9362 39.5616 70.8857 35.8139 69.3096L35.0819 69.0133L35.3303 68.2628C52.4545 57.6539 91.1087 63.1478 113.545 11.7852C131.737 -29.8629 195.927 48.7562 195.927 94.1999C195.927 98.8369 191.341 104.965 194.774 108.029C231.888 141.16 206.28 162.435 198.206 183.842C196.29 188.922 200.444 194.498 200.444 199.993C200.444 200.925 200.42 201.887 200.373 202.853L200.302 204.338L199.064 203.514C196.616 201.909 194.347 200.047 192.295 197.959C194.424 202.86 195.427 208.176 195.231 213.516C195.035 218.856 193.645 224.084 191.162 228.815C187.273 236.161 183.51 241.419 179.978 244.444C168.665 254.131 154.081 259.128 139.208 258.413C124.335 257.698 110.296 251.325 99.9632 240.597Z" fill="#E6E6E6"/>
<path d="M162.101 351.105C162.353 351.105 162.598 351.013 162.789 350.847C162.98 350.681 163.104 350.452 163.14 350.201C163.185 349.887 167.559 318.319 163.63 276.363C160.002 237.615 148.35 181.805 113.445 135.969C113.361 135.859 113.257 135.767 113.138 135.697C113.018 135.628 112.886 135.582 112.749 135.564C112.613 135.545 112.473 135.554 112.34 135.589C112.206 135.624 112.081 135.685 111.971 135.769C111.861 135.853 111.769 135.958 111.699 136.077C111.63 136.197 111.585 136.329 111.566 136.466C111.548 136.603 111.557 136.742 111.592 136.876C111.627 137.009 111.689 137.135 111.773 137.244C146.376 182.684 157.934 238.085 161.537 276.559C165.443 318.271 161.103 349.593 161.059 349.905C161.037 350.054 161.049 350.206 161.091 350.351C161.134 350.495 161.207 350.629 161.306 350.743C161.405 350.856 161.527 350.948 161.664 351.01C161.801 351.073 161.95 351.105 162.101 351.105Z" fill="#3F3D56"/>
<path d="M133.616 200.623C133.838 200.623 134.055 200.553 134.234 200.422C134.414 200.292 134.548 200.108 134.617 199.897C134.685 199.685 134.685 199.458 134.617 199.246C134.548 199.035 134.415 198.851 134.235 198.72C134.108 198.628 121.339 189.422 102.249 182.428C84.6021 175.964 57.7671 170.103 30.1408 178.901C30.0091 178.942 29.8869 179.01 29.7812 179.099C29.6754 179.188 29.5883 179.297 29.5247 179.419C29.4611 179.542 29.4224 179.676 29.4107 179.814C29.3989 179.952 29.4144 180.091 29.4564 180.222C29.4983 180.354 29.5657 180.476 29.6549 180.582C29.744 180.688 29.8531 180.775 29.9759 180.838C30.0987 180.901 30.2328 180.94 30.3705 180.951C30.5082 180.963 30.6468 180.947 30.7784 180.905C57.8386 172.288 84.1872 178.052 101.526 184.404C120.344 191.298 132.875 200.332 132.999 200.422C133.178 200.553 133.394 200.623 133.616 200.623Z" fill="#3F3D56"/>
<path d="M181.729 80.721C181.745 80.4994 181.691 80.2784 181.574 80.0896C181.457 79.9008 181.283 79.754 181.077 79.6702C180.871 79.5864 180.644 79.57 180.429 79.6232C180.213 79.6763 180.02 79.7965 179.877 79.9663C179.776 80.0861 169.68 92.1668 161.333 110.715C153.618 127.861 145.844 154.22 152.624 182.424C152.689 182.695 152.86 182.93 153.097 183.075C153.335 183.221 153.621 183.266 153.892 183.201C154.163 183.136 154.397 182.965 154.543 182.727C154.688 182.489 154.733 182.203 154.668 181.932C148.027 154.306 155.67 128.425 163.25 111.578C171.478 93.2952 181.385 81.4401 181.484 81.3224C181.627 81.1529 181.713 80.9423 181.729 80.721Z" fill="#3F3D56"/>
<path d="M180.306 134.958C181.193 142.118 186.152 148.022 193.362 148.022C196.825 148.022 200.146 146.645 202.594 144.195C205.043 141.745 206.418 138.423 206.418 134.958C206.418 127.743 200.542 122.561 193.362 121.894C185.744 121.186 179.168 125.765 180.306 134.958Z" fill="#2F2E41"/>
<path d="M199.409 345.351L204.381 345.35L206.746 326.162L199.408 326.162L199.409 345.351Z" fill="#FFB6B6"/>
<path d="M199.235 350.54L214.524 350.54V350.346C214.524 348.767 213.897 347.253 212.781 346.136C211.665 345.019 210.151 344.392 208.573 344.392L205.78 342.272L200.569 344.392L199.234 344.392L199.235 350.54Z" fill="#2F2E41"/>
<path d="M179.825 345.351L184.797 345.35L187.162 326.162L179.824 326.162L179.825 345.351Z" fill="#FFB6B6"/>
<path d="M179.651 350.54L194.94 350.54V350.346C194.94 348.767 194.313 347.253 193.197 346.136C192.081 345.019 190.567 344.392 188.989 344.392L186.196 342.272L180.985 344.392L179.65 344.392L179.651 350.54Z" fill="#2F2E41"/>
<path d="M216.519 225.168L220.034 237.227L215.893 288.299C215.893 288.299 218.025 291.492 216.519 291.492C215.013 291.492 213.081 292.2 214.298 294.107C215.515 296.014 211.355 302.861 211.355 302.861L205.471 339.225L197.975 339.115C197.975 339.115 194.163 336.99 196.302 334.842C198.441 332.693 199.948 332.693 197.939 330.684C195.93 328.674 195.93 329.279 195.93 327.72C195.93 326.162 193.918 307.112 198.69 299.804L197.252 270.011L193.866 299.235L186.892 338.22L179.67 338.161C179.67 338.161 176.334 334.944 176.34 332.563C176.346 330.181 178.401 329.983 176.872 328.575C175.342 327.166 175.342 305.529 179.861 293.502C179.861 293.502 182.418 286.782 179.856 284.48C177.293 282.177 179.852 279.542 179.852 279.542C179.852 279.542 183.911 278.074 179.849 273.845C175.787 269.616 179.827 239.704 179.827 239.704C179.827 239.704 175.386 227.629 179.884 222.882C184.381 218.134 216.519 225.168 216.519 225.168Z" fill="#2F2E41"/>
<path d="M153.913 245.945L160.184 230.779L165.125 233.526L162.141 248.953C162.44 249.93 162.461 250.972 162.201 251.96C161.94 252.948 161.41 253.845 160.668 254.548C159.927 255.251 159.004 255.733 158.004 255.94C157.004 256.148 155.966 256.072 155.006 255.721C154.047 255.37 153.204 254.759 152.573 253.955C151.942 253.151 151.548 252.187 151.434 251.172C151.32 250.156 151.492 249.129 151.93 248.205C152.368 247.282 153.054 246.499 153.913 245.945Z" fill="#FFB6B6"/>
<path d="M259.152 126.023L249.609 139.372L245.419 135.577L251.819 121.228C251.749 120.208 251.965 119.189 252.442 118.285C252.919 117.382 253.639 116.629 254.52 116.112C255.401 115.596 256.409 115.335 257.43 115.36C258.452 115.385 259.446 115.694 260.301 116.253C261.156 116.813 261.838 117.599 262.271 118.525C262.703 119.451 262.869 120.479 262.75 121.494C262.631 122.509 262.231 123.471 261.595 124.271C260.959 125.071 260.113 125.678 259.152 126.023Z" fill="#FFB6B6"/>
<path d="M217.466 226.405C223.655 236.011 192.543 248.201 180.605 243.307C178.515 242.45 171.324 239.62 176.239 235.695C181.154 231.771 175.67 231.219 175.54 228.664C175.453 226.956 176.775 223.209 175.396 223.37C174.017 223.531 172.403 221.169 175.406 220.152C178.409 219.136 175.438 218.209 175.465 217.244C175.752 206.715 183.826 189.967 183.826 189.967L169.278 227.178C169.278 227.178 169.385 233.615 167.53 231.648C165.675 229.681 165.81 236.048 165.81 236.048C165.81 236.048 163.051 237.974 164.637 239.046C166.224 240.118 162.929 243.414 162.929 243.414L155.243 242.865C155.243 242.865 155.363 237.152 156.676 235.888C157.988 234.625 157.344 232.637 157.344 232.637C157.344 232.637 160.76 229.61 158.47 227.153C155.523 223.992 166.265 170.612 169.972 171.14C170.496 168.588 171.716 166.231 173.495 164.328C175.275 162.426 177.545 161.053 180.056 160.362L188.358 158.075L189.832 152.222H201.521L203.557 156.068L212.444 160.081C214.118 157.717 215.369 155.227 222.224 154.42C222.224 154.42 240.695 137.604 239.793 136.291C238.891 134.978 241.754 131.904 241.754 131.904C241.754 131.904 244.2 131.103 242.82 130.676C241.44 130.248 244.048 129.26 244.048 129.26C244.048 129.26 246.464 128.625 245.324 127.788C244.185 126.952 249.126 126.403 249.126 126.403L255.538 131.637L254.242 133.835C254.242 133.835 255.032 136.829 254.001 135.736C252.97 134.643 252.776 137.815 252.776 137.815C252.776 137.815 252.249 141.288 249.126 142.334C246.004 143.38 243.636 153.321 243.636 153.321C236.272 162.901 227.582 170.375 217.283 175.295C221.297 179.905 217.466 226.405 217.466 226.405Z" fill="#6C63FF"/>
<path d="M194.806 148.797C201.2 148.797 206.383 143.611 206.383 137.213C206.383 130.815 201.2 125.629 194.806 125.629C188.411 125.629 183.228 130.815 183.228 137.213C183.228 143.611 188.411 148.797 194.806 148.797Z" fill="#FFB6B6"/>
<path d="M182.817 138.475C183.184 140.992 185.328 144.505 184.826 144.505C184.324 144.505 180.753 134.127 184.324 133.451C186.913 132.96 187.492 133.39 189.913 132.34L189.571 132.662C191.173 133.827 193.403 133.109 195.23 132.35C197.063 131.596 199.288 130.878 200.895 132.039C201.904 132.767 202.331 134.033 202.959 135.109C203.586 136.189 204.746 137.209 205.941 136.877C206.901 136.611 207.453 135.536 207.448 134.541C207.443 133.546 206.148 132.6 206.584 131.707C207.876 129.062 206.714 127.259 203.898 126.014C202.873 125.858 201.849 125.699 200.824 125.537C201.361 124.793 202.012 124.138 202.753 123.597C202.44 122.795 201.899 122.101 201.196 121.603C200.378 121.115 199.363 121.15 198.414 121.201C196.295 121.311 194.178 121.422 192.062 121.532C190.495 121.613 188.873 121.708 187.472 122.427C185.725 123.326 184.58 125.08 183.746 126.863C181.878 130.873 182.174 134.099 182.817 138.475Z" fill="#2F2E41"/>
<path d="M134.655 351.846L248.519 352C248.678 352 248.83 351.937 248.942 351.825C249.054 351.713 249.117 351.56 249.117 351.402C249.117 351.243 249.054 351.091 248.942 350.979C248.83 350.867 248.678 350.803 248.519 350.803L134.655 350.649C134.496 350.649 134.344 350.712 134.232 350.824C134.12 350.937 134.057 351.089 134.057 351.247C134.057 351.406 134.12 351.558 134.232 351.67C134.344 351.783 134.496 351.846 134.655 351.846Z" fill="#CACACA"/>
<path d="M93.473 299.695C93.6829 298.252 92.1719 296.837 90.098 296.535C88.0241 296.233 86.1727 297.158 85.9628 298.602C85.7529 300.045 87.2639 301.46 89.3378 301.762C91.4117 302.064 93.2631 301.139 93.473 299.695Z" fill="#E6E6E6"/>
<path d="M118.165 297.285C118.375 295.841 116.864 294.426 114.79 294.124C112.716 293.822 110.865 294.748 110.655 296.191C110.445 297.635 111.956 299.05 114.03 299.352C116.104 299.654 117.955 298.728 118.165 297.285Z" fill="#3F3D56"/>
<path d="M86.7116 279.694C86.9215 278.25 85.4105 276.835 83.3366 276.533C81.2627 276.231 79.4113 277.157 79.2014 278.6C78.9915 280.044 80.5026 281.459 82.5764 281.761C84.6503 282.063 86.5017 281.137 86.7116 279.694Z" fill="#FF6584"/>
<path d="M75.9824 271.501C75.9924 270.175 75.2536 269.095 74.3322 269.088C73.4109 269.081 72.6558 270.15 72.6458 271.475C72.6358 272.8 73.3746 273.88 74.296 273.887C75.2173 273.894 75.9724 272.826 75.9824 271.501Z" fill="#E6E6E6"/>
<path d="M72.3439 256.24C72.3539 254.915 71.6151 253.835 70.6938 253.828C69.7724 253.821 69.0173 254.89 69.0073 256.215C68.9973 257.54 69.7361 258.62 70.6575 258.627C71.5788 258.634 72.3339 257.565 72.3439 256.24Z" fill="#3F3D56"/>
<path d="M100.638 283.097C100.648 281.772 99.9092 280.692 98.9879 280.685C98.0665 280.678 97.3115 281.747 97.3015 283.072C97.2914 284.397 98.0302 285.477 98.9516 285.484C99.873 285.491 100.628 284.423 100.638 283.097Z" fill="#E6E6E6"/>
<path d="M88.7059 289.058C88.7159 287.733 87.9771 286.653 87.0557 286.646C86.1344 286.639 85.3793 287.708 85.3693 289.033C85.3593 290.358 86.0981 291.438 87.0195 291.445C87.9408 291.452 88.6959 290.384 88.7059 289.058Z" fill="#FF6584"/>
<path d="M105.316 300.076C105.326 298.751 104.587 297.671 103.666 297.664C102.744 297.657 101.989 298.726 101.979 300.051C101.969 301.376 102.708 302.456 103.629 302.463C104.551 302.47 105.306 301.401 105.316 300.076Z" fill="#3F3D56"/>
<path d="M283.289 222.317C283.499 220.874 281.988 219.459 279.914 219.157C277.84 218.855 275.988 219.78 275.779 221.224C275.569 222.668 277.08 224.083 279.154 224.384C281.227 224.686 283.079 223.761 283.289 222.317Z" fill="#E6E6E6"/>
<path d="M307.981 219.907C308.191 218.463 306.679 217.048 304.606 216.746C302.532 216.444 300.68 217.37 300.47 218.813C300.26 220.257 301.772 221.672 303.845 221.974C305.919 222.276 307.771 221.35 307.981 219.907Z" fill="#3F3D56"/>
<path d="M276.527 202.316C276.737 200.872 275.226 199.457 273.152 199.155C271.078 198.853 269.227 199.779 269.017 201.222C268.807 202.666 270.318 204.081 272.392 204.383C274.466 204.685 276.317 203.759 276.527 202.316Z" fill="#FF6584"/>
<path d="M265.798 194.123C265.808 192.797 265.069 191.717 264.148 191.71C263.227 191.703 262.472 192.772 262.461 194.097C262.451 195.423 263.19 196.503 264.112 196.51C265.033 196.516 265.788 195.448 265.798 194.123Z" fill="#E6E6E6"/>
<path d="M262.16 178.862C262.17 177.537 261.431 176.457 260.509 176.45C259.588 176.443 258.833 177.512 258.823 178.837C258.813 180.162 259.552 181.242 260.473 181.249C261.395 181.256 262.15 180.187 262.16 178.862Z" fill="#3F3D56"/>
<path d="M290.454 205.719C290.464 204.394 289.725 203.314 288.804 203.307C287.882 203.3 287.127 204.369 287.117 205.694C287.107 207.019 287.846 208.099 288.767 208.106C289.689 208.113 290.444 207.045 290.454 205.719Z" fill="#E6E6E6"/>
<path d="M278.522 211.68C278.532 210.355 277.793 209.275 276.871 209.268C275.95 209.261 275.195 210.33 275.185 211.655C275.175 212.98 275.914 214.06 276.835 214.067C277.756 214.074 278.512 213.006 278.522 211.68Z" fill="#FF6584"/>
<path d="M295.132 222.698C295.142 221.373 294.403 220.293 293.481 220.286C292.56 220.279 291.805 221.348 291.795 222.673C291.785 223.998 292.524 225.078 293.445 225.085C294.367 225.092 295.122 224.023 295.132 222.698Z" fill="#3F3D56"/>
<path d="M191.394 79.1179C191.604 77.6743 190.093 76.2593 188.019 75.9574C185.945 75.6555 184.094 76.581 183.884 78.0245C183.674 79.4681 185.185 80.8831 187.259 81.185C189.333 81.4869 191.184 80.5614 191.394 79.1179Z" fill="white"/>
<path d="M216.086 76.7071C216.296 75.2635 214.784 73.8485 212.711 73.5466C210.637 73.2447 208.785 74.1702 208.575 75.6137C208.366 77.0573 209.877 78.4722 211.95 78.7742C214.024 79.0761 215.876 78.1506 216.086 76.7071Z" fill="#3F3D56"/>
<path d="M184.632 59.1161C184.842 57.6725 183.331 56.2576 181.257 55.9556C179.184 55.6537 177.332 56.5792 177.122 58.0227C176.912 59.4663 178.423 60.8813 180.497 61.1832C182.571 61.4851 184.423 60.5596 184.632 59.1161Z" fill="#FF6584"/>
<path d="M173.903 50.9231C173.913 49.5978 173.174 48.5178 172.253 48.5109C171.332 48.5039 170.577 49.5726 170.567 50.8978C170.557 52.2231 171.295 53.303 172.217 53.31C173.138 53.317 173.893 52.2483 173.903 50.9231Z" fill="#E6E6E6"/>
<path d="M170.265 35.6627C170.275 34.3375 169.536 33.2575 168.615 33.2505C167.693 33.2436 166.938 34.3122 166.928 35.6375C166.918 36.9627 167.657 38.0427 168.578 38.0497C169.5 38.0566 170.255 36.988 170.265 35.6627Z" fill="#3F3D56"/>
<path d="M198.559 62.5199C198.569 61.1946 197.83 60.1147 196.909 60.1077C195.987 60.1007 195.232 61.1694 195.222 62.4946C195.212 63.8199 195.951 64.8998 196.872 64.9068C197.794 64.9138 198.549 63.8451 198.559 62.5199Z" fill="#E6E6E6"/>
<path d="M186.627 68.481C186.637 67.1557 185.898 66.0758 184.977 66.0688C184.055 66.0618 183.3 67.1305 183.29 68.4557C183.28 69.781 184.019 70.8609 184.94 70.8679C185.862 70.8749 186.617 69.8062 186.627 68.481Z" fill="#FF6584"/>
<path d="M203.237 79.4987C203.247 78.1734 202.508 77.0935 201.586 77.0865C200.665 77.0795 199.91 78.1482 199.9 79.4734C199.89 80.7986 200.629 81.8786 201.55 81.8856C202.472 81.8926 203.227 80.8239 203.237 79.4987Z" fill="#3F3D56"/>
</g>
<defs>
<clipPath id="clip0_119_525">
<rect width="308" height="352" fill="white"/>
</clipPath>
</defs>
</svg>
