<svg width="362" height="257" viewBox="0 0 362 257" fill="none" xmlns="http://www.w3.org/2000/svg">
<g clip-path="url(#clip0_110_579)">
<path d="M21.3962 216.798L10.2979 207.376C11.5671 199.822 14.6551 192.693 19.2938 186.608C19.6668 200.221 33.575 209.338 38.3611 222.081C39.8235 226.067 40.373 230.332 39.969 234.56C39.565 238.789 38.2178 242.871 36.0273 246.506L34.9107 256.79C28.8498 253.621 23.5456 249.172 19.3636 243.749C15.1816 238.326 12.2213 232.057 10.6866 225.376C9.86259 221.619 9.51348 217.773 9.64746 213.928C15.3298 215.663 21.3962 216.798 21.3962 216.798Z" fill="#F2F2F2"/>
<path d="M332.496 234.821L340.246 222.48C347.879 222.686 355.346 224.758 362 228.517C348.616 230.788 341.56 245.878 329.651 252.412C325.921 254.421 321.788 255.563 317.558 255.752C313.329 255.941 309.111 255.173 305.218 253.504L294.911 253.831C297.192 247.368 300.843 241.477 305.612 236.565C310.381 231.654 316.154 227.837 322.534 225.38C326.127 224.037 329.875 223.153 333.688 222.749C332.769 228.636 332.496 234.821 332.496 234.821Z" fill="#F2F2F2"/>
<path d="M87.1787 194.591L44.2062 192.062L50.0967 150.273L87.9643 191.218L87.1787 194.591Z" fill="#F2F2F2"/>
<path d="M81.709 237.225L37.9509 234.27L43.7854 196.283L81.9063 234.277L81.709 237.225Z" fill="#F2F2F2"/>
<path d="M326.157 60.942V22.3411C326.157 19.4072 325.581 16.5021 324.462 13.7915C323.343 11.081 321.703 8.61811 319.635 6.54355C317.567 4.46898 315.112 2.82335 312.41 1.7006C309.709 0.577856 306.813 -1.52588e-05 303.888 -1.52588e-05H222.371C219.447 -1.58131e-05 216.551 0.577856 213.849 1.7006C211.148 2.82335 208.693 4.46898 206.625 6.54355C204.557 8.61811 202.917 11.081 201.798 13.7915C200.678 16.5021 200.102 19.4072 200.102 22.3411V234.108C200.102 240.034 202.449 245.716 206.625 249.906C210.801 254.096 216.465 256.45 222.371 256.45H303.889C309.795 256.45 315.459 254.096 319.635 249.906C323.811 245.716 326.157 240.034 326.157 234.109V88.4188C326.53 88.4188 326.887 88.2703 327.151 88.0061C327.414 87.7418 327.562 87.3834 327.562 87.0097V62.351C327.562 61.9773 327.414 61.619 327.151 61.3547C326.887 61.0905 326.53 60.942 326.157 60.942Z" fill="#3F3D56"/>
<path d="M321.418 22.4945V233.956C321.419 238.348 319.692 242.564 316.612 245.686C313.533 248.808 309.35 250.585 304.972 250.631C304.911 250.637 304.85 250.64 304.79 250.638H222.876C218.466 250.638 214.237 248.88 211.118 245.752C208 242.623 206.248 238.38 206.247 233.956V22.4945C206.248 18.0702 208 13.8272 211.118 10.6987C214.236 7.57028 218.466 5.81255 222.876 5.81214H232.816C232.328 7.01611 232.142 8.32212 232.274 9.61525C232.407 10.9084 232.854 12.149 233.577 13.228C234.299 14.3069 235.275 15.1912 236.419 15.8029C237.562 16.4145 238.838 16.735 240.134 16.7359H286.834C288.129 16.7323 289.403 16.4101 290.544 15.7975C291.686 15.1849 292.66 14.3006 293.382 13.2223C294.103 12.1439 294.55 10.9044 294.683 9.61245C294.816 8.32049 294.631 7.01557 294.144 5.81213H304.79C309.2 5.81254 313.429 7.57026 316.547 10.6987C319.666 13.8272 321.418 18.0702 321.418 22.4945Z" fill="white"/>
<path d="M303.383 245.476C303.383 247.667 303.315 249.84 303.177 251.994C303.117 252.001 303.057 252.004 302.996 252.002H221.085C217.379 252.002 213.779 250.76 210.856 248.474C207.934 246.187 205.856 242.987 204.953 239.381C204.795 238.752 204.675 238.113 204.595 237.469C204.502 236.756 204.456 236.039 204.457 235.32V141.083C210.759 141.396 217.021 142.283 223.163 143.734C223.765 143.873 224.362 144.021 224.956 144.173C224.993 144.182 225.031 144.194 225.069 144.203C225.671 144.355 226.268 144.515 226.862 144.68C239.525 148.169 251.411 154.04 261.889 161.982C262.491 162.434 263.088 162.898 263.681 163.367L263.795 163.455C264.788 164.24 265.766 165.045 266.728 165.87C266.942 166.051 267.157 166.237 267.367 166.427C267.885 166.874 268.402 167.33 268.907 167.79C280.08 177.88 288.95 190.272 294.91 204.118C295.107 204.569 295.297 205.025 295.486 205.481C295.562 205.667 295.638 205.852 295.713 206.038C295.785 206.207 295.852 206.376 295.919 206.545C300.866 218.924 303.4 232.14 303.383 245.476Z" fill="#3F3D56"/>
<path d="M200.553 82.5368C200.05 82.5362 199.568 82.3357 199.213 81.9792C198.858 81.6226 198.658 81.1393 198.657 80.6351V67.703C198.657 67.1986 198.857 66.7149 199.212 66.3583C199.568 66.0016 200.05 65.8012 200.553 65.8012C201.056 65.8012 201.538 66.0016 201.893 66.3583C202.249 66.7149 202.448 67.1986 202.448 67.703V80.635C202.448 81.1392 202.248 81.6226 201.893 81.9791C201.537 82.3357 201.055 82.5362 200.553 82.5368Z" fill="#3F3D56"/>
<path d="M200.174 57.4335C199.671 57.4329 199.189 57.2323 198.834 56.8758C198.479 56.5193 198.279 56.0359 198.278 55.5317V42.5997C198.278 42.0953 198.478 41.6115 198.833 41.2549C199.189 40.8982 199.671 40.6979 200.174 40.6979C200.676 40.6979 201.159 40.8982 201.514 41.2549C201.87 41.6115 202.069 42.0953 202.069 42.5997V55.5317C202.069 56.0359 201.869 56.5193 201.513 56.8758C201.158 57.2323 200.676 57.4329 200.174 57.4335Z" fill="#3F3D56"/>
<path d="M250.597 7.98743C250.598 7.48323 250.798 6.99986 251.153 6.64334C251.509 6.28681 251.99 6.08626 252.493 6.08566H265.383C265.632 6.08529 265.879 6.13421 266.11 6.22961C266.34 6.32502 266.549 6.46505 266.726 6.64168C266.902 6.81831 267.042 7.02809 267.137 7.25901C267.233 7.48992 267.282 7.73746 267.282 7.98744C267.282 8.23742 267.233 8.48495 267.137 8.71587C267.042 8.94678 266.902 9.15656 266.726 9.33319C266.549 9.50983 266.34 9.64985 266.11 9.74526C265.879 9.84067 265.632 9.88958 265.383 9.88921H252.493C251.99 9.88861 251.509 9.68806 251.153 9.33154C250.798 8.97501 250.598 8.49163 250.597 7.98743Z" fill="white"/>
<path d="M200.553 104.597C200.05 104.597 199.568 104.396 199.213 104.04C198.858 103.683 198.658 103.2 198.657 102.696V89.7635C198.657 89.2591 198.857 88.7754 199.212 88.4188C199.568 88.0621 200.05 87.8618 200.553 87.8618C201.056 87.8618 201.538 88.0621 201.893 88.4188C202.249 88.7754 202.448 89.2591 202.448 89.7635V102.696C202.448 103.2 202.248 103.683 201.893 104.04C201.537 104.396 201.055 104.597 200.553 104.597Z" fill="#3F3D56"/>
<path d="M272.587 9.8892C273.634 9.8892 274.482 9.03775 274.482 7.98743C274.482 6.93711 273.634 6.08566 272.587 6.08566C271.54 6.08566 270.691 6.93711 270.691 7.98743C270.691 9.03775 271.54 9.8892 272.587 9.8892Z" fill="white"/>
<path opacity="0.2" d="M265.588 236.105C265.587 232.157 266.362 228.247 267.868 224.599C269.374 220.95 271.581 217.636 274.364 214.843C277.147 212.051 280.452 209.837 284.088 208.326C287.724 206.815 291.622 206.038 295.558 206.038H295.713C295.638 205.852 295.562 205.667 295.486 205.481C295.297 205.025 295.107 204.569 294.91 204.118H265.588V166.427H267.367C267.157 166.237 266.942 166.051 266.728 165.87C265.764 165.047 264.787 164.242 263.795 163.455L263.682 163.367V164.506H226.862V144.68C226.268 144.515 225.671 144.355 225.069 144.203C225.031 144.194 224.993 144.182 224.956 144.173V164.506H206.249V166.427H224.956V204.118H206.249V206.038H224.956V236.105H206.388C206.468 236.75 206.587 237.388 206.746 238.018H224.956V250.639H226.862V238.018H263.682V250.639H265.588V238.018H297.712V236.105H265.588ZM263.682 236.105H226.862V206.038H263.682V236.105ZM263.682 204.118H226.862V203.366C226.862 193.569 230.741 184.174 237.646 177.246C244.551 170.319 253.916 166.427 263.682 166.427V204.118Z" fill="black"/>
<path d="M100.414 98.264L79.9777 255.974L79.8472 256.979H78.9973L79.1277 255.974L99.5804 98.1542L100.414 98.264Z" fill="#E5E5E5"/>
<path d="M57.8671 98.4624L35.3317 255.991L35.1887 256.996H34.3387L34.4818 255.991L57.034 98.3442L57.8671 98.4624Z" fill="#E5E5E5"/>
<path d="M132.189 256.958L131.313 256.962L131.044 255.957L87.4502 93.5067L88.2622 93.2872L131.915 255.957L132.189 256.958Z" fill="#3F3D56"/>
<path d="M130.342 93.281L129.533 93.5112L175.473 256.089L176.282 255.859L130.342 93.281Z" fill="#3F3D56"/>
<path d="M167.513 226.261L125.856 234.907L126.027 235.734L167.684 227.088L167.513 226.261Z" fill="#3F3D56"/>
<path d="M160.291 200.901L118.634 209.547L118.804 210.374L160.461 201.728L160.291 200.901Z" fill="#3F3D56"/>
<path d="M153.074 175.539L111.707 183.571L111.867 184.4L153.234 176.368L153.074 175.539Z" fill="#3F3D56"/>
<path d="M145.85 150.184L105.385 158.206L105.548 159.034L146.014 151.012L145.85 150.184Z" fill="#3F3D56"/>
<path d="M57.1557 98.4332C56.523 94.286 57.5582 90.0564 60.0339 86.675C62.5095 83.2935 66.2226 81.0372 70.3565 80.4024C74.4903 79.7675 78.7063 80.8062 82.0768 83.2898C85.4473 85.7735 87.6963 89.4986 88.3291 93.6459L87.4975 93.7737C87.2018 91.829 86.527 89.9618 85.5118 88.2787C84.4966 86.5957 83.1608 85.1299 81.5807 83.9649C80.0006 82.8 78.2072 81.9588 76.303 81.4894C74.3988 81.02 72.421 80.9316 70.4827 81.2292C68.5444 81.5269 66.6836 82.2048 65.0065 83.2241C63.3295 84.2435 61.869 85.5844 60.7086 87.1702C59.5482 88.7559 58.7107 90.5555 58.2438 92.4662C57.7768 94.3768 57.6897 96.361 57.9874 98.3054L57.1557 98.4332Z" fill="#3F3D56"/>
<path d="M99.2986 98.622C98.9578 96.5725 99.0227 94.4757 99.4897 92.4513C99.9568 90.427 100.817 88.5148 102.021 86.8239C103.224 85.1331 104.748 83.6967 106.506 82.5969C108.263 81.4971 110.219 80.7554 112.262 80.4141C114.305 80.0728 116.395 80.1386 118.413 80.6078C120.43 81.077 122.336 81.9404 124.021 83.1486C125.706 84.3569 127.137 85.8863 128.233 87.6496C129.329 89.4128 130.067 91.3754 130.407 93.4251L129.577 93.5636C128.925 89.6475 126.749 86.1514 123.529 83.8441C120.308 81.5367 116.306 80.6069 112.402 81.2591C108.498 81.9113 105.012 84.0921 102.711 87.3221C100.409 90.552 99.4805 94.5667 100.129 98.4835L99.2986 98.622Z" fill="#3F3D56"/>
<path d="M142.777 133.071L134.691 152.807L161.038 152.616L158.358 133.028L142.777 133.071Z" fill="#FFB6B6"/>
<path d="M149.211 223.672L153.119 224.244L157.177 209.394L151.409 208.55L149.211 223.672Z" fill="#FFB6B6"/>
<path d="M148.523 221.596L154.754 222.13L154.368 224.785L159.65 229.714C159.91 229.958 160.087 230.278 160.153 230.63C160.22 230.981 160.172 231.344 160.018 231.666C159.864 231.989 159.612 232.253 159.297 232.421C158.983 232.589 158.623 232.652 158.271 232.6L150.916 231.524L150.03 228.712L149.153 231.266L146.38 230.86L148.523 221.596Z" fill="#2F2E41"/>
<path d="M104.048 212.704L107.166 215.136L118 204.229L113.399 200.64L104.048 212.704Z" fill="#FFB6B6"/>
<path d="M104.471 210.558L109.628 214.108L107.986 216.226L110.155 223.128C110.262 223.468 110.258 223.835 110.143 224.173C110.028 224.511 109.808 224.804 109.516 225.008C109.223 225.212 108.873 225.317 108.517 225.307C108.161 225.298 107.817 225.174 107.536 224.955L101.669 220.377L102.282 217.493L100.263 219.28L98.0505 217.555L104.471 210.558Z" fill="#2F2E41"/>
<path d="M136.179 148.125L133.584 151.573L126.677 181.72L110.978 202.991L116.255 208.075L136.279 188.586L146.105 167.764L151.077 186.997L149.815 212.746L158.23 212.323C160.51 182.442 164.078 151.696 159.876 143.061C157.106 145.485 153.872 147.317 150.373 148.444C146.873 149.571 143.181 149.97 139.522 149.617L136.179 148.125Z" fill="#2F2E41"/>
<path d="M150.068 101.156L156.707 108.439C158.164 110.037 159.087 112.052 159.349 114.202C159.467 115.178 159.448 116.166 159.29 117.137L157.859 127.656L160.383 143.696C160.383 143.696 156.785 145.898 149.864 150.45C147.04 152.308 133.86 152.278 133.876 151.716C133.951 149.115 136.27 142.105 136.821 133.565C137.502 123.025 136.609 110.444 138.925 104.439C141.752 97.1092 150.068 101.156 150.068 101.156Z" fill="#6C63FF"/>
<path d="M127.286 147.825C127.576 147.402 127.769 146.921 127.854 146.415C127.938 145.909 127.911 145.391 127.773 144.897C127.636 144.402 127.393 143.944 127.06 143.555C126.728 143.165 126.314 142.853 125.848 142.641L126.108 134.627L121.292 133.281L121.084 144.604C120.781 145.412 120.784 146.304 121.093 147.11C121.402 147.917 121.994 148.581 122.759 148.978C123.523 149.375 124.406 149.477 125.241 149.265C126.075 149.052 126.803 148.54 127.286 147.825Z" fill="#FFB6B6"/>
<path d="M120.862 115.473C121.004 115.1 121.222 114.76 121.502 114.475C121.782 114.191 122.117 113.968 122.488 113.82C125.051 112.74 136.133 103.655 136.541 103.825L140.059 102.083C140.189 102.085 143.655 102.167 145.355 104.101C145.708 104.509 145.969 104.989 146.12 105.509C146.271 106.028 146.308 106.574 146.229 107.109C145.731 111.715 130.021 122.061 128.356 121.991L126.593 135.069L127.279 140.065L120.854 140.248L118.875 132.892C118.59 132.355 118.232 122.194 120.862 115.473Z" fill="#6C63FF"/>
<path d="M146.619 108.487C147.139 104.912 145.137 101.659 142.148 101.221C139.159 100.784 136.314 103.328 135.794 106.903C135.274 110.479 137.276 113.732 140.265 114.17C143.255 114.607 146.099 112.063 146.619 108.487Z" fill="#6C63FF"/>
<path d="M98.3262 131.866L98.1633 131.037L137.242 122.168V123.013L98.3262 131.866Z" fill="#3F3D56"/>
<path d="M271.327 72.2111H256.339C253.106 72.2111 250.485 74.8404 250.485 78.0839V78.0839C250.485 81.3274 253.106 83.9568 256.339 83.9568H271.327C274.56 83.9568 277.181 81.3274 277.181 78.0839C277.181 74.8404 274.56 72.2111 271.327 72.2111Z" fill="#E6E6E6"/>
<path d="M299.133 95.7026H228.533C225.3 95.7026 222.679 98.332 222.679 101.575V101.575C222.679 104.819 225.3 107.448 228.533 107.448H299.133C302.366 107.448 304.987 104.819 304.987 101.575C304.987 98.332 302.366 95.7026 299.133 95.7026Z" fill="#E6E6E6"/>
<path d="M268.839 113.285H198.239C195.006 113.285 192.385 115.914 192.385 119.157V119.157C192.385 122.401 195.006 125.03 198.239 125.03H268.839C272.072 125.03 274.693 122.401 274.693 119.157C274.693 115.914 272.072 113.285 268.839 113.285Z" fill="#6C63FF"/>
<path d="M361.9 256.367C361.901 256.433 361.888 256.498 361.863 256.559C361.838 256.62 361.801 256.676 361.754 256.722C361.708 256.769 361.652 256.806 361.592 256.831C361.531 256.856 361.466 256.869 361.4 256.869L112.025 256.958L111.15 256.962L59.6835 256.979H58.8336L15.025 256.996H14.1751L0.500695 257C0.367902 257 0.240547 256.947 0.146649 256.853C0.0527508 256.759 0 256.631 0 256.498C0 256.364 0.0527508 256.237 0.146649 256.142C0.240547 256.048 0.367902 255.995 0.500695 255.995L14.3182 255.991H15.1681L58.964 255.974H59.814L110.88 255.957H111.751L155.266 255.94H155.838L361.4 255.865C361.466 255.864 361.531 255.877 361.592 255.902C361.652 255.928 361.708 255.965 361.754 256.011C361.801 256.058 361.838 256.113 361.863 256.174C361.888 256.235 361.901 256.301 361.9 256.367Z" fill="#CACACA"/>
<path d="M157.093 93.8829C155.837 95.5568 154.05 96.7516 152.027 97.2706C150.003 97.7896 147.864 97.6019 145.961 96.7383C144.059 95.8746 142.506 94.3866 141.559 92.5193C140.611 90.652 140.326 88.5168 140.75 86.4652C141.174 84.4136 142.282 82.5681 143.891 81.2325C145.5 79.8969 147.515 79.1509 149.603 79.1174C151.691 79.0839 153.728 79.7648 155.379 81.0481C157.03 82.3313 158.196 84.1403 158.685 86.1773C158.712 86.2878 158.734 86.3977 158.756 86.5118C159.014 87.7885 159 89.1057 158.713 90.3763C158.426 91.647 157.874 92.8422 157.093 93.8829Z" fill="#FFB6B6"/>
<path d="M159.484 86.6184C159.253 85.4626 159.34 86.0598 159.104 84.9076C159.153 85.4653 159.031 86.0248 158.756 86.5118L147.927 84.9269L148.845 78.6114C152.201 77.8143 155.459 77.1947 156.993 79.8038C158.662 80.0482 160.167 80.948 161.175 82.3051C162.183 83.6623 162.613 85.3657 162.37 87.0406L159.484 86.6184Z" fill="#2F2E41"/>
<path d="M153.093 103.612C153.102 103.494 153.107 103.371 153.107 103.252C153.086 102.372 152.973 101.498 152.768 100.643C152.584 99.7155 152.396 98.7837 152.208 97.8561C152.383 99.5155 152.013 101.187 151.154 102.616C149.534 100.92 150.605 98.4651 148.215 98.1154C142.47 97.2745 137.795 91.0927 138.633 85.3244C139.472 79.5602 142.563 75.6103 148.309 76.4512C154.058 77.2926 158.338 80.6149 157.612 86.3955C150.291 87.0305 154.514 103.223 153.093 103.612Z" fill="#2F2E41"/>
<path d="M140.452 81.7129C142.571 81.7129 144.289 79.9892 144.289 77.8628C144.289 75.7365 142.571 74.0128 140.452 74.0128C138.332 74.0128 136.614 75.7365 136.614 77.8628C136.614 79.9892 138.332 81.7129 140.452 81.7129Z" fill="#2F2E41"/>
<path d="M145.004 74.6839C144.646 73.907 144.103 73.2306 143.422 72.7146C142.741 72.1987 141.944 71.8591 141.101 71.726C141.695 71.9953 142.214 72.407 142.611 72.9247C143.009 73.4425 143.274 74.0504 143.382 74.695C143.49 75.3396 143.439 76.0009 143.232 76.6209C143.026 77.2408 142.671 77.8003 142.198 78.2501L142.974 77.581C143.185 77.7618 143.449 77.87 143.726 77.8898C144.003 77.9097 144.279 77.8402 144.514 77.6914C144.745 77.5357 144.937 77.3297 145.076 77.0889C145.216 76.848 145.299 76.5786 145.32 76.3007C145.357 75.7433 145.248 75.1859 145.004 74.6839Z" fill="#2F2E41"/>
<path d="M193.855 115.405C193.399 115.173 192.897 115.045 192.386 115.028C191.875 115.012 191.367 115.108 190.897 115.31C190.427 115.512 190.007 115.815 189.666 116.198C189.325 116.58 189.072 117.033 188.925 117.524L180.973 118.332L180.284 123.3L191.498 122.001C192.337 122.194 193.217 122.072 193.973 121.658C194.728 121.244 195.306 120.566 195.596 119.753C195.887 118.94 195.87 118.048 195.549 117.247C195.228 116.446 194.625 115.79 193.855 115.405Z" fill="#FFB6B6"/>
<path d="M162.749 126.097C162.361 126.005 161.996 125.834 161.678 125.593C161.36 125.353 161.094 125.049 160.899 124.7C159.491 122.295 149.041 112.485 149.156 112.056L146.967 108.79C146.951 108.661 146.571 105.204 148.255 103.256C148.612 102.85 149.051 102.527 149.544 102.308C150.037 102.088 150.571 101.979 151.11 101.987C155.727 101.869 167.334 116.527 167.486 118.192L181.345 117.792L186.19 116.444L187.225 122.808L180.221 125.756C179.729 126.11 169.738 127.818 162.749 126.097Z" fill="#6C63FF"/>
</g>
<defs>
<clipPath id="clip0_110_579">
<rect width="362" height="257" fill="white"/>
</clipPath>
</defs>
</svg>
