<svg width="16" height="16" viewBox="0 0 16 16" fill="none" xmlns="http://www.w3.org/2000/svg">
<path d="M1.33325 14.6666V2.66659C1.33325 2.29992 1.46392 1.98614 1.72525 1.72525C1.98659 1.46436 2.30036 1.3337 2.66659 1.33325H13.3333C13.6999 1.33325 14.0139 1.46392 14.2753 1.72525C14.5366 1.98659 14.667 2.30036 14.6666 2.66659V10.6666C14.6666 11.0333 14.5361 11.3473 14.2753 11.6086C14.0144 11.8699 13.7004 12.0004 13.3333 11.9999H3.99992L1.33325 14.6666ZM3.99992 9.33325H9.33325V7.99992H3.99992V9.33325ZM3.99992 7.33325H11.9999V5.99992H3.99992V7.33325ZM3.99992 5.33325H11.9999V3.99992H3.99992V5.33325Z" fill="#E6E6E6"/>
</svg>
