<svg width="24" height="24" viewBox="0 0 24 24" fill="none" xmlns="http://www.w3.org/2000/svg">
<path d="M9.49803 15L16.998 7.50004M9.49803 15.5V17.727C9.49803 20.101 9.49803 21.287 10.208 21.477C10.918 21.667 11.666 20.679 13.162 18.704L13.998 17.5M8.00603 7.67904L15.327 4.21904C18.369 2.78104 19.89 2.06204 20.86 2.78304C21.83 3.50404 21.553 5.14804 20.998 8.43504L20.044 14.097C19.681 16.246 19.5 17.32 18.699 17.789C17.898 18.258 16.857 17.898 14.776 17.178L8.41103 14.976C4.51903 13.63 2.57303 12.957 2.50103 11.636C2.42703 10.316 4.28703 9.43604 8.00603 7.67904Z" stroke="#E6E6E6" stroke-width="1.5" stroke-linecap="round" stroke-linejoin="round"/>
</svg>
