<svg width="383" height="232" viewBox="0 0 383 232" fill="none" xmlns="http://www.w3.org/2000/svg">
<g clip-path="url(#clip0_384_1777)">
<path d="M76 140V145V140Z" fill="#EC0000"/>
<path d="M76 140V145" stroke="#EC0000"/>
<path d="M76 139V143V139Z" fill="#EC0000"/>
<path d="M76 139V143" stroke="#EC0000"/>
<path d="M77 140V143V140Z" fill="#EC0000"/>
<path d="M77 140V143" stroke="#EC0000"/>
<path d="M79 140V143V140Z" fill="#00DA3C"/>
<path d="M79 140V143" stroke="#00DA3C"/>
<path d="M80 139V145V139Z" fill="#EC0000"/>
<path d="M80 139V145" stroke="#EC0000"/>
<path d="M80 145V148V145Z" fill="#00DA3C"/>
<path d="M80 145V148" stroke="#00DA3C"/>
<path d="M82 145V146V145Z" fill="#EC0000"/>
<path d="M82 145V146" stroke="#EC0000"/>
<path d="M84 145V148V145Z" fill="#00DA3C"/>
<path d="M84 145V148" stroke="#00DA3C"/>
<path d="M85 142V146V142Z" fill="#EC0000"/>
<path d="M85 142V146" stroke="#EC0000"/>
<path d="M86 139V142V139Z" fill="#EC0000"/>
<path d="M86 139V142" stroke="#EC0000"/>
<path d="M88 145V151V145Z" fill="#00DA3C"/>
<path d="M88 145V151" stroke="#00DA3C"/>
<path d="M88 148V151V148Z" fill="#EC0000"/>
<path d="M88 148V151" stroke="#EC0000"/>
<path d="M89 142V148V142Z" fill="#EC0000"/>
<path d="M89 142V148" stroke="#EC0000"/>
<path d="M90 142V143V142Z" fill="#EC0000"/>
<path d="M90 142V143" stroke="#EC0000"/>
<path d="M92 139V142V139Z" fill="#00DA3C"/>
<path d="M92 139V142" stroke="#00DA3C"/>
<path d="M93 140V142V140Z" fill="#EC0000"/>
<path d="M93 140V142" stroke="#EC0000"/>
<path d="M93 140V143V140Z" fill="#00DA3C"/>
<path d="M93 140V143" stroke="#00DA3C"/>
<path d="M94 140V143V140Z" fill="#00DA3C"/>
<path d="M94 140V143" stroke="#00DA3C"/>
<path d="M96 143V146V143Z" fill="#EC0000"/>
<path d="M96 143V146" stroke="#EC0000"/>
<path d="M97 143V146V143Z" fill="#00DA3C"/>
<path d="M97 143V146" stroke="#00DA3C"/>
<path d="M97 148V150V148Z" fill="#00DA3C"/>
<path d="M97 148V150" stroke="#00DA3C"/>
<path d="M101 146V150V146Z" fill="#EC0000"/>
<path d="M101 146V150" stroke="#EC0000"/>
<path d="M101 145V148V145Z" fill="#00DA3C"/>
<path d="M101 145V148" stroke="#00DA3C"/>
<path d="M102 145V150V145Z" fill="#00DA3C"/>
<path d="M102 145V150" stroke="#00DA3C"/>
<path d="M103 150V153V150Z" fill="#00DA3C"/>
<path d="M103 150V153" stroke="#00DA3C"/>
<path d="M105 151V153V151Z" fill="#EC0000"/>
<path d="M105 151V153" stroke="#EC0000"/>
<path d="M106 150V151V150Z" fill="#EC0000"/>
<path d="M106 150V151" stroke="#EC0000"/>
<path d="M106 148V150V148Z" fill="#EC0000"/>
<path d="M106 148V150" stroke="#EC0000"/>
<path d="M107 148V150V148Z" fill="#EC0000"/>
<path d="M107 148V150" stroke="#EC0000"/>
<path d="M109 145V148V145Z" fill="#EC0000"/>
<path d="M109 145V148" stroke="#EC0000"/>
<path d="M110 146V148V146Z" fill="#EC0000"/>
<path d="M110 146V148" stroke="#EC0000"/>
<path d="M110 145V146V145Z" fill="#EC0000"/>
<path d="M110 145V146" stroke="#EC0000"/>
<path d="M111 145V146V145Z" fill="#00DA3C"/>
<path d="M111 145V146" stroke="#00DA3C"/>
<path d="M113 143V146V143Z" fill="#EC0000"/>
<path d="M113 143V146" stroke="#EC0000"/>
<path d="M114 142V143V142Z" fill="#EC0000"/>
<path d="M114 142V143" stroke="#EC0000"/>
<path d="M115 142V143V142Z" fill="#EC0000"/>
<path d="M115 142V143" stroke="#EC0000"/>
<path d="M118 142V145V142Z" fill="#00DA3C"/>
<path d="M118 142V145" stroke="#00DA3C"/>
<path d="M118 143V145V143Z" fill="#EC0000"/>
<path d="M118 143V145" stroke="#EC0000"/>
<path d="M119 145V146V145Z" fill="#00DA3C"/>
<path d="M119 145V146" stroke="#00DA3C"/>
<path d="M120 145V146V145Z" fill="#00DA3C"/>
<path d="M120 145V146" stroke="#00DA3C"/>
<path d="M122 143V146V143Z" fill="#EC0000"/>
<path d="M122 143V146" stroke="#EC0000"/>
<path d="M123 142V143V142Z" fill="#EC0000"/>
<path d="M123 142V143" stroke="#EC0000"/>
<path d="M124 140V143V140Z" fill="#EC0000"/>
<path d="M124 140V143" stroke="#EC0000"/>
<path d="M126 140V142V140Z" fill="#EC0000"/>
<path d="M126 140V142" stroke="#EC0000"/>
<path d="M127 137V140V137Z" fill="#EC0000"/>
<path d="M127 137V140" stroke="#EC0000"/>
<path d="M128 136V137V136Z" fill="#EC0000"/>
<path d="M128 136V137" stroke="#EC0000"/>
<path d="M130 133V136V133Z" fill="#EC0000"/>
<path d="M130 133V136" stroke="#EC0000"/>
<path d="M130 131V134V131Z" fill="#EC0000"/>
<path d="M130 131V134" stroke="#EC0000"/>
<path d="M131 130V133V130Z" fill="#EC0000"/>
<path d="M131 130V133" stroke="#EC0000"/>
<path d="M132 128V130V128Z" fill="#EC0000"/>
<path d="M132 128V130" stroke="#EC0000"/>
<path d="M134 127V131V127Z" fill="#00DA3C"/>
<path d="M134 127V131" stroke="#00DA3C"/>
<path d="M136 128V130V128Z" fill="#00DA3C"/>
<path d="M136 128V130" stroke="#00DA3C"/>
<path d="M136 127V131V127Z" fill="#EC0000"/>
<path d="M136 127V131" stroke="#EC0000"/>
<path d="M137 127V130V127Z" fill="#EC0000"/>
<path d="M137 127V130" stroke="#EC0000"/>
<path d="M138 124V127V124Z" fill="#EC0000"/>
<path d="M138 124V127" stroke="#EC0000"/>
<path d="M140 122V127V122Z" fill="#00DA3C"/>
<path d="M140 122V127" stroke="#00DA3C"/>
<path d="M141 124V125V124Z" fill="#EC0000"/>
<path d="M141 124V125" stroke="#EC0000"/>
<path d="M142 122V125V122Z" fill="#00DA3C"/>
<path d="M142 122V125" stroke="#00DA3C"/>
<path d="M142 121V124V121Z" fill="#EC0000"/>
<path d="M142 121V124" stroke="#EC0000"/>
<path d="M144 118V121V118Z" fill="#EC0000"/>
<path d="M144 118V121" stroke="#EC0000"/>
<path d="M145 116V119V116Z" fill="#EC0000"/>
<path d="M145 116V119" stroke="#EC0000"/>
<path d="M146 115V119V115Z" fill="#00DA3C"/>
<path d="M146 115V119" stroke="#00DA3C"/>
<path d="M146 115V119V115Z" fill="#EC0000"/>
<path d="M146 115V119" stroke="#EC0000"/>
<path d="M148 112V113V112Z" fill="#EC0000"/>
<path d="M148 112V113" stroke="#EC0000"/>
<path d="M149 108V112V108Z" fill="#EC0000"/>
<path d="M149 108V112" stroke="#EC0000"/>
<path d="M150 108V113V108Z" fill="#00DA3C"/>
<path d="M150 108V113" stroke="#00DA3C"/>
<path d="M153 108V115V108Z" fill="#EC0000"/>
<path d="M153 108V115" stroke="#EC0000"/>
<path d="M154 104V107V104Z" fill="#EC0000"/>
<path d="M154 104V107" stroke="#EC0000"/>
<path d="M155 102V108V102Z" fill="#00DA3C"/>
<path d="M155 102V108" stroke="#00DA3C"/>
<path d="M155 104V108V104Z" fill="#EC0000"/>
<path d="M155 104V108" stroke="#EC0000"/>
<path d="M157 101V104V101Z" fill="#EC0000"/>
<path d="M157 101V104" stroke="#EC0000"/>
<path d="M158 98V102V98Z" fill="#EC0000"/>
<path d="M158 98V102" stroke="#EC0000"/>
<path d="M159 99V104V99Z" fill="#EC0000"/>
<path d="M159 99V104" stroke="#EC0000"/>
<path d="M159 95V98V95Z" fill="#EC0000"/>
<path d="M159 95V98" stroke="#EC0000"/>
<path d="M161 93V99V93Z" fill="#00DA3C"/>
<path d="M161 93V99" stroke="#00DA3C"/>
<path d="M162 96V101V96Z" fill="#EC0000"/>
<path d="M162 96V101" stroke="#EC0000"/>
<path d="M163 96V98V96Z" fill="#00DA3C"/>
<path d="M163 96V98" stroke="#00DA3C"/>
<path d="M165 96V101V96Z" fill="#EC0000"/>
<path d="M165 96V101" stroke="#EC0000"/>
<path d="M166 96V105V96Z" fill="#00DA3C"/>
<path d="M166 96V105" stroke="#00DA3C"/>
<path d="M166 101V108V101Z" fill="#00DA3C"/>
<path d="M166 101V108" stroke="#00DA3C"/>
<path d="M167 107V112V107Z" fill="#00DA3C"/>
<path d="M167 107V112" stroke="#00DA3C"/>
<path d="M169 107V112V107Z" fill="#EC0000"/>
<path d="M169 107V112" stroke="#EC0000"/>
<path d="M171 102V108V102Z" fill="#EC0000"/>
<path d="M171 102V108" stroke="#EC0000"/>
<path d="M172 99V104V99Z" fill="#EC0000"/>
<path d="M172 99V104" stroke="#EC0000"/>
<path d="M172 99V102V99Z" fill="#00DA3C"/>
<path d="M172 99V102" stroke="#00DA3C"/>
<path d="M174 101V102V101Z" fill="#EC0000"/>
<path d="M174 101V102" stroke="#EC0000"/>
<path d="M175 101V105V101Z" fill="#00DA3C"/>
<path d="M175 101V105" stroke="#00DA3C"/>
<path d="M176 102V105V102Z" fill="#EC0000"/>
<path d="M176 102V105" stroke="#EC0000"/>
<path d="M176 99V104V99Z" fill="#EC0000"/>
<path d="M176 99V104" stroke="#EC0000"/>
<path d="M179 95V99V95Z" fill="#EC0000"/>
<path d="M179 95V99" stroke="#EC0000"/>
<path d="M179 95V99V95Z" fill="#EC0000"/>
<path d="M179 95V99" stroke="#EC0000"/>
<path d="M180 90V93V90Z" fill="#EC0000"/>
<path d="M180 90V93" stroke="#EC0000"/>
<path d="M182 84V90V84Z" fill="#EC0000"/>
<path d="M182 84V90" stroke="#EC0000"/>
<path d="M183 80V86V80Z" fill="#EC0000"/>
<path d="M183 80V86" stroke="#EC0000"/>
<path d="M184 78V83V78Z" fill="#EC0000"/>
<path d="M184 78V83" stroke="#EC0000"/>
<path d="M184 77V92V77Z" fill="#00DA3C"/>
<path d="M184 77V92" stroke="#00DA3C"/>
<path d="M186 89V99V89Z" fill="#EC0000"/>
<path d="M186 89V99" stroke="#EC0000"/>
<path d="M187 83V92V83Z" fill="#EC0000"/>
<path d="M187 83V92" stroke="#EC0000"/>
<path d="M189 80V84V80Z" fill="#EC0000"/>
<path d="M189 80V84" stroke="#EC0000"/>
<path d="M189 80V84V80Z" fill="#00DA3C"/>
<path d="M189 80V84" stroke="#00DA3C"/>
<path d="M192 78V90V78Z" fill="#EC0000"/>
<path d="M192 78V90" stroke="#EC0000"/>
<path d="M192 75V81V75Z" fill="#EC0000"/>
<path d="M192 75V81" stroke="#EC0000"/>
<path d="M193 70V77V70Z" fill="#EC0000"/>
<path d="M193 70V77" stroke="#EC0000"/>
<path d="M195 70V75V70Z" fill="#00DA3C"/>
<path d="M195 70V75" stroke="#00DA3C"/>
<path d="M196 70V77V70Z" fill="#EC0000"/>
<path d="M196 70V77" stroke="#EC0000"/>
<path d="M196 72V75V72Z" fill="#EC0000"/>
<path d="M196 72V75" stroke="#EC0000"/>
<path d="M197 69V72V69Z" fill="#EC0000"/>
<path d="M197 69V72" stroke="#EC0000"/>
<path d="M199 69V75V69Z" fill="#00DA3C"/>
<path d="M199 69V75" stroke="#00DA3C"/>
<path d="M200 75V83V75Z" fill="#00DA3C"/>
<path d="M200 75V83" stroke="#00DA3C"/>
<path d="M201 77V86V77Z" fill="#EC0000"/>
<path d="M201 77V86" stroke="#EC0000"/>
<path d="M201 78V86V78Z" fill="#00DA3C"/>
<path d="M201 78V86" stroke="#00DA3C"/>
<path d="M204 87V98V87Z" fill="#00DA3C"/>
<path d="M204 87V98" stroke="#00DA3C"/>
<path d="M204 93V105V93Z" fill="#EC0000"/>
<path d="M204 93V105" stroke="#EC0000"/>
<path d="M205 89V95V89Z" fill="#EC0000"/>
<path d="M205 89V95" stroke="#EC0000"/>
<path d="M208 87V96V87Z" fill="#00DA3C"/>
<path d="M208 87V96" stroke="#00DA3C"/>
<path d="M209 98V110V98Z" fill="#00DA3C"/>
<path d="M209 98V110" stroke="#00DA3C"/>
<path d="M209 104V121V104Z" fill="#00DA3C"/>
<path d="M209 104V121" stroke="#00DA3C"/>
<path d="M210 105V122V105Z" fill="#EC0000"/>
<path d="M210 105V122" stroke="#EC0000"/>
<path d="M212 104V115V104Z" fill="#00DA3C"/>
<path d="M212 104V115" stroke="#00DA3C"/>
<path d="M213 113V124V113Z" fill="#00DA3C"/>
<path d="M213 113V124" stroke="#00DA3C"/>
<path d="M214 119V130V119Z" fill="#00DA3C"/>
<path d="M214 119V130" stroke="#00DA3C"/>
<path d="M214 116V130V116Z" fill="#00DA3C"/>
<path d="M214 116V130" stroke="#00DA3C"/>
<path d="M216 125V133V125Z" fill="#EC0000"/>
<path d="M216 125V133" stroke="#EC0000"/>
<path d="M217 131V139V131Z" fill="#EC0000"/>
<path d="M217 131V139" stroke="#EC0000"/>
<path d="M218 125V140V125Z" fill="#EC0000"/>
<path d="M218 125V140" stroke="#EC0000"/>
<path d="M220 118V128V118Z" fill="#EC0000"/>
<path d="M220 118V128" stroke="#EC0000"/>
<path d="M221 115V121V115Z" fill="#EC0000"/>
<path d="M221 115V121" stroke="#EC0000"/>
<path d="M221 115V122V115Z" fill="#00DA3C"/>
<path d="M221 115V122" stroke="#00DA3C"/>
<path d="M222 119V127V119Z" fill="#00DA3C"/>
<path d="M222 119V127" stroke="#00DA3C"/>
<path d="M225 121V128V121Z" fill="#EC0000"/>
<path d="M225 121V128" stroke="#EC0000"/>
<path d="M226 116V124V116Z" fill="#EC0000"/>
<path d="M226 116V124" stroke="#EC0000"/>
<path d="M226 115V119V115Z" fill="#EC0000"/>
<path d="M226 115V119" stroke="#EC0000"/>
<path d="M227 115V119V115Z" fill="#EC0000"/>
<path d="M227 115V119" stroke="#EC0000"/>
<path d="M229 115V118V115Z" fill="#EC0000"/>
<path d="M229 115V118" stroke="#EC0000"/>
<path d="M230 110V115V110Z" fill="#EC0000"/>
<path d="M230 110V115" stroke="#EC0000"/>
<path d="M231 108V115V108Z" fill="#00DA3C"/>
<path d="M231 108V115" stroke="#00DA3C"/>
<path d="M233 115V127V115Z" fill="#00DA3C"/>
<path d="M233 115V127" stroke="#00DA3C"/>
<path d="M234 125V134V125Z" fill="#EC0000"/>
<path d="M234 125V134" stroke="#EC0000"/>
<path d="M234 124V131V124Z" fill="#EC0000"/>
<path d="M234 124V131" stroke="#EC0000"/>
<path d="M235 122V128V122Z" fill="#00DA3C"/>
<path d="M235 122V128" stroke="#00DA3C"/>
<path d="M237 127V131V127Z" fill="#EC0000"/>
<path d="M237 127V131" stroke="#EC0000"/>
<path d="M238 130V133V130Z" fill="#EC0000"/>
<path d="M238 130V133" stroke="#EC0000"/>
<path d="M238 125V131V125Z" fill="#EC0000"/>
<path d="M238 125V131" stroke="#EC0000"/>
<path d="M239 124V128V124Z" fill="#00DA3C"/>
<path d="M239 124V128" stroke="#00DA3C"/>
<path d="M241 127V131V127Z" fill="#EC0000"/>
<path d="M241 127V131" stroke="#EC0000"/>
<path d="M243 125V128V125Z" fill="#EC0000"/>
<path d="M243 125V128" stroke="#EC0000"/>
<path d="M244 118V125V118Z" fill="#EC0000"/>
<path d="M244 118V125" stroke="#EC0000"/>
<path d="M246 118V121V118Z" fill="#00DA3C"/>
<path d="M246 118V121" stroke="#00DA3C"/>
<path d="M246 118V121V118Z" fill="#EC0000"/>
<path d="M246 118V121" stroke="#EC0000"/>
<path d="M247 118V122V118Z" fill="#EC0000"/>
<path d="M247 118V122" stroke="#EC0000"/>
<path d="M248 116V118V116Z" fill="#00DA3C"/>
<path d="M248 116V118" stroke="#00DA3C"/>
<path d="M250 116V119V116Z" fill="#EC0000"/>
<path d="M250 116V119" stroke="#EC0000"/>
<path d="M251 116V125V116Z" fill="#00DA3C"/>
<path d="M251 116V125" stroke="#00DA3C"/>
<path d="M251 124V133V124Z" fill="#EC0000"/>
<path d="M251 124V133" stroke="#EC0000"/>
<path d="M252 124V130V124Z" fill="#00DA3C"/>
<path d="M252 124V130" stroke="#00DA3C"/>
<path d="M254 130V136V130Z" fill="#00DA3C"/>
<path d="M254 130V136" stroke="#00DA3C"/>
<path d="M255 140V148V140Z" fill="#00DA3C"/>
<path d="M255 140V148" stroke="#00DA3C"/>
<path d="M256 150V157V150Z" fill="#00DA3C"/>
<path d="M256 150V157" stroke="#00DA3C"/>
<path d="M258 151V160V151Z" fill="#00DA3C"/>
<path d="M258 151V160" stroke="#00DA3C"/>
<path d="M258 151V159V151Z" fill="#EC0000"/>
<path d="M258 151V159" stroke="#EC0000"/>
<path d="M259 146V151V146Z" fill="#EC0000"/>
<path d="M259 146V151" stroke="#EC0000"/>
<path d="M261 146V151V146Z" fill="#EC0000"/>
<path d="M261 146V151" stroke="#EC0000"/>
<path d="M262 148V153V148Z" fill="#EC0000"/>
<path d="M262 148V153" stroke="#EC0000"/>
<path d="M262 148V154V148Z" fill="#EC0000"/>
<path d="M262 148V154" stroke="#EC0000"/>
<path d="M264 146V153V146Z" fill="#00DA3C"/>
<path d="M264 146V153" stroke="#00DA3C"/>
<path d="M265 148V154V148Z" fill="#EC0000"/>
<path d="M265 148V154" stroke="#EC0000"/>
<path d="M266 145V148V145Z" fill="#EC0000"/>
<path d="M266 145V148" stroke="#EC0000"/>
<path d="M268 145V148V145Z" fill="#EC0000"/>
<path d="M268 145V148" stroke="#EC0000"/>
<path d="M269 146V148V146Z" fill="#EC0000"/>
<path d="M269 146V148" stroke="#EC0000"/>
<path d="M270 146V153V146Z" fill="#00DA3C"/>
<path d="M270 146V153" stroke="#00DA3C"/>
<path d="M270 153V156V153Z" fill="#00DA3C"/>
<path d="M270 153V156" stroke="#00DA3C"/>
<path d="M272 148V156V148Z" fill="#EC0000"/>
<path d="M272 148V156" stroke="#EC0000"/>
<path d="M273 146V151V146Z" fill="#00DA3C"/>
<path d="M273 146V151" stroke="#00DA3C"/>
<path d="M274 150V153V150Z" fill="#00DA3C"/>
<path d="M274 150V153" stroke="#00DA3C"/>
<path d="M274 148V153V148Z" fill="#EC0000"/>
<path d="M274 148V153" stroke="#EC0000"/>
<path d="M276 146V150V146Z" fill="#EC0000"/>
<path d="M276 146V150" stroke="#EC0000"/>
<path d="M277 148V151V148Z" fill="#00DA3C"/>
<path d="M277 148V151" stroke="#00DA3C"/>
<path d="M279 150V151V150Z" fill="#EC0000"/>
<path d="M279 150V151" stroke="#EC0000"/>
<path d="M281 150V153V150Z" fill="#00DA3C"/>
<path d="M281 150V153" stroke="#00DA3C"/>
<path d="M281 151V154V151Z" fill="#EC0000"/>
<path d="M281 151V154" stroke="#EC0000"/>
<path d="M282 153V154V153Z" fill="#00DA3C"/>
<path d="M282 153V154" stroke="#00DA3C"/>
<path d="M283 153V154V153Z" fill="#00DA3C"/>
<path d="M283 153V154" stroke="#00DA3C"/>
<path d="M285 148V150V148Z" fill="#00DA3C"/>
<path d="M285 148V150" stroke="#00DA3C"/>
<path d="M286 148V150V148Z" fill="#EC0000"/>
<path d="M286 148V150" stroke="#EC0000"/>
<path d="M287 142V148V142Z" fill="#EC0000"/>
<path d="M287 142V148" stroke="#EC0000"/>
<path d="M287 143V145V143Z" fill="#EC0000"/>
<path d="M287 143V145" stroke="#EC0000"/>
<path d="M289 143V145V143Z" fill="#00DA3C"/>
<path d="M289 143V145" stroke="#00DA3C"/>
<path d="M290 142V145V142Z" fill="#EC0000"/>
<path d="M290 142V145" stroke="#EC0000"/>
<path d="M291 139V142V139Z" fill="#EC0000"/>
<path d="M291 139V142" stroke="#EC0000"/>
<path d="M291 139V140V139Z" fill="#00DA3C"/>
<path d="M291 139V140" stroke="#00DA3C"/>
<path d="M293 139V140V139Z" fill="#EC0000"/>
<path d="M293 139V140" stroke="#EC0000"/>
<path d="M294 137V145V137Z" fill="#00DA3C"/>
<path d="M294 137V145" stroke="#00DA3C"/>
<path d="M295 140V143V140Z" fill="#EC0000"/>
<path d="M295 140V143" stroke="#EC0000"/>
<path d="M298 139V140V139Z" fill="#EC0000"/>
<path d="M298 139V140" stroke="#EC0000"/>
<path d="M299 137V139V137Z" fill="#00DA3C"/>
<path d="M299 137V139" stroke="#00DA3C"/>
<path d="M300 137V142V137Z" fill="#EC0000"/>
<path d="M300 137V142" stroke="#EC0000"/>
<path d="M300 137V140V137Z" fill="#00DA3C"/>
<path d="M300 137V140" stroke="#00DA3C"/>
<path d="M302 139V140V139Z" fill="#00DA3C"/>
<path d="M302 139V140" stroke="#00DA3C"/>
<path d="M303 139V142V139Z" fill="#EC0000"/>
<path d="M303 139V142" stroke="#EC0000"/>
<path d="M304 140V142V140Z" fill="#00DA3C"/>
<path d="M304 140V142" stroke="#00DA3C"/>
<path d="M304 142V143V142Z" fill="#00DA3C"/>
<path d="M304 142V143" stroke="#00DA3C"/>
<path d="M306 137V142V137Z" fill="#EC0000"/>
<path d="M306 137V142" stroke="#EC0000"/>
<path d="M307 133V137V133Z" fill="#EC0000"/>
<path d="M307 133V137" stroke="#EC0000"/>
<path d="M308 131V134V131Z" fill="#EC0000"/>
<path d="M308 131V134" stroke="#EC0000"/>
<path d="M310 128V131V128Z" fill="#EC0000"/>
<path d="M310 128V131" stroke="#EC0000"/>
<path d="M311 128V131V128Z" fill="#EC0000"/>
<path d="M311 128V131" stroke="#EC0000"/>
<path d="M311 130V131V130Z" fill="#EC0000"/>
<path d="M311 130V131" stroke="#EC0000"/>
<path d="M312 130V131V130Z" fill="#00DA3C"/>
<path d="M312 130V131" stroke="#00DA3C"/>
<path d="M315 130V133V130Z" fill="#00DA3C"/>
<path d="M315 130V133" stroke="#00DA3C"/>
<path d="M316 131V134V131Z" fill="#EC0000"/>
<path d="M316 131V134" stroke="#EC0000"/>
<path d="M317 128V131V128Z" fill="#00DA3C"/>
<path d="M317 128V131" stroke="#00DA3C"/>
<path d="M317 131V133V131Z" fill="#00DA3C"/>
<path d="M317 131V133" stroke="#00DA3C"/>
<path d="M319 131V133V131Z" fill="#EC0000"/>
<path d="M319 131V133" stroke="#EC0000"/>
<path d="M320 130V131V130Z" fill="#EC0000"/>
<path d="M320 130V131" stroke="#EC0000"/>
<path d="M321 130V131V130Z" fill="#00DA3C"/>
<path d="M321 130V131" stroke="#00DA3C"/>
<path d="M323 131V133V131Z" fill="#EC0000"/>
<path d="M323 131V133" stroke="#EC0000"/>
<path d="M324 130V131V130Z" fill="#EC0000"/>
<path d="M324 130V131" stroke="#EC0000"/>
<path d="M324 128V130V128Z" fill="#00DA3C"/>
<path d="M324 128V130" stroke="#00DA3C"/>
<path d="M325 131V139V131Z" fill="#00DA3C"/>
<path d="M325 131V139" stroke="#00DA3C"/>
<path d="M327 136V142V136Z" fill="#EC0000"/>
<path d="M327 136V142" stroke="#EC0000"/>
<path d="M328 136V139V136Z" fill="#EC0000"/>
<path d="M328 136V139" stroke="#EC0000"/>
<path d="M329 134V139V134Z" fill="#EC0000"/>
<path d="M329 134V139" stroke="#EC0000"/>
<path d="M329 131V134V131Z" fill="#EC0000"/>
<path d="M329 131V134" stroke="#EC0000"/>
<path d="M332 133V134V133Z" fill="#00DA3C"/>
<path d="M332 133V134" stroke="#00DA3C"/>
<path d="M333 134V136V134Z" fill="#EC0000"/>
<path d="M333 134V136" stroke="#EC0000"/>
<path d="M334 134V137V134Z" fill="#00DA3C"/>
<path d="M334 134V137" stroke="#00DA3C"/>
<path d="M336 136V137V136Z" fill="#EC0000"/>
<path d="M336 136V137" stroke="#EC0000"/>
<path d="M337 136V137V136Z" fill="#00DA3C"/>
<path d="M337 136V137" stroke="#00DA3C"/>
<path d="M337 137V139V137Z" fill="#00DA3C"/>
<path d="M337 137V139" stroke="#00DA3C"/>
<path d="M338 134V139V134Z" fill="#EC0000"/>
<path d="M338 134V139" stroke="#EC0000"/>
<path d="M340 134V136V134Z" fill="#00DA3C"/>
<path d="M340 134V136" stroke="#00DA3C"/>
<path d="M341 134V136V134Z" fill="#00DA3C"/>
<path d="M341 134V136" stroke="#00DA3C"/>
<path d="M341 133V134V133Z" fill="#EC0000"/>
<path d="M341 133V134" stroke="#EC0000"/>
<path d="M342 131V133V131Z" fill="#EC0000"/>
<path d="M342 131V133" stroke="#EC0000"/>
<path d="M344 130V133V130Z" fill="#EC0000"/>
<path d="M344 130V133" stroke="#EC0000"/>
<path d="M345 130V131V130Z" fill="#EC0000"/>
<path d="M345 130V131" stroke="#EC0000"/>
<path d="M346 128V130V128Z" fill="#00DA3C"/>
<path d="M346 128V130" stroke="#00DA3C"/>
<path d="M348 130V133V130Z" fill="#00DA3C"/>
<path d="M348 130V133" stroke="#00DA3C"/>
<path d="M350 130V131V130Z" fill="#EC0000"/>
<path d="M350 130V131" stroke="#EC0000"/>
<path d="M350 130V134V130Z" fill="#00DA3C"/>
<path d="M350 130V134" stroke="#00DA3C"/>
<path d="M351 133V134V133Z" fill="#EC0000"/>
<path d="M351 133V134" stroke="#EC0000"/>
<path d="M353 133V134V133Z" fill="#EC0000"/>
<path d="M353 133V134" stroke="#EC0000"/>
<path d="M354 133V134V133Z" fill="#00DA3C"/>
<path d="M354 133V134" stroke="#00DA3C"/>
<mask id="mask0_384_1777" style="mask-type:luminance" maskUnits="userSpaceOnUse" x="72" y="37" width="282" height="236">
<path d="M72 37H354V273H72V37Z" fill="white"/>
</mask>
<g mask="url(#mask0_384_1777)">
<path d="M78.9448 167.782C78.9448 167.782 79.0269 142.029 80.088 142.029C80.1701 142.029 80.657 142.511 81.2313 142.979C81.8003 143.442 81.8228 143.383 82.3745 143.889C82.966 144.432 82.8975 145.077 83.5177 145.077C84.0407 145.077 84.1061 144.995 84.6609 144.74C85.2493 144.469 85.2431 144.026 85.8042 144.026C86.3863 144.026 86.354 144.555 86.9474 144.911C87.4973 145.242 87.535 145.399 88.0907 145.399C88.6782 145.399 88.6358 144.665 89.2339 144.606C89.779 144.552 89.8071 144.552 90.3771 144.552C90.9503 144.552 91.0715 144.746 91.5203 144.746C92.2147 144.746 92.0369 143.614 92.6636 142.655C93.1801 141.863 93.1651 141.244 93.8068 141.244C94.3083 141.244 94.3951 141.244 94.95 141.384C95.5383 141.533 95.552 141.607 96.0932 142.02C96.6952 142.479 96.7354 142.447 97.2364 143.128C97.8786 144 97.7414 144.244 98.3797 145.126C98.8846 145.823 98.9419 145.729 99.5229 146.286C100.085 146.825 100.091 146.811 100.666 147.318C101.234 147.82 101.243 147.798 101.809 148.304C102.386 148.818 102.34 149.058 102.953 149.358C103.483 149.618 103.532 149.432 104.096 149.618C104.675 149.81 104.657 149.981 105.239 150.114C105.8 150.243 105.814 150.243 106.382 150.243C106.957 150.243 106.99 150.243 107.525 149.954C108.134 149.625 108.097 149.452 108.669 148.951C109.24 148.451 109.229 148.419 109.812 147.954C110.372 147.507 110.369 147.483 110.955 147.128C111.512 146.791 111.552 146.938 112.098 146.571C112.695 146.17 112.66 146.052 113.242 145.591C113.804 145.145 113.817 145.186 114.385 144.757C114.96 144.322 114.924 144.005 115.528 143.864C116.067 143.737 116.106 143.864 116.671 143.737C117.249 143.608 117.243 143.34 117.815 143.34C118.386 143.34 118.392 143.5 118.958 143.731C119.535 143.966 119.52 144.067 120.101 144.273C120.663 144.471 120.671 144.538 121.244 144.538C121.814 144.538 121.815 144.425 122.387 144.358C122.958 144.29 122.985 144.358 123.531 144.268C124.128 144.171 124.118 143.921 124.674 143.478C125.262 143.009 125.254 142.983 125.817 142.445C126.397 141.891 126.432 141.953 126.96 141.294C127.575 140.527 127.576 140.505 128.103 139.595C128.719 138.533 128.641 138.428 129.247 137.35C129.785 136.392 129.826 136.447 130.39 135.524C130.969 134.576 130.958 134.56 131.533 133.608C132.101 132.668 132.073 132.622 132.676 131.739C133.216 130.949 133.19 130.848 133.82 130.261C134.333 129.782 134.399 129.961 134.963 129.607C135.542 129.243 135.523 129.171 136.106 128.825C136.666 128.491 136.688 128.578 137.249 128.246C137.832 127.902 137.804 127.785 138.393 127.471C138.948 127.176 139.008 127.401 139.536 127.029C140.151 126.594 140.104 126.434 140.679 125.856C141.247 125.285 141.268 125.331 141.822 124.73C142.411 124.091 142.395 124.055 142.965 123.375C143.538 122.692 143.583 122.765 144.109 122.005C144.726 121.112 144.618 120.926 145.252 120.069C145.761 119.381 145.861 119.566 146.395 118.915C147.005 118.172 146.998 118.144 147.538 117.281C148.141 116.317 148.057 116.185 148.682 115.26C149.2 114.492 149.207 114.453 149.825 113.895C150.35 113.42 150.482 113.738 150.968 113.194C151.626 112.458 151.55 112.278 152.111 111.334C152.693 110.357 152.59 110.145 153.254 109.351C153.733 108.78 153.86 109.071 154.398 108.604C155.003 108.077 155.066 108.133 155.541 107.365C156.209 106.282 156.053 106.055 156.684 104.901C157.197 103.962 157.189 103.893 157.827 103.179C158.332 102.614 158.521 102.987 158.971 102.345C159.664 101.353 159.462 101.013 160.114 99.9121C160.606 99.0811 160.629 99.0422 161.257 98.4809C161.772 98.0203 161.814 98.0799 162.4 97.8685C162.958 97.6673 162.99 97.8685 163.544 97.6556C164.133 97.4291 164.197 96.9755 164.687 96.9755C165.34 96.9755 165.27 97.855 165.83 98.7681C166.413 99.7192 166.472 99.6544 166.973 100.704C167.616 102.051 167.467 102.224 168.116 103.56C168.61 104.576 168.633 104.586 169.26 105.408C169.776 106.085 169.807 106.559 170.403 106.559C170.95 106.559 170.998 106.224 171.546 105.756C172.141 105.248 172.192 105.311 172.689 104.608C173.335 103.694 173.163 103.368 173.833 102.522C174.306 101.922 174.384 101.716 174.976 101.716C175.527 101.716 175.541 102.109 176.119 102.109C176.684 102.109 176.703 102.109 177.262 101.981C177.847 101.847 177.874 101.832 178.405 101.428C179.017 100.963 179.098 101.016 179.549 100.243C180.241 99.0567 180.213 98.9511 180.692 97.5085C181.356 95.5051 181.246 95.4183 181.835 93.3515C182.389 91.4063 182.408 91.4186 182.978 89.4843C183.551 87.5433 183.33 87.192 184.122 85.6009C184.473 84.8942 184.677 84.8888 185.265 84.8888C185.82 84.8888 185.831 85.2482 186.408 85.2482C186.974 85.2482 186.979 85.1311 187.551 85.1311C188.122 85.1311 188.126 85.1311 188.694 85.134C189.269 85.137 189.422 85.3827 189.838 85.3827C190.566 85.3827 190.457 84.1466 190.981 82.8208C191.6 81.2534 191.491 81.1481 192.124 79.5963C192.634 78.3477 192.633 78.3211 193.267 77.2201C193.776 76.3374 193.835 76.4169 194.411 75.6289C194.978 74.8528 194.969 74.8354 195.554 74.092C196.112 73.383 196.107 73.3674 196.697 72.7242C197.25 72.122 197.233 71.6013 197.84 71.6013C198.376 71.6013 198.499 71.6512 198.983 72.1414C199.642 72.8074 199.501 73.1321 200.127 73.9137C200.644 74.5597 200.819 74.2634 201.27 74.9965C201.962 76.1226 202.004 76.194 202.413 77.6321C203.147 80.2083 202.899 80.3798 203.556 83.0251C204.043 84.9829 203.965 85.1173 204.7 86.8385C205.109 87.7973 205.412 87.4441 205.843 88.3849C206.556 89.9423 206.485 90.062 206.986 91.8349C207.628 94.1092 207.479 94.2111 208.129 96.4792C208.622 98.2003 208.629 98.2156 209.273 99.8132C209.773 101.055 210.008 100.852 210.416 102.159C211.151 104.519 210.979 104.658 211.559 107.148C212.122 109.563 212.083 109.588 212.702 111.969C213.226 113.981 213.15 114.068 213.845 115.935C214.293 117.137 214.56 116.892 214.989 118.107C215.703 120.134 215.559 120.264 216.132 122.419C216.702 124.562 216.519 124.759 217.275 126.703C217.662 127.699 217.839 128.298 218.418 128.298C218.982 128.298 218.992 127.554 219.562 126.802C220.135 126.043 220.135 126.043 220.705 125.277C221.278 124.507 221.34 124.594 221.848 123.73C222.483 122.65 222.308 122.356 222.991 121.39C223.451 120.74 223.547 120.887 224.134 120.498C224.69 120.129 224.69 120.054 225.278 119.874C225.834 119.704 225.871 119.874 226.421 119.704C227.014 119.52 227.066 119.509 227.564 118.973C228.209 118.28 228.186 118.177 228.707 117.246C229.329 116.135 229.166 115.862 229.851 114.889C230.309 114.238 230.515 113.999 230.994 113.999C231.658 113.999 231.619 114.984 232.137 116.088C232.762 117.419 232.637 117.564 233.28 118.868C233.78 119.882 233.958 119.679 234.423 120.725C235.101 122.247 234.989 122.369 235.567 124.003C236.132 125.603 235.963 125.888 236.71 127.194C237.106 127.886 237.277 127.999 237.853 127.999C238.42 127.999 238.425 127.266 238.996 127.266C239.568 127.266 239.55 127.727 240.14 128.007C240.693 128.271 240.723 128.354 241.283 128.354C241.866 128.354 241.985 128.307 242.426 127.723C243.128 126.794 242.914 126.4 243.569 125.329C244.057 124.531 244.154 124.681 244.712 123.985C245.297 123.258 245.348 123.326 245.856 122.482C246.491 121.426 246.382 121.273 246.999 120.185C247.525 119.258 247.485 119.097 248.142 118.452C248.629 117.974 248.773 117.94 249.285 117.94C249.916 117.94 249.808 118.771 250.429 119.349C250.952 119.837 251.117 119.476 251.572 120.072C252.26 120.975 252.237 121.121 252.715 122.348C253.38 124.052 253.419 124.063 253.858 125.934C254.562 128.929 254.43 129.006 255.002 132.078C255.573 135.148 255.6 135.136 256.145 138.217C256.743 141.603 256.614 141.665 257.288 145.012C257.757 147.338 257.703 147.427 258.431 149.564C258.846 150.782 258.873 151.674 259.574 151.723C260.017 151.753 260.23 151.753 260.718 151.753C261.374 151.753 261.309 150.994 261.861 150.173C262.452 149.291 262.329 148.347 263.004 148.347C263.472 148.347 263.586 148.347 264.147 148.372C264.729 148.398 264.712 148.857 265.291 148.857C265.855 148.857 265.861 148.701 266.434 148.566C267.004 148.433 267.007 148.461 267.577 148.321C268.15 148.181 268.147 148.154 268.72 148.007C269.291 147.862 269.351 147.738 269.863 147.738C270.494 147.738 270.395 148.496 271.007 149.033C271.538 149.5 271.588 149.355 272.15 149.745C272.732 150.149 272.717 150.199 273.293 150.622C273.86 151.038 273.842 151.424 274.436 151.424C274.986 151.424 275.074 151.424 275.58 151.097C276.218 150.683 276.084 149.682 276.723 149.682C277.227 149.682 277.3 149.967 277.866 149.967C278.443 149.967 278.429 149.523 279.009 149.523C279.572 149.523 279.589 149.523 280.152 149.567C280.733 149.612 280.767 149.636 281.296 150.004C281.91 150.433 281.827 150.718 282.439 151.16C282.97 151.544 283 151.655 283.582 151.655C284.143 151.655 284.176 151.655 284.725 151.65C285.319 151.644 285.351 151.431 285.869 150.938C286.494 150.343 286.484 150.274 287.012 149.473C287.627 148.541 287.555 148.43 288.155 147.473C288.698 146.609 288.717 146.636 289.298 145.83C289.86 145.051 289.878 145.081 290.441 144.304C291.022 143.502 290.95 143.341 291.585 142.672C292.093 142.136 292.173 142.335 292.728 141.895C293.317 141.429 293.266 141.255 293.871 140.86C294.409 140.509 294.436 140.58 295.014 140.403C295.579 140.231 295.585 140.265 296.158 140.163C296.728 140.062 296.733 140.122 297.301 139.998C297.876 139.872 297.868 139.734 298.444 139.662C299.011 139.591 299.024 139.662 299.587 139.591C300.167 139.518 300.152 139.309 300.731 139.164C301.295 139.022 301.304 139.018 301.874 139.018C302.447 139.018 302.471 139.018 303.017 139.252C303.614 139.508 303.595 139.641 304.16 140.071C304.738 140.512 304.716 140.993 305.303 140.993C305.859 140.993 305.901 140.743 306.447 140.331C307.044 139.881 307.062 139.89 307.59 139.269C308.205 138.546 308.233 138.551 308.733 137.643C309.376 136.477 309.306 136.383 309.876 135.121C310.449 133.853 310.365 133.737 311.02 132.583C311.508 131.721 311.544 131.726 312.163 131.088C312.687 130.547 312.704 130.225 313.306 130.225C313.847 130.225 313.882 130.225 314.449 130.298C315.025 130.371 315.02 130.462 315.592 130.61C316.163 130.758 316.178 130.666 316.736 130.89C317.322 131.126 317.29 131.399 317.879 131.531C318.433 131.655 318.457 131.655 319.022 131.655C319.6 131.655 319.587 131.293 320.165 131.266C320.73 131.24 320.737 131.266 321.309 131.24C321.881 131.214 321.897 131.24 322.452 131.151C323.04 131.057 323.007 130.682 323.595 130.528C324.151 130.383 324.245 130.383 324.738 130.383C325.389 130.383 325.292 131.18 325.881 131.906C326.435 132.587 326.45 132.559 327.025 133.198C327.593 133.831 327.569 133.895 328.168 134.451C328.712 134.956 328.715 134.991 329.311 135.321C329.858 135.625 329.896 135.719 330.454 135.719C331.04 135.719 331.027 135.376 331.598 135.024C332.17 134.67 332.148 134.423 332.741 134.306C333.291 134.198 333.323 134.198 333.884 134.198C334.467 134.198 334.485 134.344 335.027 134.704C335.629 135.103 335.579 135.272 336.171 135.717C336.723 136.133 336.721 136.289 337.314 136.426C337.864 136.554 337.889 136.554 338.457 136.554C339.032 136.554 339.029 136.402 339.6 136.238C340.173 136.073 340.205 136.206 340.743 135.895C341.348 135.546 341.326 135.436 341.887 134.919C342.469 134.382 342.446 134.32 343.03 133.787C343.589 133.277 343.612 133.338 344.173 132.832C344.756 132.307 344.733 132.247 345.316 131.724C345.876 131.223 345.855 131.07 346.459 130.784C346.998 130.529 347.035 130.688 347.603 130.529C348.178 130.369 348.198 130.146 348.746 130.146C349.341 130.146 349.308 130.606 349.889 130.998C350.451 131.377 350.451 131.386 351.032 131.688C351.594 131.979 351.608 131.917 352.176 132.183C352.751 132.452 353.319 132.758 353.319 132.758" stroke="#4992FF" stroke-linejoin="bevel"/>
</g>
<mask id="mask1_384_1777" style="mask-type:luminance" maskUnits="userSpaceOnUse" x="72" y="37" width="282" height="236">
<path d="M72 37H354V273H72V37Z" fill="white"/>
</mask>
<g mask="url(#mask1_384_1777)">
<path d="M96.0932 149.773C96.0932 149.773 96.3409 143.482 97.2364 143.482C97.4841 143.482 97.8033 143.735 98.3796 143.917C98.9465 144.097 98.9544 144.036 99.5229 144.205C100.098 144.375 100.092 144.421 100.666 144.596C101.235 144.77 101.241 144.725 101.809 144.904C102.384 145.084 102.376 145.145 102.953 145.314C103.52 145.481 103.523 145.465 104.096 145.577C104.666 145.689 104.667 145.683 105.239 145.761C105.81 145.838 105.815 145.777 106.382 145.888C106.958 146 106.954 146.043 107.525 146.207C108.098 146.372 108.094 146.546 108.669 146.546C109.237 146.546 109.239 146.426 109.812 146.338C110.382 146.25 110.384 146.193 110.955 146.193C111.527 146.193 111.525 146.31 112.098 146.379C112.669 146.447 112.67 146.425 113.242 146.467C113.813 146.509 113.813 146.505 114.385 146.548C114.956 146.592 114.957 146.573 115.528 146.64C116.101 146.707 116.098 146.765 116.671 146.816C117.242 146.868 117.243 146.848 117.814 146.868C118.386 146.887 118.386 146.895 118.958 146.895C119.529 146.895 119.534 146.895 120.101 146.834C120.678 146.773 120.668 146.619 121.244 146.493C121.812 146.369 121.817 146.431 122.387 146.334C122.96 146.237 122.964 146.265 123.531 146.105C124.108 145.942 124.109 145.935 124.674 145.688C125.252 145.436 125.251 145.422 125.817 145.106C126.395 144.784 126.389 144.762 126.96 144.412C127.533 144.061 127.539 144.082 128.103 143.704C128.682 143.317 128.674 143.289 129.247 142.882C129.817 142.477 129.819 142.483 130.39 142.081C130.962 141.678 130.968 141.696 131.533 141.271C132.111 140.835 132.102 140.806 132.676 140.359C133.245 139.915 133.246 139.918 133.82 139.488C134.39 139.059 134.385 139.045 134.963 138.641C135.529 138.246 135.534 138.264 136.106 137.889C136.677 137.515 136.686 137.544 137.249 137.143C137.829 136.73 137.825 136.715 138.393 136.26C138.969 135.799 138.97 135.802 139.536 135.31C140.114 134.807 140.114 134.807 140.679 134.27C141.257 133.721 141.257 133.72 141.822 133.139C142.401 132.544 142.399 132.541 142.965 131.919C143.543 131.285 143.545 131.288 144.109 130.627C144.688 129.948 144.674 129.92 145.252 129.238C145.817 128.572 145.826 128.591 146.395 127.932C146.97 127.266 146.977 127.28 147.538 126.59C148.12 125.875 148.1 125.837 148.682 125.122C149.243 124.431 149.237 124.415 149.825 123.777C150.381 123.174 150.402 123.22 150.968 122.638C151.545 122.045 151.553 122.061 152.111 121.428C152.696 120.765 152.667 120.704 153.254 120.046C153.81 119.425 153.827 119.461 154.398 118.871C154.97 118.279 154.985 118.31 155.541 117.684C156.128 117.023 156.12 117.005 156.684 116.298C157.263 115.573 157.249 115.547 157.827 114.821C158.392 114.111 158.419 114.159 158.971 113.426C159.562 112.642 159.519 112.565 160.114 111.788C160.662 111.07 160.692 111.124 161.257 110.436C161.835 109.734 161.814 109.692 162.4 109.008C162.957 108.359 162.975 108.397 163.543 107.771C164.119 107.137 164.084 107.051 164.687 106.488C165.227 105.983 165.24 105.991 165.83 105.636C166.384 105.302 166.392 105.303 166.973 105.111C167.535 104.925 167.553 105.057 168.116 104.881C168.696 104.699 168.693 104.66 169.26 104.394C169.836 104.124 169.829 104.092 170.403 103.808C170.973 103.525 170.971 103.516 171.546 103.26C172.114 103.007 172.122 103.049 172.689 102.789C173.266 102.525 173.249 102.417 173.833 102.213C174.392 102.017 174.402 101.99 174.976 101.99C175.545 101.99 175.554 101.997 176.119 101.997C176.698 101.997 176.688 101.778 177.262 101.604C177.831 101.432 177.833 101.444 178.405 101.305C178.976 101.166 178.984 101.229 179.549 101.048C180.127 100.863 180.139 100.887 180.692 100.572C181.282 100.237 181.259 100.145 181.835 99.7487C182.402 99.358 182.417 99.4058 182.978 98.9972C183.56 98.5739 183.519 98.3983 184.122 98.0849C184.663 97.8034 184.695 97.9568 185.265 97.8034C185.838 97.6494 185.851 97.7174 186.408 97.4702C186.995 97.2095 187.014 97.2295 187.551 96.7876C188.157 96.2887 188.133 96.2103 188.694 95.5886C189.277 94.9439 189.29 94.9657 189.838 94.2547C190.434 93.4807 190.406 93.432 190.981 92.6186C191.55 91.8132 191.55 91.8128 192.124 91.0172C192.693 90.2299 192.682 90.2103 193.267 89.4528C193.825 88.7302 193.842 88.7602 194.411 88.0569C194.985 87.3467 194.984 87.3452 195.554 86.6258C196.127 85.9013 196.144 85.9287 196.697 85.1692C197.287 84.36 197.256 84.308 197.84 83.4885C198.399 82.7039 198.366 82.6221 198.983 81.9609C199.509 81.3979 199.562 81.5199 200.127 81.0401C200.705 80.5484 200.668 80.4192 201.27 80.0179C201.811 79.6574 201.836 79.5164 202.413 79.5164C202.979 79.5164 202.989 79.665 203.556 79.8676C204.132 80.0732 204.127 80.1078 204.7 80.3327C205.27 80.5566 205.29 80.4648 205.843 80.7652C206.434 81.0866 206.416 81.1654 206.986 81.5764C207.559 81.9898 207.575 81.9458 208.129 82.414C208.719 82.9121 208.7 82.964 209.273 83.5089C209.843 84.0518 209.891 83.9563 210.416 84.5897C211.034 85.3362 211.01 85.396 211.559 86.2688C212.153 87.2126 212.171 87.1959 212.702 88.223C213.315 89.4078 213.272 89.4599 213.845 90.6925C214.415 91.9167 214.44 91.8903 214.989 93.1366C215.584 94.4888 215.588 94.4872 216.132 95.8895C216.732 97.4376 216.674 97.4904 217.275 99.0373C217.817 100.433 217.824 100.429 218.418 101.774C218.967 103.017 218.983 103.001 219.562 104.212C220.126 105.392 220.124 105.394 220.705 106.555C221.268 107.681 221.268 107.682 221.848 108.787C222.411 109.857 222.429 109.834 222.991 110.906C223.573 112.016 223.513 112.099 224.134 113.15C224.656 114.032 224.655 114.071 225.278 114.772C225.798 115.358 225.859 115.222 226.421 115.725C227.003 116.246 227.008 116.238 227.564 116.82C228.151 117.436 228.1 117.565 228.707 118.122C229.243 118.612 229.255 118.653 229.851 118.913C230.398 119.152 230.438 118.938 230.994 119.152C231.581 119.378 231.603 119.363 232.137 119.794C232.746 120.285 232.665 120.535 233.28 120.998C233.809 121.396 233.847 121.283 234.423 121.516C234.991 121.745 234.988 121.875 235.567 121.922C236.131 121.967 236.142 121.922 236.71 121.967C237.286 122.013 237.278 122.267 237.853 122.267C238.421 122.267 238.431 122.267 238.996 122.209C239.574 122.15 239.562 121.842 240.14 121.842C240.705 121.842 240.714 121.847 241.283 121.936C241.857 122.025 241.852 122.114 242.426 122.198C242.995 122.28 242.997 122.28 243.569 122.28C244.141 122.28 244.142 122.28 244.712 122.273C245.285 122.266 245.286 122.219 245.856 122.115C246.429 122.011 246.424 121.873 246.999 121.858C247.568 121.842 247.571 121.845 248.142 121.842C248.714 121.839 248.726 121.839 249.285 121.839C249.869 121.839 249.854 122.12 250.429 122.367C250.997 122.611 251.024 122.497 251.572 122.822C252.168 123.175 252.158 123.234 252.715 123.722C253.301 124.236 253.28 124.291 253.858 124.826C254.423 125.348 254.457 125.27 255.002 125.836C255.6 126.459 255.599 126.475 256.145 127.204C256.742 128.003 256.679 128.119 257.288 128.893C257.822 129.573 257.833 129.573 258.431 130.113C258.976 130.605 259.001 130.541 259.574 130.958C260.144 131.372 260.17 131.302 260.718 131.775C261.313 132.288 261.281 132.373 261.861 132.931C262.424 133.474 262.439 133.438 263.004 133.978C263.582 134.531 263.575 134.55 264.147 135.117C264.718 135.682 264.736 135.643 265.291 136.241C265.879 136.876 265.869 136.899 266.434 137.584C267.012 138.286 266.999 138.313 267.577 139.015C268.142 139.701 268.173 139.644 268.72 140.36C269.316 141.139 269.311 141.153 269.863 142.005C270.454 142.917 270.416 142.975 271.007 143.887C271.559 144.74 271.55 144.763 272.15 145.536C272.693 146.236 272.727 146.174 273.293 146.833C273.87 147.505 273.837 147.579 274.436 148.197C274.98 148.759 274.985 148.77 275.58 149.193C276.129 149.583 276.135 149.629 276.723 149.824C277.279 150.008 277.298 150.008 277.866 150.008C278.442 150.008 278.437 149.828 279.009 149.66C279.58 149.492 279.576 149.371 280.152 149.336C280.719 149.303 280.731 149.303 281.296 149.303C281.874 149.303 281.865 149.512 282.439 149.683C283.008 149.853 283.006 149.937 283.582 149.983C284.15 150.029 284.154 150.029 284.725 150.029C285.297 150.029 285.304 150.029 285.869 149.984C286.448 149.938 286.435 149.741 287.012 149.578C287.579 149.418 287.581 149.376 288.155 149.337C288.724 149.299 288.73 149.337 289.298 149.299C289.873 149.261 289.873 149.186 290.441 149.025C291.016 148.861 291.019 148.875 291.585 148.65C292.163 148.421 292.172 148.447 292.728 148.117C293.315 147.769 293.276 147.594 293.871 147.294C294.419 147.017 294.451 147.182 295.014 146.964C295.595 146.739 295.589 146.701 296.158 146.41C296.732 146.116 296.725 146.083 297.301 145.794C297.869 145.508 297.87 145.515 298.444 145.258C299.014 145.004 299.017 145.02 299.587 144.771C300.16 144.522 300.158 144.51 300.731 144.263C301.301 144.017 301.306 144.044 301.874 143.784C302.449 143.52 302.44 143.469 303.017 143.215C303.583 142.965 303.593 143.02 304.16 142.775C304.736 142.527 304.745 142.557 305.303 142.229C305.889 141.886 305.872 141.819 306.447 141.432C307.015 141.049 307.021 141.071 307.59 140.688C308.165 140.301 308.156 140.27 308.733 139.891C309.299 139.519 309.303 139.534 309.876 139.187C310.447 138.842 310.452 138.864 311.02 138.507C311.596 138.144 311.581 138.087 312.163 137.747C312.725 137.418 312.726 137.41 313.306 137.169C313.869 136.935 313.88 136.997 314.449 136.798C315.023 136.596 315.018 136.563 315.592 136.366C316.161 136.171 316.169 136.222 316.736 136.014C317.312 135.803 317.307 135.772 317.879 135.529C318.451 135.286 318.448 135.271 319.022 135.042C319.591 134.814 319.591 134.811 320.165 134.615C320.734 134.42 320.737 134.438 321.309 134.26C321.88 134.083 321.887 134.124 322.452 133.904C323.03 133.679 323.021 133.626 323.595 133.37C324.165 133.115 324.157 132.992 324.738 132.883C325.3 132.778 325.312 132.863 325.881 132.778C326.455 132.692 326.454 132.669 327.025 132.542C327.597 132.415 327.594 132.375 328.168 132.269C328.737 132.163 328.739 132.186 329.311 132.117C329.882 132.049 329.883 131.996 330.454 131.996C331.026 131.996 331.027 132.038 331.598 132.123C332.171 132.209 332.172 132.202 332.741 132.339C333.315 132.477 333.313 132.502 333.884 132.673C334.456 132.843 334.456 132.847 335.027 133.021C335.599 133.195 335.597 133.21 336.171 133.369C336.74 133.527 336.74 133.541 337.314 133.655C337.883 133.769 337.886 133.736 338.457 133.824C339.029 133.913 339.027 133.937 339.6 134.01C340.171 134.081 340.172 134.068 340.743 134.112C341.315 134.156 341.315 134.141 341.887 134.185C342.458 134.228 342.458 134.286 343.03 134.286C343.601 134.286 343.601 134.256 344.173 134.223C344.745 134.189 344.744 134.153 345.316 134.153C345.888 134.153 345.888 134.159 346.459 134.176C347.031 134.193 347.037 134.221 347.603 134.221C348.181 134.221 348.169 133.984 348.746 133.846C349.313 133.71 349.318 133.768 349.889 133.672C350.461 133.576 350.459 133.532 351.032 133.462C351.602 133.392 351.604 133.391 352.176 133.391C352.747 133.391 353.319 133.481 353.319 133.481" stroke="#FDDD60" stroke-linejoin="bevel"/>
</g>
<mask id="mask2_384_1777" style="mask-type:luminance" maskUnits="userSpaceOnUse" x="72" y="37" width="282" height="236">
<path d="M72 37H354V273H72V37Z" fill="white"/>
</mask>
<g mask="url(#mask2_384_1777)">
<path d="M107.526 149.559C107.526 149.559 107.845 145.373 108.669 145.373C108.988 145.373 109.24 145.464 109.812 145.54C110.383 145.616 110.384 145.596 110.955 145.677C111.528 145.759 111.525 145.867 112.098 145.867C112.668 145.867 112.67 145.867 113.242 145.86C113.813 145.854 113.814 145.86 114.385 145.828C114.957 145.795 114.956 145.724 115.528 145.688C116.099 145.652 116.1 145.679 116.671 145.652C117.243 145.624 117.243 145.577 117.815 145.577C118.386 145.577 118.387 145.619 118.958 145.692C119.53 145.765 119.531 145.869 120.101 145.869C120.674 145.869 120.671 145.724 121.244 145.626C121.814 145.528 121.815 145.478 122.387 145.478C122.958 145.478 122.959 145.521 123.531 145.521C124.102 145.521 124.102 145.521 124.674 145.513C125.246 145.505 125.246 145.513 125.817 145.485C126.389 145.458 126.39 145.469 126.96 145.399C127.533 145.328 127.536 145.34 128.104 145.203C128.679 145.064 128.677 145.041 129.247 144.848C129.821 144.654 129.823 144.666 130.39 144.43C130.966 144.191 130.972 144.209 131.533 143.899C132.115 143.577 132.1 143.513 132.676 143.168C133.243 142.829 133.248 142.85 133.82 142.532C134.391 142.214 134.395 142.231 134.963 141.896C135.539 141.557 135.54 141.559 136.106 141.184C136.683 140.801 136.684 140.802 137.249 140.38C137.827 139.948 137.814 139.906 138.393 139.477C138.957 139.058 138.968 139.093 139.536 138.685C140.111 138.271 140.107 138.258 140.679 137.832C141.251 137.406 141.251 137.408 141.822 136.98C142.395 136.551 142.401 136.569 142.965 136.117C143.544 135.655 143.538 135.637 144.109 135.152C144.681 134.666 144.679 134.658 145.252 134.175C145.822 133.694 145.824 133.701 146.395 133.223C146.967 132.744 146.974 132.76 147.538 132.261C148.117 131.75 148.109 131.728 148.682 131.201C149.252 130.676 149.255 130.684 149.825 130.157C150.398 129.626 150.406 129.642 150.968 129.084C151.549 128.508 151.552 128.513 152.111 127.888C152.695 127.236 152.676 127.197 153.254 126.531C153.82 125.881 153.828 125.897 154.398 125.256C154.971 124.612 154.982 124.633 155.541 123.961C156.125 123.259 156.114 123.237 156.684 122.508C157.257 121.776 157.248 121.758 157.827 121.04C158.391 120.342 158.411 120.379 158.971 119.676C159.554 118.943 159.529 118.897 160.114 118.167C160.672 117.472 160.68 117.485 161.257 116.826C161.823 116.179 161.818 116.165 162.4 115.554C162.961 114.965 162.975 114.997 163.544 114.424C164.118 113.845 164.095 113.785 164.687 113.251C165.238 112.753 165.247 112.768 165.83 112.361C166.39 111.969 166.393 111.972 166.973 111.653C167.537 111.344 167.553 111.414 168.116 111.104C168.696 110.783 168.696 110.776 169.26 110.391C169.84 109.995 169.836 109.981 170.403 109.54C170.98 109.092 170.964 109.044 171.546 108.612C172.108 108.196 172.121 108.239 172.689 107.843C173.264 107.442 173.251 107.394 173.833 107.019C174.394 106.657 174.401 106.682 174.976 106.368C175.545 106.057 175.554 106.096 176.119 105.77C176.697 105.436 176.686 105.389 177.262 105.047C177.829 104.71 177.837 104.744 178.405 104.413C178.981 104.078 178.99 104.109 179.549 103.715C180.134 103.302 180.127 103.277 180.692 102.8C181.271 102.311 181.264 102.293 181.835 101.782C182.408 101.269 182.408 101.27 182.978 100.751C183.552 100.228 183.527 100.154 184.122 99.6976C184.67 99.2767 184.685 99.3128 185.265 98.9972C185.828 98.6903 185.845 98.7609 186.408 98.4526C186.988 98.1349 186.992 98.1398 187.551 97.7451C188.135 97.3332 188.116 97.2718 188.694 96.8392C189.26 96.4162 189.261 96.418 189.838 96.0339C190.404 95.657 190.414 95.6921 190.981 95.3172C191.557 94.9362 191.564 94.9535 192.124 94.5221C192.707 94.0738 192.683 94 193.267 93.5577C193.826 93.1349 193.842 93.1867 194.411 92.792C194.986 92.3924 194.983 92.3846 195.554 91.9692C196.127 91.5519 196.132 91.5685 196.697 91.1266C197.276 90.6738 197.257 90.6156 197.84 90.1798C198.4 89.7617 198.412 89.8009 198.983 89.4187C199.556 89.0358 199.568 89.0735 200.127 88.6496C200.711 88.2065 200.693 88.1504 201.27 87.6846C201.836 87.2281 201.815 87.1282 202.413 86.8052C202.959 86.5105 202.984 86.6179 203.556 86.4492C204.127 86.2813 204.13 86.305 204.7 86.1319C205.273 85.9577 205.267 85.8996 205.843 85.7544C206.41 85.6115 206.415 85.5558 206.986 85.5558C207.559 85.5558 207.56 85.6546 208.129 85.7981C208.703 85.9428 208.696 86.1238 209.273 86.1321C209.839 86.1402 209.854 86.1321 210.416 86.1402C210.997 86.1488 210.998 86.3281 211.559 86.6156C212.141 86.9143 212.157 86.884 212.702 87.3127C213.3 87.7829 213.278 87.8539 213.845 88.4133C214.421 88.9802 214.438 88.9457 214.989 89.5652C215.581 90.2314 215.594 90.2192 216.132 90.9849C216.737 91.846 216.685 91.9303 217.275 92.8188C217.828 93.6523 217.798 93.7284 218.418 94.4288C218.941 95.0184 218.981 94.9399 219.562 95.3988C220.124 95.8439 220.157 95.7532 220.705 96.2367C221.3 96.7628 221.297 96.7854 221.848 97.418C222.44 98.0977 222.418 98.1432 222.991 98.8614C223.561 99.5749 223.553 99.5912 224.134 100.281C224.696 100.948 224.71 100.919 225.278 101.574C225.854 102.239 225.858 102.231 226.421 102.921C227.001 103.632 226.99 103.654 227.564 104.377C228.133 105.093 228.125 105.109 228.707 105.798C229.268 106.461 229.286 106.425 229.851 107.081C230.429 107.753 230.463 107.698 230.994 108.453C231.607 109.326 231.561 109.401 232.137 110.336C232.704 111.257 232.677 111.303 233.28 112.165C233.82 112.935 233.869 112.852 234.423 113.6C235.012 114.394 234.98 114.45 235.567 115.248C236.123 116.007 236.111 116.038 236.71 116.714C237.255 117.329 237.278 117.281 237.853 117.831C238.421 118.375 238.442 118.328 238.996 118.903C239.585 119.514 239.555 119.582 240.14 120.203C240.698 120.798 240.677 120.88 241.283 121.335C241.82 121.738 241.841 121.75 242.426 121.921C242.984 122.084 243.006 121.931 243.569 122.084C244.149 122.241 244.134 122.369 244.712 122.54C245.277 122.707 245.282 122.759 245.856 122.759C246.425 122.759 246.433 122.759 246.999 122.704C247.576 122.649 247.568 122.503 248.142 122.341C248.711 122.179 248.71 122.084 249.285 122.056C249.853 122.029 249.863 122.056 250.429 122.029C251.007 122.001 250.994 121.654 251.572 121.654C252.137 121.654 252.154 121.654 252.715 121.713C253.297 121.774 253.316 121.846 253.858 122.196C254.459 122.584 254.449 122.647 255.002 123.19C255.592 123.77 255.565 123.834 256.145 124.443C256.708 125.035 256.703 125.05 257.288 125.591C257.847 126.107 257.858 126.078 258.431 126.557C259.002 127.034 259.008 127.015 259.574 127.504C260.152 128.003 260.152 128.002 260.718 128.531C261.295 129.072 261.291 129.084 261.861 129.643C262.434 130.205 262.45 130.17 263.004 130.774C263.594 131.417 263.561 131.487 264.147 132.138C264.704 132.756 264.683 132.834 265.291 133.314C265.826 133.737 265.861 133.634 266.434 133.944C267.004 134.253 267.014 134.213 267.577 134.552C268.158 134.902 268.149 134.936 268.72 135.321C269.292 135.707 269.297 135.689 269.863 136.093C270.441 136.506 270.421 136.576 271.007 136.954C271.564 137.313 271.594 137.206 272.15 137.569C272.737 137.951 272.715 138.026 273.293 138.445C273.859 138.854 273.858 138.86 274.436 139.224C275.001 139.58 275.012 139.539 275.58 139.884C276.155 140.234 276.173 140.183 276.723 140.614C277.316 141.079 277.292 141.151 277.866 141.675C278.435 142.195 278.438 142.186 279.009 142.701C279.582 143.218 279.587 143.205 280.152 143.738C280.73 144.282 280.731 144.279 281.296 144.854C281.875 145.443 281.869 145.456 282.439 146.065C283.012 146.677 282.98 146.762 283.582 147.294C284.123 147.772 284.154 147.688 284.725 148.084C285.297 148.482 285.281 148.551 285.869 148.883C286.424 149.196 286.433 149.179 287.012 149.375C287.576 149.565 287.58 149.655 288.155 149.655C288.723 149.655 288.737 149.655 289.298 149.586C289.88 149.515 289.875 149.37 290.441 149.099C291.019 148.823 291.004 148.747 291.585 148.493C292.147 148.246 292.152 148.26 292.728 148.097C293.295 147.936 293.298 147.945 293.871 147.844C294.441 147.744 294.445 147.798 295.014 147.695C295.588 147.591 295.588 147.579 296.158 147.431C296.731 147.282 296.734 147.296 297.301 147.101C297.877 146.903 297.869 146.846 298.444 146.645C299.012 146.446 299.012 146.43 299.587 146.3C300.155 146.172 300.16 146.232 300.731 146.127C301.304 146.022 301.302 146.001 301.874 145.88C302.445 145.759 302.446 145.77 303.017 145.642C303.589 145.513 303.593 145.536 304.16 145.367C304.736 145.195 304.732 145.162 305.303 144.96C305.875 144.758 305.882 144.799 306.447 144.558C307.025 144.312 307.022 144.289 307.59 143.988C308.165 143.683 308.161 143.666 308.733 143.345C309.305 143.024 309.302 143.014 309.876 142.704C310.446 142.397 310.453 142.43 311.02 142.11C311.597 141.784 311.588 141.748 312.163 141.412C312.731 141.079 312.734 141.091 313.306 140.772C313.878 140.452 313.879 140.458 314.449 140.133C315.022 139.808 315.025 139.82 315.593 139.472C316.169 139.119 316.16 139.088 316.736 138.732C317.304 138.381 317.304 138.383 317.879 138.058C318.448 137.736 318.449 137.741 319.022 137.439C319.592 137.139 319.587 137.109 320.165 136.855C320.73 136.606 320.737 136.644 321.309 136.433C321.88 136.222 321.883 136.241 322.452 136.011C323.027 135.779 323.019 135.733 323.595 135.508C324.162 135.286 324.16 135.179 324.738 135.119C325.303 135.06 325.31 135.094 325.881 135.06C326.453 135.027 326.453 135.013 327.025 134.984C327.596 134.954 327.6 134.984 328.168 134.943C328.743 134.902 328.74 134.802 329.311 134.661C329.883 134.519 329.88 134.486 330.454 134.378C331.023 134.272 331.026 134.303 331.598 134.231C332.169 134.16 332.168 134.138 332.741 134.091C333.312 134.044 333.313 134.088 333.884 134.044C334.456 134.001 334.455 133.971 335.027 133.917C335.598 133.863 335.599 133.868 336.171 133.828C336.742 133.789 336.745 133.828 337.314 133.76C337.888 133.692 337.885 133.632 338.457 133.505C339.029 133.378 339.026 133.326 339.6 133.252C340.169 133.178 340.172 133.215 340.743 133.178C341.315 133.141 341.315 133.103 341.887 133.103C342.458 133.103 342.458 133.113 343.03 133.118C343.601 133.123 343.601 133.123 344.173 133.123C344.745 133.123 344.745 133.109 345.316 133.109C345.888 133.109 345.888 133.116 346.459 133.127C347.031 133.139 347.031 133.154 347.603 133.154C348.175 133.154 348.175 133.092 348.746 133.092C349.318 133.092 349.317 133.151 349.889 133.188C350.461 133.225 350.461 133.242 351.032 133.242C351.604 133.242 351.605 133.236 352.176 133.236C352.748 133.236 353.319 133.338 353.319 133.338" stroke="#FF6E76" stroke-linejoin="bevel"/>
</g>
<path d="M202.609 9.62854H217.523H202.609Z" fill="black"/>
<path d="M202.609 9.62854H217.523" stroke="#4992FF" stroke-width="2" stroke-miterlimit="10"/>
<path d="M213.407 9.62853C213.407 10.4489 213.055 11.2357 212.428 11.8158C211.802 12.3959 210.952 12.7217 210.066 12.7217C209.18 12.7217 208.33 12.3958 207.704 11.8157C207.077 11.2355 206.725 10.4488 206.725 9.62837C206.725 8.80798 207.077 8.02119 207.704 7.44108C208.33 6.86097 209.18 6.53506 210.066 6.53503C210.952 6.53501 211.802 6.86088 212.428 7.44096C213.055 8.02104 213.407 8.80814 213.407 9.62853Z" fill="#4992FF"/>
<path d="M221.563 6.27273H222.824L225.79 13.517H225.893L228.858 6.27273H230.12V15H229.131V8.36932H229.046L226.319 15H225.364L222.637 8.36932H222.552V15H221.563V6.27273ZM221.921 30H220.813L224.018 21.2727H225.108L228.313 30H227.205L224.597 22.6534H224.529L221.921 30ZM222.33 26.5909H226.796V27.5284H222.33V26.5909ZM232.246 30.1193C231.746 30.1193 231.296 30.0199 230.895 29.821C230.495 29.6222 230.174 29.3494 229.932 29.0028C229.691 28.6562 229.559 28.2614 229.536 27.8182H230.559C230.599 28.2131 230.778 28.5398 231.096 28.7983C231.417 29.054 231.8 29.1818 232.246 29.1818C232.604 29.1818 232.922 29.098 233.201 28.9304C233.482 28.7628 233.702 28.5327 233.861 28.2401C234.023 27.9446 234.104 27.6108 234.104 27.2386C234.104 26.858 234.02 26.5185 233.853 26.2202C233.688 25.919 233.461 25.6818 233.171 25.5085C232.881 25.3352 232.55 25.2472 232.178 25.2443C231.911 25.2415 231.637 25.2827 231.356 25.3679C231.074 25.4503 230.843 25.5568 230.661 25.6875L229.672 25.5682L230.201 21.2727H234.735V22.2102H231.087L230.78 24.7841H230.832C231.01 24.642 231.235 24.5241 231.505 24.4304C231.775 24.3366 232.056 24.2898 232.349 24.2898C232.883 24.2898 233.358 24.4176 233.776 24.6733C234.197 24.9261 234.526 25.2727 234.765 25.7131C235.006 26.1534 235.127 26.6562 235.127 27.2216C235.127 27.7784 235.002 28.2756 234.752 28.7131C234.505 29.1477 234.164 29.4915 233.729 29.7443C233.295 29.9943 232.8 30.1193 232.246 30.1193Z" fill="#B9B8CE"/>
<path d="M243.298 9.62854H258.213H243.298Z" fill="black"/>
<path d="M243.298 9.62854H258.213" stroke="#7CFFB2" stroke-width="2" stroke-miterlimit="10"/>
<path d="M254.096 9.62853C254.096 10.4489 253.744 11.2357 253.118 11.8158C252.491 12.3959 251.641 12.7217 250.755 12.7217C249.869 12.7217 249.02 12.3958 248.393 11.8157C247.767 11.2355 247.415 10.4488 247.415 9.62837C247.415 8.80798 247.767 8.02119 248.393 7.44108C249.02 6.86097 249.869 6.53506 250.755 6.53503C251.641 6.53501 252.491 6.86088 253.118 7.44096C253.744 8.02104 254.096 8.80814 254.096 9.62853Z" fill="#7CFFB2"/>
<path d="M262.252 6.27273H263.514L266.48 13.517H266.582L269.548 6.27273H270.809V15H269.821V8.36932H269.735L267.008 15H266.054L263.326 8.36932H263.241V15H262.252V6.27273ZM273.286 15H272.178L275.383 6.27273H276.474L279.678 15H278.57L275.962 7.65341H275.894L273.286 15ZM273.695 11.5909H278.161V12.5284H273.695V11.5909ZM265.167 21.2727V30H264.11V22.3807H264.059L261.929 23.7955V22.7216L264.11 21.2727H265.167ZM270.524 30.1193C269.882 30.1193 269.335 29.9446 268.883 29.5952C268.431 29.2429 268.086 28.733 267.848 28.0653C267.609 27.3949 267.49 26.5852 267.49 25.6364C267.49 24.6932 267.609 23.8878 267.848 23.2202C268.089 22.5497 268.436 22.0384 268.887 21.6861C269.342 21.331 269.887 21.1534 270.524 21.1534C271.16 21.1534 271.704 21.331 272.156 21.6861C272.61 22.0384 272.957 22.5497 273.196 23.2202C273.437 23.8878 273.558 24.6932 273.558 25.6364C273.558 26.5852 273.438 27.3949 273.2 28.0653C272.961 28.733 272.616 29.2429 272.164 29.5952C271.713 29.9446 271.166 30.1193 270.524 30.1193ZM270.524 29.1818C271.16 29.1818 271.654 28.875 272.007 28.2614C272.359 27.6477 272.535 26.7727 272.535 25.6364C272.535 24.8807 272.454 24.2372 272.292 23.706C272.133 23.1747 271.903 22.7699 271.602 22.4915C271.304 22.2131 270.944 22.0739 270.524 22.0739C269.893 22.0739 269.4 22.3849 269.045 23.0071C268.69 23.6264 268.512 24.5028 268.512 25.6364C268.512 26.392 268.592 27.0341 268.751 27.5625C268.91 28.0909 269.139 28.4929 269.437 28.7685C269.738 29.044 270.1 29.1818 270.524 29.1818Z" fill="#B9B8CE"/>
<path d="M288.186 9.62854H303.1H288.186Z" fill="black"/>
<path d="M288.186 9.62854H303.1" stroke="#FDDD60" stroke-width="2" stroke-miterlimit="10"/>
<path d="M298.984 9.62853C298.984 10.4489 298.632 11.2357 298.005 11.8158C297.379 12.3959 296.529 12.7217 295.643 12.7217C294.757 12.7217 293.907 12.3958 293.281 11.8157C292.654 11.2355 292.302 10.4488 292.302 9.62837C292.302 8.80798 292.654 8.02119 293.281 7.44108C293.907 6.86097 294.757 6.53506 295.643 6.53503C296.529 6.53501 297.379 6.86088 298.005 7.44096C298.632 8.02104 298.984 8.80814 298.984 9.62853Z" fill="#FDDD60"/>
<path d="M307.14 6.27273H308.401L311.367 13.517H311.469L314.435 6.27273H315.697V15H314.708V8.36932H314.623L311.896 15H310.941L308.214 8.36932H308.128V15H307.14V6.27273ZM318.174 15H317.066L320.27 6.27273H321.361L324.566 15H323.458L320.85 7.65341H320.782L318.174 15ZM318.583 11.5909H323.049V12.5284H318.583V11.5909ZM306.986 30V29.233L309.867 26.0795C310.205 25.7102 310.484 25.3892 310.702 25.1165C310.921 24.8409 311.083 24.5824 311.188 24.3409C311.296 24.0966 311.35 23.8409 311.35 23.5739C311.35 23.267 311.276 23.0014 311.128 22.777C310.984 22.5526 310.785 22.3793 310.532 22.2571C310.279 22.1349 309.995 22.0739 309.68 22.0739C309.344 22.0739 309.052 22.1435 308.802 22.2827C308.555 22.419 308.363 22.6108 308.226 22.858C308.093 23.1051 308.026 23.3949 308.026 23.7273H307.021C307.021 23.2159 307.138 22.767 307.374 22.3807C307.61 21.9943 307.931 21.6932 308.337 21.4773C308.746 21.2614 309.205 21.1534 309.714 21.1534C310.225 21.1534 310.678 21.2614 311.073 21.4773C311.468 21.6932 311.778 21.9844 312.002 22.3509C312.226 22.7173 312.339 23.125 312.339 23.5739C312.339 23.8949 312.28 24.2088 312.164 24.5156C312.05 24.8196 311.851 25.1591 311.567 25.5341C311.286 25.9062 310.896 26.3608 310.396 26.8977L308.435 28.9943V29.0625H312.492V30H306.986ZM317.099 30.1193C316.457 30.1193 315.91 29.9446 315.458 29.5952C315.006 29.2429 314.661 28.733 314.422 28.0653C314.184 27.3949 314.065 26.5852 314.065 25.6364C314.065 24.6932 314.184 23.8878 314.422 23.2202C314.664 22.5497 315.011 22.0384 315.462 21.6861C315.917 21.331 316.462 21.1534 317.099 21.1534C317.735 21.1534 318.279 21.331 318.731 21.6861C319.185 22.0384 319.532 22.5497 319.771 23.2202C320.012 23.8878 320.133 24.6932 320.133 25.6364C320.133 26.5852 320.013 27.3949 319.775 28.0653C319.536 28.733 319.191 29.2429 318.739 29.5952C318.288 29.9446 317.741 30.1193 317.099 30.1193ZM317.099 29.1818C317.735 29.1818 318.229 28.875 318.582 28.2614C318.934 27.6477 319.11 26.7727 319.11 25.6364C319.11 24.8807 319.029 24.2372 318.867 23.706C318.708 23.1747 318.478 22.7699 318.177 22.4915C317.878 22.2131 317.519 22.0739 317.099 22.0739C316.468 22.0739 315.975 22.3849 315.62 23.0071C315.265 23.6264 315.087 24.5028 315.087 25.6364C315.087 26.392 315.167 27.0341 315.326 27.5625C315.485 28.0909 315.714 28.4929 316.012 28.7685C316.313 29.044 316.675 29.1818 317.099 29.1818Z" fill="#B9B8CE"/>
<path d="M333.073 9.62854H347.988H333.073Z" fill="black"/>
<path d="M333.073 9.62854H347.988" stroke="#FF6E76" stroke-width="2" stroke-miterlimit="10"/>
</g>
<defs>
<clipPath id="clip0_384_1777">
<rect width="383" height="232" fill="white"/>
</clipPath>
</defs>
</svg>
