<svg width="37" height="37" viewBox="0 0 37 37" fill="none" xmlns="http://www.w3.org/2000/svg">
<path d="M18.5 37C28.7173 37 37 28.7173 37 18.5C37 8.28273 28.7173 0 18.5 0C8.28273 0 0 8.28273 0 18.5C0 28.7173 8.28273 37 18.5 37Z" fill="#627EEA"/>
<path d="M19.0758 4.625V14.8809L27.7442 18.7544L19.0758 4.625Z" fill="white" fill-opacity="0.602"/>
<path d="M19.0758 4.625L10.4062 18.7544L19.0758 14.8809V4.625Z" fill="white"/>
<path d="M19.0758 25.4005V32.3693L27.75 20.3685L19.0758 25.4005Z" fill="white" fill-opacity="0.602"/>
<path d="M19.0758 32.3693V25.3994L10.4062 20.3685L19.0758 32.3693Z" fill="white"/>
<path d="M19.0758 23.7876L27.7442 18.7544L19.0758 14.8833V23.7876Z" fill="white" fill-opacity="0.2"/>
<path d="M10.4062 18.7544L19.0758 23.7876V14.8833L10.4062 18.7544Z" fill="white" fill-opacity="0.602"/>
</svg>
