<svg width="37" height="37" viewBox="0 0 37 37" fill="none" xmlns="http://www.w3.org/2000/svg">
<path d="M18.5 37C28.7173 37 37 28.7173 37 18.5C37 8.28273 28.7173 0 18.5 0C8.28273 0 0 8.28273 0 18.5C0 28.7173 8.28273 37 18.5 37Z" fill="#F7931A"/>
<path d="M26.8123 16.2106C27.1753 13.7871 25.3288 12.484 22.8059 11.6145L23.6245 8.33078L21.6265 7.83359L20.8287 11.0306C20.3037 10.8988 19.7649 10.7762 19.2273 10.6537L20.0309 7.43584L18.0329 6.9375L17.2142 10.2201C16.7787 10.1222 16.3532 10.022 15.9377 9.91947L15.9401 9.90906L13.1836 9.22109L12.6517 11.3555C12.6517 11.3555 14.1351 11.6955 14.1039 11.7163C14.9133 11.9186 15.059 12.454 15.0347 12.8795L14.1028 16.6199C14.159 16.633 14.2284 16.655 14.3109 16.6858L14.0993 16.6338L12.7927 21.8739C12.6933 22.1191 12.4424 22.4879 11.8758 22.348C11.8966 22.3769 10.4236 21.9861 10.4236 21.9861L9.43152 24.2732L12.0331 24.9218C12.5164 25.0432 12.9905 25.1704 13.4564 25.2895L12.6297 28.6102L14.6265 29.1074L15.4452 25.8237C15.9902 25.9701 16.5213 26.1077 17.0385 26.2365L16.2222 29.5063L18.2202 30.0035L19.0469 26.6897C22.4555 27.3349 25.0178 27.0747 26.0965 23.9922C26.966 21.5109 26.0538 20.0783 24.2604 19.1452C25.567 18.8446 26.5498 17.9855 26.8123 16.2106ZM22.2451 22.6139C21.6288 25.0964 17.449 23.754 16.0938 23.4175L17.1923 19.018C18.5474 19.3568 22.8914 20.0263 22.2451 22.6139ZM22.8637 16.1748C22.3006 18.4329 18.8226 17.2848 17.6952 17.0038L18.6896 13.0147C19.817 13.2957 23.4511 13.8195 22.8637 16.1748Z" fill="white"/>
</svg>
