<svg width="37" height="37" viewBox="0 0 37 37" fill="none" xmlns="http://www.w3.org/2000/svg">
<path d="M16.8196 31.9542C23.552 31.9542 29.0126 26.6832 29.0126 20.182C29.0126 13.6808 23.552 8.40833 16.818 8.40833C10.084 8.40833 4.625 13.6808 4.625 20.182C4.625 26.6832 10.084 31.9542 16.8196 31.9542Z" fill="#C000A3"/>
<path d="M26.4889 15.9779C29.7388 15.9779 32.375 13.5312 32.375 10.5111C32.375 7.49098 29.7388 5.0459 26.4889 5.0459C23.236 5.0459 20.6013 7.49252 20.6013 10.5111C20.6013 13.5312 23.2376 15.9779 26.4889 15.9779Z" fill="#630655"/>
<path fill-rule="evenodd" clip-rule="evenodd" d="M13.0348 15.9764H7.3445C7.02075 15.9764 6.75867 16.2277 6.75867 16.536C6.75867 16.8443 7.02075 17.0956 7.3445 17.0956C7.73608 17.0956 7.98892 17.2868 7.98892 17.6583V22.4837C7.98892 22.6518 7.95808 22.9077 7.73608 22.9879L7.68983 23.0033C7.31983 23.1359 7.14871 23.1975 7.14871 23.546C7.14871 24.3075 8.89079 24.3862 9.67088 24.3862C10.5543 24.3862 12.1946 24.1534 12.1946 23.546C12.1946 23.1837 12.0327 23.1251 11.5964 22.9879C11.396 22.9247 11.3528 22.6518 11.3528 22.4853V21.0222H13.0348C13.3661 21.0222 13.6942 20.957 14.0003 20.8302C14.3064 20.7034 14.5845 20.5176 14.8188 20.2833C15.0531 20.049 15.2389 19.7709 15.3657 19.4648C15.4925 19.1587 15.5577 18.8306 15.5577 18.4993C15.5577 18.168 15.4925 17.8399 15.3657 17.5338C15.2389 17.2277 15.0531 16.9496 14.8188 16.7153C14.5845 16.481 14.3064 16.2952 14.0003 16.1684C13.6942 16.0416 13.3661 15.9764 13.0348 15.9764ZM11.3544 17.572C11.3544 17.387 11.5101 17.239 11.7059 17.239C12.4397 17.239 13.0348 17.8033 13.0348 18.5001C13.0348 19.1969 12.4397 19.7612 11.7059 19.7612C11.6606 19.763 11.6153 19.7558 11.5729 19.7399C11.5304 19.7239 11.4916 19.6997 11.4587 19.6685C11.4258 19.6373 11.3994 19.5998 11.3813 19.5583C11.3631 19.5167 11.3534 19.472 11.3528 19.4266L11.3544 17.572ZM26.4735 19.775C26.697 22.086 24.6281 24.141 21.85 24.3661C19.072 24.5912 16.6392 22.9015 16.4157 20.589C16.1921 18.2765 18.261 16.2215 21.0376 15.9964C23.8141 15.7713 26.2484 17.4641 26.4735 19.775ZM22.8352 19.7041C23.3485 20.959 23.1281 22.1939 22.3418 22.4606C21.5571 22.7273 20.5073 21.9257 19.9939 20.6692C19.4836 19.4127 19.704 18.1779 20.4888 17.9112C21.2735 17.6445 22.3218 18.4477 22.8352 19.7041Z" fill="#F0F1F6"/>
<path d="M22.6208 8.86153C22.6208 8.61178 22.8783 8.40828 23.125 8.40828H24.8069C25.0536 8.40828 25.3496 8.61178 25.3496 8.86153C25.3496 9.11128 25.1492 9.25157 24.9025 9.25157H24.8069V11.2434C24.8069 11.5302 24.8717 11.7799 25.1538 11.7799H25.3203C25.4791 11.7383 25.9061 11.6288 25.9108 11.2789C25.92 10.7932 26.4889 10.8842 26.4889 11.2434C26.4889 11.7799 26.2607 12.7203 25.789 12.6032C25.6194 12.5615 25.5793 12.4536 25.1939 12.3519H23.1173C23.0788 12.3517 23.0407 12.3439 23.0053 12.329C22.9698 12.3141 22.9376 12.2923 22.9106 12.265C22.8835 12.2376 22.8621 12.2052 22.8476 12.1696C22.8331 12.134 22.8257 12.0959 22.8259 12.0574C22.8259 11.894 22.9646 11.7799 23.125 11.7799V9.25003H23.0679C22.8213 9.25003 22.6208 9.11282 22.6208 8.86153ZM30.4679 11.1787C30.2244 11.0553 29.9993 11.2295 29.916 11.3328C29.8544 11.4099 29.7696 11.5579 29.1853 11.5579C28.4561 11.5579 27.9951 10.2537 28.0244 9.98232C28.0537 9.71099 28.1277 9.27161 28.6626 9.24849C29.1976 9.22382 29.3641 9.51365 29.6 9.98232C29.7896 10.3554 30.0733 10.3431 30.192 10.2907C30.3816 10.1935 30.747 9.92065 30.6869 9.60924C30.6113 9.21765 30.4679 8.6904 30.2737 8.62565C30.1164 8.57478 29.8312 8.66728 29.7094 8.72124C29.4936 8.48845 28.9756 8.41445 28.7428 8.40674C27.4786 8.40674 26.4889 9.37799 26.4889 10.414C26.4889 11.4515 27.4555 12.6109 28.7428 12.6109C29.7742 12.6109 30.323 12.1699 30.4695 11.9479C30.5697 11.7429 30.71 11.3004 30.4679 11.1787Z" fill="#F0F3FA"/>
</svg>
