<svg width="40" height="40" viewBox="0 0 40 40" fill="none" xmlns="http://www.w3.org/2000/svg">
<path d="M0.75 25.6487C0.75 19.5208 0.75 16.4561 2.6545 14.5532C4.559 12.6503 7.62213 12.6487 13.75 12.6487H20.25C26.3779 12.6487 29.4426 12.6487 31.3455 14.5532C33.2484 16.4577 33.25 19.5208 33.25 25.6487C33.25 31.7766 33.25 34.8413 31.3455 36.7442C29.441 38.6471 26.3779 38.6487 20.25 38.6487H13.75C7.62213 38.6487 4.55737 38.6487 2.6545 36.7442C0.751625 34.8397 0.75 31.7766 0.75 25.6487Z" stroke="#E6E6E6" stroke-width="1.5"/>
<path d="M13.75 32.1487H7.25M20.25 32.1487H17.8125M0.75 22.3987H33.25" stroke="#E6E6E6" stroke-width="1.5" stroke-linecap="round"/>
</svg>
