<svg width="19" height="19" viewBox="0 0 19 19" fill="none" xmlns="http://www.w3.org/2000/svg">
<path d="M13.4582 6.33335H3.95817M13.4582 6.33335C13.6681 6.33335 13.8695 6.41676 14.018 6.56523C14.1664 6.71369 14.2498 6.91506 14.2498 7.12502V9.18335M13.4582 6.33335L10.2915 3.16669M3.95817 6.33335C3.74821 6.33335 3.54684 6.41676 3.39838 6.56523C3.24991 6.71369 3.1665 6.91506 3.1665 7.12502V15.0417C3.1665 15.2516 3.24991 15.453 3.39838 15.6015C3.54684 15.7499 3.74821 15.8334 3.95817 15.8334H13.4582C13.6681 15.8334 13.8695 15.7499 14.018 15.6015C14.1664 15.453 14.2498 15.2516 14.2498 15.0417V12.9834M3.95817 6.33335L7.12484 3.16669L10.2915 6.33335M15.0415 9.50002H11.8748C11.4549 9.50002 11.0522 9.66683 10.7553 9.96377C10.4583 10.2607 10.2915 10.6634 10.2915 11.0834C10.2915 11.5033 10.4583 11.906 10.7553 12.2029C11.0522 12.4999 11.4549 12.6667 11.8748 12.6667H15.0415C15.2515 12.6667 15.4528 12.5833 15.6013 12.4348C15.7498 12.2863 15.8332 12.085 15.8332 11.875V10.2917C15.8332 10.0817 15.7498 9.88036 15.6013 9.73189C15.4528 9.58343 15.2515 9.50002 15.0415 9.50002Z" stroke="#E6E6E6" stroke-width="2" stroke-linecap="round" stroke-linejoin="round"/>
</svg>
