<svg width="26" height="20" viewBox="0 0 26 20" fill="none" xmlns="http://www.w3.org/2000/svg">
<g clip-path="url(#clip0_430_2498)">
<path d="M0 0H26V20H0V0Z" fill="white"/>
<path fill-rule="evenodd" clip-rule="evenodd" d="M26 17.3417C25.7075 17.6208 25.4597 18.2583 24.6837 18.2583C23.1359 18.2583 22.75 16.9042 21.5881 16.9042C20.8163 16.9042 20.4303 18.2583 19.6544 18.2583C18.1066 18.2583 17.7206 16.9042 16.5587 16.9042C15.7869 16.9042 15.4009 18.2583 14.6291 18.2583C13.0772 18.2583 12.6912 16.9042 11.5294 16.9042C10.7575 16.9042 10.3675 18.2583 9.59562 18.2583C8.04781 18.2583 7.66187 16.9042 6.5 16.9042C5.72812 16.9042 5.33812 18.2583 4.56625 18.2583C3.01437 18.2583 2.62844 16.9042 1.47062 16.9042C0.69875 16.9042 0.463125 17.8708 0 17.8708V19.6083C0.463125 19.6083 0.694687 18.65 1.47469 18.65C2.6325 18.65 3.01844 20 4.56219 20C5.33812 20 5.72406 18.6458 6.5 18.6458C7.66187 18.6458 8.04781 20 9.59969 20C10.3716 20 10.7534 18.6458 11.5294 18.6458C12.6912 18.6458 13.0772 20 14.625 20C15.3969 20 15.7869 18.6458 16.5587 18.6458C17.7206 18.6458 18.1066 20 19.6544 20C20.4262 20 20.8163 18.6458 21.5881 18.6458C22.75 18.6458 23.14 20 24.6837 20C25.4556 20 25.7075 19.6167 26 19.3417V17.3417ZM26 13.9583C25.7075 14.2375 25.4597 14.875 24.6837 14.875C23.1359 14.875 22.75 13.5208 21.5881 13.5208C20.8163 13.5208 20.4303 14.875 19.6544 14.875C18.1066 14.875 17.7206 13.5208 16.5587 13.5208C15.7869 13.5208 15.4009 14.875 14.6291 14.875C13.0772 14.875 12.6912 13.5208 11.5294 13.5208C10.7575 13.5208 10.3675 14.875 9.59562 14.875C8.04781 14.875 7.66187 13.5208 6.5 13.5208C5.72812 13.5208 5.33812 14.875 4.56625 14.875C3.01437 14.875 2.62844 13.5208 1.47062 13.5208C0.69875 13.5208 0.463125 14.4875 0 14.4875V16.2292C0.463125 16.2292 0.694687 15.2667 1.47469 15.2667C2.6325 15.2667 3.01844 16.6208 4.56219 16.6208C5.33812 16.6208 5.72406 15.2667 6.5 15.2667C7.66187 15.2667 8.04781 16.6208 9.59969 16.6208C10.3716 16.6208 10.7534 15.2667 11.5294 15.2667C12.6912 15.2667 13.0772 16.6208 14.6291 16.6208C15.4009 16.6208 15.7869 15.2667 16.5587 15.2667C17.7206 15.2667 18.1066 16.6208 19.6544 16.6208C20.4262 16.6208 20.8163 15.2667 21.5881 15.2667C22.75 15.2667 23.14 16.6208 24.6837 16.6208C25.4556 16.6208 25.7075 16.2375 26 15.9625V13.9583ZM26 10.5792C25.7075 10.8583 25.4597 11.4958 24.6837 11.4958C23.1359 11.4958 22.75 10.1417 21.5881 10.1417C20.8163 10.1417 20.4303 11.4958 19.6544 11.4958C18.1066 11.4958 17.7206 10.1417 16.5587 10.1417C15.7869 10.1417 15.4009 11.4958 14.6291 11.4958C13.0772 11.4958 12.6912 10.1417 11.5294 10.1417C10.7575 10.1417 10.3675 11.4958 9.59562 11.4958C8.04781 11.4958 7.66187 10.1417 6.5 10.1417C5.72812 10.1417 5.33812 11.4958 4.56625 11.4958C3.01437 11.4958 2.62844 10.1417 1.47062 10.1417C0.69875 10.1417 0.463125 11.1083 0 11.1083V12.85C0.463125 12.85 0.694687 11.8833 1.47469 11.8833C2.6325 11.8833 3.01844 13.2375 4.56219 13.2375C5.33812 13.2375 5.72406 11.8833 6.5 11.8833C7.66187 11.8833 8.04781 13.2375 9.59969 13.2375C10.3716 13.2375 10.7534 11.8833 11.5294 11.8833C12.6912 11.8833 13.0772 13.2375 14.6291 13.2375C15.4009 13.2375 15.7869 11.8833 16.5587 11.8833C17.7206 11.8833 18.1066 13.2375 19.6544 13.2375C20.4262 13.2375 20.8163 11.8833 21.5881 11.8833C22.75 11.8833 23.14 13.2375 24.6837 13.2375C25.4556 13.2375 25.7075 12.8542 26 12.5792V10.5792ZM26 7.2C25.7075 7.475 25.4597 8.11667 24.6837 8.11667C23.1359 8.11667 22.75 6.7625 21.5881 6.7625C20.8163 6.7625 20.4303 8.11667 19.6544 8.11667C18.1066 8.11667 17.7206 6.7625 16.5587 6.7625C15.7869 6.7625 15.4009 8.11667 14.6291 8.11667C13.0772 8.11667 12.6912 6.7625 11.5294 6.7625C10.7575 6.7625 10.3675 8.11667 9.59562 8.11667C8.04781 8.11667 7.66187 6.7625 6.5 6.7625C5.72812 6.7625 5.33812 8.11667 4.56625 8.11667C3.01437 8.11667 2.62844 6.7625 1.47062 6.7625C0.69875 6.7625 0.463125 7.72917 0 7.72917V9.46667C0.463125 9.46667 0.694687 8.50833 1.47469 8.50833C2.6325 8.50833 3.01844 9.85833 4.56219 9.85833C5.33812 9.85833 5.72406 8.50417 6.5 8.50417C7.66187 8.50417 8.04781 9.85833 9.59969 9.85833C10.3716 9.85833 10.7534 8.50417 11.5294 8.50417C12.6912 8.50417 13.0772 9.85833 14.6291 9.85833C15.4009 9.85833 15.7869 8.50417 16.5587 8.50417C17.7206 8.50417 18.1066 9.85833 19.6544 9.85833C20.4262 9.85833 20.8163 8.50417 21.5881 8.50417C22.75 8.50417 23.14 9.85833 24.6837 9.85833C25.4556 9.85833 25.7075 9.47083 26 9.19583V7.2ZM26 3.8125C25.7075 4.09167 25.4597 4.73333 24.6837 4.73333C23.1359 4.73333 22.75 3.37917 21.5881 3.37917C20.8163 3.37917 20.4303 4.73333 19.6544 4.73333C18.1066 4.73333 17.7206 3.37917 16.5587 3.37917C15.7869 3.37917 15.4009 4.73333 14.6291 4.73333C13.0772 4.73333 12.6912 3.37917 11.5294 3.37917C10.7575 3.37917 10.3675 4.73333 9.59562 4.73333C8.04781 4.73333 7.66187 3.37917 6.5 3.37917C5.72812 3.37917 5.33812 4.73333 4.56625 4.73333C3.01437 4.73333 2.62844 3.37917 1.47062 3.37917C0.69875 3.38333 0.463125 4.35 0 4.35V6.09167C0.463125 6.09167 0.694687 5.12917 1.47062 5.12917C2.62844 5.12917 3.01844 6.48333 4.56625 6.48333C5.33812 6.48333 5.72406 5.12917 6.5 5.12917C7.66187 5.12917 8.04781 6.48333 9.59969 6.48333C10.3716 6.48333 10.7534 5.12917 11.5253 5.12917C12.6913 5.12917 13.0772 6.48333 14.625 6.48333C15.3969 6.48333 15.7869 5.12917 16.5587 5.12917C17.7206 5.12917 18.1066 6.48333 19.6544 6.48333C20.4262 6.48333 20.8163 5.12917 21.5881 5.12917C22.75 5.12917 23.14 6.48333 24.6837 6.48333C25.4556 6.48333 25.7075 6.09583 26 5.82083V3.82083V3.8125ZM26 0.4375C25.7075 0.7125 25.4597 1.35417 24.6837 1.35417C23.1359 1.35417 22.75 0 21.5881 0C20.8163 0 20.4303 1.35417 19.6544 1.35417C18.1066 1.35417 17.7206 0 16.5587 0C15.7869 0 15.4009 1.35417 14.6291 1.35417C13.0772 1.35417 12.6912 0 11.5294 0C10.7575 0 10.3675 1.35417 9.59562 1.35417C8.04375 1.35417 7.66187 0 6.5 0C5.72812 0 5.33812 1.35417 4.56625 1.35417C3.01437 1.35417 2.62844 0 1.47062 0C0.69875 0 0.463125 0.966667 0 0.966667V2.7125C0.463125 2.70833 0.694687 1.75 1.47062 1.75C2.62844 1.75 3.01844 3.1 4.56625 3.1C5.33812 3.1 5.72406 1.75 6.5 1.75C7.66187 1.75 8.04781 3.1 9.59969 3.1C10.3716 3.1 10.7534 1.75 11.5253 1.75C12.6913 1.75 13.0772 3.1 14.625 3.1C15.3969 3.1 15.7869 1.75 16.5587 1.75C17.7206 1.75 18.1066 3.1 19.6544 3.1C20.4262 3.1 20.8163 1.75 21.5881 1.75C22.75 1.75 23.14 3.1 24.6837 3.1C25.4556 3.1 25.7075 2.71667 26 2.44167V0.4375Z" fill="#000063"/>
<path fill-rule="evenodd" clip-rule="evenodd" d="M19.2887 5.4873L19.1465 19.1956C19.1465 19.9165 19.7844 19.9165 19.8534 19.1956L19.7112 5.4873H19.2887Z" fill="#A24300" stroke="white" stroke-width="0.2625"/>
<path fill-rule="evenodd" clip-rule="evenodd" d="M20.7472 10.5832L20.3003 10.0874L20.1947 10.5916L20.0037 9.8624L19.8209 10.2291L19.7884 9.45407L19.6097 9.82074L19.5772 9.04574L19.3984 9.4124L19.2969 8.4999L19.1181 8.86657L19.0125 7.95824L18.8297 8.3249L18.7281 7.4124L18.6753 6.95407L18.7647 6.7749L19.0003 6.8624L19.37 7.2249L20.1134 7.9499L19.6544 7.77074L20.3978 8.49574L19.9347 8.31657L20.6781 9.0374L20.215 8.8624L20.8894 9.44574L20.4303 9.27074L21.1006 9.85407L20.6415 9.67907L21.1534 10.3124L20.6212 9.99574L20.7431 10.5916L20.7472 10.5832Z" fill="#006D00" stroke="white" stroke-width="0.225"/>
<path d="M20.7472 10.5832L18.7687 6.7749M20.1134 7.9499L19.0531 7.31657L18.8337 8.32074" stroke="black" stroke-width="0.0375"/>
<path d="M20.4019 8.49147L19.3334 7.8623L19.1181 8.86647" stroke="black" stroke-width="0.0375"/>
<path d="M20.6822 9.0332L19.6178 8.4082L19.3984 9.4082" stroke="black" stroke-width="0.0375"/>
<path d="M20.8935 9.44603L19.8981 8.9502L19.6138 9.8252" stroke="black" stroke-width="0.0375"/>
<path d="M21.1047 9.85423L20.1094 9.3584L19.825 10.2334" stroke="black" stroke-width="0.0375"/>
<path d="M21.1575 10.3083L20.2516 9.6333L20.1947 10.5916" stroke="black" stroke-width="0.0375"/>
<path fill-rule="evenodd" clip-rule="evenodd" d="M15.5594 4.07897L16.2825 4.3623L16.0713 3.7998L16.705 4.4373L16.6441 3.97897L17.156 4.74564L17.095 4.2873L17.6069 5.05397L17.546 4.59564L18.2081 5.46231L18.1472 5.00397L18.8094 5.87064L18.7525 5.4123L19.4106 6.27897L19.7438 6.71231L19.7722 6.94147L19.5 6.96647L18.9313 6.7873L17.7856 6.4248L18.326 6.37897L17.1844 6.01647L17.7247 5.97064L16.5831 5.60814L17.1235 5.55814L16.1322 5.2998L16.6725 5.25397L15.6813 4.99564L16.2216 4.94564L15.3481 4.55814L16.0428 4.6123L15.5635 4.08314L15.5594 4.07897Z" fill="#006D00" stroke="white" stroke-width="0.25"/>
<path d="M15.5594 4.0791L19.7722 6.9416M17.7856 6.42493L19.1709 6.53327L18.7525 5.41243" stroke="black" stroke-width="0.0375"/>
<path d="M17.1844 6.01667L18.5656 6.125L18.1472 5" stroke="black" stroke-width="0.0375"/>
<path d="M16.5831 5.60846L17.9644 5.7168L17.5459 4.5918" stroke="black" stroke-width="0.0375"/>
<path d="M16.1281 5.3001L17.3672 5.30426L17.095 4.2876" stroke="black" stroke-width="0.0375"/>
<path d="M15.6813 4.9915L16.9163 4.99984L16.6441 3.979" stroke="black" stroke-width="0.0375"/>
<path d="M15.3481 4.55814L16.6116 4.79564L16.0753 3.7998" stroke="black" stroke-width="0.0375"/>
<path fill-rule="evenodd" clip-rule="evenodd" d="M23.9606 5.0332L23.3594 5.48737L24.0256 5.56237L23.0953 5.78737L23.591 5.93737L22.5875 6.01237L23.0831 6.16237L22.0797 6.23737L22.5713 6.39154L21.3972 6.54154L21.8928 6.69154L20.7188 6.84154L21.2144 6.99154L20.0403 7.14154L19.4513 7.21654L19.2075 7.14154L19.2969 6.91654L19.7316 6.54154L20.5969 5.78737L20.41 6.23737L21.2753 5.48737L21.0885 5.93737L21.9538 5.18737L21.7669 5.63737L22.4656 4.9582L22.2828 5.41237L22.9735 4.7332L22.7906 5.1832L23.5625 4.6582L23.2091 5.18737L23.9647 5.03737L23.9606 5.0332Z" fill="#006D00" stroke="white" stroke-width="0.25"/>
<path d="M23.9606 5.0332L19.2075 7.14154M20.5928 5.78737L19.886 6.84154L21.2144 6.99154" stroke="black" stroke-width="0.0375"/>
<path d="M21.2753 5.4873L20.5644 6.54147L21.8928 6.69147" stroke="black" stroke-width="0.0375"/>
<path d="M21.9537 5.18311L21.2428 6.23727L22.5712 6.39144" stroke="black" stroke-width="0.0375"/>
<path d="M22.4656 4.9585L21.9253 5.93766L23.0831 6.16266" stroke="black" stroke-width="0.0375"/>
<path d="M22.9734 4.7334L22.4331 5.71257L23.5909 5.93757" stroke="black" stroke-width="0.0375"/>
<path d="M23.5625 4.6582L22.7744 5.56237H24.0215" stroke="black" stroke-width="0.0375"/>
<path fill-rule="evenodd" clip-rule="evenodd" d="M23.8631 9.59593L23.1156 9.3751L23.3837 9.91676L22.6891 9.33343L22.7947 9.77926L22.2056 9.0626L22.3153 9.5126L21.7262 8.79176L21.8319 9.24176L21.0803 8.43343L21.19 8.88343L20.4384 8.0751L20.5481 8.5251L19.7966 7.71676L19.4228 7.3126L19.37 7.0876L19.6381 7.0376L20.2272 7.17093L21.4053 7.4376L20.8691 7.52926L22.0472 7.79593L21.5109 7.8876L22.6891 8.15426L22.1528 8.2501L23.1684 8.4251L22.6322 8.51676L23.6478 8.69176L23.1156 8.79176L24.0216 9.10426H23.3309L23.8591 9.60426L23.8631 9.59593Z" fill="#006D00" stroke="white" stroke-width="0.25"/>
<path d="M23.8631 9.59574L19.37 7.0874M21.4012 7.4374L20.0119 7.44574L20.5481 8.52907" stroke="black" stroke-width="0.0375"/>
<path d="M22.0431 7.7959L20.6537 7.80423L21.19 8.88757" stroke="black" stroke-width="0.0375"/>
<path d="M22.685 8.1543L21.2957 8.16263L21.8319 9.24596" stroke="black" stroke-width="0.0375"/>
<path d="M23.1684 8.4248L21.9375 8.52064L22.3153 9.5123" stroke="black" stroke-width="0.0375"/>
<path d="M23.6519 8.6958L22.421 8.78747L22.7947 9.77913" stroke="black" stroke-width="0.0375"/>
<path d="M24.0216 9.10013L22.7419 8.9668L23.3838 9.9168" stroke="black" stroke-width="0.0375"/>
<path fill-rule="evenodd" clip-rule="evenodd" d="M16.055 9.85853L16.4328 9.31686L15.86 9.40436L16.5669 8.99186L16.1159 8.97103L16.9284 8.67936L16.4775 8.65436L17.29 8.3627L16.839 8.3377L17.7734 7.9377L17.3184 7.91686L18.2528 7.5127L17.8019 7.49186L18.7362 7.09186L19.2034 6.8877L19.4309 6.9002L19.4147 7.12103L19.1587 7.55436L18.6469 8.42103L18.6794 7.97936L18.1675 8.84603L18.1959 8.4002L17.684 9.26686L17.7125 8.8252L17.3225 9.58353L17.3509 9.14186L16.9609 9.9002L16.9894 9.45853L16.4937 10.1002L16.644 9.5502L16.055 9.85853Z" fill="#006D00" stroke="white" stroke-width="0.225"/>
<path d="M16.055 9.85824L19.4269 6.8999M18.6509 8.42074L18.9475 7.32074L17.8019 7.49157" stroke="black" stroke-width="0.0375"/>
<path d="M18.1675 8.84561L18.464 7.74561L17.3184 7.91227" stroke="black" stroke-width="0.0375"/>
<path d="M17.684 9.2665L17.9847 8.1665L16.8391 8.33734" stroke="black" stroke-width="0.0375"/>
<path d="M17.3225 9.58346L17.5012 8.5918L16.4775 8.6543" stroke="black" stroke-width="0.0375"/>
<path d="M16.961 9.89987L17.1397 8.9082L16.116 8.9707" stroke="black" stroke-width="0.0375"/>
<path d="M16.4937 10.0998L16.9 9.12061L15.86 9.40394" stroke="black" stroke-width="0.0375"/>
<path fill-rule="evenodd" clip-rule="evenodd" d="M22.8718 2.7582L22.1447 3.2582L22.0268 2.7207L21.6003 3.46237L21.519 3.1082L21.1697 3.86654L21.1209 3.51654L20.8487 4.2957L20.6943 3.9207L20.4222 4.86654L20.2678 4.49154L19.9956 5.43737L19.8372 5.06237L19.565 6.0082L19.4309 6.4832L19.5081 6.6707L19.8006 6.5707L20.3043 6.18737L21.32 5.4207L20.735 5.61654L21.7465 4.8457L21.1615 5.0457L22.1731 4.27487L21.5881 4.47487L22.6037 3.87487L21.9131 4.04154L22.9937 3.4707L22.3315 3.6457L23.1318 2.9957L22.4412 3.3332L22.8718 2.7582Z" fill="#006D00" stroke="white" stroke-width="0.25"/>
<path d="M22.5875 3.0293L21.5394 3.9543L19.5081 6.67096" stroke="black" stroke-width="0.0375"/>
<path d="M21.0965 5.53317L19.9347 6.09567L19.8372 5.229" stroke="black" stroke-width="0.0375"/>
<path d="M21.5394 4.96654L20.3613 5.52487L20.2678 4.6582" stroke="black" stroke-width="0.0375"/>
<path d="M21.9578 4.39596L20.7919 4.9543L20.7025 4.0918" stroke="black" stroke-width="0.0375"/>
<path d="M22.3072 3.97064L21.2184 4.38314L21.0966 3.6748" stroke="black" stroke-width="0.0375"/>
<path d="M22.7094 3.5624L21.5394 3.95824L21.4988 3.2749" stroke="black" stroke-width="0.0375"/>
<path d="M22.8638 3.17497L21.7831 3.74163L21.9944 2.8833" stroke="black" stroke-width="0.0375"/>
<path fill-rule="evenodd" clip-rule="evenodd" d="M18.9353 1.8252L19.2603 2.58353L19.6787 2.18353L19.6097 3.00853L19.8859 2.74186L19.7356 3.5502L19.9794 3.2752L19.7559 4.06686L20.1094 3.81686L19.7844 4.74603L20.1337 4.49603L19.8087 5.43353L20.1622 5.18353L19.8372 6.11686L19.6747 6.58353L19.4959 6.70853L19.3009 6.4877L19.0978 5.92936L18.6915 4.80853L19.0734 5.24603L18.6631 4.12103L19.045 4.5627L18.6387 3.4377L19.0125 3.8752L18.5047 2.9002L18.9922 3.3627L18.4072 2.36686L18.8662 2.8252L18.5697 1.9002L18.9597 2.50853L18.9353 1.8252Z" fill="#006D00" stroke="white" stroke-width="0.25"/>
<path d="M19.0206 2.18311L19.3659 3.45394L19.4959 6.70394" stroke="black" stroke-width="0.0375"/>
<path d="M18.8094 5.0083L19.4675 6.0208L20.0647 5.32497" stroke="black" stroke-width="0.0375"/>
<path d="M18.7687 4.3208L19.4391 5.33747L20.0362 4.64163" stroke="black" stroke-width="0.0375"/>
<path d="M18.7484 3.6377L19.4147 4.65436L19.9997 3.95853" stroke="black" stroke-width="0.0375"/>
<path d="M18.7037 3.12061L19.3862 3.97061L19.9144 3.42894" stroke="black" stroke-width="0.0375"/>
<path d="M18.6063 2.5835L19.366 3.4585L19.8128 2.89183" stroke="black" stroke-width="0.0375"/>
<path d="M18.6997 2.18311L19.2847 3.16227L19.6138 2.33311" stroke="black" stroke-width="0.0375"/>
<path fill-rule="evenodd" clip-rule="evenodd" d="M14.5844 7.41673L15.5309 6.74173L15.0556 6.49173L15.8884 6.6334L15.604 6.2459L16.4084 6.5584L16.124 6.1709L16.9325 6.47923L16.6481 6.0959L17.6231 6.4334L17.3387 6.0459L18.2853 6.55006L18.0009 6.16256L18.9759 6.50423L19.4512 6.75423L19.5934 6.9459L19.4025 7.0834L18.8784 7.1584L18.0375 7.51673L18.1918 7.2084L17.1478 7.3584L17.5256 7.09173L16.4572 7.4084L16.839 7.13756L15.9372 7.4834L16.3394 7.05006L15.4131 7.5584L15.8194 7.12506L15.0556 7.66673L15.4822 7.06673L14.5844 7.41673Z" fill="#006D00" stroke="white" stroke-width="0.2375"/>
<path d="M14.8809 7.23324L15.864 6.79574L16.3881 6.72074L16.8228 6.7124L17.5744 6.7624L18.2528 6.79157L19.5934 6.94574" stroke="black" stroke-width="0.0375"/>
<path d="M18.1675 7.3707L18.9191 6.8957L18.1553 6.2832" stroke="black" stroke-width="0.0375"/>
<path d="M17.3265 7.2998L18.2487 6.79147L17.489 6.1748" stroke="black" stroke-width="0.0375"/>
<path d="M16.7253 7.28356L17.5744 6.76273L16.8025 6.19189M15.6041 7.42523L16.3881 6.72106L15.7544 6.36689" stroke="black" stroke-width="0.0375"/>
<path d="M15.2547 7.4707L15.8641 6.79987L15.3766 6.61237M16.1241 7.34987L16.8959 6.71654L16.2785 6.2832" stroke="black" stroke-width="0.0375"/>
<path fill-rule="evenodd" clip-rule="evenodd" d="M17.775 14.7996L17.7661 13.6631L17.445 13.1323C17.3646 12.8713 17.404 12.7453 17.5343 12.7364C17.6641 12.7285 17.7928 12.8039 17.9799 12.8123C18.167 12.8207 18.1318 12.5176 18.4081 12.5261C18.6845 12.5345 19.1664 12.6863 19.5762 12.7116C19.9866 12.7364 20.2004 12.5767 20.6733 12.5598C21.1462 12.5429 21.2708 12.7701 21.2976 12.7701C21.3244 12.7701 21.4583 12.6779 21.5918 12.661C21.7258 12.6441 21.7705 12.7116 21.7705 12.7116C21.7705 12.7116 21.7615 12.9978 21.699 13.166C21.6365 13.3347 21.4137 13.6125 21.4048 13.6125C21.3958 13.6125 21.3244 14.8502 21.3244 14.8586C21.3244 14.8671 17.775 14.8249 17.775 14.7996Z" fill="#CC0000" stroke="black" stroke-width="0.0206823"/>
<path fill-rule="evenodd" clip-rule="evenodd" d="M21.4442 13.6334C21.4442 13.6334 21.8015 13.3754 21.8109 12.7548C21.8162 12.3976 21.6302 12.1396 21.1646 12.1396C20.5131 12.1396 19.5825 12.4031 19.5825 12.4031V12.4909C19.5825 12.4909 20.3271 12.2275 21.1652 12.2275C21.5372 12.2275 21.7237 12.4854 21.7237 12.7493C21.7237 13.1889 21.3506 13.6339 21.3506 13.6339V14.3368H21.4442V13.6334Z" fill="#FFF100" stroke="black" stroke-width="0.0206823"/>
<path fill-rule="evenodd" clip-rule="evenodd" d="M21.6379 13.4494C21.6369 13.4615 21.6386 13.4737 21.6428 13.4851C21.6471 13.4966 21.6538 13.5071 21.6625 13.516C21.6713 13.5249 21.6819 13.5321 21.6937 13.5369C21.7055 13.5418 21.7182 13.5443 21.7311 13.5443C21.744 13.5443 21.7567 13.5418 21.7685 13.5369C21.7803 13.5321 21.7909 13.5249 21.7997 13.516C21.8084 13.5071 21.8152 13.4966 21.8194 13.4851C21.8237 13.4737 21.8253 13.4615 21.8244 13.4494C21.8226 13.4272 21.812 13.4064 21.7947 13.3912C21.7774 13.3761 21.7547 13.3677 21.7311 13.3677C21.7075 13.3677 21.6848 13.3761 21.6675 13.3912C21.6502 13.4064 21.6396 13.4272 21.6379 13.4494Z" fill="white" stroke="black" stroke-width="0.0206823"/>
<path fill-rule="evenodd" clip-rule="evenodd" d="M21.7313 13.2492C21.7303 13.2613 21.732 13.2735 21.7363 13.2849C21.7405 13.2964 21.7472 13.3069 21.756 13.3158C21.7647 13.3247 21.7754 13.3319 21.7872 13.3367C21.799 13.3416 21.8117 13.3441 21.8246 13.3441C21.8374 13.3441 21.8502 13.3416 21.862 13.3367C21.8738 13.3319 21.8844 13.3247 21.8931 13.3158C21.9019 13.3069 21.9086 13.2964 21.9128 13.2849C21.9171 13.2735 21.9188 13.2613 21.9178 13.2492C21.9161 13.227 21.9055 13.2062 21.8882 13.191C21.8709 13.1759 21.8482 13.1675 21.8246 13.1675C21.801 13.1675 21.7782 13.1759 21.761 13.191C21.7437 13.2062 21.7331 13.227 21.7313 13.2492Z" fill="white" stroke="black" stroke-width="0.0206823"/>
<path fill-rule="evenodd" clip-rule="evenodd" d="M21.7801 13.0407C21.7791 13.0528 21.7808 13.065 21.785 13.0764C21.7893 13.0879 21.796 13.0984 21.8048 13.1073C21.8135 13.1163 21.8241 13.1234 21.8359 13.1282C21.8477 13.1331 21.8605 13.1356 21.8733 13.1356C21.8862 13.1356 21.8989 13.1331 21.9107 13.1282C21.9225 13.1234 21.9331 13.1163 21.9419 13.1073C21.9507 13.0984 21.9574 13.0879 21.9616 13.0764C21.9659 13.065 21.9676 13.0528 21.9666 13.0407C21.9648 13.0185 21.9542 12.9977 21.9369 12.9826C21.9196 12.9674 21.8969 12.959 21.8733 12.959C21.8497 12.959 21.827 12.9674 21.8097 12.9826C21.7924 12.9977 21.7818 13.0185 21.7801 13.0407Z" fill="white" stroke="black" stroke-width="0.0206823"/>
<path fill-rule="evenodd" clip-rule="evenodd" d="M21.8166 12.8244C21.8157 12.8365 21.8174 12.8487 21.8216 12.8601C21.8259 12.8716 21.8326 12.8821 21.8413 12.891C21.8501 12.8999 21.8607 12.9071 21.8725 12.9119C21.8843 12.9168 21.897 12.9193 21.9099 12.9193C21.9228 12.9193 21.9355 12.9168 21.9473 12.9119C21.9591 12.9071 21.9697 12.8999 21.9785 12.891C21.9872 12.8821 21.9939 12.8716 21.9982 12.8601C22.0024 12.8487 22.0041 12.8365 22.0032 12.8244C22.0014 12.8022 21.9908 12.7814 21.9735 12.7662C21.9562 12.7511 21.9335 12.7427 21.9099 12.7427C21.8863 12.7427 21.8636 12.7511 21.8463 12.7662C21.829 12.7814 21.8184 12.8022 21.8166 12.8244Z" fill="white" stroke="black" stroke-width="0.0206823"/>
<path fill-rule="evenodd" clip-rule="evenodd" d="M21.8085 12.591C21.8075 12.6031 21.8092 12.6153 21.8135 12.6267C21.8177 12.6382 21.8244 12.6487 21.8332 12.6576C21.842 12.6665 21.8526 12.6737 21.8644 12.6785C21.8762 12.6834 21.8889 12.6859 21.9018 12.6859C21.9146 12.6859 21.9274 12.6834 21.9392 12.6785C21.951 12.6737 21.9616 12.6665 21.9703 12.6576C21.9791 12.6487 21.9858 12.6382 21.9901 12.6267C21.9943 12.6153 21.996 12.6031 21.995 12.591C21.9933 12.5688 21.9827 12.548 21.9654 12.5328C21.9481 12.5177 21.9254 12.5093 21.9018 12.5093C21.8782 12.5093 21.8555 12.5177 21.8382 12.5328C21.8209 12.548 21.8103 12.5688 21.8085 12.591Z" fill="white" stroke="black" stroke-width="0.0206823"/>
<path fill-rule="evenodd" clip-rule="evenodd" d="M21.5038 13.6286C21.5029 13.6407 21.5045 13.6529 21.5088 13.6643C21.513 13.6758 21.5198 13.6863 21.5285 13.6952C21.5373 13.7041 21.5479 13.7113 21.5597 13.7161C21.5715 13.721 21.5842 13.7235 21.5971 13.7235C21.61 13.7235 21.6227 13.721 21.6345 13.7161C21.6463 13.7113 21.6569 13.7041 21.6657 13.6952C21.6744 13.6863 21.6811 13.6758 21.6854 13.6643C21.6896 13.6529 21.6913 13.6407 21.6904 13.6286C21.6886 13.6064 21.678 13.5856 21.6607 13.5704C21.6434 13.5553 21.6207 13.5469 21.5971 13.5469C21.5735 13.5469 21.5508 13.5553 21.5335 13.5704C21.5162 13.5856 21.5056 13.6064 21.5038 13.6286Z" fill="white" stroke="black" stroke-width="0.0206823"/>
<path fill-rule="evenodd" clip-rule="evenodd" d="M21.7273 12.3659C21.7263 12.378 21.728 12.3902 21.7322 12.4016C21.7365 12.4131 21.7432 12.4236 21.752 12.4325C21.7607 12.4414 21.7713 12.4486 21.7831 12.4534C21.7949 12.4583 21.8077 12.4608 21.8205 12.4608C21.8334 12.4608 21.8461 12.4583 21.8579 12.4534C21.8697 12.4486 21.8803 12.4414 21.8891 12.4325C21.8979 12.4236 21.9046 12.4131 21.9088 12.4016C21.9131 12.3902 21.9148 12.378 21.9138 12.3659C21.912 12.3437 21.9014 12.3229 21.8841 12.3077C21.8668 12.2926 21.8441 12.2842 21.8205 12.2842C21.7969 12.2842 21.7742 12.2926 21.7569 12.3077C21.7396 12.3229 21.729 12.3437 21.7273 12.3659Z" fill="white" stroke="black" stroke-width="0.0206823"/>
<path fill-rule="evenodd" clip-rule="evenodd" d="M21.5566 12.1867C21.5556 12.1988 21.5573 12.211 21.5616 12.2224C21.5658 12.2339 21.5726 12.2444 21.5813 12.2533C21.5901 12.2622 21.6007 12.2694 21.6125 12.2742C21.6243 12.2791 21.637 12.2816 21.6499 12.2816C21.6628 12.2816 21.6755 12.2791 21.6873 12.2742C21.6991 12.2694 21.7097 12.2622 21.7184 12.2533C21.7272 12.2444 21.7339 12.2339 21.7382 12.2224C21.7424 12.211 21.7441 12.1988 21.7431 12.1867C21.7414 12.1645 21.7308 12.1437 21.7135 12.1285C21.6962 12.1134 21.6735 12.105 21.6499 12.105C21.6263 12.105 21.6036 12.1134 21.5863 12.1285C21.569 12.1437 21.5584 12.1645 21.5566 12.1867Z" fill="white" stroke="black" stroke-width="0.0206823"/>
<path fill-rule="evenodd" clip-rule="evenodd" d="M21.325 12.07C21.3241 12.0821 21.3258 12.0943 21.33 12.1057C21.3343 12.1172 21.341 12.1277 21.3497 12.1366C21.3585 12.1455 21.3691 12.1527 21.3809 12.1575C21.3927 12.1624 21.4054 12.1649 21.4183 12.1649C21.4312 12.1649 21.4439 12.1624 21.4557 12.1575C21.4675 12.1527 21.4781 12.1455 21.4869 12.1366C21.4956 12.1277 21.5023 12.1172 21.5066 12.1057C21.5108 12.0943 21.5125 12.0821 21.5116 12.07C21.5098 12.0478 21.4992 12.027 21.4819 12.0118C21.4646 11.9967 21.4419 11.9883 21.4183 11.9883C21.3947 11.9883 21.372 11.9967 21.3547 12.0118C21.3374 12.027 21.3268 12.0478 21.325 12.07Z" fill="white" stroke="black" stroke-width="0.0206823"/>
<path fill-rule="evenodd" clip-rule="evenodd" d="M21.0894 12.0534C21.0885 12.0655 21.0902 12.0777 21.0944 12.0891C21.0987 12.1006 21.1054 12.1111 21.1141 12.12C21.1229 12.1289 21.1335 12.1361 21.1453 12.1409C21.1571 12.1458 21.1698 12.1483 21.1827 12.1483C21.1956 12.1483 21.2083 12.1458 21.2201 12.1409C21.2319 12.1361 21.2425 12.1289 21.2513 12.12C21.26 12.1111 21.2668 12.1006 21.271 12.0891C21.2753 12.0777 21.2769 12.0655 21.276 12.0534C21.2742 12.0312 21.2636 12.0104 21.2463 11.9952C21.229 11.9801 21.2063 11.9717 21.1827 11.9717C21.1591 11.9717 21.1364 11.9801 21.1191 11.9952C21.1018 12.0104 21.0912 12.0312 21.0894 12.0534Z" fill="white" stroke="black" stroke-width="0.0206823"/>
<path fill-rule="evenodd" clip-rule="evenodd" d="M20.8457 12.0578C20.8447 12.0699 20.8464 12.0821 20.8507 12.0935C20.8549 12.105 20.8616 12.1155 20.8704 12.1244C20.8791 12.1333 20.8897 12.1405 20.9015 12.1453C20.9133 12.1502 20.9261 12.1527 20.9389 12.1527C20.9518 12.1527 20.9645 12.1502 20.9763 12.1453C20.9881 12.1405 20.9988 12.1333 21.0075 12.1244C21.0163 12.1155 21.023 12.105 21.0272 12.0935C21.0315 12.0821 21.0332 12.0699 21.0322 12.0578C21.0304 12.0356 21.0198 12.0148 21.0026 11.9996C20.9853 11.9845 20.9625 11.9761 20.9389 11.9761C20.9153 11.9761 20.8926 11.9845 20.8753 11.9996C20.858 12.0148 20.8474 12.0356 20.8457 12.0578Z" fill="white" stroke="black" stroke-width="0.0206823"/>
<path fill-rule="evenodd" clip-rule="evenodd" d="M20.5938 12.0993C20.5928 12.1114 20.5945 12.1236 20.5988 12.135C20.603 12.1465 20.6097 12.157 20.6185 12.1659C20.6272 12.1748 20.6378 12.182 20.6496 12.1868C20.6614 12.1917 20.6742 12.1942 20.687 12.1942C20.6999 12.1942 20.7127 12.1917 20.7245 12.1868C20.7363 12.182 20.7469 12.1748 20.7556 12.1659C20.7644 12.157 20.7711 12.1465 20.7753 12.135C20.7796 12.1236 20.7813 12.1114 20.7803 12.0993C20.7785 12.0771 20.768 12.0563 20.7507 12.0411C20.7334 12.026 20.7106 12.0176 20.687 12.0176C20.6635 12.0176 20.6407 12.026 20.6234 12.0411C20.6061 12.0563 20.5956 12.0771 20.5938 12.0993Z" fill="white" stroke="black" stroke-width="0.0206823"/>
<path fill-rule="evenodd" clip-rule="evenodd" d="M20.346 12.1286C20.345 12.1407 20.3467 12.1529 20.351 12.1643C20.3552 12.1758 20.3619 12.1863 20.3707 12.1952C20.3794 12.2041 20.39 12.2113 20.4018 12.2161C20.4136 12.221 20.4264 12.2235 20.4392 12.2235C20.4521 12.2235 20.4649 12.221 20.4767 12.2161C20.4885 12.2113 20.4991 12.2041 20.5078 12.1952C20.5166 12.1863 20.5233 12.1758 20.5275 12.1643C20.5318 12.1529 20.5335 12.1407 20.5325 12.1286C20.5307 12.1064 20.5202 12.0856 20.5029 12.0704C20.4856 12.0553 20.4628 12.0469 20.4392 12.0469C20.4157 12.0469 20.3929 12.0553 20.3756 12.0704C20.3583 12.0856 20.3477 12.1064 20.346 12.1286Z" fill="white" stroke="black" stroke-width="0.0206823"/>
<path fill-rule="evenodd" clip-rule="evenodd" d="M20.0738 12.1657C20.0729 12.1778 20.0746 12.19 20.0788 12.2014C20.0831 12.2129 20.0898 12.2234 20.0985 12.2323C20.1073 12.2413 20.1179 12.2484 20.1297 12.2532C20.1415 12.2581 20.1542 12.2606 20.1671 12.2606C20.18 12.2606 20.1927 12.2581 20.2045 12.2532C20.2163 12.2484 20.2269 12.2413 20.2357 12.2323C20.2444 12.2234 20.2511 12.2129 20.2554 12.2014C20.2596 12.19 20.2613 12.1778 20.2604 12.1657C20.2586 12.1435 20.248 12.1227 20.2307 12.1076C20.2134 12.0924 20.1907 12.084 20.1671 12.084C20.1435 12.084 20.1208 12.0924 20.1035 12.1076C20.0862 12.1227 20.0756 12.1435 20.0738 12.1657Z" fill="white" stroke="black" stroke-width="0.0206823"/>
<path fill-rule="evenodd" clip-rule="evenodd" d="M19.8463 12.2282C19.8453 12.2403 19.847 12.2525 19.8513 12.2639C19.8555 12.2754 19.8622 12.2859 19.871 12.2948C19.8797 12.3038 19.8903 12.3109 19.9021 12.3157C19.9139 12.3206 19.9267 12.3231 19.9396 12.3231C19.9524 12.3231 19.9652 12.3206 19.977 12.3157C19.9888 12.3109 19.9994 12.3038 20.0081 12.2948C20.0169 12.2859 20.0236 12.2754 20.0278 12.2639C20.0321 12.2525 20.0338 12.2403 20.0328 12.2282C20.0311 12.206 20.0205 12.1852 20.0032 12.1701C19.9859 12.1549 19.9631 12.1465 19.9396 12.1465C19.916 12.1465 19.8932 12.1549 19.8759 12.1701C19.8586 12.1852 19.8481 12.206 19.8463 12.2282Z" fill="white" stroke="black" stroke-width="0.0206823"/>
<path fill-rule="evenodd" clip-rule="evenodd" d="M17.5247 13.4494C17.5257 13.4615 17.524 13.4737 17.5197 13.4851C17.5155 13.4966 17.5087 13.5071 17.5 13.516C17.4912 13.5249 17.4806 13.5321 17.4688 13.5369C17.457 13.5418 17.4443 13.5443 17.4314 13.5443C17.4185 13.5443 17.4058 13.5418 17.394 13.5369C17.3822 13.5321 17.3716 13.5249 17.3629 13.516C17.3541 13.5071 17.3474 13.4966 17.3431 13.4851C17.3389 13.4737 17.3372 13.4615 17.3382 13.4494C17.3399 13.4272 17.3505 13.4064 17.3678 13.3912C17.3851 13.3761 17.4078 13.3677 17.4314 13.3677C17.455 13.3677 17.4777 13.3761 17.495 13.3912C17.5123 13.4064 17.5229 13.4272 17.5247 13.4494Z" fill="white" stroke="black" stroke-width="0.0206823"/>
<path fill-rule="evenodd" clip-rule="evenodd" d="M17.4312 13.2492C17.4322 13.2613 17.4305 13.2735 17.4263 13.2849C17.422 13.2964 17.4153 13.3069 17.4065 13.3158C17.3978 13.3247 17.3872 13.3319 17.3754 13.3367C17.3636 13.3416 17.3508 13.3441 17.338 13.3441C17.3251 13.3441 17.3124 13.3416 17.3006 13.3367C17.2888 13.3319 17.2782 13.3247 17.2694 13.3158C17.2607 13.3069 17.2539 13.2964 17.2497 13.2849C17.2454 13.2735 17.2437 13.2613 17.2447 13.2492C17.2465 13.227 17.2571 13.2062 17.2744 13.191C17.2917 13.1759 17.3144 13.1675 17.338 13.1675C17.3616 13.1675 17.3843 13.1759 17.4016 13.191C17.4189 13.2062 17.4295 13.227 17.4312 13.2492Z" fill="white" stroke="black" stroke-width="0.0206823"/>
<path fill-rule="evenodd" clip-rule="evenodd" d="M17.3825 13.0412C17.3834 13.0533 17.3817 13.0655 17.3775 13.0769C17.3732 13.0884 17.3665 13.0989 17.3578 13.1078C17.349 13.1167 17.3384 13.1238 17.3266 13.1287C17.3148 13.1336 17.3021 13.1361 17.2892 13.1361C17.2763 13.1361 17.2636 13.1336 17.2518 13.1287C17.24 13.1238 17.2294 13.1167 17.2206 13.1078C17.2119 13.0989 17.2052 13.0884 17.2009 13.0769C17.1967 13.0655 17.195 13.0533 17.1959 13.0412C17.1977 13.0189 17.2083 12.9982 17.2256 12.983C17.2429 12.9679 17.2656 12.9595 17.2892 12.9595C17.3128 12.9595 17.3355 12.9679 17.3528 12.983C17.3701 12.9982 17.3807 13.0189 17.3825 13.0412Z" fill="white" stroke="black" stroke-width="0.0206823"/>
<path fill-rule="evenodd" clip-rule="evenodd" d="M17.35 12.8244C17.351 12.8365 17.3493 12.8487 17.345 12.8601C17.3408 12.8716 17.3341 12.8821 17.3253 12.891C17.3165 12.8999 17.3059 12.9071 17.2941 12.9119C17.2823 12.9168 17.2696 12.9193 17.2567 12.9193C17.2439 12.9193 17.2311 12.9168 17.2193 12.9119C17.2075 12.9071 17.1969 12.8999 17.1882 12.891C17.1794 12.8821 17.1727 12.8716 17.1685 12.8601C17.1642 12.8487 17.1625 12.8365 17.1635 12.8244C17.1652 12.8022 17.1758 12.7814 17.1931 12.7662C17.2104 12.7511 17.2331 12.7427 17.2567 12.7427C17.2803 12.7427 17.3031 12.7511 17.3203 12.7662C17.3376 12.7814 17.3482 12.8022 17.35 12.8244Z" fill="white" stroke="black" stroke-width="0.0206823"/>
<path fill-rule="evenodd" clip-rule="evenodd" d="M17.3581 12.591C17.3591 12.6031 17.3574 12.6153 17.3531 12.6267C17.3489 12.6382 17.3422 12.6487 17.3334 12.6576C17.3247 12.6665 17.3141 12.6737 17.3023 12.6785C17.2905 12.6834 17.2777 12.6859 17.2649 12.6859C17.252 12.6859 17.2392 12.6834 17.2274 12.6785C17.2157 12.6737 17.205 12.6665 17.1963 12.6576C17.1875 12.6487 17.1808 12.6382 17.1766 12.6267C17.1723 12.6153 17.1706 12.6031 17.1716 12.591C17.1734 12.5688 17.1839 12.548 17.2012 12.5328C17.2185 12.5177 17.2413 12.5093 17.2649 12.5093C17.2884 12.5093 17.3112 12.5177 17.3285 12.5328C17.3458 12.548 17.3564 12.5688 17.3581 12.591Z" fill="white" stroke="black" stroke-width="0.0206823"/>
<path fill-rule="evenodd" clip-rule="evenodd" d="M17.4353 12.3659C17.4363 12.378 17.4346 12.3902 17.4303 12.4016C17.4261 12.4131 17.4194 12.4236 17.4106 12.4325C17.4019 12.4414 17.3913 12.4486 17.3795 12.4534C17.3677 12.4583 17.3549 12.4608 17.3421 12.4608C17.3292 12.4608 17.3165 12.4583 17.3047 12.4534C17.2929 12.4486 17.2823 12.4414 17.2735 12.4325C17.2647 12.4236 17.258 12.4131 17.2538 12.4016C17.2495 12.3902 17.2478 12.378 17.2488 12.3659C17.2506 12.3437 17.2612 12.3229 17.2785 12.3077C17.2958 12.2926 17.3185 12.2842 17.3421 12.2842C17.3657 12.2842 17.3884 12.2926 17.4057 12.3077C17.423 12.3229 17.4336 12.3437 17.4353 12.3659Z" fill="white" stroke="black" stroke-width="0.0206823"/>
<path fill-rule="evenodd" clip-rule="evenodd" d="M17.6019 12.1867C17.6029 12.1988 17.6012 12.211 17.5969 12.2224C17.5927 12.2339 17.586 12.2444 17.5772 12.2533C17.5684 12.2622 17.5578 12.2694 17.546 12.2742C17.5342 12.2791 17.5215 12.2816 17.5086 12.2816C17.4958 12.2816 17.483 12.2791 17.4712 12.2742C17.4594 12.2694 17.4488 12.2622 17.4401 12.2533C17.4313 12.2444 17.4246 12.2339 17.4203 12.2224C17.4161 12.211 17.4144 12.1988 17.4154 12.1867C17.4171 12.1645 17.4277 12.1437 17.445 12.1285C17.4623 12.1134 17.485 12.105 17.5086 12.105C17.5322 12.105 17.5549 12.1134 17.5722 12.1285C17.5895 12.1437 17.6001 12.1645 17.6019 12.1867Z" fill="white" stroke="black" stroke-width="0.0206823"/>
<path fill-rule="evenodd" clip-rule="evenodd" d="M17.8375 12.0705C17.8385 12.0826 17.8368 12.0948 17.8325 12.1062C17.8283 12.1177 17.8215 12.1282 17.8128 12.1371C17.804 12.146 17.7934 12.1531 17.7816 12.158C17.7698 12.1629 17.7571 12.1654 17.7442 12.1654C17.7314 12.1654 17.7186 12.1629 17.7068 12.158C17.695 12.1531 17.6844 12.146 17.6757 12.1371C17.6669 12.1282 17.6602 12.1177 17.6559 12.1062C17.6517 12.0948 17.65 12.0826 17.651 12.0705C17.6527 12.0482 17.6633 12.0275 17.6806 12.0123C17.6979 11.9972 17.7206 11.9888 17.7442 11.9888C17.7678 11.9888 17.7905 11.9972 17.8078 12.0123C17.8251 12.0275 17.8357 12.0482 17.8375 12.0705Z" fill="white" stroke="black" stroke-width="0.0206823"/>
<path fill-rule="evenodd" clip-rule="evenodd" d="M18.0691 12.0534C18.07 12.0655 18.0683 12.0777 18.0641 12.0891C18.0598 12.1006 18.0531 12.1111 18.0444 12.12C18.0356 12.1289 18.025 12.1361 18.0132 12.1409C18.0014 12.1458 17.9887 12.1483 17.9758 12.1483C17.9629 12.1483 17.9502 12.1458 17.9384 12.1409C17.9266 12.1361 17.916 12.1289 17.9072 12.12C17.8985 12.1111 17.8918 12.1006 17.8875 12.0891C17.8833 12.0777 17.8816 12.0655 17.8825 12.0534C17.8843 12.0312 17.8949 12.0104 17.9122 11.9952C17.9295 11.9801 17.9522 11.9717 17.9758 11.9717C17.9994 11.9717 18.0221 11.9801 18.0394 11.9952C18.0567 12.0104 18.0673 12.0312 18.0691 12.0534Z" fill="white" stroke="black" stroke-width="0.0206823"/>
<path fill-rule="evenodd" clip-rule="evenodd" d="M18.3169 12.0578C18.3178 12.0699 18.3161 12.0821 18.3119 12.0935C18.3076 12.105 18.3009 12.1155 18.2922 12.1244C18.2834 12.1333 18.2728 12.1405 18.261 12.1453C18.2492 12.1502 18.2365 12.1527 18.2236 12.1527C18.2107 12.1527 18.198 12.1502 18.1862 12.1453C18.1744 12.1405 18.1638 12.1333 18.155 12.1244C18.1463 12.1155 18.1396 12.105 18.1353 12.0935C18.1311 12.0821 18.1294 12.0699 18.1303 12.0578C18.1321 12.0356 18.1427 12.0148 18.16 11.9996C18.1773 11.9845 18.2 11.9761 18.2236 11.9761C18.2472 11.9761 18.2699 11.9845 18.2872 11.9996C18.3045 12.0148 18.3151 12.0356 18.3169 12.0578Z" fill="white" stroke="black" stroke-width="0.0206823"/>
<path fill-rule="evenodd" clip-rule="evenodd" d="M18.5688 12.0993C18.5697 12.1114 18.568 12.1236 18.5638 12.135C18.5595 12.1465 18.5528 12.157 18.5441 12.1659C18.5353 12.1748 18.5247 12.182 18.5129 12.1868C18.5011 12.1917 18.4884 12.1942 18.4755 12.1942C18.4626 12.1942 18.4499 12.1917 18.4381 12.1868C18.4263 12.182 18.4157 12.1748 18.4069 12.1659C18.3982 12.157 18.3915 12.1465 18.3872 12.135C18.383 12.1236 18.3813 12.1114 18.3822 12.0993C18.384 12.0771 18.3946 12.0563 18.4119 12.0411C18.4292 12.026 18.4519 12.0176 18.4755 12.0176C18.4991 12.0176 18.5218 12.026 18.5391 12.0411C18.5564 12.0563 18.567 12.0771 18.5688 12.0993Z" fill="white" stroke="black" stroke-width="0.0206823"/>
<path fill-rule="evenodd" clip-rule="evenodd" d="M18.8206 12.1286C18.8216 12.1407 18.8199 12.1529 18.8157 12.1643C18.8114 12.1758 18.8047 12.1863 18.7959 12.1952C18.7872 12.2041 18.7766 12.2113 18.7648 12.2161C18.753 12.221 18.7403 12.2235 18.7274 12.2235C18.7145 12.2235 18.7018 12.221 18.69 12.2161C18.6782 12.2113 18.6676 12.2041 18.6588 12.1952C18.6501 12.1863 18.6433 12.1758 18.6391 12.1643C18.6348 12.1529 18.6331 12.1407 18.6341 12.1286C18.6359 12.1064 18.6465 12.0856 18.6638 12.0704C18.6811 12.0553 18.7038 12.0469 18.7274 12.0469C18.751 12.0469 18.7737 12.0553 18.791 12.0704C18.8083 12.0856 18.8189 12.1064 18.8206 12.1286Z" fill="white" stroke="black" stroke-width="0.0206823"/>
<path fill-rule="evenodd" clip-rule="evenodd" d="M19.0847 12.1662C19.0856 12.1783 19.084 12.1905 19.0797 12.2019C19.0755 12.2134 19.0687 12.2239 19.06 12.2328C19.0512 12.2417 19.0406 12.2488 19.0288 12.2537C19.017 12.2586 19.0043 12.2611 18.9914 12.2611C18.9785 12.2611 18.9658 12.2586 18.954 12.2537C18.9422 12.2488 18.9316 12.2417 18.9229 12.2328C18.9141 12.2239 18.9074 12.2134 18.9031 12.2019C18.8989 12.1905 18.8972 12.1783 18.8982 12.1662C18.8999 12.1439 18.9105 12.1232 18.9278 12.108C18.9451 12.0929 18.9678 12.0845 18.9914 12.0845C19.015 12.0845 19.0377 12.0929 19.055 12.108C19.0723 12.1232 19.0829 12.1439 19.0847 12.1662Z" fill="white" stroke="black" stroke-width="0.0206823"/>
<path fill-rule="evenodd" clip-rule="evenodd" d="M19.3163 12.2287C19.3172 12.2408 19.3155 12.253 19.3113 12.2644C19.307 12.2759 19.3003 12.2864 19.2916 12.2953C19.2828 12.3042 19.2722 12.3113 19.2604 12.3162C19.2486 12.3211 19.2359 12.3236 19.223 12.3236C19.2101 12.3236 19.1974 12.3211 19.1856 12.3162C19.1738 12.3113 19.1632 12.3042 19.1544 12.2953C19.1457 12.2864 19.139 12.2759 19.1347 12.2644C19.1305 12.253 19.1288 12.2408 19.1297 12.2287C19.1315 12.2064 19.1421 12.1857 19.1594 12.1705C19.1767 12.1554 19.1994 12.147 19.223 12.147C19.2466 12.147 19.2693 12.1554 19.2866 12.1705C19.3039 12.1857 19.3145 12.2064 19.3163 12.2287Z" fill="white" stroke="black" stroke-width="0.0206823"/>
<path fill-rule="evenodd" clip-rule="evenodd" d="M17.6588 13.6286C17.6597 13.6407 17.658 13.6529 17.6538 13.6643C17.6495 13.6758 17.6428 13.6863 17.6341 13.6952C17.6253 13.7041 17.6147 13.7113 17.6029 13.7161C17.5911 13.721 17.5784 13.7235 17.5655 13.7235C17.5526 13.7235 17.5399 13.721 17.5281 13.7161C17.5163 13.7113 17.5057 13.7041 17.4969 13.6952C17.4882 13.6863 17.4815 13.6758 17.4772 13.6643C17.473 13.6529 17.4713 13.6407 17.4722 13.6286C17.474 13.6064 17.4846 13.5856 17.5019 13.5704C17.5192 13.5553 17.5419 13.5469 17.5655 13.5469C17.5891 13.5469 17.6118 13.5553 17.6291 13.5704C17.6464 13.5856 17.657 13.6064 17.6588 13.6286Z" fill="white" stroke="black" stroke-width="0.0206823"/>
<path fill-rule="evenodd" clip-rule="evenodd" d="M17.7225 13.6334C17.7225 13.6334 17.3652 13.3754 17.3557 12.7548C17.3504 12.3976 17.5365 12.1396 18.002 12.1396C18.6535 12.1396 19.5841 12.4031 19.5841 12.4031V12.4909C19.5841 12.4909 18.8396 12.2275 18.0015 12.2275C17.6295 12.2275 17.4429 12.4854 17.4429 12.7493C17.4429 13.1889 17.816 13.6339 17.816 13.6339V14.3368H17.7225V13.6334Z" fill="#FFF100" stroke="black" stroke-width="0.0206823"/>
<path fill-rule="evenodd" clip-rule="evenodd" d="M18.3693 13.9584C18.3693 13.9584 18.3961 13.8915 18.4934 13.8915C18.5596 13.8915 18.6174 13.9584 18.6174 14.0253V14.1593H18.6796V14.0253C18.6796 13.9584 18.7416 13.8915 18.8036 13.8915C18.8968 13.8915 18.9278 13.9584 18.9278 13.9584C18.9278 13.9584 18.9278 13.7575 18.8036 13.7575C18.7106 13.7575 18.6796 13.8244 18.6796 13.8244C18.6796 13.8244 18.7106 13.7241 18.7106 13.6235C18.7106 13.523 18.6486 13.4561 18.6486 13.4561C18.6486 13.4689 18.5864 13.5231 18.5864 13.6235C18.5864 13.7239 18.6174 13.8244 18.6174 13.8244C18.6174 13.8244 18.5864 13.7575 18.4934 13.7575C18.3693 13.7575 18.3693 13.9584 18.3693 13.9584Z" fill="#FFF100" stroke="black" stroke-width="0.0165828"/>
<path fill-rule="evenodd" clip-rule="evenodd" d="M20.2299 13.9584C20.2299 13.9584 20.2567 13.8915 20.354 13.8915C20.4202 13.8915 20.478 13.9584 20.478 14.0253V14.1593H20.5402V14.0253C20.5402 13.9584 20.6022 13.8915 20.6642 13.8915C20.7574 13.8915 20.7884 13.9584 20.7884 13.9584C20.7884 13.9584 20.7884 13.7575 20.6642 13.7575C20.5712 13.7575 20.5402 13.8244 20.5402 13.8244C20.5402 13.8244 20.5712 13.7241 20.5712 13.6235C20.5712 13.523 20.5092 13.4561 20.5092 13.4561C20.5092 13.4689 20.447 13.5231 20.447 13.6235C20.447 13.7239 20.478 13.8244 20.478 13.8244C20.478 13.8244 20.447 13.7575 20.354 13.7575C20.2299 13.7575 20.2299 13.9584 20.2299 13.9584Z" fill="#FFF100" stroke="black" stroke-width="0.0165828"/>
<path fill-rule="evenodd" clip-rule="evenodd" d="M17.7225 14.8641V14.0729C17.7225 14.0729 17.9085 14.3368 18.188 14.3368C18.4166 14.3368 18.6536 13.9851 18.6536 13.9851C18.6536 13.9851 18.8716 14.249 19.1191 14.249C19.3398 14.249 19.5841 13.9087 19.5841 13.9087C19.5841 13.9087 19.8111 14.249 20.0497 14.249C20.2887 14.249 20.5152 13.9851 20.5152 13.9851C20.5152 13.9851 20.7585 14.3368 21.0738 14.3368C21.3528 14.3368 21.4463 14.0729 21.4463 14.0729V14.8641H17.7225Z" fill="#FFF100" stroke="black" stroke-width="0.0206823"/>
<path fill-rule="evenodd" clip-rule="evenodd" d="M17.7192 14.8642V14.249C17.7192 14.249 18.2777 14.4241 18.2777 14.8642H17.7192Z" fill="#FFF100" stroke="black" stroke-width="0.0206823"/>
<path fill-rule="evenodd" clip-rule="evenodd" d="M21.4393 14.8642V14.249C21.4393 14.249 20.8808 14.4241 20.8808 14.8642H21.4393Z" fill="#FFF100" stroke="black" stroke-width="0.0206823"/>
<path fill-rule="evenodd" clip-rule="evenodd" d="M18.095 14.8643C18.095 14.4243 18.6535 14.1465 18.6535 14.1465C18.6535 14.1465 19.2121 14.4243 19.2121 14.8643H18.095Z" fill="#FFF100" stroke="black" stroke-width="0.0206823"/>
<path fill-rule="evenodd" clip-rule="evenodd" d="M19.9556 14.8643C19.9556 14.4243 20.5142 14.1465 20.5142 14.1465C20.5142 14.1465 21.0727 14.4243 21.0727 14.8643H19.9556Z" fill="#FFF100" stroke="black" stroke-width="0.0206823"/>
<path fill-rule="evenodd" clip-rule="evenodd" d="M18.9318 14.8669C18.9318 14.4274 19.5838 14.0762 19.5838 14.0762C19.5838 14.0762 20.2354 14.4274 20.2354 14.8669H18.9323H18.9318Z" fill="#FFF100" stroke="black" stroke-width="0.0206823"/>
<path fill-rule="evenodd" clip-rule="evenodd" d="M21.5363 14.8641C21.3524 14.7763 20.6739 14.6885 19.5814 14.6885C18.4889 14.6885 17.7631 14.7763 17.5787 14.8641C17.3948 14.9519 17.3948 15.128 17.5787 15.2158C17.7626 15.3036 18.4894 15.3914 19.5814 15.3914C20.6734 15.3914 21.3524 15.3036 21.5363 15.2158C21.7202 15.128 21.7202 14.9519 21.5363 14.8641Z" fill="white" stroke="black" stroke-width="0.0205652"/>
<path fill-rule="evenodd" clip-rule="evenodd" d="M21.446 15.2165C21.446 15.3915 19.8941 15.3915 19.5813 15.3915C19.2441 15.3915 17.7206 15.4415 17.7206 15.2165C17.7206 15.0415 19.2563 15.0415 19.5813 15.0415C19.9063 15.0415 21.446 15.0748 21.446 15.2165Z" fill="#808080"/>
<path fill-rule="evenodd" clip-rule="evenodd" d="M17.9075 14.5832C17.9075 14.6415 17.8669 14.6915 17.8141 14.6915C17.7613 14.6915 17.7206 14.6415 17.7206 14.5832C17.7206 14.5248 17.7613 14.479 17.8141 14.479C17.8669 14.479 17.9075 14.529 17.9075 14.5832ZM21.4419 14.5832C21.4419 14.6415 21.4013 14.6915 21.3485 14.6915C21.2956 14.6915 21.255 14.6415 21.255 14.5832C21.255 14.5248 21.2956 14.479 21.3485 14.479C21.4013 14.479 21.4419 14.529 21.4419 14.5832Z" fill="#CC0000"/>
<path fill-rule="evenodd" clip-rule="evenodd" d="M19.7682 14.5331C19.7682 14.5873 19.6828 14.6331 19.5813 14.6331C19.4797 14.6331 19.3944 14.5873 19.3944 14.529C19.3944 14.4706 19.4757 14.4248 19.5813 14.4248C19.6869 14.4248 19.7682 14.4748 19.7682 14.529V14.5331Z" fill="black"/>
<path fill-rule="evenodd" clip-rule="evenodd" d="M20.6619 14.5331C20.6619 14.5873 20.5969 14.6331 20.5197 14.6331C20.4425 14.6331 20.3816 14.5873 20.3816 14.529C20.3816 14.4706 20.4466 14.4248 20.5197 14.4248C20.5929 14.4248 20.6619 14.4748 20.6619 14.529V14.5331ZM18.7444 14.5331C18.7444 14.5873 18.6835 14.6331 18.6063 14.6331C18.5291 14.6331 18.4641 14.5873 18.4641 14.529C18.4641 14.4706 18.525 14.4248 18.6063 14.4248C18.6835 14.4248 18.7444 14.4748 18.7444 14.529V14.5331Z" fill="#006300"/>
<path fill-rule="evenodd" clip-rule="evenodd" d="M19.2099 13.9268C19.2099 13.9268 19.3162 13.7765 19.4228 13.7765H19.529V13.8766C19.529 14.0274 19.3696 14.0779 19.3696 14.0779H19.795C19.795 14.0779 19.6353 14.0274 19.6353 13.8766V13.7765H19.7419C19.8482 13.7765 19.9544 13.9273 19.9544 13.9273V13.5251C19.9544 13.5251 19.8482 13.6759 19.7419 13.6759H19.6353V13.5752C19.6353 13.4247 19.795 13.3745 19.795 13.3745H19.3693C19.3693 13.3745 19.5287 13.4247 19.5287 13.5752V13.6759H19.4224C19.3159 13.6759 19.2096 13.5251 19.2096 13.5251V13.9271L19.2099 13.9268Z" fill="#FFF100" stroke="black" stroke-width="0.0195001"/>
<path fill-rule="evenodd" clip-rule="evenodd" d="M17.7156 14.2494H17.822C17.822 14.2494 17.7422 14.2055 17.7422 14.0736V13.986H17.7953C17.8486 13.986 17.9019 14.118 17.9019 14.118V13.766C17.9019 13.766 17.8486 13.8979 17.7953 13.8979H17.7422V13.8099C17.7422 13.6782 17.822 13.6343 17.822 13.6343H17.7156V14.2494Z" fill="#FFF100" stroke="black" stroke-width="0.019349"/>
<path fill-rule="evenodd" clip-rule="evenodd" d="M21.447 14.2494H21.3405C21.3405 14.2494 21.4204 14.2055 21.4204 14.0736V13.986H21.3672C21.3139 13.986 21.2606 14.118 21.2606 14.118V13.766C21.2606 13.766 21.3139 13.8979 21.3672 13.8979H21.4204V13.8099C21.4204 13.6782 21.3405 13.6343 21.3405 13.6343H21.447V14.2494Z" fill="#FFF100" stroke="black" stroke-width="0.019349"/>
<path fill-rule="evenodd" clip-rule="evenodd" d="M19.6771 13.7216C19.6771 13.7449 19.6673 13.7672 19.6499 13.7837C19.6324 13.8002 19.6088 13.8094 19.5841 13.8094C19.5594 13.8094 19.5358 13.8002 19.5183 13.7837C19.5009 13.7672 19.4911 13.7449 19.4911 13.7216C19.4911 13.6983 19.5009 13.676 19.5183 13.6595C19.5358 13.643 19.5594 13.6338 19.5841 13.6338C19.6088 13.6338 19.6324 13.643 19.6499 13.6595C19.6673 13.676 19.6771 13.6983 19.6771 13.7216Z" fill="white" stroke="black" stroke-width="0.0206823"/>
<path fill-rule="evenodd" clip-rule="evenodd" d="M19.2099 12.0811C19.2099 12.0811 19.3162 11.9308 19.4228 11.9308H19.529V12.0309C19.529 12.1817 19.3696 12.2322 19.3696 12.2322H19.795C19.795 12.2322 19.6353 12.1817 19.6353 12.0309V11.9308H19.7419C19.8482 11.9308 19.9544 12.0816 19.9544 12.0816V11.6793C19.9544 11.6793 19.8482 11.8302 19.7419 11.8302H19.6353V11.7295C19.6353 11.579 19.795 11.5288 19.795 11.5288H19.3693C19.3693 11.5288 19.5287 11.579 19.5287 11.7295V11.8302H19.4224C19.3159 11.8302 19.2096 11.6793 19.2096 11.6793V12.0814L19.2099 12.0811Z" fill="#FFF100" stroke="black" stroke-width="0.0195001"/>
<path fill-rule="evenodd" clip-rule="evenodd" d="M19.6852 11.8925C19.6852 11.9158 19.6754 11.9381 19.658 11.9546C19.6405 11.971 19.6169 11.9803 19.5922 11.9803C19.5675 11.9803 19.5439 11.971 19.5264 11.9546C19.509 11.9381 19.4992 11.9158 19.4992 11.8925C19.4992 11.8692 19.509 11.8469 19.5264 11.8304C19.5439 11.8139 19.5675 11.8047 19.5922 11.8047C19.6169 11.8047 19.6405 11.8139 19.658 11.8304C19.6754 11.8469 19.6852 11.8692 19.6852 11.8925Z" fill="white" stroke="black" stroke-width="0.0206823"/>
<path fill-rule="evenodd" clip-rule="evenodd" d="M19.3981 12.231H19.7706V12.4949H19.3976L19.3981 12.231Z" fill="#FFF100" stroke="black" stroke-width="0.0206823"/>
<path fill-rule="evenodd" clip-rule="evenodd" d="M19.3981 12.3687H19.7706V13.3732H19.3976L19.3981 12.3687Z" fill="#FFF100" stroke="black" stroke-width="0.0206823"/>
<path fill-rule="evenodd" clip-rule="evenodd" d="M19.6737 13.1911C19.6747 13.2032 19.673 13.2154 19.6688 13.2268C19.6645 13.2383 19.6578 13.2488 19.649 13.2577C19.6403 13.2666 19.6297 13.2738 19.6179 13.2786C19.6061 13.2835 19.5933 13.286 19.5805 13.286C19.5676 13.286 19.5549 13.2835 19.5431 13.2786C19.5313 13.2738 19.5207 13.2666 19.5119 13.2577C19.5031 13.2488 19.4964 13.2383 19.4922 13.2268C19.4879 13.2154 19.4862 13.2032 19.4872 13.1911C19.489 13.1689 19.4996 13.1481 19.5169 13.1329C19.5342 13.1178 19.5569 13.1094 19.5805 13.1094C19.6041 13.1094 19.6268 13.1178 19.6441 13.1329C19.6614 13.1481 19.672 13.1689 19.6737 13.1911Z" fill="white" stroke="black" stroke-width="0.0206823"/>
<path fill-rule="evenodd" clip-rule="evenodd" d="M19.6737 12.966C19.6747 12.9781 19.673 12.9903 19.6688 13.0017C19.6645 13.0132 19.6578 13.0237 19.649 13.0326C19.6403 13.0415 19.6297 13.0487 19.6179 13.0535C19.6061 13.0584 19.5933 13.0609 19.5805 13.0609C19.5676 13.0609 19.5549 13.0584 19.5431 13.0535C19.5313 13.0487 19.5207 13.0415 19.5119 13.0326C19.5031 13.0237 19.4964 13.0132 19.4922 13.0017C19.4879 12.9903 19.4862 12.9781 19.4872 12.966C19.489 12.9438 19.4996 12.923 19.5169 12.9078C19.5342 12.8927 19.5569 12.8843 19.5805 12.8843C19.6041 12.8843 19.6268 12.8927 19.6441 12.9078C19.6614 12.923 19.672 12.9438 19.6737 12.966Z" fill="white" stroke="black" stroke-width="0.0206823"/>
<path fill-rule="evenodd" clip-rule="evenodd" d="M19.6737 12.758C19.6747 12.7701 19.673 12.7823 19.6688 12.7937C19.6645 12.8052 19.6578 12.8157 19.649 12.8246C19.6403 12.8335 19.6297 12.8406 19.6179 12.8455C19.6061 12.8504 19.5933 12.8529 19.5805 12.8529C19.5676 12.8529 19.5549 12.8504 19.5431 12.8455C19.5313 12.8406 19.5207 12.8335 19.5119 12.8246C19.5031 12.8157 19.4964 12.8052 19.4922 12.7937C19.4879 12.7823 19.4862 12.7701 19.4872 12.758C19.489 12.7357 19.4996 12.715 19.5169 12.6998C19.5342 12.6847 19.5569 12.6763 19.5805 12.6763C19.6041 12.6763 19.6268 12.6847 19.6441 12.6998C19.6614 12.715 19.672 12.7357 19.6737 12.758Z" fill="white" stroke="black" stroke-width="0.0206823"/>
<path fill-rule="evenodd" clip-rule="evenodd" d="M19.6737 12.5368C19.6747 12.5489 19.673 12.5611 19.6688 12.5725C19.6645 12.584 19.6578 12.5945 19.649 12.6034C19.6403 12.6123 19.6297 12.6195 19.6179 12.6243C19.6061 12.6292 19.5933 12.6317 19.5805 12.6317C19.5676 12.6317 19.5549 12.6292 19.5431 12.6243C19.5313 12.6195 19.5207 12.6123 19.5119 12.6034C19.5031 12.5945 19.4964 12.584 19.4922 12.5725C19.4879 12.5611 19.4862 12.5489 19.4872 12.5368C19.489 12.5146 19.4996 12.4938 19.5169 12.4786C19.5342 12.4635 19.5569 12.4551 19.5805 12.4551C19.6041 12.4551 19.6268 12.4635 19.6441 12.4786C19.6614 12.4938 19.672 12.5146 19.6737 12.5368Z" fill="white" stroke="black" stroke-width="0.0206823"/>
<path fill-rule="evenodd" clip-rule="evenodd" d="M19.7804 14.8667C19.7804 14.9084 19.695 14.9376 19.5854 14.9376C19.4757 14.9376 19.4025 14.9084 19.4025 14.8667C19.4025 14.8251 19.4838 14.7959 19.5894 14.7959C19.6951 14.7959 19.7804 14.8292 19.7804 14.8667ZM21.4907 15.0417C21.4785 15.0709 21.3851 15.0751 21.2835 15.0417C21.1779 15.0209 21.1047 14.9834 21.1129 14.9584C21.1251 14.9251 21.2185 14.9251 21.32 14.9501C21.4257 14.9751 21.4988 15.0126 21.4907 15.0417ZM20.7716 14.9251C20.7716 14.9584 20.6782 14.9792 20.5685 14.9751C20.4669 14.9667 20.3816 14.9334 20.3857 14.8917C20.3897 14.8584 20.4832 14.8417 20.5888 14.8501C20.6944 14.8584 20.7797 14.8876 20.7716 14.9251ZM17.6232 15.0417C17.6313 15.0709 17.7247 15.0751 17.8263 15.0417C17.9319 15.0209 18.0091 14.9834 17.9969 14.9584C17.9847 14.9251 17.8954 14.9251 17.7938 14.9501C17.6882 14.9751 17.615 15.0126 17.6232 15.0417ZM18.3747 14.9084C18.3788 14.9417 18.4722 14.9626 18.5779 14.9542C18.6835 14.9459 18.7688 14.9126 18.7607 14.8751C18.7607 14.8459 18.6672 14.8209 18.5575 14.8292C18.456 14.8376 18.3707 14.8709 18.3747 14.9084Z" fill="black"/>
<path d="M0 0H13V10H0V0Z" fill="#012169"/>
<path d="M1.52344 0L6.47969 3.77083L11.4156 0H13V1.29167L8.125 5.02083L13 8.72917V10H11.375L6.5 6.27083L1.64531 10H0V8.75L4.85469 5.04167L0 1.33333V0H1.52344Z" fill="white"/>
<path d="M8.6125 5.85417L13 9.16667V10L7.49531 5.85417H8.6125ZM4.875 6.27083L4.99687 7L1.09687 10H0L4.875 6.27083ZM13 0V0.0625L7.94219 3.97917L7.98281 3.0625L11.9844 0H13ZM0 0L4.85469 3.66667H3.63594L0 0.875V0Z" fill="#C8102E"/>
<path d="M4.89531 0V10H8.14531V0H4.89531ZM0 3.33333V6.66667H13V3.33333H0Z" fill="white"/>
<path d="M0 4.02083V6.02083H13V4.02083H0ZM5.54531 0V10H7.49531V0H5.54531Z" fill="#C8102E"/>
</g>
<defs>
<clipPath id="clip0_430_2498">
<rect width="26" height="20" fill="white"/>
</clipPath>
</defs>
</svg>
