<svg width="26" height="20" viewBox="0 0 26 20" fill="none" xmlns="http://www.w3.org/2000/svg">
<g clip-path="url(#clip0_430_2277)">
<path d="M0 0H26V20H0V0Z" fill="#003399"/>
<path d="M13 3.18213L12.7111 4.16978L13.1926 4.26855L13 3.18213Z" fill="#FFCC00"/>
<path d="M13 3.18213L13.2889 4.16978L12.8074 4.26855L13 3.18213Z" fill="#FFCC00"/>
<path d="M13.9169 3.86239L12.9109 3.89186L12.9653 4.38839L13.9169 3.86239Z" fill="#FFCC00"/>
<path d="M13.9174 3.86319L13.0868 4.45143L12.8489 4.01668L13.9174 3.86319Z" fill="#FFCC00"/>
<path d="M13.5648 4.96864L13.2354 3.99598L12.7875 4.20821L13.5648 4.96864Z" fill="#FFCC00"/>
<path d="M13.5652 4.96837L12.7661 4.34608L13.101 3.97436L13.5652 4.96837Z" fill="#FFCC00"/>
<path d="M12.0831 3.86239L13.0891 3.89186L13.0347 4.38839L12.0831 3.86239Z" fill="#FFCC00"/>
<path d="M12.0826 3.86319L12.9132 4.45143L13.1511 4.01668L12.0826 3.86319Z" fill="#FFCC00"/>
<path d="M12.4352 4.96864L12.7646 3.99598L13.2125 4.20821L12.4352 4.96864Z" fill="#FFCC00"/>
<path d="M12.4348 4.96837L13.2339 4.34608L12.899 3.97436L12.4348 4.96837Z" fill="#FFCC00"/>
<path d="M13 15.0342L12.7111 16.0218L13.1926 16.1206L13 15.0342Z" fill="#FFCC00"/>
<path d="M13 15.0342L13.2889 16.0218L12.8074 16.1206L13 15.0342Z" fill="#FFCC00"/>
<path d="M13.9169 15.7144L12.9109 15.7439L12.9653 16.2404L13.9169 15.7144Z" fill="#FFCC00"/>
<path d="M13.9174 15.7152L13.0868 16.3035L12.8489 15.8687L13.9174 15.7152Z" fill="#FFCC00"/>
<path d="M13.5648 16.8207L13.2354 15.848L12.7875 16.0603L13.5648 16.8207Z" fill="#FFCC00"/>
<path d="M13.5652 16.8204L12.7661 16.1981L13.101 15.8264L13.5652 16.8204Z" fill="#FFCC00"/>
<path d="M12.0831 15.7144L13.0891 15.7439L13.0347 16.2404L12.0831 15.7144Z" fill="#FFCC00"/>
<path d="M12.0826 15.7152L12.9132 16.3035L13.1511 15.8687L12.0826 15.7152Z" fill="#FFCC00"/>
<path d="M12.4352 16.8207L12.7646 15.848L13.2125 16.0603L12.4352 16.8207Z" fill="#FFCC00"/>
<path d="M12.4348 16.8204L13.2339 16.1981L12.899 15.8264L12.4348 16.8204Z" fill="#FFCC00"/>
<path d="M7.22224 9.10791L6.93335 10.0956L7.41483 10.1943L7.22224 9.10791Z" fill="#FFCC00"/>
<path d="M7.22222 9.10791L7.51111 10.0956L7.02963 10.1943L7.22222 9.10791Z" fill="#FFCC00"/>
<path d="M8.13908 9.78817L7.13316 9.81764L7.18749 10.3142L8.13908 9.78817Z" fill="#FFCC00"/>
<path d="M8.1396 9.78897L7.30907 10.3772L7.07109 9.94246L8.1396 9.78897Z" fill="#FFCC00"/>
<path d="M7.78707 10.8944L7.4576 9.92176L7.00977 10.134L7.78707 10.8944Z" fill="#FFCC00"/>
<path d="M7.78745 10.8942L6.9883 10.2719L7.32327 9.90014L7.78745 10.8942Z" fill="#FFCC00"/>
<path d="M6.30538 9.78817L7.31129 9.81764L7.25697 10.3142L6.30538 9.78817Z" fill="#FFCC00"/>
<path d="M6.30485 9.78897L7.13539 10.3772L7.37336 9.94246L6.30485 9.78897Z" fill="#FFCC00"/>
<path d="M6.65733 10.8944L6.9868 9.92176L7.43463 10.134L6.65733 10.8944Z" fill="#FFCC00"/>
<path d="M6.657 10.8942L7.45616 10.2719L7.12118 9.90014L6.657 10.8942Z" fill="#FFCC00"/>
<path d="M9.61685 5.8067L10.416 5.18452L10.0809 4.81273L9.61685 5.8067Z" fill="#FFCC00"/>
<path d="M9.61709 5.80707L9.94644 4.83443L10.3943 5.04674L9.61709 5.80707Z" fill="#FFCC00"/>
<path d="M9.26531 4.70237L10.094 5.29002L10.3331 4.85317L9.26531 4.70237Z" fill="#FFCC00"/>
<path d="M9.26557 4.70192L10.2711 4.72849L10.2154 5.22677L9.26557 4.70192Z" fill="#FFCC00"/>
<path d="M10.1795 4.02215L9.89679 5.00689L10.3746 5.1074L10.1795 4.02215Z" fill="#FFCC00"/>
<path d="M10.1803 4.02179L10.4705 5.00884L9.99345 5.10549L10.1803 4.02179Z" fill="#FFCC00"/>
<path d="M10.7486 5.80874L9.94837 5.18144L10.2794 4.81274L10.7486 5.80874Z" fill="#FFCC00"/>
<path d="M10.749 5.80844L10.4141 4.83476L9.96955 5.04336L10.749 5.80844Z" fill="#FFCC00"/>
<path d="M11.0971 4.70449L10.2723 5.29096L10.0309 4.84996L11.0971 4.70449Z" fill="#FFCC00"/>
<path d="M11.0974 4.70469L10.0926 4.72553L10.151 5.22725L11.0974 4.70469Z" fill="#FFCC00"/>
<path d="M8.60471 8.00433L8.27537 7.03169L7.82747 7.24401L8.60471 8.00433Z" fill="#FFCC00"/>
<path d="M8.60507 8.00397L7.80594 7.38179L8.14101 7.01L8.60507 8.00397Z" fill="#FFCC00"/>
<path d="M7.47315 8.00601L8.27343 7.3787L7.94243 7.01L7.47315 8.00601Z" fill="#FFCC00"/>
<path d="M7.47277 8.00571L7.80773 7.03202L8.25226 7.24063L7.47277 8.00571Z" fill="#FFCC00"/>
<path d="M7.12467 6.90175L7.94955 7.48822L8.19093 7.04722L7.12467 6.90175Z" fill="#FFCC00"/>
<path d="M7.12442 6.90196L8.12918 6.92279L8.07076 7.42452L7.12442 6.90196Z" fill="#FFCC00"/>
<path d="M8.95655 6.89964L8.12788 7.48728L7.88878 7.05043L8.95655 6.89964Z" fill="#FFCC00"/>
<path d="M8.95629 6.89919L7.95076 6.92576L8.00644 7.42403L8.95629 6.89919Z" fill="#FFCC00"/>
<path d="M8.04235 6.21941L8.32507 7.20415L7.84728 7.30467L8.04235 6.21941Z" fill="#FFCC00"/>
<path d="M8.04152 6.21905L7.75137 7.20611L8.22842 7.30276L8.04152 6.21905Z" fill="#FFCC00"/>
<path d="M8.95831 12.8371L7.95208 12.8689L8.00531 13.364L8.95831 12.8371Z" fill="#FFCC00"/>
<path d="M8.95905 12.8382L8.127 13.427L7.88994 12.9939L8.95905 12.8382Z" fill="#FFCC00"/>
<path d="M8.60396 13.943L8.27912 12.9714L7.8284 13.1867L8.60396 13.943Z" fill="#FFCC00"/>
<path d="M8.605 13.9422L7.80681 13.3243L8.14519 12.9499L8.605 13.9422Z" fill="#FFCC00"/>
<path d="M7.47373 13.9467L8.2744 13.3175L7.94479 12.9499L7.47373 13.9467Z" fill="#FFCC00"/>
<path d="M7.4731 13.9459L7.80999 12.9718L8.25335 13.179L7.4731 13.9459Z" fill="#FFCC00"/>
<path d="M8.04612 12.1602L8.32193 13.1414L7.84818 13.244L8.04612 12.1602Z" fill="#FFCC00"/>
<path d="M8.04439 12.1595L7.75287 13.1458L8.22505 13.2399L8.04439 12.1595Z" fill="#FFCC00"/>
<path d="M7.12566 12.8417L8.13037 12.8618L8.07177 13.364L7.12566 12.8417Z" fill="#FFCC00"/>
<path d="M7.12593 12.8414L7.95056 13.4277L8.19209 12.9862L7.12593 12.8414Z" fill="#FFCC00"/>
<path d="M11.0483 14.8248L10.042 14.8566L10.0953 15.3518L11.0483 14.8248Z" fill="#FFCC00"/>
<path d="M11.049 14.826L10.217 15.4148L9.97991 14.9817L11.049 14.826Z" fill="#FFCC00"/>
<path d="M10.6939 15.9308L10.3691 14.9592L9.91836 15.1745L10.6939 15.9308Z" fill="#FFCC00"/>
<path d="M10.695 15.93L9.89678 15.3121L10.2352 14.9377L10.695 15.93Z" fill="#FFCC00"/>
<path d="M9.5637 15.9345L10.3644 15.3053L10.0348 14.9377L9.5637 15.9345Z" fill="#FFCC00"/>
<path d="M9.56307 15.9337L9.89995 14.9596L10.3433 15.1668L9.56307 15.9337Z" fill="#FFCC00"/>
<path d="M10.1361 14.148L10.4119 15.1292L9.93815 15.2318L10.1361 14.148Z" fill="#FFCC00"/>
<path d="M10.1344 14.1473L9.84284 15.1336L10.315 15.2277L10.1344 14.1473Z" fill="#FFCC00"/>
<path d="M9.21562 14.8295L10.2203 14.8496L10.1617 15.3518L9.21562 14.8295Z" fill="#FFCC00"/>
<path d="M9.21589 14.8292L10.0405 15.4155L10.2821 14.974L9.21589 14.8292Z" fill="#FFCC00"/>
<path d="M18.7777 9.10791L19.0666 10.0956L18.5851 10.1943L18.7777 9.10791Z" fill="#FFCC00"/>
<path d="M18.7777 9.10791L18.4888 10.0956L18.9703 10.1943L18.7777 9.10791Z" fill="#FFCC00"/>
<path d="M17.8609 9.78817L18.8668 9.81764L18.8124 10.3142L17.8609 9.78817Z" fill="#FFCC00"/>
<path d="M17.8603 9.78897L18.6909 10.3772L18.9288 9.94246L17.8603 9.78897Z" fill="#FFCC00"/>
<path d="M18.2129 10.8944L18.5423 9.92176L18.9902 10.134L18.2129 10.8944Z" fill="#FFCC00"/>
<path d="M18.2125 10.8942L19.0116 10.2719L18.6767 9.90014L18.2125 10.8942Z" fill="#FFCC00"/>
<path d="M19.6946 9.78817L18.6886 9.81764L18.743 10.3142L19.6946 9.78817Z" fill="#FFCC00"/>
<path d="M19.6951 9.78897L18.8645 10.3772L18.6266 9.94246L19.6951 9.78897Z" fill="#FFCC00"/>
<path d="M19.3426 10.8944L19.0131 9.92176L18.5653 10.134L19.3426 10.8944Z" fill="#FFCC00"/>
<path d="M19.3429 10.8942L18.5438 10.2719L18.8788 9.90014L19.3429 10.8942Z" fill="#FFCC00"/>
<path d="M16.3831 5.8067L15.584 5.18452L15.919 4.81273L16.3831 5.8067Z" fill="#FFCC00"/>
<path d="M16.3828 5.80707L16.0535 4.83443L15.6056 5.04674L16.3828 5.80707Z" fill="#FFCC00"/>
<path d="M16.7346 4.70237L15.906 5.29002L15.6669 4.85317L16.7346 4.70237Z" fill="#FFCC00"/>
<path d="M16.7344 4.70192L15.7288 4.72849L15.7845 5.22677L16.7344 4.70192Z" fill="#FFCC00"/>
<path d="M15.8204 4.02215L16.1031 5.00689L15.6254 5.1074L15.8204 4.02215Z" fill="#FFCC00"/>
<path d="M15.8196 4.02179L15.5294 5.00884L16.0065 5.10549L15.8196 4.02179Z" fill="#FFCC00"/>
<path d="M15.2513 5.80874L16.0516 5.18144L15.7206 4.81274L15.2513 5.80874Z" fill="#FFCC00"/>
<path d="M15.2509 5.80844L15.5859 4.83476L16.0304 5.04336L15.2509 5.80844Z" fill="#FFCC00"/>
<path d="M14.9028 4.70449L15.7277 5.29096L15.9691 4.84996L14.9028 4.70449Z" fill="#FFCC00"/>
<path d="M14.9026 4.70469L15.9073 4.72553L15.8489 5.22725L14.9026 4.70469Z" fill="#FFCC00"/>
<path d="M17.3952 8.00433L17.7246 7.03169L18.1725 7.24401L17.3952 8.00433Z" fill="#FFCC00"/>
<path d="M17.3949 8.00397L18.194 7.38179L17.8589 7.01L17.3949 8.00397Z" fill="#FFCC00"/>
<path d="M18.5268 8.00601L17.7265 7.3787L18.0575 7.01L18.5268 8.00601Z" fill="#FFCC00"/>
<path d="M18.5272 8.00571L18.1922 7.03202L17.7477 7.24063L18.5272 8.00571Z" fill="#FFCC00"/>
<path d="M18.8753 6.90175L18.0504 7.48822L17.809 7.04722L18.8753 6.90175Z" fill="#FFCC00"/>
<path d="M18.8755 6.90196L17.8708 6.92279L17.9292 7.42452L18.8755 6.90196Z" fill="#FFCC00"/>
<path d="M17.0434 6.89964L17.8721 7.48728L18.1112 7.05043L17.0434 6.89964Z" fill="#FFCC00"/>
<path d="M17.0436 6.89919L18.0492 6.92576L17.9935 7.42403L17.0436 6.89919Z" fill="#FFCC00"/>
<path d="M17.9576 6.21941L17.6749 7.20415L18.1527 7.30467L17.9576 6.21941Z" fill="#FFCC00"/>
<path d="M17.9584 6.21905L18.2486 7.20611L17.7715 7.30276L17.9584 6.21905Z" fill="#FFCC00"/>
<path d="M17.0416 12.8371L18.0479 12.8689L17.9946 13.364L17.0416 12.8371Z" fill="#FFCC00"/>
<path d="M17.0409 12.8382L17.8729 13.427L18.11 12.9939L17.0409 12.8382Z" fill="#FFCC00"/>
<path d="M17.396 13.943L17.7208 12.9714L18.1715 13.1867L17.396 13.943Z" fill="#FFCC00"/>
<path d="M17.3949 13.9422L18.1931 13.3243L17.8547 12.9499L17.3949 13.9422Z" fill="#FFCC00"/>
<path d="M18.5262 13.9467L17.7255 13.3175L18.0551 12.9499L18.5262 13.9467Z" fill="#FFCC00"/>
<path d="M18.5268 13.9459L18.19 12.9718L17.7466 13.179L18.5268 13.9459Z" fill="#FFCC00"/>
<path d="M17.9538 12.1602L17.678 13.1414L18.1518 13.244L17.9538 12.1602Z" fill="#FFCC00"/>
<path d="M17.9555 12.1595L18.2471 13.1458L17.7749 13.2399L17.9555 12.1595Z" fill="#FFCC00"/>
<path d="M18.8743 12.8417L17.8696 12.8618L17.9282 13.364L18.8743 12.8417Z" fill="#FFCC00"/>
<path d="M18.874 12.8414L18.0494 13.4277L17.8078 12.9862L18.874 12.8414Z" fill="#FFCC00"/>
<path d="M14.9517 14.8248L15.9579 14.8566L15.9047 15.3518L14.9517 14.8248Z" fill="#FFCC00"/>
<path d="M14.9509 14.826L15.783 15.4148L16.02 14.9817L14.9509 14.826Z" fill="#FFCC00"/>
<path d="M15.306 15.9308L15.6309 14.9592L16.0816 15.1745L15.306 15.9308Z" fill="#FFCC00"/>
<path d="M15.305 15.93L16.1032 15.3121L15.7648 14.9377L15.305 15.93Z" fill="#FFCC00"/>
<path d="M16.4362 15.9345L15.6356 15.3053L15.9652 14.9377L16.4362 15.9345Z" fill="#FFCC00"/>
<path d="M16.4369 15.9337L16.1 14.9596L15.6566 15.1668L16.4369 15.9337Z" fill="#FFCC00"/>
<path d="M15.8639 14.148L15.588 15.1292L16.0618 15.2318L15.8639 14.148Z" fill="#FFCC00"/>
<path d="M15.8656 14.1473L16.1571 15.1336L15.6849 15.2277L15.8656 14.1473Z" fill="#FFCC00"/>
<path d="M16.7843 14.8295L15.7796 14.8496L15.8382 15.3518L16.7843 14.8295Z" fill="#FFCC00"/>
<path d="M16.784 14.8292L15.9594 15.4155L15.7179 14.974L16.784 14.8292Z" fill="#FFCC00"/>
</g>
<defs>
<clipPath id="clip0_430_2277">
<rect width="26" height="20" fill="white"/>
</clipPath>
</defs>
</svg>
