<svg width="26" height="23" viewBox="0 0 26 23" fill="none" xmlns="http://www.w3.org/2000/svg">
<g clip-path="url(#clip0_170_1105)">
<path d="M0 3H26V23H0V3Z" fill="white"/>
<path d="M0 3H26V9H0V3Z" fill="black"/>
<path d="M0 17H26V23H0V17Z" fill="#006600"/>
<path d="M9.90395 18.9375L10.0916 19.0625L15.1522 8.94885C15.4481 8.85735 15.6106 8.53259 15.7731 8.20783C15.8815 7.99132 16.3148 7.1253 16.5026 6C15.7519 6.7503 15.3186 7.61632 15.2102 7.83283C15.0477 8.15759 14.8852 8.48235 14.9645 8.82385L9.90395 18.9375Z" fill="black" stroke="black" stroke-width="3.75"/>
<path d="M9.90395 18.9375L10.0916 19.0625L15.1522 8.94885C15.4481 8.85735 15.6106 8.53259 15.7731 8.20783C15.8815 7.99132 16.3148 7.1253 16.5026 6C15.7519 6.7503 15.3186 7.61632 15.2102 7.83283C15.0477 8.15759 14.8852 8.48235 14.9645 8.82385L9.90395 18.9375Z" fill="white"/>
<path d="M16.0961 18.9375L15.9084 19.0625L10.8478 8.94885C10.5519 8.85735 10.3894 8.53259 10.2269 8.20783C10.1185 7.99132 9.6852 7.1253 9.49741 6C10.2481 6.7503 10.6814 7.61632 10.7898 7.83283C10.9523 8.15759 11.1148 8.48235 11.0355 8.82385L16.0961 18.9375Z" fill="black" stroke="black" stroke-width="3.75"/>
<path d="M16.0961 18.9375L15.9084 19.0625L10.8478 8.94885C10.5519 8.85735 10.3894 8.53259 10.2269 8.20783C10.1185 7.99132 9.6852 7.1253 9.49741 6C10.2481 6.7503 10.6814 7.61632 10.7898 7.83283C10.9523 8.15759 11.1148 8.48235 11.0355 8.82385L16.0961 18.9375Z" fill="white"/>
<path d="M0 10V16H10.9417C11.2667 17 12.35 19 13 19C13.65 19 14.7333 17 15.0583 16H26V10H15.0583C14.7333 9 13.65 7 13 7C12.35 7 11.2667 9 10.9417 10H0Z" fill="#BB0000"/>
<path d="M15.0583 16C15.3833 15 15.6 14 15.6 13C15.6 12 15.3833 11 15.0583 10C14.7333 11 14.5167 12 14.5167 13C14.5167 14 14.7333 15 15.0583 16Z" fill="black"/>
<path d="M10.9417 16C10.6167 15 10.4 14 10.4 13C10.4 12 10.6167 11 10.9417 10C11.2667 11 11.4833 12 11.4833 13C11.4833 14 11.2667 15 10.9417 16Z" fill="black"/>
<path d="M13 13.75C13.2393 13.75 13.4333 13.4142 13.4333 13C13.4333 12.5858 13.2393 12.25 13 12.25C12.7607 12.25 12.5667 12.5858 12.5667 13C12.5667 13.4142 12.7607 13.75 13 13.75Z" fill="white"/>
<path d="M13.1083 13.731C13.1083 13.731 13.5417 14.731 13.5417 16.356C13.5417 17.981 13.1083 18.981 13.1083 18.981V13.731Z" fill="white"/>
<path d="M12.8917 12.2686C12.8917 12.2686 12.4583 11.2686 12.4583 9.64355C12.4583 8.01855 12.8917 7.01855 12.8917 7.01855V12.2686Z" fill="white"/>
<path d="M12.8917 13.731C12.8917 13.731 12.4583 14.731 12.4583 16.356C12.4583 17.981 12.8917 18.981 12.8917 18.981V13.731Z" fill="white"/>
<path d="M13.1083 12.2686C13.1083 12.2686 13.5417 11.2686 13.5417 9.64355C13.5417 8.01855 13.1083 7.01855 13.1083 7.01855V12.2686Z" fill="white"/>
</g>
<defs>
<clipPath id="clip0_170_1105">
<rect width="26" height="23" fill="white"/>
</clipPath>
</defs>
</svg>
