<svg width="26" height="26" viewBox="0 0 26 26" fill="none" xmlns="http://www.w3.org/2000/svg">
<path d="M2.88889 3.61133C2.12271 3.61133 1.38791 3.91569 0.846136 4.45746C0.304364 4.99924 0 5.73404 0 6.50022L0 19.5002C0 20.2664 0.304364 21.0012 0.846136 21.543C1.38791 22.0847 2.12271 22.3891 2.88889 22.3891H8.66667V3.61133H2.88889Z" fill="#009A49"/>
<path d="M8.66669 3.61133H17.3334V22.3891H8.66669V3.61133Z" fill="#EEEEEE"/>
<path d="M23.1111 3.61133H17.3333V22.3891H23.1111C23.8773 22.3891 24.6121 22.0847 25.1538 21.543C25.6956 21.0012 26 20.2664 26 19.5002V6.50022C26 5.73404 25.6956 4.99924 25.1538 4.45746C24.6121 3.91569 23.8773 3.61133 23.1111 3.61133Z" fill="#009A49"/>
</svg>
