<svg width="26" height="20" viewBox="0 0 26 20" fill="none" xmlns="http://www.w3.org/2000/svg">
<g clip-path="url(#clip0_430_2268)">
<path d="M0 0H26V20H0" fill="#BD3D44"/>
<path d="M0 2.3042H26ZM0 5.37503H26ZM0 8.45837H26ZM0 11.5417H26ZM0 14.625H26ZM0 17.7084H26Z" fill="black"/>
<path d="M0 1.5332V3.07487H26V1.5332H0ZM0 4.60404V6.1457H26V4.60404H0ZM0 7.68737V9.22904H26V7.68737H0ZM0 10.7707V12.3124H26V10.7707H0ZM0 13.854V15.3957H26V13.854H0ZM0 16.9374V18.479H26V16.9374H0Z" fill="white"/>
<path d="M0 0H14.82V10.7708H0" fill="#192F5D"/>
<path d="M13.5688 9.0835L13.9344 10.2085L13 9.50016H14.1375L13.2032 10.2085L13.5688 9.0835ZM11.1313 9.0835L11.4969 10.2085L10.5625 9.50016H11.7L10.7656 10.2085L11.1313 9.0835ZM8.65315 9.0835L9.01877 10.2085L8.0844 9.50016H9.2219L8.28752 10.2085L8.65315 9.0835ZM6.17502 9.0835L6.54065 10.2085L5.60627 9.50016H6.74377L5.8094 10.2085L6.17502 9.0835ZM3.6969 9.0835L4.06252 10.2085L3.12815 9.50016H4.26565L3.33127 10.2085L3.6969 9.0835ZM1.21877 9.0835L1.5844 10.2085L0.650024 9.50016H1.78752L0.853149 10.2085L1.21877 9.0835ZM12.35 8.00016L12.7157 9.12516L11.7813 8.41683H12.9188L11.9844 9.12516L12.35 8.00016ZM9.8719 8.00016L10.2375 9.12516L9.30315 8.41683H10.4406L9.50627 9.12516L9.8719 8.00016ZM7.4344 8.00016L7.80002 9.12516L6.86565 8.41683H8.00315L7.06877 9.12516L7.4344 8.00016ZM4.95627 8.00016L5.3219 9.12516L4.38752 8.41683H5.52502L4.59065 9.12516L4.95627 8.00016ZM2.47815 8.00016L2.84377 9.12516L1.9094 8.41683H3.0469L2.11252 9.12516L2.47815 8.00016ZM13.5688 6.91683L13.9344 8.04183L13 7.3335H14.1375L13.2032 8.04183L13.5688 6.91683ZM11.1313 6.91683L11.4969 8.04183L10.5625 7.3335H11.7L10.7656 8.04183L11.1313 6.91683ZM8.65315 6.91683L9.01877 8.04183L8.0844 7.3335H9.2219L8.28752 8.04183L8.65315 6.91683ZM6.17502 6.91683L6.54065 8.04183L5.60627 7.3335H6.74377L5.8094 8.04183L6.17502 6.91683ZM3.6969 6.91683L4.06252 8.04183L3.12815 7.3335H4.26565L3.33127 8.04183L3.6969 6.91683ZM1.21877 6.91683L1.5844 8.04183L0.650024 7.3335H1.78752L0.853149 8.04183L1.21877 6.91683ZM12.35 5.87516L12.7157 7.00016L11.7813 6.29183H12.9188L11.9844 7.00016L12.35 5.87516ZM9.8719 5.87516L10.2375 7.00016L9.30315 6.29183H10.4406L9.50627 7.00016L9.8719 5.87516ZM7.4344 5.87516L7.80002 7.00016L6.86565 6.29183H8.00315L7.06877 7.00016L7.4344 5.87516ZM4.95627 5.87516L5.3219 7.00016L4.38752 6.29183H5.52502L4.59065 7.00016L4.95627 5.87516ZM2.47815 5.87516L2.84377 7.00016L1.9094 6.29183H3.0469L2.11252 7.00016L2.47815 5.87516ZM13.5688 4.79183L13.9344 5.91683L13 5.2085H14.1375L13.2032 5.91683L13.5688 4.79183ZM11.1313 4.79183L11.4969 5.91683L10.5625 5.2085H11.7L10.7656 5.91683L11.1313 4.79183ZM8.65315 4.79183L9.01877 5.91683L8.0844 5.2085H9.2219L8.28752 5.91683L8.65315 4.79183ZM6.17502 4.79183L6.54065 5.91683L5.60627 5.2085H6.74377L5.8094 5.91683L6.17502 4.79183ZM3.6969 4.79183L4.06252 5.91683L3.12815 5.2085H4.26565L3.33127 5.91683L3.6969 4.79183ZM1.21877 4.79183L1.5844 5.91683L0.650024 5.2085H1.78752L0.853149 5.91683L1.21877 4.79183ZM12.35 3.7085L12.7157 4.8335L11.7813 4.12516H12.9188L11.9844 4.8335L12.35 3.7085ZM9.8719 3.7085L10.2375 4.8335L9.30315 4.12516H10.4406L9.50627 4.8335L9.8719 3.7085ZM7.4344 3.7085L7.80002 4.8335L6.86565 4.12516H8.00315L7.06877 4.8335L7.4344 3.7085ZM4.95627 3.7085L5.3219 4.8335L4.38752 4.12516H5.52502L4.59065 4.8335L4.95627 3.7085ZM2.47815 3.7085L2.84377 4.8335L1.9094 4.12516H3.0469L2.11252 4.8335L2.47815 3.7085ZM13.5688 2.62516L13.9344 3.75016L13 3.04183H14.1375L13.2032 3.75016L13.5688 2.62516ZM11.1313 2.62516L11.4969 3.75016L10.5625 3.04183H11.7L10.7656 3.75016L11.1313 2.62516ZM8.65315 2.62516L9.01877 3.75016L8.0844 3.04183H9.2219L8.28752 3.75016L8.65315 2.62516ZM6.17502 2.62516L6.54065 3.75016L5.60627 3.04183H6.74377L5.8094 3.75016L6.17502 2.62516ZM3.6969 2.62516L4.06252 3.75016L3.12815 3.04183H4.26565L3.33127 3.75016L3.6969 2.62516ZM1.21877 2.62516L1.5844 3.75016L0.650024 3.04183H1.78752L0.853149 3.75016L1.21877 2.62516ZM12.35 1.54183L12.7157 2.66683L11.7813 1.9585H12.9188L11.9844 2.66683L12.35 1.54183ZM9.8719 1.54183L10.2375 2.66683L9.30315 1.9585H10.4406L9.50627 2.66683L9.8719 1.54183ZM7.4344 1.54183L7.80002 2.66683L6.86565 1.9585H8.00315L7.06877 2.66683L7.4344 1.54183ZM4.95627 1.54183L5.3219 2.66683L4.38752 1.9585H5.52502L4.59065 2.66683L4.95627 1.54183ZM2.47815 1.54183L2.84377 2.66683L1.9094 1.9585H3.0469L2.11252 2.66683L2.47815 1.54183ZM13.5688 0.458496L13.9344 1.5835L13 0.875163H14.1375L13.2032 1.5835L13.5688 0.458496ZM11.1313 0.458496L11.4969 1.5835L10.5625 0.875163H11.7L10.7656 1.5835L11.1313 0.458496ZM8.65315 0.458496L9.01877 1.5835L8.0844 0.875163H9.2219L8.28752 1.5835L8.65315 0.458496ZM6.17502 0.458496L6.54065 1.5835L5.60627 0.875163H6.74377L5.8094 1.5835L6.17502 0.458496ZM3.6969 0.458496L4.06252 1.5835L3.12815 0.875163H4.26565L3.33127 1.5835L3.6969 0.458496ZM1.21877 0.458496L1.5844 1.5835L0.650024 0.875163H1.78752L0.853149 1.5835L1.21877 0.458496Z" fill="white"/>
</g>
<defs>
<clipPath id="clip0_430_2268">
<rect width="26" height="20" fill="white"/>
</clipPath>
</defs>
</svg>
